<svg width="18" height="17" viewBox="0 0 18 17" fill="none" xmlns="http://www.w3.org/2000/svg">
<path d="M13.0716 12.0417V5.66675C13.0716 5.37279 12.8343 5.1355 12.5404 5.1355C12.2464 5.1355 12.0091 5.37279 12.0091 5.66675V12.0417C12.0091 13.7028 10.6597 15.0522 8.9987 15.0522C7.33766 15.0522 5.98828 13.7028 5.98828 12.0417V3.89591C5.98828 2.82279 6.86307 1.948 7.9362 1.948C9.00932 1.948 9.88411 2.82279 9.88411 3.89591V11.5105C9.88411 11.9992 9.48745 12.3959 8.9987 12.3959C8.50995 12.3959 8.11328 11.9992 8.11328 11.5105V4.60425C8.11328 4.31029 7.87599 4.073 7.58203 4.073C7.28807 4.073 7.05078 4.31029 7.05078 4.60425V11.5105C7.05078 12.5836 7.92557 13.4584 8.9987 13.4584C10.0718 13.4584 10.9466 12.5836 10.9466 11.5105V3.89591C10.9466 2.23487 9.59724 0.885498 7.9362 0.885498C6.27516 0.885498 4.92578 2.23487 4.92578 3.89591V12.0417C4.92578 14.2872 6.75328 16.1147 8.9987 16.1147C11.2441 16.1147 13.0716 14.2872 13.0716 12.0417Z" fill="#F4F600"/>
</svg>
