<svg width="650" height="445" viewBox="0 0 650 445" fill="none" xmlns="http://www.w3.org/2000/svg">
<g clip-path="url(#clip0_16889_14626)">
<path d="M145.714 276.83C145.619 276.179 145.396 275.554 145.058 274.989C144.721 274.425 144.275 273.932 143.747 273.541C143.219 273.149 142.619 272.865 141.982 272.706C141.344 272.546 140.682 272.515 140.032 272.612C139.382 272.71 138.758 272.935 138.195 273.274C137.632 273.614 137.142 274.061 136.752 274.591C136.362 275.12 136.08 275.722 135.923 276.361C135.765 277 135.735 277.663 135.835 278.314L157.732 412.149H167.731L145.714 276.83Z" fill="#EBEBEB"/>
<path d="M137.906 278.474L228.171 179.173L228.828 180.262L233.205 187.516L145.311 285.19C144.871 285.679 144.339 286.075 143.746 286.358C143.153 286.641 142.509 286.803 141.853 286.836C141.197 286.87 140.541 286.773 139.922 286.552C139.303 286.331 138.734 285.99 138.247 285.548C137.76 285.107 137.365 284.573 137.085 283.978C136.804 283.384 136.643 282.739 136.611 282.082C136.58 281.425 136.678 280.768 136.9 280.149C137.122 279.53 137.464 278.961 137.906 278.474Z" fill="#EBEBEB"/>
<path d="M144.54 281.046C144.602 281.048 144.693 280.833 144.658 280.42C144.586 279.82 144.288 279.269 143.825 278.881C143.47 278.58 143.043 278.376 142.586 278.289C142.129 278.203 141.657 278.236 141.216 278.386C140.661 278.575 140.179 278.933 139.838 279.41C139.496 279.887 139.312 280.459 139.312 281.046C139.312 281.633 139.496 282.205 139.838 282.682C140.179 283.159 140.661 283.517 141.216 283.705C141.657 283.856 142.129 283.889 142.586 283.802C143.043 283.716 143.47 283.511 143.825 283.21C144.289 282.822 144.587 282.272 144.658 281.671C144.693 281.259 144.602 281.044 144.54 281.046C144.379 281.011 144.377 281.972 143.391 282.64C143.119 282.818 142.809 282.927 142.486 282.96C142.163 282.993 141.836 282.947 141.535 282.827C141.178 282.686 140.872 282.441 140.656 282.123C140.44 281.805 140.325 281.43 140.325 281.046C140.325 280.662 140.44 280.286 140.656 279.969C140.872 279.651 141.178 279.405 141.535 279.264C141.836 279.145 142.163 279.099 142.486 279.132C142.809 279.164 143.119 279.274 143.391 279.451C144.377 280.119 144.379 281.08 144.54 281.046Z" fill="#E0E0E0"/>
<path d="M143.159 272.699C143.055 272.606 142.023 273.565 140.44 275.192C139.484 276.137 138.581 277.135 137.734 278.179C137.162 278.855 136.74 279.644 136.495 280.495C136.25 281.345 136.188 282.238 136.312 283.115C136.541 283.993 137.003 284.793 137.65 285.429C138.297 286.065 139.104 286.513 139.985 286.726C140.68 286.915 141.405 286.962 142.118 286.862C142.831 286.763 143.516 286.52 144.132 286.148C146.159 284.876 146.87 283.579 146.804 283.531C146.679 283.387 145.73 284.519 143.8 285.513C142.7 286.076 141.424 286.189 140.243 285.828C139.541 285.639 138.901 285.27 138.386 284.757C137.87 284.245 137.497 283.606 137.303 282.905C137.21 282.165 137.267 281.413 137.471 280.695C137.675 279.977 138.022 279.308 138.49 278.727C139.324 277.556 140.265 276.555 140.973 275.671C142.42 273.922 143.263 272.793 143.159 272.699Z" fill="#E0E0E0"/>
<path d="M207.353 423.956H125.172C125.172 423.956 135.661 410.86 163.022 410.86C188.509 410.86 203.689 418.366 207.353 423.956Z" fill="#E0E0E0"/>
<path d="M227.654 163.428L223.477 157.153L228.637 153.187L233.071 159.501L227.654 163.428Z" fill="#EBEBEB"/>
<path d="M220.578 167.214L238.566 154.155L255.839 174.953C285.786 179.791 297.862 198.655 297.862 198.655L244.246 239.77C225.891 219.454 234.586 190.432 234.586 190.432L220.578 167.214Z" fill="#F5F5F5"/>
<path d="M234.582 190.436C234.747 190.662 239.638 187.381 245.506 183.107C251.376 178.832 256 175.184 255.835 174.958C255.671 174.731 250.781 178.012 244.911 182.287C239.043 186.561 234.418 190.21 234.582 190.436Z" fill="#E0E0E0"/>
<path d="M237.16 28.3118H131.383V134.237H237.16V28.3118Z" fill="#EBEBEB"/>
<path d="M234.047 31.427H134.492V131.122H234.047V31.427Z" fill="white"/>
<path d="M198.566 66.9617H169.98V95.5873H198.566V66.9617Z" fill="#E0E0E0"/>
<path d="M241.618 28.3411H237.16V134.237H241.618V28.3411Z" fill="#E0E0E0"/>
<path d="M518.538 167.618H412.761V273.544H518.538V167.618Z" fill="#EBEBEB"/>
<path d="M515.426 170.734H415.871V270.428H515.426V170.734Z" fill="white"/>
<path d="M479.941 206.268H451.355V234.894H479.941V206.268Z" fill="#E0E0E0"/>
<path d="M522.997 167.648H518.539V273.544H522.997V167.648Z" fill="#E0E0E0"/>
<path d="M460.346 27.4517L446.649 27.5251L447.013 95.7779L460.711 95.7045L460.346 27.4517Z" fill="#E0E0E0"/>
<path d="M363.455 27.6298L327.984 27.8198L328.186 65.5L363.656 65.3099L363.455 27.6298Z" fill="#EBEBEB"/>
<path d="M398.756 27.4405L363.285 27.6306L363.487 65.3107L398.958 65.1205L398.756 27.4405Z" fill="#F5F5F5"/>
<path d="M328.04 38.2262C351.613 38.4212 375.204 38.3125 398.814 37.9001C398.912 37.8962 399.004 37.8545 399.072 37.7837C399.139 37.7129 399.177 37.6186 399.176 37.5207C399.176 37.4228 399.137 37.329 399.069 37.259C399.001 37.189 398.908 37.1483 398.81 37.1455C375.237 37.0151 351.606 37.1311 328.037 37.579C327.953 37.5824 327.874 37.6182 327.816 37.6788C327.758 37.7395 327.726 37.8203 327.727 37.9042C327.727 37.9881 327.76 38.0685 327.818 38.1286C327.877 38.1887 327.956 38.2237 328.04 38.2262Z" fill="#E0E0E0"/>
<path d="M370.312 64.6814L305.867 65.0271L306.031 95.7336L370.476 95.3878L370.312 64.6814Z" fill="#EBEBEB"/>
<path d="M434.453 64.3374L370.008 64.6831L370.172 95.3893L434.617 95.0435L434.453 64.3374Z" fill="#F5F5F5"/>
<path d="M305.915 73.5672C348.728 74.0524 391.69 73.6172 434.5 72.9313C434.598 72.9274 434.69 72.8857 434.758 72.8149C434.825 72.7441 434.863 72.6499 434.862 72.552C434.862 72.4541 434.823 72.3603 434.755 72.2902C434.687 72.2201 434.594 72.1793 434.497 72.1764C391.681 71.9497 348.717 71.9752 305.912 72.92C305.828 72.9233 305.749 72.9591 305.691 73.0198C305.633 73.0805 305.601 73.1613 305.602 73.2452C305.602 73.3291 305.635 73.4095 305.693 73.4696C305.752 73.5297 305.831 73.5647 305.915 73.5672Z" fill="#E0E0E0"/>
<path d="M531.493 95.7334H281.812V106.734H531.493V95.7334Z" fill="#E0E0E0"/>
<path d="M332.827 101.023H322.691V138.56H332.827V101.023Z" fill="#E0E0E0"/>
<path d="M484.132 101.023H473.996V138.56H484.132V101.023Z" fill="#E0E0E0"/>
<path d="M473.713 1.99997L460.016 2.07349L460.518 95.9449L474.216 95.8714L473.713 1.99997Z" fill="#EBEBEB"/>
<path d="M495.116 19.4742L473.832 19.5886L474.24 95.6608L495.524 95.5463L495.116 19.4742Z" fill="#F5F5F5"/>
<path d="M494.971 34.1303C494.971 34.3342 490.207 34.4996 484.33 34.4996C478.452 34.4996 473.688 34.3342 473.688 34.1303C473.688 33.9263 478.452 33.761 484.33 33.761C490.207 33.761 494.971 33.9263 494.971 34.1303Z" fill="#E0E0E0"/>
<path d="M494.971 30.9344C494.971 31.1382 490.207 31.3036 484.33 31.3036C478.452 31.3036 473.688 31.1382 473.688 30.9344C473.688 30.7304 478.452 30.5652 484.33 30.5652C490.207 30.5652 494.971 30.7304 494.971 30.9344Z" fill="#E0E0E0"/>
<path d="M494.971 84.1013C494.971 84.3051 490.207 84.4705 484.33 84.4705C478.452 84.4705 473.688 84.3051 473.688 84.1013C473.688 83.8973 478.452 83.7319 484.33 83.7319C490.207 83.7319 494.971 83.8973 494.971 84.1013Z" fill="#E0E0E0"/>
<path d="M494.971 80.9055C494.971 81.1093 490.207 81.2746 484.33 81.2746C478.452 81.2746 473.688 81.1093 473.688 80.9055C473.688 80.7016 478.452 80.5361 484.33 80.5361C490.207 80.5361 494.971 80.7016 494.971 80.9055Z" fill="#E0E0E0"/>
<path d="M484.673 73.9327C484.47 73.9327 484.305 66.2576 484.305 56.7921C484.305 47.3236 484.47 39.6501 484.673 39.6501C484.877 39.6501 485.042 47.3236 485.042 56.7921C485.042 66.2576 484.877 73.9327 484.673 73.9327Z" fill="#E0E0E0"/>
<path d="M518.37 38.1553H495.203V95.5749H518.37V38.1553Z" fill="#EBEBEB"/>
<path d="M470.6 18.0269C470.6 18.8066 470.369 19.5688 469.937 20.217C469.504 20.8653 468.889 21.3705 468.17 21.6689C467.45 21.9672 466.659 22.0452 465.895 21.8931C465.131 21.7409 464.43 21.3654 463.88 20.8141C463.329 20.2627 462.954 19.5603 462.802 18.7956C462.65 18.0308 462.728 17.2382 463.026 16.5178C463.324 15.7975 463.829 15.1818 464.476 14.7486C465.124 14.3155 465.885 14.0842 466.663 14.0842C467.18 14.0842 467.692 14.1862 468.17 14.3843C468.648 14.5824 469.082 14.8729 469.447 15.239C469.813 15.6051 470.103 16.0397 470.301 16.5181C470.498 16.9965 470.6 17.5091 470.6 18.0269Z" fill="#E0E0E0"/>
<path d="M467.879 28.8699H465.445V84.7131H467.879V28.8699Z" fill="#E0E0E0"/>
<path d="M132.418 379.44L138.96 422.492H176.966L185.788 380.063L132.418 379.44Z" fill="#E8505B"/>
<path d="M180.473 407.032C180.473 407.155 170.735 407.255 158.724 407.255C146.709 407.255 136.973 407.155 136.973 407.032C136.973 406.908 146.709 406.808 158.724 406.808C170.735 406.808 180.473 406.908 180.473 407.032Z" fill="#FAFAFA"/>
<path d="M180.62 404.914C180.62 405.038 170.815 405.138 158.723 405.138C146.627 405.138 136.824 405.038 136.824 404.914C136.824 404.791 146.627 404.691 158.723 404.691C170.815 404.691 180.62 404.791 180.62 404.914Z" fill="#FAFAFA"/>
<path d="M180.546 402.523C180.546 402.647 170.741 402.746 158.649 402.746C146.553 402.746 136.75 402.647 136.75 402.523C136.75 402.4 146.553 402.3 158.649 402.3C170.741 402.3 180.546 402.4 180.546 402.523Z" fill="#FAFAFA"/>
<path d="M143.325 420.035C142.403 416.453 141.77 412.802 141.434 409.118C141.966 410.89 142.356 412.703 142.599 414.539C142.988 416.348 143.231 418.187 143.325 420.035Z" fill="#FAFAFA"/>
<path d="M145.911 419.578C145.522 416.059 145.282 412.524 145.192 408.985C145.875 412.472 146.117 416.031 145.911 419.578Z" fill="#FAFAFA"/>
<path d="M150.621 419.576C149.73 416.003 149.301 412.331 149.343 408.648C149.692 410.45 149.936 412.271 150.075 414.102C150.362 415.914 150.544 417.742 150.621 419.576Z" fill="#FAFAFA"/>
<path d="M153.933 419.803C153.35 416.152 153.23 412.442 153.574 408.76C153.774 410.593 153.867 412.436 153.852 414.279C153.986 416.117 154.013 417.962 153.933 419.803Z" fill="#FAFAFA"/>
<path d="M159.787 419.578C159.372 416.103 159.253 412.599 159.433 409.104C159.848 412.579 159.966 416.083 159.787 419.578Z" fill="#FAFAFA"/>
<path d="M164.064 419.805C163.796 416.203 163.825 412.585 164.152 408.988C164.42 412.59 164.391 416.208 164.064 419.805Z" fill="#FAFAFA"/>
<path d="M168.074 419.23C168.142 415.452 168.507 411.685 169.166 407.965C169.099 411.743 168.734 415.509 168.074 419.23Z" fill="#FAFAFA"/>
<path d="M173.246 418.666C173.41 415.425 174.104 412.234 175.299 409.218C175.063 410.813 174.737 412.394 174.322 413.953C174.052 415.543 173.693 417.116 173.246 418.666Z" fill="#FAFAFA"/>
<path d="M128.055 370.916V378.971C128.055 379.387 128.137 379.8 128.296 380.185C128.455 380.569 128.688 380.919 128.982 381.214C129.276 381.508 129.625 381.742 130.01 381.901C130.394 382.06 130.806 382.143 131.222 382.143H186.259C186.674 382.143 187.086 382.06 187.471 381.901C187.855 381.742 188.204 381.508 188.498 381.214C188.792 380.919 189.025 380.569 189.184 380.185C189.344 379.8 189.426 379.387 189.426 378.971V370.916H128.055Z" fill="#E8505B"/>
<g opacity="0.4">
<path d="M132.828 382.143L133.285 384.707L184.068 388.331L185.355 382.143H132.828Z" fill="black"/>
</g>
<path d="M136.345 370.956C136.345 370.956 114.948 346.255 117.325 345.362C119.703 344.47 138.722 358.159 138.722 358.159C138.722 358.159 122.377 321.555 125.646 318.876C128.915 316.198 146.151 351.314 146.151 351.314C146.151 351.314 143.477 300.127 146.151 299.532C148.826 298.937 158.633 350.719 158.633 350.719C158.633 350.719 173.195 303.401 177.355 303.401C181.516 303.401 172.898 348.933 172.898 348.933C172.898 348.933 190.134 319.769 192.809 323.638C195.483 327.506 180.624 359.052 180.624 359.052C180.624 359.052 202.319 340.899 203.21 343.279C204.102 345.66 179.733 370.956 179.733 370.956H136.345Z" fill="#455A64"/>
<path d="M133.36 333.756C133.508 333.689 137.303 341.838 141.837 351.953C146.371 362.072 149.926 370.326 149.778 370.393C149.63 370.459 145.835 362.313 141.301 352.194C136.768 342.078 133.212 333.822 133.36 333.756Z" fill="#263238"/>
<path d="M150.644 338.308C150.805 338.297 151.436 345.479 152.052 354.347C152.669 363.219 153.037 370.417 152.875 370.428C152.713 370.44 152.083 363.26 151.466 354.388C150.85 345.52 150.482 338.32 150.644 338.308Z" fill="#263238"/>
<path d="M174.487 315.385C174.471 315.583 174.429 315.778 174.361 315.964C174.235 316.401 174.08 316.939 173.892 317.592C173.444 319.084 172.839 321.1 172.102 323.555C170.593 328.59 168.565 335.562 166.499 343.309C164.435 351.06 162.725 358.117 161.528 363.236C160.946 365.732 160.468 367.782 160.114 369.298C159.952 369.959 159.819 370.502 159.711 370.943C159.676 371.139 159.616 371.329 159.532 371.509C159.527 371.311 159.548 371.112 159.596 370.919C159.674 370.472 159.772 369.921 159.89 369.251C160.155 367.804 160.575 365.717 161.123 363.145C162.217 357.999 163.865 350.917 165.931 343.157C168 335.401 170.094 328.439 171.705 323.432C172.51 320.928 173.184 318.909 173.674 317.521C173.905 316.882 174.095 316.355 174.249 315.928C174.304 315.737 174.384 315.554 174.487 315.385Z" fill="#263238"/>
<path d="M184.798 341.769C184.931 341.862 180.754 348.098 175.47 355.696C170.184 363.297 165.793 369.382 165.659 369.289C165.526 369.196 169.702 362.961 174.988 355.36C180.272 347.762 184.665 341.676 184.798 341.769Z" fill="#263238"/>
<path d="M143.564 370.432C142.88 370.077 142.249 369.626 141.691 369.093C138.846 366.725 136.256 364.066 133.964 361.157C133.447 360.586 133.013 359.943 132.676 359.249C132.812 359.143 135.035 361.84 138.041 364.918C141.036 368.004 143.674 370.298 143.564 370.432Z" fill="#263238"/>
<path d="M156.563 360.619C157.263 363.987 157.576 367.423 157.496 370.862C156.796 367.495 156.483 364.058 156.563 360.619Z" fill="#263238"/>
<path d="M434.569 252.599C438.96 251.782 443.052 249.802 446.419 246.864C449.786 243.926 452.305 240.138 453.714 235.894C455.122 231.65 455.369 227.105 454.428 222.733C453.487 218.361 451.393 214.322 448.363 211.036C447.523 209.976 446.374 209.205 445.076 208.829C442.299 208.263 439.981 210.855 438.331 213.163C434.36 218.715 430.389 224.267 426.418 229.819" fill="#263238"/>
<path d="M430.946 234.627C440.865 227.56 447.207 213.874 448.301 201.733C449.394 189.591 441.571 166.795 436.382 155.767C430.065 142.346 427.452 161.538 422.928 163.883C420.234 165.28 418.717 168.333 418.37 171.352C418.189 174.391 418.504 177.439 419.302 180.376C423.183 198.46 427.065 216.543 430.946 234.627Z" fill="#263238"/>
<path d="M382.719 124.564C362.862 118.058 349.358 126.419 343.278 133.218C337.197 140.018 334.44 149.212 333.382 158.278C332.324 167.343 332.79 176.515 332.244 185.626C331.846 190.879 331.826 196.155 332.183 201.411C332.479 209.076 335.205 222.358 340.188 228.183C344.977 233.783 349.929 238.651 356.701 241.546C359.138 242.588 361.984 243.622 364.329 242.387C366.032 241.49 366.963 239.632 367.772 237.885C382.422 206.218 392.337 172.564 397.199 138.005" fill="#263238"/>
<path d="M406.626 141.91L372.991 134.864L364.938 137.251C346.456 140.536 337.248 163.181 339.73 178.201C342.488 194.888 346.513 215.152 351.289 226.975C360.894 250.747 380.505 249.519 380.505 249.519C380.499 249.481 381.484 256.305 382.766 264.626C383.312 268.171 384.57 271.568 386.464 274.613C388.357 277.658 390.847 280.288 393.782 282.343C396.718 284.399 400.039 285.838 403.545 286.573C407.051 287.309 410.669 287.325 414.182 286.623C420.973 285.264 426.964 281.299 430.875 275.576C434.787 269.853 436.308 262.825 435.115 255.994L416.411 148.921C415.953 146.738 414.694 144.806 412.882 143.508C411.07 142.21 408.837 141.64 406.626 141.91Z" fill="#FFBE9D"/>
<path d="M351.835 194.647C352.018 195.474 352.515 196.197 353.222 196.661C353.929 197.126 354.789 197.296 355.619 197.135C356.029 197.074 356.422 196.932 356.775 196.717C357.129 196.501 357.436 196.217 357.678 195.881C357.921 195.545 358.093 195.164 358.186 194.76C358.279 194.356 358.29 193.937 358.219 193.529C358.037 192.702 357.54 191.98 356.834 191.515C356.128 191.05 355.269 190.879 354.439 191.038C354.029 191.099 353.636 191.241 353.281 191.457C352.927 191.672 352.62 191.956 352.377 192.293C352.135 192.629 351.962 193.011 351.868 193.415C351.775 193.819 351.764 194.238 351.835 194.647Z" fill="#263238"/>
<path d="M347.805 185.529C348.292 185.852 350.278 183.524 353.681 182.746C357.068 181.92 359.969 183.095 360.241 182.593C360.38 182.366 359.808 181.714 358.54 181.172C356.832 180.492 354.957 180.356 353.17 180.784C351.4 181.187 349.803 182.144 348.613 183.516C347.752 184.561 347.57 185.389 347.805 185.529Z" fill="#263238"/>
<path d="M373.56 208.676C373.531 208.479 371.333 208.602 367.806 208.955C366.917 209.066 366.055 209.083 365.772 208.524C365.491 207.643 365.486 206.697 365.757 205.812C366.088 203.519 366.436 201.114 366.798 198.596C368.19 188.344 368.984 179.994 368.572 179.942C368.159 179.889 366.695 188.157 365.303 198.41C364.981 200.933 364.673 203.343 364.379 205.64C364.278 206.704 363.972 207.956 364.716 209.158C364.913 209.435 365.17 209.664 365.468 209.827C365.766 209.99 366.098 210.083 366.437 210.099C366.948 210.118 367.46 210.072 367.96 209.963C371.449 209.351 373.592 208.872 373.56 208.676Z" fill="#263238"/>
<path d="M380.508 249.519C392.152 247.012 402.873 241.318 411.477 233.071C411.477 233.071 406.63 252.209 381.434 255.604L380.508 249.519Z" fill="#EB996E"/>
<path d="M377.082 215.717C377.502 214.683 378.185 213.777 379.063 213.09C379.942 212.403 380.985 211.959 382.089 211.802C382.862 211.647 383.661 211.677 384.421 211.887C385.182 212.098 385.882 212.484 386.466 213.014C387.063 213.603 387.481 214.349 387.672 215.166C387.862 215.983 387.817 216.837 387.542 217.63C387.169 218.463 386.553 219.165 385.776 219.643C384.999 220.12 384.095 220.353 383.184 220.309C381.419 220.144 379.716 219.573 378.207 218.641C377.752 218.439 377.345 218.144 377.011 217.774C376.766 217.105 376.791 216.367 377.082 215.717Z" fill="#EB996E"/>
<path d="M384.114 208.717C383.553 208.813 384.399 212.511 381.844 215.865C379.298 219.227 375.267 219.722 375.357 220.245C375.359 220.489 376.399 220.761 378.07 220.422C380.239 219.952 382.174 218.732 383.533 216.975C384.837 215.287 385.435 213.157 385.2 211.036C384.984 209.458 384.361 208.637 384.114 208.717Z" fill="#263238"/>
<path d="M346.582 175.835C347.358 176.47 349.516 175.126 352.325 174.436C355.109 173.648 357.648 173.753 358.01 172.816C358.16 172.368 357.605 171.68 356.394 171.189C354.792 170.635 353.061 170.571 351.421 171.004C349.782 171.437 348.308 172.348 347.187 173.621C346.374 174.646 346.231 175.519 346.582 175.835Z" fill="#263238"/>
<path d="M388.561 187.682C388.729 188.512 388.566 189.375 388.107 190.086C387.648 190.798 386.93 191.302 386.106 191.491C385.707 191.601 385.29 191.63 384.879 191.576C384.469 191.523 384.073 191.387 383.716 191.178C383.359 190.969 383.047 190.69 382.799 190.358C382.55 190.027 382.371 189.648 382.271 189.246C382.104 188.417 382.267 187.554 382.724 186.843C383.182 186.132 383.899 185.627 384.722 185.437C385.122 185.326 385.539 185.297 385.95 185.351C386.361 185.404 386.757 185.54 387.114 185.749C387.472 185.958 387.784 186.237 388.033 186.569C388.281 186.901 388.461 187.28 388.561 187.682Z" fill="#263238"/>
<path d="M393.526 176.93C393.211 177.422 390.455 176.098 387.029 176.765C383.597 177.382 381.419 179.632 380.967 179.283C380.749 179.132 381.008 178.304 381.949 177.295C383.235 175.98 384.896 175.096 386.703 174.764C388.485 174.415 390.331 174.643 391.974 175.415C393.183 176.023 393.685 176.706 393.526 176.93Z" fill="#263238"/>
<path d="M390.08 166.29C389.626 167.185 387.11 166.831 384.263 167.338C381.398 167.746 379.119 168.869 378.41 168.16C378.09 167.811 378.32 166.957 379.229 166.017C380.471 164.861 382.028 164.101 383.702 163.833C385.376 163.565 387.092 163.801 388.632 164.511C389.789 165.119 390.272 165.859 390.08 166.29Z" fill="#263238"/>
<path d="M376.138 131.563C383.511 126.935 395.856 125.843 403.604 129.811C411.352 133.778 417.06 141.13 420.121 149.287C423.181 157.445 423.326 170.315 422.582 178.998C406.76 164.714 390.108 147.944 374.676 133.238L376.138 131.563Z" fill="#263238"/>
<path d="M368.712 125.115C324.032 126.766 339.839 192.052 339.839 192.052C339.852 166.953 369.115 135.455 369.115 135.455L375.781 133.062L368.712 125.115Z" fill="#263238"/>
<path d="M421.217 191.476C420.798 189.637 421.92 184.814 423.667 184.112C428.332 182.237 437.145 180.609 440.065 192.898C444.056 209.698 426.389 210.244 426.245 209.77C426.133 209.399 422.665 197.825 421.217 191.476Z" fill="#FFBE9D"/>
<path d="M427.604 202.588C427.665 202.516 427.945 202.723 428.492 202.832C429.258 202.964 430.045 202.793 430.688 202.357C432.306 201.283 433.128 198.11 432.491 195.062C432.191 193.612 431.572 192.246 430.677 191.067C430.395 190.579 430 190.168 429.524 189.868C429.048 189.568 428.506 189.388 427.945 189.345C427.588 189.336 427.24 189.452 426.959 189.673C426.679 189.895 426.485 190.207 426.411 190.557C426.297 191.081 426.484 191.391 426.401 191.44C426.365 191.494 425.975 191.245 425.945 190.52C425.94 190.081 426.084 189.653 426.356 189.308C426.735 188.849 427.278 188.557 427.87 188.496C428.591 188.469 429.307 188.627 429.95 188.956C430.593 189.284 431.141 189.773 431.541 190.374C432.601 191.658 433.331 193.183 433.667 194.815C434.364 198.226 433.386 201.806 431.127 203.086C430.708 203.324 430.241 203.465 429.76 203.498C429.279 203.531 428.796 203.456 428.349 203.277C427.731 202.987 427.553 202.632 427.604 202.588Z" fill="#EB996E"/>
<path d="M433.903 147.309C427.493 136.448 417.014 128.405 405.539 123.2C399.384 120.408 392.718 118.338 385.974 118.729C379.228 119.12 372.385 122.312 368.885 128.099L367.883 129.571C378.35 144.866 386.14 157.997 398.552 171.756C403.113 176.812 408.099 195.915 410.141 202.414C417.113 224.608 431.262 232.106 431.262 232.106C458.12 227.32 440.312 158.17 433.903 147.309Z" fill="#263238"/>
<path d="M445.512 246.61C445.42 246.559 446.196 245.333 446.967 243.161C447.41 241.889 447.726 240.576 447.908 239.241C448.109 237.607 448.117 235.954 447.93 234.319C447.541 231.34 446.522 228.478 444.942 225.924C443.72 223.967 442.731 222.912 442.809 222.844C443.081 223.047 443.326 223.284 443.537 223.551C444.163 224.23 444.734 224.959 445.244 225.73C447.945 229.704 449.06 234.548 448.371 239.306C448.163 240.668 447.805 242.003 447.303 243.285C447.117 243.779 446.903 244.261 446.661 244.73C446.495 245.091 446.303 245.44 446.087 245.774C445.933 246.077 445.739 246.358 445.512 246.61Z" fill="white"/>
<path d="M446.893 210.026C446.863 209.929 446.845 209.83 446.837 209.729C446.808 209.505 446.771 209.217 446.725 208.856C446.673 208.473 446.634 207.996 446.548 207.438L446.221 205.517C445.424 201.451 444.12 197.503 442.34 193.763C439.666 188.234 436.238 183.103 432.155 178.516C427.107 172.941 421.524 167.878 415.485 163.399C409.116 158.547 402.802 154.252 397.184 150.164C392.169 146.592 387.344 142.759 382.73 138.68C379.632 135.913 376.73 132.932 374.046 129.761C373.11 128.626 372.399 127.733 371.946 127.104L371.425 126.395C371.361 126.317 371.306 126.233 371.262 126.143C371.338 126.208 371.407 126.282 371.467 126.363C371.611 126.538 371.795 126.761 372.027 127.041C372.505 127.649 373.239 128.52 374.196 129.632C376.929 132.744 379.86 135.677 382.969 138.412C387.606 142.443 392.442 146.239 397.458 149.785C403.083 153.847 409.408 158.132 415.792 162.995C421.858 167.494 427.457 172.59 432.506 178.208C436.6 182.838 440.02 188.024 442.665 193.612C444.428 197.387 445.689 201.378 446.415 205.482C446.52 206.205 446.614 206.851 446.697 207.418C446.768 207.981 446.791 208.461 446.826 208.846C446.852 209.21 446.873 209.499 446.889 209.725C446.902 209.825 446.903 209.926 446.893 210.026Z" fill="white"/>
<path d="M435.474 155.624C435.063 154.787 434.572 153.992 434.009 153.25C433.308 152.415 432.493 151.684 431.587 151.079C430.378 150.286 429.082 149.632 427.726 149.131C424.727 147.955 420.937 147.185 416.826 145.963C412.711 144.768 408.234 143.282 403.62 141.498C395.738 138.451 388.105 134.797 380.787 130.569C377.99 128.931 375.768 127.536 374.254 126.54C373.536 126.055 372.96 125.665 372.525 125.372C372.317 125.245 372.122 125.099 371.941 124.936C372.165 125.032 372.379 125.15 372.581 125.286C373.03 125.56 373.621 125.921 374.36 126.373C375.904 127.316 378.151 128.662 380.965 130.257C388.314 134.381 395.945 137.98 403.802 141.024C408.402 142.803 412.861 144.297 416.958 145.514C421.042 146.755 424.831 147.562 427.857 148.797C429.229 149.326 430.535 150.013 431.748 150.845C432.661 151.482 433.475 152.251 434.163 153.128C434.413 153.447 434.637 153.786 434.831 154.142C434.986 154.394 435.119 154.66 435.227 154.936C435.331 155.157 435.413 155.387 435.474 155.624Z" fill="#455A64"/>
<path d="M359.128 240.974C359.013 240.946 358.901 240.907 358.793 240.857C358.552 240.76 358.233 240.631 357.829 240.468C356.595 239.961 355.391 239.382 354.224 238.736C352.381 237.7 350.624 236.518 348.969 235.202C346.765 233.47 344.745 231.515 342.941 229.368C338.206 223.767 334.889 217.107 333.269 209.951C331.394 201.158 331.791 192.031 334.421 183.434C335.734 178.99 337.558 174.713 339.857 170.69C342.036 166.977 344.474 163.422 347.152 160.052C349.679 156.812 352.185 153.823 354.501 151.005C356.82 148.19 358.921 145.523 360.767 143.035C363.704 139.122 366.199 134.895 368.207 130.431C368.538 129.631 368.87 128.935 369.093 128.307C369.308 127.684 369.492 127.152 369.645 126.712C369.792 126.301 369.907 125.978 369.995 125.733C370.029 125.619 370.075 125.509 370.131 125.404C370.113 125.521 370.084 125.636 370.044 125.748L369.742 126.743C369.602 127.189 369.433 127.728 369.234 128.358C369.026 128.994 368.707 129.699 368.389 130.509C366.442 135.023 363.982 139.297 361.057 143.246C359.223 145.756 357.133 148.443 354.826 151.272C352.523 154.103 350.031 157.1 347.521 160.339C344.868 163.699 342.451 167.241 340.288 170.937C338.014 174.929 336.209 179.171 334.908 183.578C332.301 192.094 331.894 201.133 333.725 209.849C335.31 216.943 338.563 223.555 343.215 229.136C346.347 232.896 350.105 236.085 354.321 238.564C355.835 239.4 357.027 240.024 357.87 240.374C358.265 240.557 358.577 240.7 358.813 240.809C358.923 240.854 359.028 240.909 359.128 240.974Z" fill="#455A64"/>
<path d="M447.885 205.016C447.868 205.425 447.806 205.832 447.702 206.229C447.56 207.005 447.3 208.116 446.955 209.485C446.047 213.058 444.739 216.517 443.056 219.796C442.11 221.595 441.02 223.314 439.796 224.937C438.785 226.25 437.682 227.49 436.496 228.648C435.703 229.433 434.866 230.171 433.989 230.859C433.683 231.132 433.348 231.37 432.99 231.571C432.929 231.497 434.292 230.408 436.241 228.395C437.377 227.215 438.44 225.966 439.423 224.655C440.609 223.038 441.673 221.335 442.607 219.56C444.268 216.307 445.609 212.901 446.61 209.388C446.968 208.113 447.269 207.04 447.51 206.183C447.592 205.782 447.718 205.39 447.885 205.016Z" fill="#455A64"/>
<path d="M536.135 421.944L522.23 333.545C522.23 333.545 504.431 263.993 490.119 255.254C475.807 246.515 438.135 247.87 438.135 247.87L435.138 254.221C432.986 258.781 429.729 262.729 425.665 265.707C421.6 268.684 416.857 270.597 411.866 271.269C406.874 271.942 401.795 271.354 397.089 269.559C392.382 267.763 388.199 264.818 384.92 260.99L369.46 264.802C356.343 267.964 344.934 276.037 337.578 287.362C337.33 287.749 327.013 301.573 326.771 301.97C321.391 310.803 269.839 372.337 269.839 372.337C269.839 372.337 232.324 354.438 230.723 354.697C229.122 354.955 214.367 373.101 214.367 373.101C214.367 373.101 260.8 421.453 280.469 419.162C300.138 416.872 321.749 384.345 321.749 384.345L361.841 345.812C367.493 367.101 385.762 422.03 385.762 422.03L536.135 421.944Z" fill="#E8505B"/>
<g opacity="0.3">
<path d="M309.98 386.163C305.896 381.57 300.161 378.835 294.494 376.463C274.382 368.045 253.148 362.699 232.007 357.383C231.377 357.156 230.692 357.126 230.044 357.299C228.698 357.816 228.635 359.678 228.857 361.105L229.079 362.531L228.145 364.589C240.353 379.941 256.011 392.189 273.841 400.334C278.845 402.621 284.187 404.624 289.681 404.346C296.082 404.021 301.881 400.661 307.396 397.391C309.543 396.118 311.902 394.551 312.339 392.091C312.725 389.922 311.443 387.809 309.98 386.163Z" fill="black"/>
</g>
<path d="M352.936 304.063C352.997 304.277 353.037 304.496 353.054 304.718C353.115 305.2 353.195 305.825 353.294 306.601C353.377 307.42 353.546 308.415 353.72 309.571C353.882 310.73 354.114 312.042 354.381 313.49C355.409 319.292 357.263 327.222 359.509 335.931C361.764 344.642 363.89 352.509 365.286 358.241C365.994 361.105 366.522 363.434 366.86 365.049C367.013 365.817 367.137 366.435 367.232 366.912C367.286 367.127 367.318 367.347 367.328 367.569C367.241 367.364 367.176 367.152 367.132 366.934C367.013 366.463 366.859 365.852 366.667 365.093C366.271 363.493 365.69 361.18 364.939 358.33C363.41 352.579 361.323 344.731 359.017 336.058C356.771 327.343 354.968 319.384 354.028 313.552C353.783 312.096 353.575 310.777 353.44 309.611C353.292 308.448 353.151 307.448 353.098 306.622C353.038 305.841 352.989 305.212 352.952 304.727C352.924 304.507 352.918 304.285 352.936 304.063Z" fill="#263238"/>
<path d="M438.57 368.774C438.073 368.783 437.577 368.748 437.088 368.668C436.611 368.623 436.03 368.553 435.361 368.428C434.692 368.309 433.923 368.201 433.092 367.993C431.132 367.562 429.202 367.002 427.315 366.317C422.682 364.637 418.338 362.244 414.441 359.224C412.853 357.994 411.347 356.661 409.934 355.234C409.313 354.643 408.811 354.05 408.352 353.548C407.889 353.05 407.519 352.595 407.226 352.216C406.897 351.844 406.602 351.444 406.344 351.019C406.719 351.344 407.064 351.701 407.376 352.088C407.691 352.445 408.08 352.878 408.561 353.355C409.036 353.836 409.553 354.407 410.185 354.978C411.622 356.356 413.137 357.65 414.724 358.852C418.614 361.799 422.909 364.166 427.477 365.878C429.34 366.576 431.243 367.166 433.174 367.644C433.994 367.873 434.752 368.004 435.412 368.149C436.072 368.3 436.646 368.398 437.116 368.473C437.608 368.53 438.095 368.63 438.57 368.774Z" fill="#263238"/>
<path d="M438.576 242.634C440.875 239.904 439.831 237.488 438.501 236.43C436.293 234.675 433.658 235.308 431.677 236.897C425.603 241.769 418.605 246.054 412.394 250.748C406.183 255.442 397.944 258.881 390.705 256.024C389.062 255.376 387.541 254.425 385.85 253.917C385.021 253.607 384.129 253.503 383.252 253.615C382.374 253.726 381.536 254.05 380.811 254.558C379.458 255.693 379.239 260.081 380.744 261.003C383.514 268.228 390.186 273.606 397.643 275.633C405.101 277.66 413.205 276.548 420.27 273.415C427.336 270.282 433.428 265.229 438.578 259.46C440.431 257.619 441.833 255.373 442.674 252.898C443.621 249.42 438.576 242.634 438.576 242.634Z" fill="#E8505B"/>
<path d="M440.495 240.408C440.377 240.609 440.239 240.797 440.084 240.971C439.797 241.327 439.385 241.86 438.819 242.517C437.705 243.846 436.038 245.726 433.847 247.926C431.283 250.509 428.529 252.895 425.608 255.065C422.027 257.732 418.131 259.949 414.01 261.666C405.174 265.268 396.238 265.617 390.164 264.349C387.748 263.897 385.398 263.14 383.172 262.096C382.566 261.817 381.976 261.506 381.404 261.163C381.195 261.06 380.997 260.937 380.812 260.795C380.838 260.747 381.675 261.22 383.253 261.916C385.489 262.88 387.831 263.579 390.23 263.997C396.256 265.16 405.082 264.757 413.818 261.196C417.902 259.494 421.767 257.309 425.333 254.687C428.249 252.546 431.011 250.202 433.596 247.67C435.81 245.512 437.513 243.673 438.671 242.387C439.223 241.773 439.667 241.281 440.006 240.905C440.152 240.724 440.316 240.557 440.495 240.408Z" fill="#263238"/>
<path d="M438.758 253.906C438.693 254.056 438.608 254.197 438.504 254.323C438.285 254.631 438.018 255.006 437.694 255.459C436.989 256.445 435.912 257.831 434.534 259.502C427.308 268.216 418.758 275.737 409.199 281.791C407.365 282.945 405.855 283.835 404.788 284.409C404.297 284.671 403.891 284.888 403.559 285.066C403.42 285.153 403.27 285.22 403.113 285.265C403.231 285.152 403.364 285.055 403.508 284.977C403.828 284.777 404.217 284.533 404.689 284.238C405.723 283.613 407.201 282.678 409.004 281.489C418.414 275.296 426.915 267.818 434.26 259.27C435.669 257.633 436.786 256.285 437.538 255.339C437.891 254.909 438.183 254.553 438.422 254.262C438.629 254.019 438.744 253.896 438.758 253.906Z" fill="#263238"/>
<g opacity="0.3">
<path d="M469.19 318.386C470.655 332.137 471.16 345.109 472.624 358.86C472.826 360.75 473.003 362.771 472.108 364.447C470.794 366.908 467.722 367.714 464.992 368.275C457.633 369.788 450.019 372.065 442.66 373.578C453.973 373.359 465.621 372.069 476.933 371.851C477.81 371.834 480.358 371.696 480.358 371.696C480.358 371.696 479.696 368.118 479.508 367.262C475.755 350.197 472.943 335.45 469.19 318.386Z" fill="black"/>
</g>
<g opacity="0.3">
<path d="M362.298 347.168C352.893 335.638 349.793 319.738 352.936 305.186C354.983 320.748 358.817 334.552 362.298 347.168Z" fill="black"/>
</g>
<g opacity="0.3">
<path d="M391.906 350.599C394.99 347.871 397.268 344.348 398.492 340.415C399.716 336.481 399.84 332.287 398.849 328.287C397.789 324.247 395.595 320.554 394.728 316.467C393.813 312.156 394.429 307.69 394.636 303.287C394.843 298.884 394.558 294.209 392.125 290.536C390.781 288.507 388.8 286.806 388.177 284.452C387.59 282.229 388.342 279.9 388.496 277.606C388.619 275.504 388.242 273.403 387.396 271.475C386.55 269.548 385.26 267.848 383.631 266.517C382.666 265.742 381.21 265.122 380.271 265.928C380.007 266.23 379.806 266.581 379.678 266.962C379.551 267.342 379.499 267.743 379.527 268.143C378.345 288.589 377.249 309.681 384.101 328.978C386.72 336.355 390.493 343.446 391.442 351.217" fill="black"/>
</g>
<g opacity="0.3">
<path d="M413.324 261.774C403.462 265.804 391.361 266.355 381.02 260.913L382.109 262.471C386.873 267.245 394.008 269.087 400.73 268.6C407.452 268.113 413.85 265.538 419.873 262.51C424.163 260.51 428.139 257.894 431.675 254.745C435.226 251.563 437.648 247.313 438.577 242.634C431.53 250.633 423.186 257.745 413.324 261.774Z" fill="black"/>
</g>
<path d="M462.89 248.886C462.89 248.886 467.86 267.997 468.209 285.475C468.558 302.953 480.356 371.697 480.356 371.697L418.349 374.791L414.394 410.357C414.394 410.357 484.674 425.632 504.92 424.583C525.166 423.534 533.525 407.766 531.082 384.346C531.082 384.346 516.673 297.086 508.59 276.555C501.272 257.967 488.024 250.898 462.89 248.886Z" fill="#E8505B"/>
<path d="M508.59 276.555C508.59 276.555 508.724 276.89 508.962 277.555C509.202 278.232 509.551 279.219 510.009 280.511C510.842 283.137 511.995 287.039 513.259 292.119C515.835 302.267 519.007 317.085 522.534 335.465C524.298 344.656 526.159 354.736 528.073 365.573C529.011 370.995 529.979 376.596 530.979 382.378C531.091 383.1 531.245 383.827 531.323 384.564C531.381 385.304 531.438 386.045 531.496 386.789C531.544 387.534 531.635 388.28 531.647 389.031C531.662 389.782 531.676 390.535 531.691 391.291C531.732 394.358 531.532 397.424 531.091 400.46C530.938 401.223 530.786 401.988 530.632 402.755L530.401 403.907L530.068 405.039C529.839 405.793 529.636 406.557 529.384 407.308C529.086 408.043 528.787 408.78 528.487 409.52C527.2 412.493 525.378 415.203 523.111 417.516C520.725 419.81 517.912 421.612 514.833 422.821C511.67 423.96 508.359 424.634 505.004 424.824C498.237 425.034 491.415 424.213 484.527 423.345C477.637 422.454 470.672 421.369 463.643 420.163C446.549 417.242 430.032 413.949 414.342 410.598L414.125 410.551L414.15 410.33C415.531 397.959 416.857 386.072 418.119 374.765L418.141 374.57L418.337 374.56C441.775 373.411 462.75 372.382 480.348 371.52L480.183 371.732C476.536 353.931 473.595 339.58 471.564 329.667C470.561 324.721 469.784 320.885 469.254 318.272C468.998 316.978 468.802 315.991 468.667 315.311C468.538 314.644 468.484 314.3 468.484 314.3C468.484 314.3 468.571 314.637 468.717 315.301C468.862 315.976 469.074 316.96 469.353 318.252C469.903 320.86 470.711 324.69 471.753 329.628C473.822 339.533 476.816 353.873 480.529 371.66L480.571 371.862L480.365 371.873C462.769 372.766 441.796 373.831 418.36 375.021L418.578 374.816C417.325 386.124 416.009 398.012 414.639 410.384L414.446 410.116C430.129 413.456 446.645 416.744 463.728 419.662C470.752 420.868 477.712 421.953 484.592 422.844C491.464 423.713 498.29 424.532 504.977 424.327C508.281 424.142 511.541 423.48 514.656 422.362C517.674 421.179 520.43 419.416 522.771 417.172C524.996 414.903 526.786 412.244 528.051 409.327C528.347 408.599 528.643 407.873 528.937 407.15C529.186 406.409 529.387 405.654 529.614 404.911L529.944 403.794L530.173 402.655C530.326 401.896 530.478 401.14 530.629 400.387C531.069 397.377 531.271 394.337 531.234 391.295C531.22 390.544 531.207 389.796 531.193 389.05C531.182 388.304 531.092 387.566 531.046 386.828L530.878 384.622C530.802 383.894 530.651 383.178 530.539 382.452C529.549 376.676 528.589 371.074 527.659 365.646C525.764 354.808 523.923 344.726 522.182 335.533C518.701 317.147 515.583 302.324 513.067 292.167C511.833 287.082 510.713 283.176 509.911 280.543C509.475 279.245 509.142 278.253 508.914 277.573C508.692 276.903 508.59 276.555 508.59 276.555Z" fill="#263238"/>
<path d="M500.122 392.134C500.045 392.175 499.274 390.735 497.824 388.543C494.044 382.816 489.18 377.887 483.508 374.032C481.337 372.554 479.908 371.764 479.95 371.687C480.316 371.805 480.667 371.965 480.996 372.164C481.658 372.493 482.587 373.026 483.705 373.733C489.545 377.46 494.474 382.456 498.125 388.349C498.817 389.477 499.338 390.414 499.659 391.081C499.854 391.413 500.009 391.766 500.122 392.134Z" fill="#263238"/>
<path d="M480.209 259.538C479.817 259.953 479.393 260.336 478.942 260.685C478.425 261.104 477.932 261.552 477.465 262.026C476.914 262.575 476.247 263.159 475.615 263.909C475.286 264.274 474.944 264.654 474.588 265.05C474.234 265.449 473.911 265.903 473.552 266.351C472.815 267.235 472.152 268.271 471.425 269.338C468.389 274.074 466.375 279.392 465.513 284.953C465.35 286.235 465.161 287.45 465.127 288.602C465.1 289.176 465.041 289.73 465.041 290.264C465.046 290.796 465.05 291.308 465.054 291.8C465.031 292.78 465.144 293.66 465.193 294.437C465.229 295.102 465.302 295.765 465.411 296.422C465.517 296.983 465.581 297.551 465.6 298.121C465.429 297.576 465.3 297.018 465.216 296.453C465.071 295.798 464.969 295.135 464.911 294.467C464.793 293.586 464.721 292.699 464.696 291.811C464.681 291.314 464.666 290.797 464.65 290.259C464.639 289.72 464.689 289.16 464.707 288.579C464.723 287.413 464.899 286.182 465.051 284.882C465.871 279.243 467.913 273.851 471.033 269.084C471.779 268.011 472.463 266.972 473.222 266.089C473.593 265.642 473.927 265.19 474.292 264.793C474.66 264.401 475.014 264.024 475.353 263.662C475.961 263.014 476.601 262.398 477.273 261.817C477.759 261.356 478.275 260.927 478.817 260.532C479.254 260.165 479.72 259.833 480.209 259.538Z" fill="#263238"/>
<path d="M390.325 296.994C389.291 294.12 386.778 291.849 386.265 288.838C385.866 286.499 386.754 284.151 386.966 281.788C387.413 276.809 384.805 270.027 383.022 265.358C381.165 260.498 377.503 258.129 381.137 253.906L380.813 252.05C373.976 251.037 366.603 257.616 366.676 264.537C364.213 265.561 362.078 267.243 360.504 269.398C358.929 271.553 357.975 274.1 357.746 276.761C357.516 279.421 358.02 282.094 359.202 284.488C360.384 286.882 362.199 288.905 364.45 290.337C363.616 296.766 362.822 303.536 365.265 309.539C367.708 315.543 374.605 320.254 380.652 317.94C384.781 316.361 387.247 312.154 388.964 308.076C390.443 304.563 391.615 300.581 390.325 296.994Z" fill="#263238"/>
<path d="M379.866 264.331C375.233 262.645 370.122 262.862 365.648 264.934C366.209 264.464 366.85 264.099 367.54 263.857C370.829 262.487 374.497 262.331 377.89 263.418C378.598 263.601 379.267 263.91 379.866 264.331Z" fill="#455A64"/>
<path d="M381.792 293.073C381.807 293.105 381.593 293.232 381.189 293.437C380.617 293.722 380.02 293.956 379.407 294.136C377.373 294.745 375.237 294.938 373.127 294.704C371.017 294.47 368.976 293.814 367.124 292.774C366.565 292.464 366.034 292.105 365.537 291.702C365.188 291.413 365.008 291.242 365.029 291.214C365.083 291.142 365.876 291.744 367.293 292.457C371.012 294.321 375.274 294.794 379.311 293.79C380.849 293.405 381.754 292.991 381.792 293.073Z" fill="#455A64"/>
<path d="M385.092 288.743C385.008 288.79 384.168 287.203 382.482 284.867C381.493 283.502 380.423 282.198 379.279 280.961C376.472 277.93 373.229 275.336 369.657 273.265C368.199 272.421 366.692 271.664 365.145 271C362.497 269.87 360.766 269.4 360.793 269.307C361.212 269.354 361.624 269.444 362.024 269.578C362.418 269.676 362.896 269.81 363.439 270.003C363.984 270.191 364.614 270.381 365.281 270.668C366.865 271.292 368.405 272.024 369.889 272.859C373.533 274.91 376.82 277.539 379.623 280.645C380.764 281.91 381.817 283.251 382.775 284.66C383.202 285.249 383.527 285.822 383.83 286.312C384.138 286.8 384.374 287.238 384.557 287.601C384.775 287.961 384.955 288.344 385.092 288.743Z" fill="#455A64"/>
<path d="M379.182 260.309C379.051 260.392 378.046 258.807 376.306 257.346C374.581 255.867 372.855 255.134 372.916 254.991C374.283 255.369 375.552 256.041 376.634 256.959C377.716 257.877 378.585 259.021 379.182 260.309Z" fill="#455A64"/>
<path d="M385.818 296.354C385.857 296.431 384.595 297.09 382.67 298.333C377.644 301.571 373.31 305.777 369.921 310.707C368.62 312.594 367.923 313.838 367.848 313.796C367.942 313.473 368.079 313.164 368.254 312.877C368.671 312.065 369.127 311.275 369.622 310.509C372.887 305.408 377.288 301.136 382.481 298.028C383.475 297.44 384.301 297 384.888 296.733C385.18 296.566 385.493 296.439 385.818 296.354Z" fill="white"/>
<path d="M368.731 289.502C368.676 289.174 368.665 288.839 368.699 288.507C368.722 287.603 368.805 286.701 368.945 285.807C369.852 279.844 372.599 274.315 376.801 269.994C377.428 269.343 378.097 268.733 378.803 268.168C379.047 267.941 379.32 267.748 379.615 267.594C379.674 267.664 378.587 268.566 377.062 270.24C373.073 274.624 370.384 280.036 369.299 285.866C368.885 288.095 368.823 289.507 368.731 289.502Z" fill="white"/>
<path d="M382.17 311.944C382.09 311.97 381.753 311.029 381.043 309.593C379.195 305.838 376.444 302.602 373.037 300.176C371.735 299.245 370.86 298.762 370.9 298.687C371.734 298.965 372.522 299.367 373.238 299.878C376.832 302.192 379.661 305.519 381.368 309.441C381.758 310.231 382.029 311.074 382.17 311.944Z" fill="#455A64"/>
<path d="M391.026 322.104C389.28 319.342 386.813 316.602 383.562 316.316L373.221 319.741C371.713 321.789 370.789 324.207 370.545 326.74C370.302 329.272 370.748 331.822 371.838 334.12C373.195 336.515 374.839 338.733 376.735 340.726C378.636 342.728 380.048 345.141 380.864 347.779C381.516 350.45 380.878 353.608 378.674 355.249C381.304 354.243 383.543 352.42 385.061 350.046C385.373 352.246 384.918 354.486 383.773 356.388C390.152 354.256 394.639 347.976 395.666 341.32C396.694 334.665 394.623 327.794 391.026 322.104Z" fill="#263238"/>
<path d="M389.831 312.709C389.686 312.291 389.443 311.913 389.123 311.607C388.803 311.301 388.415 311.076 387.991 310.951C386.682 310.675 385.533 311.764 384.519 312.637C382.686 314.189 380.516 315.29 378.182 315.853C375.848 316.416 373.416 316.424 371.078 315.878L370.899 315.845C370.427 316.143 370.039 316.558 369.773 317.05C369.507 317.541 369.371 318.093 369.379 318.652C369.548 319.6 370.03 320.465 370.748 321.107C372.376 322.603 374.491 323.458 376.701 323.514C378.895 323.559 381.077 323.163 383.115 322.349C385.217 321.681 387.107 320.476 388.6 318.852C389.333 318.03 389.834 317.028 390.05 315.948C390.267 314.868 390.191 313.75 389.831 312.709Z" fill="#455A64"/>
<path d="M186.664 291.638L192.616 327.679L245.1 378.271L289.778 401.626L361.139 381.766L362.673 373.471L324.035 347.315L280.47 309.969C280.47 309.969 266.198 268.646 261.234 259.635L186.664 291.638Z" fill="white"/>
<path d="M186.664 291.638C186.664 291.638 187.097 291.436 187.964 291.056C188.843 290.673 190.134 290.111 191.823 289.375C195.233 287.899 200.242 285.732 206.677 282.947C219.6 277.377 238.242 269.34 261.159 259.461L261.32 259.391L261.4 259.544C263.272 263.141 264.816 267.004 266.416 270.97C267.989 274.947 269.56 279.047 271.128 283.272C274.265 291.717 277.45 300.591 280.685 309.894L280.618 309.796C294.036 321.29 308.762 333.905 324.196 347.126L324.174 347.109C336.642 355.547 349.575 364.3 362.815 373.261L362.952 373.354L362.922 373.517C362.829 374.019 362.729 374.564 362.628 375.11C362.212 377.356 361.798 379.595 361.388 381.813L361.359 381.969L361.207 382.011C336.173 388.972 312.153 395.652 289.842 401.856L289.751 401.881L289.668 401.838C273.74 393.501 258.776 385.669 245.002 378.46L244.975 378.445L244.953 378.424C223.582 357.78 205.703 340.507 192.524 327.775L192.492 327.744L192.484 327.701C190.608 316.149 189.142 307.126 188.144 300.981C187.655 297.928 187.28 295.592 187.026 294.008C186.904 293.23 186.811 292.637 186.747 292.231C186.687 291.834 186.664 291.638 186.664 291.638C186.664 291.638 186.708 291.846 186.78 292.248C186.851 292.659 186.954 293.256 187.09 294.04C187.36 295.627 187.758 297.968 188.277 301.027C189.305 307.152 190.815 316.144 192.747 327.657L192.708 327.583C205.915 340.286 223.832 357.52 245.247 378.118L245.198 378.083C258.98 385.278 273.953 393.094 289.889 401.414L289.714 401.395C312.022 395.182 336.04 388.493 361.071 381.522L360.89 381.72C361.3 379.502 361.714 377.263 362.129 375.017C362.23 374.472 362.331 373.927 362.424 373.425L362.531 373.682C349.293 364.718 336.362 355.962 323.896 347.521L323.884 347.513L323.873 347.504C308.449 334.272 293.732 321.646 280.322 310.142L280.275 310.102L280.255 310.043C277.036 300.76 273.857 291.864 270.734 283.419C269.17 279.198 267.607 275.098 266.044 271.119C264.454 267.158 262.912 263.286 261.068 259.727L261.308 259.81C238.398 269.598 219.761 277.56 206.842 283.08C200.376 285.832 195.343 287.974 191.916 289.432C190.208 290.155 188.902 290.707 188.012 291.083C187.129 291.454 186.664 291.638 186.664 291.638Z" fill="#263238"/>
<path d="M280.472 309.969C280.266 310.122 280.046 310.256 279.815 310.37C279.332 310.636 278.688 310.99 277.884 311.432C276.204 312.348 273.755 313.64 270.713 315.207C264.631 318.343 256.154 322.536 246.638 326.839C237.117 331.137 228.355 334.703 221.955 337.125C218.755 338.338 216.154 339.286 214.344 339.907C213.474 340.203 212.779 340.44 212.258 340.617C212.019 340.71 211.772 340.782 211.52 340.832C211.745 340.708 211.98 340.604 212.224 340.521C212.737 340.321 213.421 340.055 214.276 339.722C216.108 339.01 218.675 338.014 221.825 336.79C228.188 334.285 236.917 330.67 246.43 326.376C255.937 322.077 264.431 317.939 270.551 314.887C273.574 313.372 276.036 312.138 277.793 311.257L279.768 310.279C279.993 310.155 280.229 310.052 280.472 309.969Z" fill="#263238"/>
<path d="M323.357 347.116C323.408 347.246 305.931 354.327 284.325 362.928C262.711 371.533 245.153 378.401 245.102 378.271C245.05 378.141 262.524 371.062 284.137 362.457C305.744 353.855 323.305 346.986 323.357 347.116Z" fill="#263238"/>
<path d="M199.431 333.834C199.431 333.834 202.824 332.639 203.528 330.665C204.232 328.691 204.091 327.141 203.528 326.436C202.965 325.731 193.11 321.642 192.125 321.36C191.139 321.078 182.692 320.373 182.269 325.449C182.155 327.687 182.855 329.891 184.241 331.652C184.241 331.652 181.002 337.855 181.002 339.406C181.002 340.957 182.551 343.354 182.41 344.622C182.269 345.891 179.454 348.993 180.439 351.531C181.425 354.068 182.551 354.491 182.551 356.324C182.551 358.157 181.847 359.567 182.551 360.695C183.255 361.822 187.76 367.603 191.28 368.308C194.799 369.013 211.835 371.409 211.835 371.409L214.369 373.101C214.369 373.101 221.83 375.357 225.772 368.731C229.714 362.104 229.01 362.527 229.01 362.527L216.179 350.279C216.179 350.279 217.712 347.315 215.917 345.75C214.99 345.105 213.933 344.671 212.82 344.481C212.82 344.481 213.946 340.252 211.835 338.842C209.723 337.432 199.431 333.834 199.431 333.834Z" fill="#FFBE9D"/>
<path d="M185.332 354.586C185.471 354.517 185.619 354.468 185.772 354.442C186.065 354.367 186.497 354.25 187.059 354.131C188.181 353.878 189.818 353.565 191.859 353.278C197.202 352.544 202.61 352.414 207.981 352.891L208.094 352.901L208.155 352.984C208.259 353.117 208.351 353.26 208.43 353.41C208.625 353.833 208.727 354.293 208.728 354.759C208.729 355.226 208.629 355.686 208.435 356.11C208.082 356.918 207.501 357.605 206.763 358.086C205.407 358.88 203.976 359.537 202.491 360.049C199.775 361.121 197.363 362.073 195.384 362.854L195.489 362.703C195.415 364.193 194.79 365.603 193.738 366.658C193.461 366.934 193.155 367.18 192.824 367.389C192.714 367.469 192.592 367.529 192.462 367.569C192.863 367.245 193.244 366.899 193.605 366.532C194.56 365.477 195.109 364.116 195.154 362.694L195.157 362.585L195.259 362.543C197.224 361.729 199.62 360.737 202.318 359.621C203.763 359.107 205.156 358.457 206.478 357.68C207.136 357.25 207.655 356.638 207.97 355.917C208.134 355.561 208.22 355.173 208.221 354.781C208.223 354.389 208.141 354.001 207.98 353.643C207.917 353.524 207.844 353.411 207.762 353.304L207.936 353.397C202.598 352.928 197.226 353.006 191.904 353.631C189.867 353.871 188.227 354.13 187.096 354.323C186.515 354.45 185.925 354.537 185.332 354.586Z" fill="#EB996E"/>
<path d="M212.906 344.443C212.919 344.449 212.899 344.556 212.801 344.737C212.649 344.998 212.442 345.223 212.194 345.395C211.8 345.67 211.347 345.848 210.872 345.915C210.251 345.989 209.622 345.965 209.009 345.843C206.342 345.345 202.689 344.602 198.649 343.761C195.122 343.024 191.891 342.327 189.416 341.773L189.532 341.762C188.045 342.356 186.794 342.855 185.806 343.25C185.354 343.456 184.882 343.616 184.398 343.728C184.815 343.457 185.258 343.229 185.72 343.047C186.69 342.611 187.919 342.058 189.379 341.401L189.432 341.377L189.496 341.389C191.985 341.872 195.225 342.527 198.753 343.264C202.789 344.104 206.443 344.905 209.073 345.49C210.072 345.8 211.153 345.707 212.085 345.23C212.403 345.019 212.681 344.753 212.906 344.443Z" fill="#EB996E"/>
<path d="M216.179 350.279C216.192 350.284 216.174 350.392 216.086 350.578C215.954 350.849 215.777 351.095 215.561 351.307C214.735 352.059 213.674 352.501 212.559 352.561C209.007 352.802 205.445 352.834 201.889 352.659C199.809 352.574 197.825 352.395 196.038 352.255C194.461 352.112 192.873 352.147 191.304 352.361C190.246 352.397 189.214 352.705 188.309 353.257C187.693 353.681 187.424 354.019 187.389 353.985C187.375 353.973 187.433 353.884 187.558 353.724C187.746 353.492 187.959 353.283 188.192 353.098C188.566 352.802 188.987 352.57 189.437 352.413C190.029 352.22 190.638 352.084 191.256 352.005C192.845 351.737 194.461 351.664 196.067 351.788C197.874 351.903 199.837 352.067 201.912 352.152C206.051 352.33 209.827 352.329 212.523 352.204C213.578 352.181 214.597 351.815 215.427 351.162C215.707 350.894 215.959 350.598 216.179 350.279Z" fill="#EB996E"/>
<path d="M218.368 358.243C216.926 357.606 215.451 357.044 213.951 356.559C212.406 356.241 210.846 356.002 209.277 355.845C210.876 355.579 212.512 355.655 214.079 356.068C215.646 356.482 217.108 357.223 218.368 358.243Z" fill="#EB996E"/>
<path d="M201.298 334.536C200.476 334.422 199.665 334.237 198.875 333.981C197.392 333.599 195.341 333.095 193.054 332.635C190.766 332.177 188.679 331.85 187.164 331.631C186.337 331.562 185.517 331.42 184.715 331.207C185.545 331.131 186.381 331.154 187.206 331.274C191.202 331.635 195.147 332.427 198.974 333.636C199.781 333.844 200.561 334.145 201.298 334.536Z" fill="#EB996E"/>
<path d="M408.785 378.818C408.785 378.818 392.757 365.35 389.689 364.878C386.622 364.405 381.667 363.933 380.487 364.878C379.307 365.823 350.049 373.62 350.049 373.62C348.449 374.553 347.227 376.019 346.596 377.763C346.372 378.465 346.428 379.227 346.751 379.89C347.074 380.553 347.64 381.065 348.331 381.321C350.238 382.042 352.321 382.158 354.296 381.654C353.968 382.47 353.861 383.359 353.985 384.23C354.109 385.101 354.461 385.924 355.004 386.616C356.892 388.979 362.738 387.561 362.738 387.561C362.738 387.561 360.431 393.468 366.094 395.122C366.094 395.122 363.97 396.776 366.094 399.375C368.218 401.974 370.406 404.628 374.588 404.337C378.77 404.046 386.858 404.359 386.858 404.359H401.959C403.247 403.752 404.59 403.27 405.97 402.92C407.386 402.683 414.773 404.306 414.773 404.306L417.558 379.469L408.785 378.818Z" fill="#FFBE9D"/>
<path d="M383.892 375.057C383.515 375.198 383.124 375.296 382.725 375.351L379.526 376.016C376.827 376.586 373.119 377.46 369.032 378.481C364.945 379.502 361.236 380.412 358.531 380.985C357.18 381.274 356.082 381.49 355.319 381.617C354.928 381.71 354.527 381.761 354.125 381.766C354.496 381.61 354.882 381.495 355.278 381.423C356.129 381.212 357.19 380.948 358.451 380.635C361.234 379.931 364.879 379.008 368.911 377.988C373 376.966 376.733 376.145 379.457 375.664C380.819 375.422 381.925 375.248 382.693 375.156C383.088 375.079 383.49 375.046 383.892 375.057Z" fill="#EB996E"/>
<path d="M383.574 384.346C382.561 384.568 381.533 384.713 380.499 384.778C378.596 384.993 375.968 385.284 373.08 385.694C370.191 386.105 367.593 386.579 365.72 386.965C364.717 387.223 363.699 387.417 362.672 387.546C363.627 387.135 364.622 386.824 365.64 386.615C368.069 386.012 370.529 385.536 373.008 385.191C375.91 384.779 378.552 384.544 380.467 384.42C381.498 384.303 382.538 384.278 383.574 384.346Z" fill="#EB996E"/>
<path d="M383.89 394.571C383.069 394.902 382.217 395.149 381.346 395.307C379.272 395.817 377.165 396.18 375.04 396.394C372.894 396.577 370.732 396.404 368.642 395.882C367.768 395.72 366.921 395.435 366.125 395.038C366.997 395.156 367.862 395.32 368.717 395.531C370.783 395.94 372.895 396.06 374.994 395.888C377.456 395.66 379.668 395.242 381.272 394.956C382.131 394.748 383.008 394.619 383.89 394.571Z" fill="#EB996E"/>
<path d="M551.663 422.348H98.0859V441.595H551.663V422.348Z" fill="#455A64"/>
<path d="M98.0842 422.348C98.0842 422.348 98.8551 422.329 100.384 422.319C101.925 422.313 104.202 422.304 107.187 422.291C113.187 422.278 122.026 422.258 133.416 422.233C156.241 422.204 189.286 422.163 230.204 422.111C312.123 422.068 425.557 422.009 551.662 421.944L552 421.944V422.348C552 428.428 552 434.985 552 441.568V442L551.662 442C332.459 441.853 148.412 441.729 98.0843 441.696H98L98.0003 441.595C98.0224 434.984 98.0384 430.166 98.049 426.989C98.0638 423.832 98.0842 422.348 98.0842 422.348C98.0871 423.033 98.1111 428.51 98.1681 441.595L98.0843 441.495C148.412 441.461 332.459 441.338 551.662 441.191L551.323 441.595V441.568C551.323 434.985 551.324 428.428 551.324 422.348L551.662 422.752C425.656 422.687 312.31 422.628 230.455 422.586C189.504 422.534 156.432 422.492 133.588 422.463C122.163 422.438 113.299 422.419 107.28 422.405C104.275 422.393 101.983 422.383 100.432 422.377C98.8873 422.367 98.0842 422.348 98.0842 422.348Z" fill="#263238"/>
<path d="M194.168 422.634C194.13 422.71 194.082 422.78 194.024 422.842C193.919 422.973 193.769 423.174 193.55 423.419C192.885 424.123 192.116 424.72 191.27 425.191C189.905 425.923 188.422 426.406 186.888 426.617C184.864 426.9 182.817 426.987 180.777 426.878C178.31 426.753 175.853 426.479 173.419 426.057C170.649 425.56 167.85 425.236 165.04 425.088C159.095 424.881 152.637 426.39 146.183 428.636C139.71 430.88 133.664 433.433 127.88 434.987C125.146 435.75 122.355 436.288 119.534 436.594C117.067 436.842 114.582 436.837 112.116 436.579C108.543 436.248 105.079 435.172 101.945 433.421C100.808 432.792 99.7521 432.026 98.8008 431.139C98.8798 431.174 98.9535 431.22 99.0198 431.275C99.1827 431.393 99.3816 431.537 99.6251 431.713C100.399 432.276 101.211 432.786 102.054 433.239C105.189 434.896 108.626 435.903 112.158 436.198C114.596 436.426 117.05 436.409 119.484 436.146C122.276 435.823 125.036 435.275 127.739 434.507C133.473 432.938 139.494 430.38 145.997 428.124C152.479 425.869 159.018 424.351 165.058 424.589C167.889 424.75 170.706 425.092 173.494 425.613C175.907 426.05 178.345 426.344 180.793 426.495C182.81 426.624 184.834 426.565 186.84 426.318C188.346 426.134 189.809 425.69 191.164 425.006C192.292 424.391 193.308 423.589 194.168 422.634Z" fill="#263238"/>
<path d="M144.552 422.925C144.126 423.341 143.667 423.72 143.18 424.061C141.869 425.029 140.485 425.893 139.042 426.647C136.879 427.759 134.612 428.654 132.273 429.32C129.389 430.115 126.421 430.566 123.432 430.661C117.986 430.861 112.57 429.777 107.621 427.495C106.118 426.819 104.808 425.779 103.806 424.47C103.55 424.111 103.34 423.721 103.182 423.309C103.12 423.169 103.081 423.019 103.066 422.867C103.335 423.382 103.641 423.876 103.983 424.346C105.02 425.565 106.326 426.526 107.798 427.152C112.717 429.294 118.053 430.308 123.414 430.119C126.359 430.025 129.284 429.595 132.133 428.839C134.448 428.203 136.699 427.356 138.859 426.307C140.305 425.589 141.706 424.782 143.052 423.89C143.526 423.529 144.028 423.207 144.552 422.925Z" fill="#263238"/>
<path d="M250.983 435.124C251.222 435.191 251.458 435.273 251.686 435.371C252.369 435.605 253.069 435.786 253.78 435.91C256.487 436.379 259.272 435.956 261.718 434.705L261.695 434.95C258.823 432.819 255.414 431.53 251.852 431.229C247.34 430.792 242.817 431.933 239.05 434.457C238.808 434.586 238.595 434.763 238.424 434.978C238.254 435.194 238.129 435.441 238.059 435.707C238.061 435.975 238.143 436.236 238.294 436.458C238.445 436.679 238.659 436.85 238.909 436.948C239.46 437.238 240.053 437.44 240.667 437.546C241.306 437.687 241.949 437.828 242.598 437.971C245.193 438.531 247.874 439.089 250.65 439.483C253.483 439.92 256.348 440.109 259.214 440.048C260.687 440.012 262.156 439.876 263.61 439.639C264.342 439.519 265.074 439.381 265.798 439.194C266.524 439.043 267.234 438.82 267.916 438.529C268.975 438.121 269.918 437.459 270.663 436.603C271.006 436.202 271.236 435.716 271.329 435.196C271.422 434.676 271.374 434.141 271.191 433.645C270.739 432.656 269.983 431.837 269.034 431.308C268.079 430.737 267.07 430.259 266.023 429.881C261.978 428.398 257.729 427.543 253.425 427.345C241.13 426.692 228.979 430.253 218.975 437.441C217.591 438.479 216.527 439.299 215.846 439.904C215.514 440.178 215.25 440.396 215.047 440.564C214.96 440.644 214.864 440.715 214.762 440.775C214.835 440.683 214.918 440.598 215.008 440.523C215.202 440.346 215.454 440.114 215.771 439.823C216.429 439.19 217.474 438.342 218.843 437.273C222.8 434.32 227.156 431.946 231.78 430.221C238.695 427.612 246.075 426.462 253.455 426.846C257.817 427.033 262.124 427.89 266.225 429.387C267.307 429.776 268.349 430.269 269.336 430.859C270.386 431.449 271.219 432.36 271.713 433.46C271.928 434.04 271.985 434.668 271.878 435.278C271.772 435.888 271.505 436.459 271.106 436.933C270.304 437.863 269.286 438.581 268.141 439.026C267.43 439.329 266.69 439.562 265.934 439.72C265.195 439.91 264.449 440.05 263.702 440.173C262.223 440.413 260.729 440.551 259.231 440.586C256.332 440.645 253.434 440.45 250.57 440.002C247.773 439.598 245.083 439.031 242.484 438.462C241.835 438.317 241.191 438.173 240.552 438.03C239.888 437.91 239.247 437.688 238.652 437.37C238.342 437.203 238.07 436.973 237.855 436.694C237.63 436.397 237.527 436.026 237.565 435.656C237.642 435.323 237.789 435.009 237.995 434.736C238.202 434.464 238.464 434.237 238.763 434.073C242.631 431.5 247.273 430.355 251.891 430.835C255.52 431.167 258.983 432.513 261.885 434.72L262.068 434.862L261.861 434.965C259.353 436.218 256.501 436.605 253.75 436.064C252.784 435.898 251.85 435.581 250.983 435.124Z" fill="#263238"/>
<path d="M309.349 423.132C309.558 423.424 309.71 423.753 309.796 424.102C310.093 425.034 310.195 426.017 310.096 426.99C309.946 429.471 308.379 432.727 305.678 435.391C304.445 436.688 303.059 437.831 301.551 438.794C300.303 439.574 298.966 440.203 297.57 440.668C296.628 440.976 295.663 441.21 294.685 441.369C294.328 441.448 293.962 441.478 293.598 441.459C293.577 441.36 295.12 441.153 297.435 440.307C298.778 439.803 300.063 439.156 301.268 438.377C302.724 437.413 304.067 436.286 305.27 435.02C307.914 432.41 309.457 429.321 309.702 426.952C309.827 425.668 309.708 424.371 309.349 423.132Z" fill="#263238"/>
<path d="M390.8 440.584C390.143 439.89 389.448 439.233 388.718 438.618C386.665 436.979 384.219 435.909 381.624 435.514C379.827 435.263 378.002 435.314 376.223 435.665C374.147 436.134 372.018 436.324 369.893 436.23C367.564 436.023 365.48 434.658 363.591 433.231C361.702 431.666 359.56 430.433 357.258 429.587C352.697 428.107 347.798 428.033 343.195 429.375C339.458 430.467 335.938 432.198 332.789 434.491C330.665 436.014 328.649 437.684 326.756 439.488C326.12 440.097 325.609 440.586 325.217 440.961C325.048 441.145 324.862 441.312 324.66 441.459C324.799 441.253 324.958 441.061 325.135 440.886C325.458 440.522 325.951 439.999 326.602 439.339C328.447 437.466 330.438 435.741 332.554 434.182C335.714 431.813 339.269 430.023 343.053 428.895C347.759 427.494 352.778 427.558 357.448 429.077C359.803 429.942 361.994 431.205 363.924 432.81C365.809 434.241 367.776 435.529 369.953 435.734C372.032 435.834 374.115 435.661 376.149 435.221C377.977 434.881 379.85 434.852 381.688 435.135C384.335 435.57 386.814 436.718 388.859 438.457C389.611 439.063 390.265 439.78 390.8 440.584Z" fill="#263238"/>
<path d="M463.524 422.532C463.379 422.766 463.213 422.986 463.028 423.19C462.542 423.812 462.025 424.409 461.478 424.979C459.476 427.107 457.257 429.021 454.857 430.688C451.292 433.207 447.435 435.283 443.369 436.868C440.965 437.83 438.487 438.597 435.961 439.161C433.242 439.799 430.464 440.146 427.673 440.196C422.276 440.157 416.938 439.079 411.948 437.022C407.894 435.406 404.055 433.293 400.52 430.732C398.144 429.035 395.942 427.106 393.946 424.974C393.217 424.244 392.746 423.596 392.393 423.188C392.207 422.985 392.04 422.765 391.894 422.532C392.106 422.71 392.302 422.906 392.479 423.118C392.86 423.503 393.355 424.126 394.105 424.83C396.148 426.891 398.374 428.764 400.755 430.423C404.291 432.918 408.114 434.978 412.141 436.559C417.075 438.563 422.342 439.613 427.666 439.653C430.417 439.604 433.156 439.266 435.837 438.644C438.339 438.092 440.793 437.343 443.176 436.404C447.217 434.853 451.06 432.83 454.626 430.376C457.029 428.748 459.27 426.892 461.319 424.835C462.072 424.134 462.561 423.505 462.941 423.12C463.118 422.907 463.313 422.71 463.524 422.532Z" fill="#263238"/>
<path d="M453.135 422.348C453.145 422.364 453.012 422.468 452.749 422.651C452.483 422.831 452.098 423.108 451.574 423.424C450.106 424.337 448.589 425.17 447.031 425.919C444.716 427.051 442.316 428 439.853 428.755C436.824 429.728 433.668 430.252 430.487 430.308C424.713 430.185 419.037 428.793 413.859 426.231C412.3 425.482 410.795 424.624 409.355 423.664C408.84 423.334 408.469 423.039 408.21 422.85C407.954 422.656 407.825 422.547 407.837 422.532C408.401 422.817 408.947 423.136 409.474 423.487C410.947 424.371 412.469 425.172 414.032 425.886C419.187 428.312 424.792 429.634 430.487 429.766C433.613 429.709 436.715 429.208 439.701 428.278C442.149 427.55 444.541 426.647 446.859 425.574C448.838 424.663 450.399 423.84 451.461 423.243C452 422.909 452.559 422.61 453.135 422.348Z" fill="#263238"/>
<path d="M499.254 424.319C499.08 424.344 498.904 424.346 498.73 424.323C498.325 424.298 497.835 424.268 497.244 424.231C496.915 424.207 496.558 424.181 496.174 424.153C495.776 424.15 495.35 424.147 494.897 424.143C493.981 424.133 492.938 424.103 491.788 424.194C491.211 424.224 490.609 424.255 489.983 424.288C489.356 424.359 488.707 424.432 488.036 424.508C486.686 424.621 485.27 424.931 483.769 425.174C477.308 426.482 471.105 428.841 465.406 432.158C464.128 432.961 462.873 433.668 461.794 434.464C461.245 434.847 460.715 435.217 460.202 435.575C459.715 435.957 459.246 436.326 458.796 436.679C457.881 437.361 457.126 438.059 456.449 438.658C456.113 438.954 455.797 439.232 455.502 439.491C455.234 439.759 454.984 440.008 454.754 440.238C454.336 440.646 453.99 440.983 453.704 441.262C453.588 441.391 453.455 441.503 453.309 441.595C453.392 441.446 453.497 441.309 453.62 441.189C453.885 440.891 454.208 440.529 454.596 440.093C454.817 439.852 455.056 439.59 455.313 439.309C455.6 439.038 455.907 438.748 456.233 438.439C456.894 437.814 457.637 437.092 458.543 436.385C458.989 436.02 459.454 435.64 459.938 435.244C460.448 434.876 460.976 434.494 461.523 434.1C462.601 433.28 463.856 432.552 465.139 431.731C470.864 428.332 477.132 425.948 483.667 424.684C485.186 424.452 486.617 424.157 487.983 424.062C488.661 423.996 489.317 423.932 489.95 423.871C490.582 423.85 491.19 423.83 491.773 423.81C492.818 423.766 493.863 423.776 494.906 423.84C495.362 423.859 495.79 423.878 496.19 423.894C496.575 423.94 496.933 423.982 497.263 424.021C497.852 424.098 498.341 424.162 498.744 424.215C498.918 424.226 499.089 424.261 499.254 424.319Z" fill="#263238"/>
<path d="M398.95 440.198C398.209 439.163 397.373 438.199 396.454 437.318C393.82 434.997 390.695 433.303 387.314 432.361C384.976 431.683 382.592 431.173 380.182 430.833C377.581 430.432 374.778 430.118 371.843 429.626C368.779 429.089 365.754 428.353 362.786 427.422C359.632 426.406 356.401 425.649 353.124 425.159C346.74 424.529 340.297 425.393 334.303 427.681C331.686 428.639 329.13 429.754 326.647 431.018C324.301 432.184 322.15 433.336 320.197 434.406C316.293 436.55 313.186 438.374 311.044 439.643C310.005 440.26 309.183 440.749 308.579 441.108C308.32 441.259 308.108 441.382 307.934 441.483C307.863 441.531 307.785 441.569 307.703 441.596C307.698 441.588 307.765 441.534 307.902 441.437C308.068 441.323 308.27 441.185 308.518 441.017C309.063 440.653 309.873 440.125 310.928 439.464C313.036 438.14 316.115 436.263 320.001 434.073C321.944 432.98 324.089 431.807 326.434 430.619C328.925 429.327 331.493 428.189 334.124 427.213C340.191 424.867 346.723 423.98 353.195 424.621C356.502 425.115 359.763 425.882 362.944 426.914C365.89 427.845 368.892 428.586 371.932 429.134C374.844 429.636 377.646 429.967 380.256 430.39C382.685 430.75 385.084 431.287 387.435 431.996C390.853 432.982 393.993 434.753 396.607 437.168C397.554 438.037 398.346 439.062 398.95 440.198Z" fill="#263238"/>
<path d="M296.787 422.634C296.827 423.044 296.805 423.459 296.721 423.863C296.557 424.978 296.259 426.068 295.834 427.111C294.439 430.637 292.008 433.655 288.863 435.768C285.615 437.714 282.146 439.264 278.53 440.383C277.149 440.829 276.019 441.148 275.231 441.346C274.829 441.477 274.414 441.561 273.992 441.596C274.367 441.403 274.761 441.252 275.168 441.144C276.041 440.84 277.121 440.465 278.398 440.022C281.938 438.808 285.342 437.231 288.557 435.314C291.608 433.249 294.005 430.353 295.468 426.968C296.036 425.566 296.478 424.115 296.787 422.634Z" fill="#263238"/>
<path d="M191.492 441.596C191.827 441.218 192.196 440.873 192.596 440.566C193.326 439.922 194.428 439.044 195.825 438.001C199.501 435.313 203.367 432.895 207.393 430.769C212.107 428.254 216.51 426.244 219.706 424.819C221.305 424.108 222.606 423.547 223.509 423.169C223.968 422.947 224.446 422.767 224.937 422.634C224.516 422.917 224.069 423.161 223.602 423.36C222.627 423.832 221.376 424.439 219.876 425.165C216.725 426.678 212.358 428.739 207.663 431.243C203.66 433.367 199.786 435.726 196.061 438.309C194.641 439.307 193.505 440.137 192.735 440.729C192.349 441.056 191.933 441.346 191.492 441.596Z" fill="#263238"/>
<path d="M212.861 423.421C212.856 423.484 211.813 423.291 209.935 423.429C207.295 423.692 204.728 424.449 202.368 425.662C199.336 427.096 196.137 429.475 192.538 432.063C190.654 433.439 188.676 434.683 186.619 435.784C184.366 436.929 181.991 437.816 179.54 438.429C174.785 439.513 169.927 440.079 165.05 440.119C160.566 440.246 156.537 440.159 153.161 440.294C150.497 440.37 147.841 440.622 145.21 441.049C144.282 441.215 143.562 441.352 143.078 441.464C142.833 441.531 142.582 441.575 142.328 441.596C142.561 441.493 142.802 441.414 143.05 441.358C143.527 441.212 144.242 441.041 145.169 440.841C147.8 440.331 150.466 440.02 153.144 439.911C156.532 439.727 160.569 439.774 165.033 439.62C169.868 439.552 174.683 438.977 179.398 437.905C181.808 437.302 184.144 436.434 186.362 435.315C188.401 434.231 190.363 433.009 192.236 431.659C195.836 429.103 199.096 426.728 202.194 425.318C204.607 424.117 207.232 423.404 209.92 423.219C210.651 423.185 211.383 423.209 212.11 423.289C212.364 423.309 212.616 423.353 212.861 423.421Z" fill="#263238"/>
<path d="M509.91 441.596C510.245 441.218 510.614 440.873 511.014 440.566C511.744 439.922 512.846 439.044 514.243 438.001C517.919 435.313 521.785 432.895 525.811 430.769C530.525 428.254 534.928 426.244 538.124 424.819C539.723 424.108 541.024 423.547 541.927 423.169C542.386 422.947 542.864 422.767 543.355 422.634C542.934 422.917 542.487 423.161 542.02 423.36C541.045 423.832 539.794 424.439 538.294 425.165C535.143 426.678 530.776 428.739 526.081 431.243C522.078 433.367 518.204 435.726 514.479 438.309C513.059 439.307 511.922 440.137 511.153 440.729C510.767 441.056 510.351 441.346 509.91 441.596Z" fill="#263238"/>
<path d="M531.279 423.421C531.274 423.484 530.231 423.291 528.353 423.429C525.713 423.692 523.146 424.449 520.786 425.662C517.754 427.096 514.555 429.475 510.956 432.063C509.072 433.439 507.094 434.683 505.037 435.784C502.784 436.929 500.409 437.816 497.957 438.429C493.202 439.513 488.344 440.079 483.468 440.119C478.984 440.246 474.955 440.159 471.579 440.294C468.915 440.37 466.259 440.622 463.628 441.049C462.7 441.215 461.98 441.352 461.496 441.464C461.251 441.531 461 441.575 460.746 441.596C460.979 441.493 461.22 441.414 461.468 441.358C461.945 441.212 462.66 441.041 463.587 440.841C466.218 440.331 468.884 440.02 471.562 439.911C474.95 439.727 478.987 439.774 483.451 439.62C488.286 439.552 493.1 438.977 497.816 437.905C500.226 437.302 502.562 436.434 504.78 435.315C506.819 434.231 508.781 433.009 510.654 431.659C514.254 429.103 517.514 426.728 520.612 425.318C523.024 424.117 525.65 423.404 528.338 423.219C529.069 423.185 529.801 423.209 530.528 423.289C530.782 423.309 531.033 423.353 531.279 423.421Z" fill="#263238"/>
<path d="M495.747 422.271C495.747 422.421 476.79 422.543 453.412 422.543C430.026 422.543 411.074 422.421 411.074 422.271C411.074 422.122 430.026 422 453.412 422C476.79 422 495.747 422.122 495.747 422.271Z" fill="#263238"/>
<path d="M273.504 164.629C297.468 160.598 313.631 137.876 309.605 113.878C305.58 89.8805 282.89 73.6945 258.926 77.7257C234.962 81.7569 218.799 104.479 222.824 128.476C226.85 152.474 249.54 168.66 273.504 164.629Z" fill="white"/>
<path d="M310.263 156.509C310.267 156.555 309.782 156.547 308.976 156.808C307.844 157.195 306.857 157.922 306.151 158.889C305.663 159.543 305.325 160.298 305.162 161.098C304.989 162.015 305.085 162.963 305.439 163.827C305.797 164.844 306.457 165.726 307.331 166.356C308.205 166.986 309.251 167.333 310.327 167.35C311.404 167.367 312.46 167.054 313.353 166.452C314.247 165.85 314.935 164.988 315.325 163.983C315.706 163.131 315.832 162.187 315.688 161.265C315.55 160.459 315.236 159.694 314.768 159.025C314.093 158.036 313.13 157.279 312.011 156.856C311.213 156.569 310.728 156.562 310.734 156.516C310.849 156.498 310.966 156.497 311.081 156.515C311.223 156.519 311.363 156.536 311.5 156.568C311.691 156.597 311.879 156.643 312.062 156.705C313.063 157.034 313.958 157.625 314.654 158.417C315.351 159.209 315.824 160.172 316.024 161.208C316.194 162.197 316.072 163.213 315.672 164.133C315.238 165.149 314.533 166.026 313.633 166.666C312.684 167.395 311.516 167.781 310.32 167.762C309.124 167.743 307.97 167.32 307.044 166.562C306.165 165.893 305.488 164.995 305.086 163.966C304.716 163.034 304.626 162.014 304.828 161.031C305.06 160.002 305.563 159.054 306.284 158.284C307.005 157.515 307.919 156.953 308.93 156.655C309.114 156.599 309.304 156.56 309.495 156.536C309.634 156.509 309.774 156.496 309.915 156.496C310.031 156.482 310.149 156.486 310.263 156.509Z" fill="#263238"/>
<path d="M310.084 127.948C310.084 127.948 310.095 127.703 310.137 127.229C310.182 126.745 310.247 126.044 310.332 125.127C310.377 124.665 310.427 124.149 310.481 123.58C310.51 123.009 310.485 122.382 310.49 121.704C310.488 121.026 310.486 120.296 310.483 119.516C310.492 119.113 310.469 118.71 310.414 118.311C310.371 117.897 310.328 117.472 310.283 117.034C309.899 112.771 308.871 108.59 307.233 104.636C305.105 99.3809 301.985 94.5857 298.044 90.5129C297.494 89.9529 296.937 89.3863 296.374 88.813C295.778 88.2751 295.141 87.7682 294.516 87.2353C294.202 86.9712 293.885 86.7057 293.567 86.4388C293.256 86.16 292.926 85.9042 292.578 85.6734C291.886 85.1987 291.186 84.7191 290.48 84.2344C290.126 83.9945 289.775 83.7432 289.412 83.509C289.033 83.3006 288.652 83.091 288.27 82.8804C287.504 82.4592 286.732 82.0338 285.952 81.6045C285.161 81.1995 284.315 80.8865 283.488 80.5178C283.071 80.3397 282.652 80.1607 282.232 79.9809C282.021 79.8937 281.814 79.7945 281.598 79.717L280.939 79.5108C279.169 78.89 277.359 78.3914 275.521 78.0186C274.586 77.8408 273.652 77.6021 272.695 77.4695C271.732 77.3712 270.762 77.2722 269.785 77.1724C269.296 77.1314 268.807 77.0526 268.313 77.0419L266.824 77.041C265.828 77.0521 264.823 77.0133 263.816 77.0648C261.774 77.2012 259.743 77.4719 257.737 77.8751C257.229 77.9775 256.719 78.0801 256.208 78.1829C255.953 78.237 255.696 78.2804 255.442 78.3431L254.691 78.5732C253.688 78.8803 252.679 79.1891 251.664 79.4996C250.666 79.8574 249.693 80.3034 248.698 80.7043C248.207 80.9216 247.693 81.0918 247.219 81.3488L245.786 82.1134C243.848 83.1373 241.979 84.2886 240.192 85.5596C239.331 86.257 238.467 86.9579 237.599 87.662L236.947 88.1906C236.741 88.3799 236.545 88.5816 236.343 88.7769L235.139 89.9606L233.93 91.1494L232.83 92.4506L231.731 93.7613L231.18 94.4187C231.009 94.6485 230.853 94.8896 230.689 95.1248C230.04 96.0713 229.389 97.0216 228.735 97.9756C228.177 98.9887 227.616 100.006 227.054 101.027C222.678 109.503 221.188 119.179 222.811 128.582C223.04 129.725 223.268 130.864 223.496 131.999C223.833 133.106 224.169 134.209 224.503 135.308L224.758 136.13L225.086 136.923L225.741 138.505L226.397 140.077L227.194 141.576L227.986 143.068L228.385 143.81L228.848 144.51C229.465 145.444 230.078 146.373 230.689 147.298C232.011 149.049 233.448 150.711 234.989 152.272L236.125 153.433C236.5 153.822 236.94 154.139 237.342 154.494C238.171 155.176 238.964 155.895 239.808 156.537C240.683 157.14 241.552 157.738 242.417 158.333L243.064 158.78C243.287 158.916 243.52 159.035 243.747 159.163C244.204 159.416 244.659 159.667 245.113 159.918C246.905 160.907 248.76 161.778 250.667 162.523C251.612 162.876 252.582 163.142 253.528 163.453C254.004 163.603 254.477 163.752 254.949 163.901C255.423 164.04 255.913 164.112 256.392 164.22C257.354 164.42 258.309 164.618 259.256 164.814C260.209 164.976 261.172 165.03 262.117 165.143C263.982 165.341 265.858 165.411 267.733 165.353L268.423 165.355C268.652 165.345 268.879 165.313 269.107 165.294C269.562 165.249 270.015 165.205 270.466 165.16C271.366 165.058 272.266 165.015 273.143 164.867C274.015 164.692 274.88 164.519 275.737 164.348C276.165 164.263 276.591 164.178 277.015 164.093C277.429 163.97 277.841 163.846 278.251 163.723C279.071 163.474 279.882 163.228 280.685 162.984C281.086 162.868 281.478 162.724 281.858 162.552C282.242 162.393 282.623 162.235 283.003 162.078C283.759 161.758 284.519 161.467 285.248 161.133C285.958 160.756 286.659 160.384 287.352 160.016C292.334 157.32 296.75 153.687 300.359 149.317C300.759 148.838 301.163 148.376 301.539 147.905C301.881 147.409 302.216 146.922 302.546 146.444C302.876 145.966 303.199 145.498 303.515 145.039C303.67 144.807 303.839 144.587 303.977 144.352C304.11 144.113 304.241 143.876 304.371 143.642C304.889 142.706 305.385 141.811 305.859 140.956C306.308 140.09 306.631 139.215 306.993 138.414C307.168 138.01 307.337 137.618 307.502 137.237C307.674 136.872 307.818 136.495 307.93 136.108C308.167 135.365 308.388 134.67 308.594 134.024C308.793 133.376 309.006 132.786 309.15 132.233C309.269 131.674 309.376 131.167 309.473 130.713C309.667 129.813 309.816 129.125 309.919 128.649C310.021 128.185 310.084 127.948 310.084 127.948C310.084 127.948 310.049 128.189 309.96 128.657C309.866 129.134 309.731 129.826 309.554 130.73C309.463 131.187 309.361 131.697 309.249 132.259C309.111 132.814 308.905 133.408 308.711 134.059C308.51 134.709 308.295 135.408 308.064 136.156C307.953 136.545 307.813 136.924 307.642 137.291C307.48 137.675 307.313 138.07 307.141 138.477C306.782 139.283 306.464 140.164 306.018 141.036C305.548 141.896 305.055 142.798 304.539 143.742C304.41 143.977 304.28 144.216 304.148 144.457C304.01 144.694 303.842 144.915 303.688 145.149C303.372 145.612 303.05 146.085 302.721 146.566C302.392 147.048 302.057 147.539 301.716 148.039C301.34 148.514 300.936 148.98 300.536 149.464C296.925 153.875 292.495 157.545 287.491 160.271C286.795 160.644 286.09 161.021 285.377 161.402C284.643 161.741 283.879 162.036 283.118 162.36C282.737 162.519 282.353 162.679 281.967 162.84C281.584 163.014 281.19 163.16 280.786 163.278C279.978 163.526 279.162 163.776 278.338 164.029C277.925 164.153 277.512 164.288 277.093 164.405C276.666 164.491 276.237 164.578 275.806 164.665C274.943 164.839 274.073 165.015 273.194 165.192C272.311 165.344 271.404 165.39 270.497 165.494C270.043 165.54 269.587 165.586 269.128 165.632C268.899 165.652 268.67 165.684 268.439 165.694L267.744 165.694C265.855 165.756 263.964 165.689 262.084 165.493C261.13 165.382 260.16 165.328 259.2 165.167C258.244 164.97 257.281 164.772 256.311 164.573C255.828 164.465 255.334 164.392 254.856 164.253C254.38 164.104 253.902 163.954 253.423 163.804C252.468 163.492 251.49 163.225 250.536 162.871C248.612 162.121 246.74 161.246 244.931 160.251C244.473 159.998 244.013 159.745 243.553 159.491C243.324 159.362 243.088 159.242 242.864 159.104L242.21 158.655C241.337 158.056 240.459 157.453 239.576 156.846C238.724 156.199 237.922 155.476 237.086 154.788C236.68 154.43 236.237 154.11 235.858 153.719L234.71 152.549C233.153 150.975 231.703 149.299 230.368 147.533C229.751 146.601 229.131 145.664 228.508 144.722L228.04 144.016L227.638 143.268L226.837 141.763L226.033 140.25L225.369 138.664L224.707 137.068L224.376 136.267L224.118 135.438C223.78 134.33 223.441 133.217 223.101 132.099C222.87 130.954 222.639 129.804 222.407 128.65C220.768 119.16 222.271 109.394 226.69 100.84C227.258 99.8097 227.824 98.7834 228.388 97.7609C229.048 96.7982 229.706 95.8394 230.362 94.8844C230.527 94.6469 230.685 94.4038 230.857 94.172L231.414 93.5087L232.524 92.1864L233.634 90.8745L234.855 89.6751L236.071 88.4815C236.274 88.2847 236.472 88.0812 236.68 87.8905L237.338 87.3573C238.215 86.6475 239.088 85.9411 239.956 85.238C241.76 83.9567 243.647 82.7967 245.604 81.7655L247.049 80.9959C247.529 80.7372 248.047 80.5654 248.542 80.3468C249.546 79.9432 250.528 79.4946 251.535 79.135C252.56 78.8226 253.578 78.5122 254.59 78.2036L255.348 77.9728C255.604 77.9098 255.864 77.8661 256.121 77.8118C256.637 77.7086 257.151 77.6056 257.664 77.5029C259.688 77.0988 261.736 76.8287 263.796 76.6943C264.812 76.6438 265.825 76.6839 266.829 76.6744C267.331 76.6757 267.832 76.6768 268.33 76.6779C268.828 76.6897 269.321 76.7694 269.814 76.8118C270.799 76.9139 271.776 77.0154 272.747 77.1163C273.711 77.2516 274.652 77.4932 275.595 77.6745C277.446 78.0536 279.27 78.5596 281.052 79.1887L281.715 79.3982C281.933 79.4766 282.141 79.5769 282.354 79.6652C282.777 79.847 283.199 80.0281 283.618 80.2085C284.451 80.5818 285.302 80.8993 286.099 81.3091C286.883 81.7435 287.661 82.1737 288.431 82.5997C288.816 82.8127 289.199 83.0248 289.58 83.2359C289.945 83.4727 290.297 83.7264 290.654 83.969C291.364 84.4587 292.067 84.9435 292.763 85.4235C293.113 85.6569 293.445 85.9154 293.758 86.1968C294.077 86.4664 294.395 86.7346 294.712 87.0013C295.339 87.5397 295.979 88.0518 296.577 88.5949C297.142 89.1737 297.701 89.7457 298.254 90.3111C302.206 94.4192 305.328 99.2543 307.446 104.55C309.075 108.529 310.085 112.734 310.442 117.019C310.484 117.459 310.525 117.886 310.564 118.301C310.616 118.702 310.636 119.106 310.625 119.511C310.62 120.293 310.616 121.025 310.612 121.706C310.601 122.385 310.619 123.014 310.584 123.585C310.522 124.155 310.466 124.671 310.415 125.135C310.312 126.05 310.233 126.751 310.179 127.235C310.123 127.708 310.084 127.948 310.084 127.948Z" fill="#263238"/>
<path d="M254.744 121.963C254.744 122.817 254.491 123.652 254.018 124.362C253.544 125.072 252.87 125.625 252.083 125.952C251.295 126.279 250.428 126.364 249.592 126.198C248.755 126.031 247.987 125.62 247.384 125.016C246.781 124.412 246.37 123.643 246.204 122.805C246.038 121.968 246.123 121.1 246.449 120.311C246.776 119.522 247.328 118.847 248.037 118.373C248.746 117.899 249.58 117.645 250.433 117.645C251.576 117.645 252.673 118.1 253.481 118.91C254.29 119.72 254.744 120.818 254.744 121.963Z" fill="#263238"/>
<path d="M269.631 121.963C269.631 122.817 269.378 123.652 268.904 124.362C268.431 125.072 267.757 125.625 266.969 125.952C266.182 126.279 265.315 126.364 264.478 126.198C263.642 126.031 262.874 125.62 262.271 125.016C261.668 124.412 261.257 123.643 261.091 122.805C260.924 121.968 261.01 121.1 261.336 120.311C261.662 119.522 262.215 118.847 262.924 118.373C263.633 117.898 264.467 117.645 265.319 117.645C266.463 117.645 267.56 118.1 268.368 118.91C269.177 119.72 269.631 120.818 269.631 121.963Z" fill="#263238"/>
<path d="M284.518 121.963C284.518 122.817 284.265 123.651 283.791 124.362C283.317 125.072 282.644 125.625 281.856 125.952C281.068 126.278 280.201 126.364 279.365 126.197C278.529 126.031 277.76 125.62 277.157 125.016C276.554 124.412 276.144 123.643 275.977 122.805C275.811 121.968 275.896 121.099 276.223 120.311C276.549 119.522 277.102 118.847 277.811 118.373C278.52 117.898 279.353 117.645 280.206 117.645C281.35 117.645 282.446 118.1 283.255 118.91C284.063 119.72 284.518 120.818 284.518 121.963Z" fill="#263238"/>
</g>
<defs>
<clipPath id="clip0_16889_14626">
<rect width="454" height="440" fill="white" transform="translate(98 2)"/>
</clipPath>
</defs>
</svg>
