<svg width="650" height="445" viewBox="0 0 650 445" fill="none" xmlns="http://www.w3.org/2000/svg">
<g clip-path="url(#clip0_16889_14361)">
<path d="M519.153 66.6328H293.362V384.965H519.153V66.6328Z" fill="#EBEBEB"/>
<path d="M489.833 31.4079C492.126 30.0207 494.594 28.9465 497.172 28.2139L498.683 20.9393L510.957 20.7239L512.723 27.9399C515.325 28.5811 517.83 29.5678 520.171 30.8737L526.374 26.8021L535.205 35.3407L531.36 41.6903C532.746 43.9873 533.818 46.4595 534.55 49.0413L541.813 50.555L542.029 62.8455L534.823 64.6146C534.182 67.2197 533.197 69.7274 531.893 72.0712L535.958 78.2834L527.433 87.1268L521.091 83.2764C518.797 84.6637 516.329 85.7377 513.751 86.4699L512.239 93.7445L499.965 93.9601L498.199 86.7434C495.597 86.1018 493.093 85.1152 490.752 83.8096L484.549 87.8813L475.718 79.3429L479.563 72.9931C478.177 70.6963 477.104 68.2243 476.373 65.6427L469.109 64.1288L468.893 51.8386L476.1 50.069C476.741 47.464 477.726 44.9563 479.03 42.6124L474.964 36.4006L483.49 27.5572L489.833 31.4079ZM496.375 47.7807C494.566 49.657 493.354 52.0284 492.89 54.5948C492.427 57.1613 492.735 59.8077 493.773 62.1993C494.812 64.5909 496.536 66.6203 498.727 68.0309C500.917 69.4415 503.476 70.17 506.081 70.1241C508.685 70.0783 511.217 69.2602 513.356 67.7734C515.496 66.2865 517.147 64.1977 518.102 61.771C519.056 59.3443 519.27 56.6888 518.717 54.1402C518.164 51.5916 516.869 49.2644 514.995 47.4529C513.751 46.2502 512.283 45.3045 510.674 44.6701C509.065 44.0356 507.347 43.7247 505.618 43.7552C503.888 43.7856 502.182 44.1568 500.597 44.8475C499.011 45.5382 497.576 46.5349 496.375 47.7807Z" fill="#E0E0E0"/>
<path d="M496.374 47.7806C497.067 46.9322 497.896 46.2041 498.826 45.6258C501.369 43.9738 504.404 43.2551 507.417 43.5918C509.5 43.8132 511.5 44.525 513.256 45.669C515.278 46.9894 516.908 48.8293 517.978 50.9965C519.16 53.4 519.603 56.1013 519.25 58.7573C518.877 61.6189 517.595 64.2845 515.593 66.3607C513.592 68.437 510.977 69.8138 508.134 70.2879C505.495 70.7353 502.783 70.3872 500.342 69.2877C498.142 68.2936 496.248 66.7261 494.859 64.749C493.656 63.0323 492.875 61.0549 492.581 58.9784C492.139 55.9756 492.75 52.9123 494.31 50.3098C494.854 49.3587 495.552 48.5042 496.374 47.7806C496.445 47.8409 495.579 48.646 494.564 50.4562C493.152 53.0284 492.639 56.0001 493.109 58.8978C493.449 61.0229 494.315 63.0289 495.628 64.7327C496.941 66.4365 498.659 67.7837 500.626 68.6515C502.944 69.6753 505.513 69.9906 508.009 69.5579C510.693 69.1009 513.16 67.7966 515.05 65.8357C516.941 63.8747 518.155 61.3598 518.517 58.6584C518.86 56.1452 518.455 53.5864 517.353 51.3027C516.418 49.3649 515.013 47.6925 513.266 46.4383C511.52 45.1841 509.488 44.388 507.355 44.1227C504.446 43.7541 501.498 44.3713 498.981 45.8758C497.209 46.9548 496.437 47.8503 496.374 47.7806Z" fill="#E0E0E0"/>
<path d="M489.83 31.4076C489.688 31.3468 489.552 31.2744 489.421 31.1914C489.123 31.0187 488.723 30.7874 488.205 30.4874C487.096 29.8317 485.503 28.8894 483.426 27.6606L483.574 27.641C481.404 29.9179 478.551 32.9121 475.1 36.5336L475.122 36.2956C476.362 38.1727 477.739 40.2587 479.213 42.4906L479.287 42.6021L479.222 42.7206C477.937 45.0511 476.968 47.5421 476.339 50.1282L476.304 50.2737L476.157 50.3102C473.913 50.8683 471.483 51.4716 468.956 52.0999L469.161 51.8341C469.237 55.7037 469.319 59.8108 469.404 64.1229L469.168 63.8373C471.417 64.3015 473.895 64.8125 476.434 65.3368L476.619 65.3751L476.671 65.5573C477.401 68.1095 478.466 70.5532 479.839 72.8241L479.941 72.9925L479.839 73.1622C478.65 75.1321 477.339 77.3048 476.004 79.5176L475.95 79.1005C478.727 81.7792 481.722 84.6674 484.791 87.6279L484.354 87.587C486.285 86.3168 488.406 84.9224 490.554 83.5091L490.735 83.3898L490.925 83.4957C493.239 84.7818 495.714 85.7545 498.284 86.3884L498.499 86.4407L498.552 86.6562C499.106 88.9163 499.712 91.3815 500.323 93.8716L499.957 93.5896C503.843 93.5196 508.008 93.4447 512.23 93.3685L511.87 93.6676C512.347 91.3699 512.862 88.8906 513.38 86.3934L513.427 86.1691L513.646 86.107C516.189 85.3833 518.624 84.3239 520.887 82.9566L520.894 82.953L521.092 82.8355L521.285 82.9532C523.414 84.2459 525.528 85.5295 527.626 86.8039L527.16 86.8642C530.042 83.8767 532.884 80.9296 535.688 78.0231L535.644 78.4882C534.277 76.3965 532.922 74.3253 531.581 72.2747L531.458 72.0865L531.568 71.8907C532.857 69.5762 533.831 67.0997 534.466 64.5269L534.519 64.3113L534.734 64.259C537.171 63.6623 539.574 63.0744 541.942 62.4954L541.668 62.8514C541.598 58.6559 541.531 54.5592 541.464 50.5614L541.741 50.8956C539.277 50.379 536.856 49.8714 534.479 49.3728L534.278 49.3305L534.223 49.1334C533.502 46.5798 532.445 44.1338 531.079 41.8598L530.977 41.6896L531.079 41.5208C532.401 39.3456 533.683 37.237 534.934 35.1777L534.985 35.5665C531.885 32.5566 528.958 29.7153 526.171 27.0106L526.531 27.0444C524.345 28.4708 522.295 29.8094 520.318 31.1002L520.18 31.1904L520.037 31.1104C517.72 29.8106 515.24 28.8255 512.663 28.1809L512.516 28.1442L512.481 27.9988C511.848 25.3743 511.277 23.0102 510.738 20.7772L510.959 20.9474C506.204 21.0099 502.153 21.0629 498.685 21.1088L498.847 20.9738C498.225 23.8754 497.714 26.2556 497.289 28.2386L497.273 28.3112L497.203 28.3308C495.267 28.8685 493.388 29.5926 491.591 30.4928C491.023 30.7896 490.589 31.017 490.271 31.1836C490.13 31.2703 489.983 31.3453 489.83 31.4076C489.961 31.306 490.097 31.2128 490.239 31.1287C490.52 30.9559 490.945 30.6965 491.533 30.382C493.317 29.4274 495.195 28.6615 497.137 28.0969L497.051 28.1888C497.451 26.201 497.931 23.8142 498.516 20.9048L498.542 20.7728L498.679 20.7697C502.147 20.6938 506.197 20.6046 510.951 20.5003L511.129 20.4963L511.172 20.6707C511.726 22.9002 512.312 25.2605 512.963 27.8804L512.781 27.6986C515.407 28.3382 517.936 29.3263 520.301 30.6365L520.021 30.6467C521.992 29.3459 524.036 27.9975 526.214 26.56L526.406 26.4332L526.573 26.5944C529.37 29.2876 532.309 32.1172 535.421 35.1143L535.602 35.2882L535.471 35.5037C534.227 37.5671 532.949 39.6858 531.638 41.8597L531.638 41.5214C533.042 43.8419 534.13 46.3397 534.873 48.9485L534.617 48.7094C536.996 49.2023 539.418 49.7039 541.882 50.2143L542.154 50.2705L542.159 50.5493C542.233 54.5451 542.309 58.6416 542.387 62.8387L542.393 63.1262L542.113 63.1949C539.744 63.7786 537.342 64.3702 534.908 64.9696L535.176 64.7019C534.529 67.3393 533.533 69.8783 532.215 72.2515L532.201 71.8679C533.544 73.9175 534.9 75.9874 536.269 78.0777L536.433 78.3276L536.226 78.543C533.425 81.4498 530.583 84.3984 527.702 87.3888L527.493 87.6059L527.236 87.449C525.139 86.1765 523.025 84.8934 520.894 83.5997L521.284 83.5999L521.277 83.6035C518.957 85.0056 516.459 86.0916 513.852 86.8328L514.118 86.547C513.598 89.0439 513.082 91.5234 512.605 93.8207L512.543 94.1147L512.244 94.1199C508.021 94.1921 503.856 94.2635 499.97 94.3301L499.675 94.3353L499.604 94.0476C498.996 91.5571 498.394 89.091 497.842 86.8304L498.11 87.0981C495.478 86.4458 492.944 85.4453 490.576 84.1232L490.947 84.1098C488.796 85.5185 486.673 86.9093 484.74 88.1753L484.504 88.3297L484.303 88.1344C481.24 85.1665 478.253 82.2706 475.482 79.5854L475.289 79.398L475.428 79.168C476.77 76.9594 478.088 74.7906 479.283 72.8242L479.282 73.1615C477.887 70.8377 476.807 68.3378 476.071 65.7281L476.308 65.9479C473.77 65.4142 471.294 64.8933 469.047 64.42L468.814 64.3708L468.81 64.1336C468.744 59.821 468.682 55.7137 468.623 51.8432L468.619 51.6274L468.828 51.5767C471.359 50.963 473.792 50.3728 476.039 49.8277L475.858 50.0095C476.512 47.3865 477.513 44.8626 478.834 42.5047L478.842 42.7339C477.387 40.4901 476.026 38.3931 474.802 36.506L474.718 36.3765L474.825 36.2674C478.317 32.6861 481.205 29.7253 483.401 27.4734L483.47 27.4035L483.551 27.454C485.577 28.7169 487.135 29.6872 488.222 30.365C488.734 30.6902 489.129 30.9416 489.423 31.1288C489.565 31.2125 489.701 31.3056 489.83 31.4076Z" fill="#E0E0E0"/>
<path d="M436.276 6.53168C437.649 5.7013 439.126 5.05832 440.669 4.61979L441.574 0.265241L448.921 0.13623L449.979 4.45573C451.536 4.83959 453.035 5.43024 454.437 6.212L458.15 3.77462L463.436 8.88586L461.135 12.6868C461.964 14.0618 462.606 15.5417 463.044 17.0871L467.392 17.9934L467.521 25.3503L463.207 26.4094C462.824 27.9688 462.234 29.4699 461.454 30.8729L463.887 34.5916L458.784 39.8854L454.988 37.5803C453.615 38.4108 452.137 39.0537 450.594 39.492L449.688 43.8467L442.342 43.9756L441.284 39.6558C439.727 39.2717 438.228 38.6811 436.826 37.8995L433.113 40.3369L427.827 35.2259L430.128 31.4246C429.299 30.0498 428.657 28.5701 428.219 27.0248L423.871 26.1186L423.742 18.7616L428.056 17.7023C428.439 16.1429 429.029 14.6418 429.809 13.2388L427.376 9.52034L432.479 4.22666L436.276 6.53168ZM440.193 16.3326C439.11 17.4557 438.384 18.8752 438.107 20.4115C437.829 21.9479 438.013 23.532 438.635 24.9636C439.257 26.3953 440.289 27.6101 441.6 28.4545C442.911 29.2989 444.443 29.735 446.002 29.7075C447.561 29.6801 449.077 29.1904 450.358 28.3003C451.638 27.4103 452.627 26.1599 453.198 24.7072C453.769 23.2546 453.898 21.6649 453.567 20.1393C453.236 18.6137 452.46 17.2207 451.339 16.1363C450.594 15.4163 449.715 14.8503 448.752 14.4705C447.788 14.0907 446.76 13.9046 445.725 13.9228C444.69 13.941 443.669 14.1632 442.719 14.5767C441.77 14.9901 440.912 15.5868 440.193 16.3326Z" fill="#F5F5F5"/>
<path d="M440.192 16.3324C440.607 15.8245 441.103 15.3887 441.66 15.0425C443.182 14.0535 444.999 13.6233 446.802 13.8249C448.049 13.9576 449.246 14.3836 450.297 15.0683C451.508 15.8588 452.484 16.9602 453.124 18.2575C453.832 19.6963 454.097 21.3132 453.885 22.9031C453.662 24.616 452.895 26.2117 451.697 27.4545C450.498 28.6974 448.933 29.5215 447.231 29.8053C445.652 30.0732 444.028 29.8648 442.567 29.2066C441.25 28.6116 440.117 27.6733 439.285 26.4898C438.565 25.4622 438.097 24.2786 437.922 23.0355C437.657 21.2381 438.023 19.4043 438.956 17.8464C439.282 17.2771 439.7 16.7655 440.192 16.3324C440.235 16.3687 439.716 16.8505 439.109 17.9341C438.263 19.4738 437.956 21.2526 438.237 22.9871C438.441 24.2592 438.959 25.4601 439.745 26.48C440.531 27.4999 441.56 28.3063 442.737 28.8258C444.125 29.4387 445.662 29.6274 447.157 29.3683C448.763 29.0948 450.24 28.3141 451.371 27.1402C452.503 25.9664 453.23 24.461 453.447 22.8439C453.652 21.3394 453.41 19.8078 452.75 18.4407C452.19 17.2807 451.349 16.2797 450.304 15.5289C449.258 14.7781 448.042 14.3016 446.765 14.1428C445.024 13.9221 443.259 14.2916 441.752 15.1922C440.692 15.838 440.229 16.3742 440.192 16.3324Z" fill="#F5F5F5"/>
<path d="M436.275 6.53146C436.19 6.49512 436.108 6.45184 436.03 6.40205C435.851 6.29864 435.612 6.16018 435.302 5.98068C434.638 5.58817 433.684 5.02408 432.441 4.28842L432.53 4.27673L427.457 9.59997L427.47 9.45735C428.212 10.5813 429.037 11.8298 429.919 13.1658L429.963 13.2325L429.924 13.3035C429.155 14.6986 428.575 16.1897 428.199 17.7377L428.178 17.8248L428.09 17.8466C426.746 18.1808 425.292 18.5419 423.779 18.918L423.902 18.7588C423.948 21.0752 423.996 23.5339 424.047 26.115L423.906 25.9439C425.253 26.2219 426.736 26.5278 428.256 26.8416L428.366 26.8647L428.397 26.9738C428.834 28.5015 429.472 29.9642 430.294 31.3236L430.355 31.4244L430.294 31.526C429.582 32.7051 428.797 34.0057 427.998 35.3304L427.966 35.0807C429.628 36.6841 431.421 38.413 433.258 40.1852L432.997 40.1606C434.153 39.4004 435.422 38.5657 436.708 37.7197L436.816 37.6483L436.93 37.7116C438.315 38.4815 439.797 39.0638 441.335 39.4433L441.463 39.4744L441.495 39.6035C441.827 40.9564 442.19 42.432 442.555 43.9227L442.336 43.7539C444.663 43.712 447.156 43.6672 449.683 43.6215L449.468 43.8005C449.753 42.4251 450.061 40.941 450.372 39.4462L450.399 39.3119L450.531 39.2747C452.053 38.8415 453.511 38.2074 454.865 37.389L454.869 37.3866L454.988 37.3165L455.103 37.3868C456.378 38.1608 457.643 38.9291 458.899 39.6919L458.62 39.7281C460.345 37.9396 462.047 36.1755 463.725 34.4357L463.699 34.7141C462.88 33.4621 462.07 32.2223 461.267 30.9947L461.193 30.882L461.259 30.7648C462.03 29.3793 462.614 27.8969 462.994 26.3568L463.026 26.2276L463.154 26.1965C464.613 25.8393 466.051 25.4874 467.469 25.1408L467.305 25.3538C467.263 22.8425 467.223 20.3902 467.183 17.997L467.348 18.197C465.874 17.8879 464.425 17.584 463.001 17.2854L462.881 17.26L462.848 17.1422C462.417 15.6136 461.784 14.1493 460.966 12.7881L460.905 12.6864L460.966 12.5853C461.758 11.2833 462.525 10.021 463.274 8.78823L463.304 9.02105C461.448 7.21928 459.696 5.51838 458.028 3.89935L458.244 3.91967C456.935 4.77337 455.708 5.57476 454.525 6.3475L454.442 6.40144L454.357 6.35359C452.969 5.57551 451.485 4.98576 449.942 4.59987L449.854 4.57793L449.833 4.49097C449.454 2.91989 449.113 1.50485 448.79 0.168018L448.922 0.270007C446.076 0.307288 443.651 0.338982 441.575 0.366612L441.672 0.285752C441.3 2.02261 440.994 3.44741 440.74 4.63441L440.73 4.67788L440.688 4.68967C439.529 5.01155 438.404 5.44495 437.328 5.98383C436.989 6.1615 436.729 6.29752 436.538 6.39727C436.454 6.44925 436.366 6.49414 436.275 6.53146C436.353 6.47061 436.435 6.41483 436.52 6.36446C436.688 6.26115 436.942 6.10573 437.294 5.9176C438.362 5.34611 439.486 4.88766 440.648 4.54969L440.597 4.60474C440.836 3.41481 441.124 1.98604 441.474 0.244408L441.49 0.165478L441.571 0.163548C443.647 0.118141 446.072 0.0647082 448.918 0.0023364L449.024 0L449.05 0.104325C449.381 1.43882 449.732 2.85173 450.122 4.41997L450.013 4.31127C451.585 4.69408 453.099 5.28551 454.514 6.06987L454.347 6.07607C455.527 5.29734 456.75 4.49026 458.054 3.62965L458.169 3.55387L458.269 3.65027C459.943 5.26239 461.702 6.95628 463.565 8.75034L463.673 8.85436L463.595 8.98337C462.85 10.2187 462.088 11.4835 461.301 12.7881L461.301 12.5856C462.141 13.9747 462.792 15.4699 463.237 17.0316L463.084 16.8884C464.508 17.1834 465.958 17.4837 467.433 17.7893L467.596 17.823L467.599 17.9897C467.643 20.3818 467.689 22.8339 467.735 25.3462L467.738 25.5184L467.571 25.5595C466.153 25.909 464.715 26.2631 463.258 26.6218L463.418 26.4616C463.031 28.0403 462.435 29.5602 461.646 30.9808L461.638 30.7511C462.442 31.9779 463.253 33.217 464.073 34.4683L464.171 34.6179L464.047 34.747C462.37 36.4869 460.669 38.2519 458.945 40.0421L458.82 40.1719L458.666 40.078C457.41 39.3164 456.145 38.5483 454.869 37.7739L455.103 37.7741L455.099 37.7762C453.71 38.6155 452.215 39.2656 450.654 39.7093L450.813 39.5381C450.502 41.0329 450.193 42.5171 449.907 43.8921L449.871 44.0682L449.691 44.0712C447.164 44.1145 444.67 44.1572 442.344 44.1971L442.167 44.2003L442.125 44.0282C441.761 42.5373 441.401 41.061 441.071 39.7078L441.231 39.8681C439.655 39.4776 438.139 38.8787 436.721 38.0873L436.943 38.0793C435.655 38.9225 434.385 39.755 433.227 40.5129L433.087 40.6053L432.966 40.4883C431.133 38.7117 429.344 36.9782 427.686 35.3709L427.57 35.2589L427.653 35.1211C428.457 33.7989 429.245 32.5007 429.961 31.3236L429.96 31.5256C429.125 30.1345 428.479 28.6381 428.038 27.0759L428.18 27.2075C426.661 26.888 425.179 26.5761 423.833 26.2928L423.694 26.2633L423.692 26.1215C423.652 23.54 423.615 21.0812 423.58 18.7644L423.578 18.6353L423.702 18.6048C425.217 18.2374 426.674 17.8841 428.019 17.5579L427.911 17.6668C428.302 16.0965 428.901 14.5857 429.692 13.1742L429.697 13.3115C428.826 11.9684 428.012 10.713 427.278 9.58342L427.228 9.50591L427.292 9.44049C429.383 7.29669 431.111 5.52437 432.426 4.17647L432.467 4.13452L432.515 4.16479C433.729 4.92077 434.661 5.50162 435.312 5.90734L436.031 6.36467C436.116 6.41473 436.197 6.47046 436.275 6.53146Z" fill="#F5F5F5"/>
<path d="M239.476 22.7366H106.672V242.868H239.476V22.7366Z" fill="#E0E0E0"/>
<path d="M235.059 22.7366H102.255V242.868H235.059V22.7366Z" fill="#EBEBEB"/>
<path d="M229.402 27.2007H107.908V238.404H229.402V27.2007Z" fill="#FAFAFA"/>
<path d="M205.75 54.645H131.042V210.96H205.75V54.645Z" fill="#EBEBEB"/>
<path d="M131.039 155.645C130.866 141.043 143.978 126.788 158.417 124.749C165.303 123.777 172.619 125.146 179.053 122.504C190.537 117.788 194.191 102.509 205.748 97.9775L206.275 210.959H131.039V155.645Z" fill="#E0E0E0"/>
<path d="M422.381 396.694C423.889 395.782 425.513 395.075 427.208 394.593L428.202 389.809L436.275 389.667L437.437 394.413C439.148 394.835 440.795 395.484 442.335 396.343L446.415 393.665L452.223 399.281L449.694 403.457C450.606 404.967 451.311 406.594 451.792 408.292L456.569 409.287L456.711 417.371L451.971 418.534C451.55 420.248 450.902 421.897 450.045 423.439L452.718 427.524L447.111 433.341L442.94 430.808C441.431 431.721 439.808 432.427 438.112 432.909L437.118 437.693L429.045 437.835L427.884 433.089C426.172 432.667 424.525 432.018 422.986 431.159L418.906 433.837L413.097 428.221L415.626 424.045C414.715 422.534 414.009 420.908 413.529 419.21L408.751 418.215L408.609 410.131L413.349 408.967C413.77 407.254 414.418 405.605 415.276 404.063L412.602 399.978L418.209 394.161L422.381 396.694ZM426.684 407.463C425.494 408.697 424.697 410.256 424.392 411.944C424.088 413.632 424.29 415.373 424.973 416.946C425.656 418.519 426.79 419.854 428.231 420.781C429.672 421.709 431.355 422.188 433.068 422.158C434.78 422.128 436.446 421.59 437.853 420.612C439.26 419.634 440.346 418.26 440.974 416.664C441.602 415.068 441.742 413.321 441.379 411.645C441.015 409.969 440.163 408.438 438.931 407.247C438.113 406.456 437.147 405.834 436.088 405.417C435.03 404.999 433.9 404.795 432.763 404.815C431.626 404.835 430.504 405.079 429.461 405.533C428.418 405.988 427.474 406.643 426.684 407.463Z" fill="#F5F5F5"/>
<path d="M538.969 444.735C538.969 444.735 539.447 444.716 540.42 444.706C541.404 444.7 542.868 444.691 544.838 444.678V444.793C522.014 444.912 429.058 445 317.931 445C253.638 444.97 195.444 444.942 153.309 444.922C132.253 444.887 115.212 444.858 103.423 444.838C97.5406 444.817 92.9711 444.8 89.8599 444.789C88.317 444.777 87.138 444.768 86.3327 444.762C85.538 444.754 85.131 444.735 85.131 444.735C85.131 444.735 85.538 444.717 86.3327 444.708C87.138 444.702 88.317 444.694 89.8599 444.682C92.9711 444.671 97.5406 444.654 103.423 444.632C115.212 444.613 132.253 444.584 153.309 444.548C195.444 444.529 253.638 444.501 317.931 444.471C429.058 444.471 522.014 444.559 544.838 444.678V444.793C542.868 444.78 541.404 444.771 540.42 444.765C539.447 444.755 538.969 444.735 538.969 444.735Z" fill="#263238"/>
<path d="M501.024 50.0408H273.655V371.298H501.024V50.0408Z" fill="white"/>
<path d="M501.022 371.298C501.02 369.161 500.924 239.827 500.782 50.041L501.022 50.2814C432.265 50.2886 355.041 50.2968 273.68 50.3053H273.654L273.918 50.041C273.899 170.428 273.881 281.751 273.867 371.298L273.654 371.083C411.755 371.214 499.263 371.296 501.022 371.298C499.264 371.299 411.755 371.382 273.654 371.512L273.44 371.512V371.298C273.426 281.751 273.408 170.428 273.389 50.041V49.7764H273.68C355.041 49.7849 432.265 49.793 501.022 49.8002H501.263L501.262 50.041C501.12 239.827 501.024 369.163 501.022 371.298Z" fill="#263238"/>
<path d="M295.752 263.336H379.246C381.045 263.336 382.771 264.052 384.043 265.326C385.315 266.6 386.03 268.328 386.03 270.129V278.827C386.03 280.629 385.315 282.357 384.043 283.631C382.771 284.905 381.045 285.621 379.246 285.621H295.752C293.953 285.621 292.227 284.905 290.955 283.631C289.683 282.357 288.968 280.629 288.968 278.827V270.129C288.968 269.237 289.143 268.354 289.484 267.53C289.825 266.705 290.325 265.957 290.955 265.326C291.585 264.695 292.333 264.194 293.156 263.853C293.979 263.512 294.861 263.336 295.752 263.336Z" fill="#F5F5F5"/>
<path d="M480.521 263.336H399.181C395.434 263.336 392.397 266.377 392.397 270.129V278.827C392.397 282.579 395.434 285.621 399.181 285.621H480.521C484.268 285.621 487.305 282.579 487.305 278.827V270.129C487.305 266.377 484.268 263.336 480.521 263.336Z" fill="#F5F5F5"/>
<path d="M481.864 309.015H295.294C291.548 309.015 288.51 312.056 288.51 315.808V324.506C288.51 328.258 291.548 331.3 295.294 331.3H481.864C485.611 331.3 488.649 328.258 488.649 324.506V315.808C488.649 312.056 485.611 309.015 481.864 309.015Z" fill="#F5F5F5"/>
<path d="M333.536 254.37C333.536 254.516 324.154 254.634 312.585 254.634C301.011 254.634 291.632 254.516 291.632 254.37C291.632 254.223 301.011 254.105 312.585 254.105C324.154 254.105 333.536 254.223 333.536 254.37Z" fill="#263238"/>
<path d="M432.661 254.37C432.661 254.516 425.274 254.634 416.164 254.634C407.051 254.634 399.666 254.516 399.666 254.37C399.666 254.223 407.051 254.105 416.164 254.105C425.274 254.105 432.661 254.223 432.661 254.37Z" fill="#263238"/>
<path d="M360.126 299.817C360.126 299.963 344.909 300.081 326.143 300.081C307.37 300.081 292.157 299.963 292.157 299.817C292.157 299.671 307.37 299.552 326.143 299.552C344.909 299.552 360.126 299.671 360.126 299.817Z" fill="#263238"/>
<path d="M482.048 212.744H291.541C287.894 212.744 284.938 215.704 284.938 219.356V230.494C284.938 234.145 287.894 237.105 291.541 237.105H482.048C485.694 237.105 488.65 234.145 488.65 230.494V219.356C488.65 215.704 485.694 212.744 482.048 212.744Z" fill="#E0E0E0"/>
<path d="M430.185 224.925C430.185 225.071 412.111 225.189 389.82 225.189C367.522 225.189 349.452 225.071 349.452 224.925C349.452 224.779 367.522 224.66 389.82 224.66C412.111 224.66 430.185 224.779 430.185 224.925Z" fill="#263238"/>
<path d="M482.048 64.6294H291.541C287.894 64.6294 284.938 67.5894 284.938 71.2407V82.379C284.938 86.0304 287.894 88.9904 291.541 88.9904H482.048C485.694 88.9904 488.65 86.0304 488.65 82.379V71.2407C488.65 67.5894 485.694 64.6294 482.048 64.6294Z" fill="#E0E0E0"/>
<path d="M430.185 76.8096C430.185 76.9558 412.111 77.0742 389.82 77.0742C367.522 77.0742 349.452 76.9558 349.452 76.8096C349.452 76.6636 367.522 76.5452 389.82 76.5452C412.111 76.5452 430.185 76.6636 430.185 76.8096Z" fill="#263238"/>
<path d="M501.021 94.8889C501.021 95.0351 450.073 95.1535 387.24 95.1535C324.385 95.1535 273.448 95.0351 273.448 94.8889C273.448 94.743 324.385 94.6245 387.24 94.6245C450.073 94.6245 501.021 94.743 501.021 94.8889Z" fill="#EBEBEB"/>
<path d="M501.021 202.656C501.021 202.802 450.073 202.92 387.24 202.92C324.385 202.92 273.448 202.802 273.448 202.656C273.448 202.51 324.385 202.391 387.24 202.391C450.073 202.391 501.021 202.51 501.021 202.656Z" fill="#EBEBEB"/>
<path d="M295.752 119.311H379.246C381.045 119.311 382.771 120.027 384.043 121.301C385.315 122.575 386.03 124.303 386.03 126.105V134.803C386.03 136.604 385.315 138.332 384.043 139.606C382.771 140.88 381.045 141.596 379.246 141.596H295.752C293.953 141.596 292.227 140.88 290.955 139.606C289.683 138.332 288.968 136.604 288.968 134.803V126.105C288.968 125.213 289.143 124.329 289.484 123.505C289.825 122.681 290.325 121.932 290.955 121.301C291.585 120.67 292.333 120.17 293.156 119.828C293.979 119.487 294.861 119.311 295.752 119.311Z" fill="#F5F5F5"/>
<path d="M480.521 119.311H399.181C395.434 119.311 392.397 122.353 392.397 126.105V134.803C392.397 138.554 395.434 141.596 399.181 141.596H480.521C484.268 141.596 487.305 138.554 487.305 134.803V126.105C487.305 122.353 484.268 119.311 480.521 119.311Z" fill="#F5F5F5"/>
<path d="M481.864 164.99H295.294C291.548 164.99 288.51 168.032 288.51 171.784V180.482C288.51 184.234 291.548 187.275 295.294 187.275H481.864C485.611 187.275 488.649 184.234 488.649 180.482V171.784C488.649 168.032 485.611 164.99 481.864 164.99Z" fill="#F5F5F5"/>
<path d="M333.536 110.345C333.536 110.491 324.154 110.61 312.585 110.61C301.011 110.61 291.632 110.491 291.632 110.345C291.632 110.199 301.011 110.081 312.585 110.081C324.154 110.081 333.536 110.199 333.536 110.345Z" fill="#263238"/>
<path d="M432.661 110.345C432.661 110.491 425.274 110.61 416.164 110.61C407.051 110.61 399.666 110.491 399.666 110.345C399.666 110.199 407.051 110.081 416.164 110.081C425.274 110.081 432.661 110.199 432.661 110.345Z" fill="#263238"/>
<path d="M360.126 155.792C360.126 155.939 344.909 156.057 326.143 156.057C307.37 156.057 292.157 155.939 292.157 155.792C292.157 155.646 307.37 155.528 326.143 155.528C344.909 155.528 360.126 155.646 360.126 155.792Z" fill="#263238"/>
<path d="M481.628 344.842C481.628 344.988 466.786 345.107 448.481 345.107C430.17 345.107 415.33 344.988 415.33 344.842C415.33 344.696 430.17 344.578 448.481 344.578C466.786 344.578 481.628 344.696 481.628 344.842Z" fill="#263238"/>
<path d="M371.121 132.797C370.607 132.964 370.082 133.095 369.55 133.191C365.567 133.923 361.455 133.333 357.837 131.511C357.165 131.16 356.556 130.699 356.036 130.146C355.475 129.543 355.099 128.791 354.953 127.98C354.861 127.547 354.86 127.099 354.95 126.666C355.04 126.232 355.219 125.822 355.475 125.461C355.775 125.088 356.179 124.812 356.634 124.667C357.09 124.522 357.579 124.514 358.039 124.644C358.282 124.717 358.508 124.839 358.701 125.003C358.895 125.166 359.053 125.369 359.166 125.596C359.387 126.057 359.454 126.576 359.357 127.078C359.145 128.063 358.658 128.967 357.954 129.685C356.567 131.246 354.819 132.441 352.864 133.167C350.768 133.963 348.495 134.17 346.291 133.765C345.121 133.56 344.018 133.075 343.077 132.35C342.569 131.978 342.16 131.487 341.888 130.918C341.615 130.35 341.487 129.724 341.514 129.094C341.583 128.451 341.825 127.839 342.214 127.323C342.594 126.769 343.162 126.371 343.812 126.205C344.156 126.132 344.512 126.152 344.845 126.262C345.179 126.372 345.477 126.568 345.71 126.831C346.156 127.354 346.398 128.02 346.391 128.708C346.407 129.382 346.246 130.049 345.923 130.642C345.583 131.225 345.111 131.721 344.546 132.09C343.419 132.764 342.194 133.256 340.915 133.549C338.451 134.25 335.758 135.005 333.02 134.389C331.647 134.088 330.388 133.404 329.387 132.416C328.871 131.913 328.464 131.308 328.193 130.639C327.922 129.97 327.793 129.253 327.813 128.531C327.821 128.067 327.922 127.609 328.111 127.185C328.299 126.761 328.572 126.38 328.911 126.064C329.285 125.768 329.735 125.584 330.209 125.533C330.683 125.483 331.161 125.568 331.589 125.778C332.031 125.978 332.389 126.327 332.6 126.764C332.799 127.205 332.841 127.7 332.721 128.168C332.443 129.024 331.885 129.762 331.136 130.261C328.417 132.138 325.284 133.33 322.006 133.736C320.412 134.016 318.772 133.872 317.251 133.319C316.501 133.017 315.839 132.529 315.328 131.902C314.817 131.275 314.473 130.528 314.328 129.731C314.207 128.93 314.388 128.113 314.835 127.438C315.282 126.763 315.963 126.278 316.746 126.077C317.143 126.001 317.554 126.033 317.934 126.17C318.315 126.307 318.652 126.544 318.911 126.855C319.392 127.454 319.659 128.197 319.671 128.966C319.708 129.708 319.548 130.447 319.207 131.107C318.846 131.731 318.354 132.269 317.766 132.685C316.631 133.429 315.37 133.959 314.044 134.246C311.557 134.909 308.936 135.371 306.617 134.515C305.504 134.105 304.527 133.392 303.796 132.457C303.087 131.573 302.731 130.457 302.796 129.325C302.901 128.271 303.382 127.292 304.151 126.565C304.5 126.217 304.93 125.961 305.403 125.819C305.875 125.678 306.375 125.656 306.858 125.755L306.967 125.783L306.971 125.892C307.014 127.88 306.303 129.811 304.981 131.294C304.033 132.405 302.806 133.242 301.427 133.72C300.571 134.012 299.665 134.128 298.764 134.061C298.457 134.023 298.153 133.965 297.853 133.89C299.035 134.085 300.247 133.975 301.375 133.571C302.712 133.077 303.895 132.24 304.807 131.145C306.065 129.696 306.732 127.826 306.675 125.907L306.787 126.043C306.353 125.96 305.905 125.986 305.484 126.118C305.062 126.25 304.68 126.485 304.37 126.801C303.668 127.477 303.232 128.383 303.141 129.353C302.986 131.384 304.62 133.386 306.754 134.148C308.934 134.942 311.467 134.501 313.934 133.829C315.205 133.548 316.414 133.038 317.502 132.322C318.033 131.943 318.477 131.455 318.805 130.891C319.104 130.303 319.242 129.646 319.207 128.988C319.197 128.324 318.967 127.682 318.553 127.164C318.348 126.916 318.081 126.728 317.78 126.62C317.478 126.512 317.152 126.487 316.837 126.548C316.177 126.728 315.607 127.145 315.234 127.72C314.861 128.294 314.712 128.985 314.815 129.663C314.95 130.373 315.262 131.039 315.722 131.597C316.182 132.155 316.775 132.587 317.446 132.855C318.887 133.369 320.437 133.498 321.943 133.228C325.13 132.827 328.175 131.666 330.821 129.842C331.471 129.413 331.959 128.78 332.21 128.043C332.308 127.692 332.276 127.318 332.12 126.989C331.964 126.661 331.694 126.4 331.361 126.254C331.025 126.089 330.65 126.021 330.278 126.058C329.906 126.096 329.551 126.237 329.255 126.466C328.97 126.735 328.742 127.059 328.585 127.419C328.428 127.778 328.345 128.166 328.341 128.558C328.324 129.206 328.442 129.851 328.687 130.452C328.932 131.052 329.299 131.595 329.764 132.046C330.694 132.963 331.864 133.597 333.139 133.876C335.694 134.459 338.315 133.751 340.772 133.05C341.999 132.774 343.175 132.307 344.257 131.666C344.757 131.343 345.175 130.908 345.478 130.396C345.758 129.882 345.899 129.304 345.886 128.719C345.897 128.153 345.703 127.603 345.341 127.169C345.167 126.97 344.944 126.821 344.694 126.737C344.443 126.652 344.175 126.637 343.917 126.691C343.393 126.869 342.933 127.195 342.592 127.631C342.251 128.067 342.045 128.593 341.998 129.145C341.979 129.694 342.094 130.24 342.335 130.735C342.575 131.229 342.934 131.657 343.378 131.98C344.257 132.659 345.287 133.114 346.379 133.308C348.501 133.705 350.69 133.514 352.711 132.756C354.606 132.063 356.301 130.915 357.65 129.413C358.307 128.754 358.765 127.922 358.971 127.014C359.08 126.608 359.034 126.177 358.841 125.804C358.647 125.432 358.322 125.145 357.928 125.001C357.539 124.891 357.126 124.897 356.74 125.017C356.354 125.138 356.012 125.368 355.754 125.681C355.526 126.002 355.367 126.367 355.286 126.752C355.205 127.138 355.204 127.536 355.284 127.922C355.449 128.647 355.778 129.323 356.245 129.9C356.713 130.478 357.306 130.94 357.979 131.252C360.142 132.37 362.505 133.048 364.931 133.248C366.465 133.375 368.01 133.32 369.532 133.085C370.053 132.998 370.45 132.927 370.715 132.867C370.848 132.832 370.984 132.808 371.121 132.797Z" fill="#FF725E"/>
<path d="M470.367 131.586C469.965 131.841 469.538 132.054 469.092 132.221C467.82 132.733 466.468 133.017 465.097 133.06C462.914 133.138 460.75 132.632 458.829 131.593C457.593 130.983 456.54 130.056 455.777 128.907C455.363 128.249 455.172 127.475 455.229 126.7C455.276 126.29 455.404 125.893 455.607 125.533C455.809 125.174 456.081 124.858 456.407 124.606C456.762 124.335 457.196 124.191 457.642 124.196C458.102 124.216 458.54 124.402 458.873 124.721C459.19 125.048 459.429 125.444 459.571 125.878C459.714 126.311 459.756 126.772 459.695 127.224C459.536 128.144 459.09 128.99 458.422 129.64C457.76 130.302 457.013 130.872 456.202 131.337C454.509 132.333 452.616 132.94 450.66 133.112C448.573 133.345 446.464 132.951 444.601 131.98C443.621 131.457 442.807 130.668 442.252 129.705C441.969 129.205 441.787 128.654 441.714 128.084C441.668 127.5 441.753 126.914 441.963 126.367C442.159 125.805 442.477 125.295 442.895 124.872C443.313 124.45 443.821 124.126 444.38 123.926C444.68 123.831 444.997 123.798 445.31 123.829C445.623 123.861 445.927 123.955 446.203 124.108C446.75 124.415 447.18 124.896 447.425 125.475C447.663 126.042 447.774 126.654 447.751 127.268C447.728 127.883 447.571 128.485 447.291 129.032C446.717 130.106 445.888 131.02 444.875 131.694C442.866 133.094 440.51 133.91 438.067 134.051C435.625 134.192 433.19 133.668 431.022 132.535C429.953 131.989 428.985 131.266 428.157 130.397C427.288 129.529 426.78 128.363 426.735 127.135C426.748 126.515 426.939 125.912 427.285 125.398C427.632 124.884 428.119 124.482 428.689 124.239C428.988 124.125 429.31 124.085 429.627 124.123C429.944 124.161 430.248 124.276 430.511 124.457C431.007 124.82 431.362 125.344 431.517 125.94C431.66 126.503 431.672 127.092 431.554 127.662C431.435 128.231 431.188 128.766 430.833 129.226C430.18 130.097 429.391 130.858 428.497 131.48C426.869 132.677 425.006 133.515 423.03 133.938C421.055 134.361 419.012 134.36 417.037 133.934C415.203 133.596 413.553 132.606 412.39 131.147C411.853 130.433 411.552 129.569 411.529 128.676C411.508 127.825 411.72 126.985 412.14 126.246C412.337 125.884 412.604 125.565 412.926 125.309C413.248 125.052 413.617 124.862 414.013 124.75C414.397 124.664 414.795 124.663 415.178 124.749C415.562 124.834 415.921 125.004 416.232 125.246C416.781 125.685 417.207 126.259 417.469 126.911C417.731 127.564 417.82 128.274 417.728 128.971C417.518 130.168 416.881 131.248 415.936 132.01C415.164 132.651 414.259 133.111 413.286 133.356C411.95 133.655 410.574 133.741 409.21 133.611L408.154 133.518C408.033 133.512 407.913 133.494 407.795 133.465C407.916 133.453 408.037 133.452 408.157 133.464L409.216 133.505C410.565 133.589 411.919 133.471 413.233 133.157C414.168 132.904 415.036 132.447 415.773 131.818C416.656 131.087 417.247 130.061 417.435 128.929C417.512 128.288 417.424 127.637 417.178 127.039C416.932 126.441 416.537 125.917 416.031 125.516C415.76 125.307 415.446 125.161 415.112 125.088C414.777 125.016 414.431 125.018 414.098 125.096C413.75 125.199 413.427 125.37 413.146 125.6C412.865 125.83 412.633 126.113 412.463 126.434C412.066 127.123 411.878 127.915 411.924 128.71C411.97 129.505 412.247 130.269 412.721 130.908C413.833 132.277 415.399 133.199 417.134 133.506C419.046 133.908 421.022 133.9 422.93 133.483C424.839 133.066 426.638 132.249 428.209 131.087C429.057 130.494 429.805 129.771 430.425 128.943C430.738 128.543 430.955 128.078 431.06 127.581C431.165 127.085 431.156 126.571 431.032 126.079C430.908 125.598 430.623 125.173 430.225 124.878C430.028 124.742 429.801 124.656 429.564 124.629C429.327 124.601 429.087 124.633 428.865 124.72C428.394 124.929 427.993 125.268 427.708 125.697C427.422 126.126 427.265 126.627 427.253 127.143C427.302 128.238 427.762 129.274 428.542 130.044C429.331 130.868 430.252 131.553 431.268 132.07C433.352 133.156 435.691 133.658 438.036 133.523C440.38 133.387 442.641 132.606 444.57 131.266C445.512 130.643 446.285 129.796 446.822 128.802C447.069 128.323 447.209 127.796 447.231 127.258C447.254 126.72 447.158 126.183 446.952 125.686C446.78 125.208 446.435 124.813 445.985 124.578C445.536 124.343 445.015 124.285 444.526 124.417C444.042 124.595 443.603 124.878 443.242 125.247C442.88 125.615 442.605 126.059 442.435 126.546C442.251 127.02 442.175 127.529 442.212 128.036C442.277 128.538 442.439 129.024 442.687 129.465C443.196 130.35 443.942 131.075 444.841 131.556C446.617 132.485 448.629 132.865 450.621 132.649C452.511 132.49 454.341 131.913 455.98 130.958C456.76 130.518 457.478 129.976 458.117 129.346C458.726 128.763 459.137 128.003 459.29 127.173C459.345 126.783 459.312 126.386 459.193 126.011C459.075 125.636 458.873 125.292 458.604 125.005C458.343 124.751 457.998 124.601 457.634 124.583C457.271 124.565 456.913 124.68 456.628 124.907C456.341 125.129 456.1 125.405 455.921 125.719C455.741 126.034 455.626 126.382 455.582 126.742C455.528 127.442 455.698 128.14 456.067 128.737C456.791 129.842 457.793 130.738 458.971 131.334C460.499 132.176 462.189 132.683 463.927 132.819C465.666 132.954 467.414 132.717 469.054 132.121C469.928 131.808 470.35 131.552 470.367 131.586Z" fill="#FF725E"/>
<path d="M376.059 176.453C375.935 176.53 375.805 176.596 375.67 176.651C375.385 176.78 374.999 176.955 374.505 177.179C373.477 177.634 371.957 178.301 369.956 179.054C367.524 179.986 365.001 180.659 362.429 181.06C360.818 181.295 359.19 181.394 357.562 181.355C355.723 181.387 353.892 181.11 352.145 180.536C351.165 180.203 350.28 179.64 349.564 178.893C348.848 178.146 348.322 177.237 348.03 176.244C347.877 175.705 347.833 175.14 347.902 174.584C347.97 174.028 348.15 173.491 348.429 173.005C348.71 172.487 349.111 172.044 349.6 171.715C350.088 171.385 350.648 171.179 351.233 171.113C351.851 171.101 352.458 171.273 352.976 171.609C353.495 171.944 353.902 172.427 354.145 172.995C354.7 174.12 354.792 175.417 354.402 176.608C353.978 177.797 353.245 178.852 352.277 179.661C351.314 180.49 350.242 181.182 349.091 181.718C346.72 182.952 343.98 183.273 341.389 182.62C340.05 182.207 338.846 181.441 337.904 180.402C336.963 179.363 336.318 178.089 336.038 176.714C335.912 176.003 335.907 175.276 336.023 174.564C336.128 173.827 336.429 173.131 336.896 172.552C337.122 172.235 337.414 171.97 337.751 171.775C338.088 171.581 338.463 171.46 338.85 171.423C339.26 171.418 339.661 171.542 339.996 171.777C340.332 172.012 340.587 172.346 340.724 172.733C340.917 173.464 340.95 174.228 340.82 174.973C340.691 175.719 340.403 176.427 339.975 177.051C339.226 178.329 338.264 179.469 337.132 180.424C334.908 182.333 332.065 183.362 329.136 183.317C326.208 183.272 323.397 182.156 321.234 180.179C320.183 179.215 319.462 177.943 319.174 176.545C319.036 175.84 319.083 175.111 319.309 174.429C319.556 173.762 319.964 173.167 320.498 172.698C321.024 172.218 321.683 171.907 322.388 171.808C322.746 171.762 323.11 171.793 323.455 171.901C323.8 172.009 324.117 172.191 324.385 172.433C324.861 172.929 325.196 173.544 325.356 174.213C325.515 174.882 325.493 175.582 325.293 176.24C324.895 177.476 324.168 178.58 323.189 179.432C320.547 181.893 317.195 183.454 313.613 183.892C311.427 184.183 309.203 183.983 307.103 183.308C306.105 182.973 305.191 182.425 304.425 181.701C303.686 180.995 303.179 180.079 302.974 179.077C302.754 178.122 302.847 177.122 303.238 176.225C303.425 175.791 303.718 175.411 304.09 175.12C304.463 174.83 304.902 174.638 305.368 174.562C305.805 174.498 306.251 174.525 306.677 174.642C307.103 174.759 307.5 174.963 307.843 175.242C308.165 175.514 308.407 175.867 308.546 176.265C308.684 176.663 308.713 177.091 308.63 177.504C308.457 178.254 308.046 178.927 307.458 179.423C306.941 179.881 306.363 180.265 305.741 180.564C304.671 181.089 303.555 181.516 302.408 181.839C300.824 182.292 299.188 182.535 297.541 182.563C296.968 182.579 296.395 182.555 295.826 182.491C295.971 182.476 296.117 182.473 296.262 182.481C296.55 182.484 296.978 182.484 297.537 182.457C300.353 182.329 303.11 181.607 305.628 180.338C306.225 180.043 306.779 179.668 307.273 179.221C307.81 178.762 308.184 178.141 308.339 177.451C308.411 177.09 308.383 176.717 308.26 176.371C308.137 176.025 307.922 175.718 307.639 175.484C307.33 175.238 306.973 175.059 306.591 174.957C306.209 174.856 305.81 174.835 305.419 174.895C305.01 174.964 304.624 175.136 304.299 175.395C303.974 175.654 303.719 175.991 303.559 176.375C303.208 177.204 303.131 178.123 303.339 178.998C303.588 179.938 304.079 180.795 304.764 181.484C305.448 182.173 306.302 182.669 307.239 182.923C309.281 183.566 311.44 183.748 313.56 183.457C317.043 183.017 320.297 181.487 322.861 179.086C323.773 178.292 324.451 177.263 324.823 176.112C324.997 175.541 325.017 174.934 324.882 174.353C324.747 173.772 324.461 173.237 324.053 172.802C323.578 172.437 322.985 172.263 322.388 172.314C321.792 172.365 321.236 172.638 320.831 173.078C320.363 173.491 320.005 174.013 319.789 174.599C319.592 175.199 319.554 175.839 319.678 176.458C319.95 177.748 320.621 178.92 321.594 179.808C323.667 181.691 326.355 182.752 329.153 182.791C331.951 182.83 334.667 181.844 336.791 180.019C337.877 179.104 338.8 178.009 339.52 176.784C339.886 176.199 340.149 175.555 340.297 174.88C340.459 174.235 340.437 173.557 340.234 172.924C340.137 172.638 339.953 172.39 339.707 172.215C339.461 172.039 339.167 171.946 338.865 171.947C338.554 171.984 338.254 172.086 337.985 172.246C337.715 172.407 337.483 172.622 337.303 172.879C336.923 173.415 336.659 174.025 336.529 174.67C336.399 175.314 336.405 175.979 336.547 176.621C336.809 177.902 337.41 179.09 338.287 180.06C339.164 181.03 340.284 181.747 341.532 182.135C344.005 182.758 346.619 182.453 348.883 181.278C351.086 180.216 353.211 178.674 353.961 176.462C354.316 175.387 354.237 174.214 353.74 173.196C353.538 172.705 353.194 172.286 352.752 171.993C352.31 171.7 351.79 171.546 351.26 171.55C350.745 171.611 350.253 171.794 349.824 172.084C349.395 172.375 349.042 172.764 348.794 173.22C348.54 173.657 348.376 174.142 348.313 174.644C348.249 175.146 348.288 175.656 348.425 176.144C348.697 177.077 349.189 177.932 349.86 178.635C350.53 179.339 351.36 179.871 352.279 180.187C353.984 180.756 355.772 181.037 357.57 181.019C359.18 181.07 360.792 180.985 362.388 180.767C364.946 180.391 367.458 179.752 369.886 178.86C371.891 178.139 373.423 177.504 374.463 177.081C374.966 176.877 375.359 176.718 375.648 176.601C375.781 176.541 375.918 176.491 376.059 176.453Z" fill="#FF725E"/>
<path d="M472.262 399.958C472.262 399.958 448.919 373.054 440.11 346.15C431.302 319.246 435.486 322.334 435.486 322.334C435.486 322.334 447.378 348.468 456.407 361.092C465.436 373.715 481.512 392.239 481.512 392.239L472.262 399.958Z" fill="#455A64"/>
<path d="M476.913 326.525C476.758 326.247 476.51 326.033 476.213 325.919C475.915 325.805 475.588 325.799 475.287 325.902C474.986 326.005 474.73 326.211 474.565 326.483C474.399 326.755 474.334 327.077 474.381 327.392C475.804 336.842 478.881 359.019 478.76 373.402C478.603 392.087 478.766 399.31 478.766 399.31H488.482C488.482 399.31 486.757 360.683 484.562 348.907C483.022 340.65 479.755 331.483 476.913 326.525Z" fill="#455A64"/>
<path d="M482.211 396.169C486.283 386.931 488.978 377.144 490.207 367.121C491.008 360.243 489.58 350.948 487.457 338.544C486.637 334.006 486.226 329.404 486.229 324.793C486.234 324.28 486.409 323.782 486.727 323.379C487.045 322.976 487.487 322.689 487.985 322.565C488.482 322.44 489.007 322.485 489.477 322.691C489.947 322.897 490.335 323.254 490.581 323.705C491.754 325.8 495.147 332.958 496.009 337.445C498.361 349.692 501.027 355.816 498.988 367.435C496.95 379.054 489.423 396.954 489.423 396.954L482.211 396.169Z" fill="#455A64"/>
<path d="M490.962 396.954C490.962 396.954 516.592 341.799 518.369 333.617C520.145 325.434 526.185 306.579 526.895 307.646C527.606 308.713 528.672 318.675 524.053 330.059C519.434 341.444 499.714 398.634 499.714 398.634H490.962" fill="#455A64"/>
<path d="M479.406 394.486C479.153 394.342 478.913 394.177 478.688 393.992C478.233 393.647 477.542 393.162 476.703 392.474C474.305 390.562 472.006 388.53 469.815 386.386C462.598 379.27 456.346 371.235 451.22 362.487C446.11 353.743 441.859 344.522 438.528 334.956C437.239 331.292 436.298 328.294 435.688 326.211C435.375 325.172 435.16 324.356 435.008 323.805C434.918 323.528 434.852 323.244 434.81 322.956C434.934 323.219 435.035 323.493 435.114 323.774C435.307 324.364 435.567 325.155 435.892 326.147C436.564 328.209 437.559 331.185 438.892 334.824C442.32 344.322 446.604 353.487 451.691 362.208C456.801 370.913 462.981 378.943 470.086 386.109C472.829 388.839 475.177 390.919 476.838 392.309C477.655 393.02 478.323 393.532 478.755 393.905C478.988 394.08 479.206 394.275 479.406 394.486Z" fill="#263238"/>
<path d="M482.21 368.027C482.086 367.495 482.009 366.954 481.98 366.408C481.858 365.266 481.699 363.779 481.508 361.987C481.102 358.256 480.468 353.11 479.563 347.457C478.653 341.803 477.644 336.717 476.861 333.046C476.482 331.285 476.168 329.823 475.926 328.7C475.783 328.173 475.687 327.635 475.638 327.091C475.848 327.595 476.014 328.116 476.133 328.649C476.42 329.66 476.8 331.133 477.239 332.961C478.119 336.616 479.191 341.703 480.104 347.37C481.011 353.036 481.585 358.203 481.893 361.95C482.048 363.823 482.148 365.342 482.192 366.392C482.246 366.936 482.252 367.483 482.21 368.027Z" fill="#263238"/>
<path d="M488.214 323.272C488.337 323.496 488.439 323.73 488.517 323.973C488.711 324.492 488.967 325.173 489.285 326.022C489.624 326.911 490.014 328.007 490.385 329.306C490.766 330.601 491.26 332.061 491.631 333.722C491.833 334.55 492.045 335.414 492.266 336.316C492.481 337.219 492.633 338.174 492.83 339.155C493.248 341.113 493.507 343.236 493.818 345.465C494.984 355.179 494.632 365.015 492.774 374.62C492.305 376.821 491.895 378.921 491.337 380.844C491.071 381.809 490.851 382.75 490.572 383.636C490.287 384.518 490.015 385.365 489.753 386.177C489.264 387.807 488.667 389.228 488.195 390.493C487.732 391.762 487.265 392.827 486.863 393.689C486.485 394.513 486.182 395.173 485.95 395.677C485.855 395.914 485.737 396.141 485.599 396.354C485.659 396.106 485.743 395.864 485.85 395.632C486.057 395.118 486.328 394.445 486.667 393.606C487.038 392.733 487.475 391.659 487.909 390.384C488.353 389.113 488.922 387.689 489.385 386.058C489.634 385.247 489.895 384.4 490.166 383.517C490.434 382.632 490.643 381.692 490.898 380.73C491.434 378.811 491.825 376.718 492.279 374.526C494.07 364.965 494.419 355.189 493.317 345.523C493.021 343.305 492.781 341.19 492.383 339.237C492.197 338.259 492.056 337.307 491.853 336.405C491.645 335.506 491.446 334.642 491.255 333.815C490.91 332.155 490.444 330.693 490.091 329.394C489.75 328.091 489.391 326.988 489.083 326.091C488.806 325.229 488.583 324.538 488.413 324.011C488.324 323.772 488.257 323.525 488.214 323.272Z" fill="#263238"/>
<path d="M526.601 308.754C526.606 308.837 526.599 308.921 526.58 309.002C526.55 309.196 526.512 309.431 526.467 309.719C526.354 310.346 526.212 311.278 525.961 312.464C525.467 314.836 524.642 318.251 523.36 322.393C522.083 326.537 520.332 331.395 518.256 336.732C516.188 342.072 513.785 347.889 511.51 354.082C509.199 360.265 507.419 366.299 505.747 371.775C504.09 377.255 502.517 382.174 500.998 386.235C499.825 389.452 498.474 392.6 496.951 395.667C496.427 396.759 495.954 397.575 495.65 398.135L495.291 398.765C495.255 398.841 495.209 398.91 495.152 398.971C495.171 398.89 495.201 398.812 495.242 398.739C495.326 398.562 495.428 398.346 495.552 398.083C495.824 397.507 496.266 396.678 496.759 395.574C497.791 393.388 499.18 390.174 500.634 386.101C502.103 382.034 503.634 377.116 505.264 371.629C506.909 366.148 508.679 360.093 510.996 353.892C513.277 347.685 515.695 341.872 517.787 336.547C519.887 331.226 521.671 326.394 522.991 322.276C524.317 318.161 525.196 314.771 525.753 312.418C526.035 311.241 526.211 310.318 526.358 309.698C526.425 309.415 526.48 309.183 526.525 308.992C526.539 308.909 526.564 308.829 526.601 308.754Z" fill="#263238"/>
<path d="M447.568 296.572C447.215 296.232 446.759 296.021 446.272 295.969C445.786 295.918 445.296 296.03 444.88 296.288C444.464 296.546 444.145 296.936 443.974 297.395C443.803 297.854 443.79 298.357 443.936 298.825C444.813 301.662 445.889 304.433 447.156 307.118C450.679 314.616 461.03 341.519 465.875 356.294C470.719 371.069 477.546 398.635 477.546 398.635L487.892 396.954C487.892 396.954 478.427 351.663 469.178 335.345C461.746 322.233 454.314 303.284 447.568 296.572Z" fill="#455A64"/>
<path d="M468.709 365.535C468.93 365.929 469.109 366.345 469.243 366.777C469.549 367.589 469.965 368.776 470.435 370.255C471.388 373.21 472.554 377.338 473.729 381.924C474.9 386.512 475.877 390.685 476.557 393.711C476.868 395.142 477.128 396.345 477.335 397.301C477.454 397.737 477.526 398.184 477.549 398.635C477.364 398.223 477.223 397.793 477.128 397.351C476.876 396.406 476.559 395.217 476.181 393.802C475.389 390.686 474.349 386.59 473.199 382.06C472.025 377.479 470.921 373.344 470.065 370.367C469.656 368.963 469.313 367.783 469.041 366.844C468.884 366.421 468.773 365.982 468.709 365.535Z" fill="#263238"/>
<path d="M482.747 397.794C482.715 397.705 482.696 397.612 482.688 397.518C482.657 397.302 482.619 397.034 482.571 396.702C482.462 395.986 482.366 394.922 482.147 393.565C481.767 390.843 481.089 386.921 479.978 382.137C478.655 376.539 477.039 371.014 475.135 365.586C473.013 359.448 470.351 352.816 467.335 345.953C461.249 332.241 455.169 320.08 451.173 311.088C449.153 306.602 447.59 302.94 446.56 300.388C446.035 299.117 445.659 298.116 445.397 297.441C445.28 297.127 445.186 296.873 445.11 296.669C445.075 296.675 445.04 296.669 445.01 296.65C444.98 296.632 444.958 296.603 444.948 296.569C444.938 296.535 444.941 296.499 444.957 296.468C444.972 296.436 444.999 296.411 445.031 296.398C445.064 296.385 445.1 296.385 445.133 296.397C445.166 296.409 445.193 296.433 445.209 296.464C445.226 296.495 445.23 296.531 445.221 296.565C445.212 296.599 445.191 296.629 445.162 296.648C445.251 296.846 445.362 297.094 445.499 297.4C445.804 298.103 446.224 299.074 446.757 300.305C447.846 302.83 449.462 306.465 451.525 310.927C455.607 319.871 461.74 332 467.836 345.731C470.857 352.605 473.511 359.258 475.612 365.421C477.5 370.872 479.083 376.424 480.355 382.05C481.215 385.843 481.884 389.677 482.358 393.537C482.545 394.901 482.607 395.97 482.681 396.69C482.706 397.025 482.727 397.295 482.744 397.512C482.757 397.606 482.758 397.7 482.747 397.794Z" fill="#263238"/>
<path d="M487.892 396.954C487.729 396.384 487.613 395.802 487.544 395.213C487.338 393.997 487.066 392.391 486.738 390.451C486.025 386.437 484.937 380.908 483.371 374.891C481.822 368.867 480.076 363.509 478.733 359.661C478.074 357.806 477.529 356.273 477.115 355.111C476.887 354.564 476.703 354 476.565 353.423C476.858 353.938 477.108 354.477 477.314 355.033C477.76 356.084 478.383 357.615 479.097 359.529C480.966 364.515 482.57 369.597 483.901 374.753C485.236 379.907 486.31 385.125 487.12 390.387C487.415 392.409 487.64 394.047 487.755 395.184C487.848 395.769 487.894 396.361 487.892 396.954Z" fill="#263238"/>
<path d="M509.128 395.466H468.745V444.735H509.128V395.466Z" fill="#E8505B"/>
<g opacity="0.3">
<path d="M509.128 395.466H468.745V444.735H509.128V395.466Z" fill="black"/>
</g>
<path d="M496.247 395.466H460.419V444.735H496.247V395.466Z" fill="#E8505B"/>
<path d="M168.078 134.249L166.929 226.807C166.734 242.547 169.659 265.709 194.525 264.883C216.045 262.538 221.754 242.137 221.921 227.449C222 220.481 222.081 214.671 222.136 213.955C222.136 213.955 245.694 212.031 247.682 188.731C248.643 177.472 248.736 154.119 248.576 132.991C248.487 122.047 244.287 111.537 236.812 103.554C229.336 95.5698 219.134 90.6966 208.233 89.9034L205.986 89.7392C181.653 89.3843 167.758 109.881 168.078 134.249Z" fill="#FFBE9D"/>
<path d="M222.136 213.955C222.136 213.955 207.393 213.744 192.468 202.761C192.468 202.761 198.623 220.336 222.015 219.935L222.136 213.955Z" fill="#EB996E"/>
<path d="M208.798 142.539C208.335 143.011 205.649 140.845 201.749 140.74C197.857 140.577 194.941 142.55 194.531 142.048C194.329 141.824 194.811 140.963 196.081 140.069C197.792 138.922 199.82 138.346 201.877 138.423C203.912 138.479 205.875 139.194 207.47 140.46C208.643 141.44 209.025 142.329 208.798 142.539Z" fill="#263238"/>
<path d="M208.679 150.613C208.627 151.435 208.256 152.204 207.646 152.756C207.037 153.309 206.235 153.601 205.414 153.57C205.011 153.573 204.612 153.494 204.24 153.34C203.868 153.186 203.531 152.959 203.248 152.672C202.965 152.385 202.743 152.045 202.593 151.67C202.444 151.296 202.371 150.895 202.378 150.492C202.43 149.671 202.8 148.902 203.409 148.35C204.019 147.797 204.819 147.504 205.641 147.534C206.044 147.531 206.443 147.609 206.815 147.764C207.187 147.918 207.525 148.145 207.808 148.432C208.091 148.719 208.314 149.06 208.464 149.435C208.613 149.809 208.687 150.21 208.679 150.613Z" fill="#263238"/>
<path d="M218.563 169.694C218.561 169.489 220.814 169.267 224.452 169.069C225.373 169.041 226.251 168.923 226.45 168.31C226.596 167.37 226.453 166.408 226.038 165.553C225.34 163.275 224.609 160.886 223.844 158.386C220.814 148.19 218.692 139.834 219.103 139.715C219.515 139.596 222.304 147.764 225.333 157.96C226.058 160.473 226.751 162.873 227.411 165.16C227.681 166.225 228.189 167.449 227.623 168.787C227.467 169.099 227.242 169.373 226.965 169.585C226.688 169.798 226.366 169.945 226.023 170.014C225.507 170.115 224.98 170.149 224.455 170.117C220.813 170.047 218.561 169.899 218.563 169.694Z" fill="#263238"/>
<path d="M207.137 127.862C206.76 128.728 203.639 128.076 199.903 128.268C196.162 128.381 193.093 129.286 192.66 128.453C192.469 128.055 193.05 127.257 194.32 126.485C195.991 125.532 197.87 125.003 199.792 124.943C201.706 124.845 203.614 125.22 205.35 126.035C206.668 126.702 207.301 127.45 207.137 127.862Z" fill="#263238"/>
<path d="M244.162 135.096C243.754 135.802 240.711 135.018 237.025 134.904C233.339 134.723 230.279 135.263 229.89 134.525C229.719 134.173 230.327 133.541 231.612 132.98C233.343 132.287 235.203 131.98 237.064 132.078C238.946 132.134 240.793 132.59 242.485 133.415C243.753 134.077 244.343 134.758 244.162 135.096Z" fill="#263238"/>
<path d="M168.72 151.656C168.335 151.455 153.064 145.746 152.41 161.727C151.756 177.708 167.913 175.069 167.959 174.612C168.006 174.155 168.72 151.656 168.72 151.656Z" fill="#FFBE9D"/>
<path d="M163.333 168.358C163.264 168.304 163.046 168.541 162.568 168.738C161.895 168.993 161.149 168.978 160.488 168.695C158.827 168.006 157.517 165.267 157.558 162.384C157.573 161.012 157.895 159.662 158.499 158.43C158.669 157.937 158.956 157.493 159.336 157.135C159.715 156.778 160.176 156.519 160.678 156.379C161.001 156.308 161.338 156.352 161.632 156.503C161.926 156.655 162.158 156.905 162.287 157.209C162.483 157.665 162.368 157.98 162.452 158.011C162.495 158.053 162.806 157.757 162.704 157.092C162.631 156.692 162.424 156.33 162.117 156.065C161.691 155.715 161.145 155.546 160.596 155.595C159.936 155.698 159.313 155.969 158.786 156.382C158.26 156.795 157.849 157.336 157.591 157.953C156.855 159.309 156.461 160.825 156.444 162.368C156.415 165.593 157.938 168.673 160.218 169.436C160.641 169.578 161.091 169.624 161.534 169.568C161.977 169.513 162.402 169.359 162.777 169.117C163.288 168.743 163.386 168.389 163.333 168.358Z" fill="#EB996E"/>
<path d="M214.795 180.759C214.969 180.355 211.842 179.418 209.644 176.481C208.728 175.193 207.985 173.79 207.436 172.307C206.971 171.147 206.618 170.419 206.445 170.472C206.283 170.523 206.323 171.308 206.579 172.571C206.915 174.26 207.616 175.856 208.633 177.245C209.682 178.64 211.091 179.721 212.71 180.37C213.929 180.865 214.753 180.896 214.795 180.759Z" fill="#263238"/>
<path d="M244.337 144.009C243.874 144.481 241.188 142.315 237.289 142.21C233.396 142.047 230.479 144.02 230.07 143.518C229.868 143.294 230.35 142.433 231.62 141.54C233.331 140.392 235.359 139.816 237.416 139.893C239.451 139.949 241.414 140.664 243.009 141.931C244.182 142.91 244.564 143.799 244.337 144.009Z" fill="#263238"/>
<path d="M243.698 151.747C243.646 152.569 243.275 153.338 242.665 153.89C242.055 154.442 241.254 154.734 240.432 154.704C240.03 154.706 239.631 154.628 239.259 154.474C238.887 154.32 238.55 154.092 238.267 153.806C237.984 153.519 237.761 153.178 237.612 152.804C237.463 152.43 237.389 152.029 237.397 151.626C237.449 150.805 237.819 150.036 238.428 149.483C239.037 148.931 239.838 148.638 240.66 148.668C241.062 148.665 241.462 148.743 241.834 148.897C242.206 149.052 242.544 149.279 242.827 149.566C243.11 149.853 243.333 150.194 243.483 150.569C243.632 150.943 243.705 151.344 243.698 151.747Z" fill="#263238"/>
<path d="M264.809 102.049C263.224 99.4692 260.765 97.5463 257.881 96.6325C254.997 95.7186 251.881 95.8749 249.103 97.0728C249.827 93.3716 249.32 89.5348 247.661 86.1492C246.001 82.7635 243.28 80.0154 239.913 78.3253C236.546 76.6351 232.719 76.0959 229.017 76.7901C225.315 77.4844 221.942 79.3738 219.414 82.1695C219.213 81.1812 218.803 80.2476 218.21 79.4318C217.618 78.616 216.858 77.9372 215.981 77.4411C214.218 76.4611 212.263 75.8771 210.252 75.7298C205.491 75.2012 200.674 75.9321 196.283 77.8495C191.891 79.767 188.079 82.804 185.226 86.6576C180.586 86.1066 175.882 86.655 171.492 88.2587C167.103 89.8624 163.151 92.4764 159.956 95.89C152.459 104.205 151.046 123.478 159.257 140.126L161.19 150.564C163.765 150.557 166.121 150.741 167.708 152.17C169.865 154.112 170.83 157.766 174.414 156.379C176.238 155.673 177.903 151.84 178.514 149.98C182.567 137.58 183.908 124.451 182.446 111.487C185.006 108.757 188.066 106.545 191.46 104.972L191.184 105.221C197.687 102.959 205.043 100.734 211.213 103.791C215.999 106.163 218.812 111.135 222.39 115.104C225.694 118.766 229.705 121.721 234.18 123.791C238.654 125.861 243.501 127.002 248.428 127.147C248.772 133.708 248.222 142.981 248.566 149.542L254.077 139.032L254.082 139.085C254.534 138.316 254.907 137.54 255.267 136.763L255.391 136.527L255.391 136.498L255.395 136.49C256.403 135.67 257.167 134.168 258.87 132.214C260.496 130.297 261.565 127.97 261.963 125.487C262.362 123.004 262.073 120.459 261.128 118.129C263.568 116.338 265.282 113.728 265.958 110.775C266.634 107.823 266.226 104.725 264.809 102.049Z" fill="#263238"/>
<path d="M255.271 102.29C255.287 102.286 255.326 102.403 255.387 102.633C255.474 102.971 255.523 103.318 255.534 103.667C255.584 104.978 255.262 106.277 254.605 107.412C254.149 108.21 253.544 108.912 252.822 109.479C251.972 110.132 250.972 110.559 249.913 110.722C248.683 110.916 247.422 110.787 246.256 110.347C245.09 109.908 244.058 109.173 243.26 108.214L243.656 107.873C244.426 108.73 244.83 109.855 244.78 111.007C244.739 112.532 244.098 113.979 242.997 115.033C241.945 115.962 240.621 116.526 239.223 116.641C236.893 116.813 234.576 116.175 232.662 114.834C231.39 113.968 230.214 112.967 229.155 111.85C228.744 111.465 228.37 111.043 228.038 110.588C228.484 110.929 228.905 111.301 229.298 111.702C230.398 112.748 231.591 113.691 232.863 114.519C234.721 115.761 236.944 116.338 239.171 116.157C240.458 116.039 241.675 115.513 242.643 114.655C243.636 113.693 244.213 112.379 244.252 110.995C244.299 109.982 243.948 108.99 243.275 108.231L243.671 107.89C244.411 108.781 245.368 109.468 246.448 109.883C247.529 110.299 248.698 110.43 249.844 110.265C250.766 110.125 251.646 109.781 252.418 109.257C253.19 108.733 253.835 108.043 254.307 107.236C254.964 106.161 255.323 104.93 255.346 103.67C255.353 102.782 255.223 102.3 255.271 102.29Z" fill="#455A64"/>
<path d="M235.302 84.7766C235.312 84.761 235.429 84.8136 235.646 84.9294C235.957 85.1066 236.255 85.3076 236.536 85.5306C237.593 86.3493 238.422 87.4272 238.942 88.6601C239.331 89.5908 239.485 90.6032 239.389 91.6075C239.293 92.6118 238.952 93.5769 238.394 94.4173C237.72 95.4354 236.677 96.1519 235.486 96.4163C234.85 96.5555 234.192 96.5632 233.553 96.4391C232.913 96.315 232.306 96.0616 231.768 95.6944C231.43 95.4464 231.132 95.149 230.883 94.8122L231.339 94.5538C231.569 95.1279 231.677 95.7436 231.656 96.3618C231.636 96.9799 231.487 97.5871 231.22 98.1447C230.746 99.1851 229.925 100.027 228.898 100.526C228.045 100.92 227.117 101.123 226.179 101.121C225.24 101.119 224.312 100.912 223.461 100.515C222.339 99.9955 221.34 99.2412 220.532 98.3031C220.217 97.9843 219.955 97.6169 219.756 97.215C219.79 97.1894 220.076 97.5671 220.677 98.1674C221.513 99.0229 222.507 99.7073 223.605 100.182C224.409 100.531 225.278 100.704 226.154 100.69C227.03 100.675 227.893 100.474 228.685 100.099C229.604 99.6387 230.335 98.8734 230.754 97.9335C230.988 97.4404 231.117 96.9044 231.134 96.359C231.152 95.8137 231.057 95.2705 230.855 94.7635L230.012 92.8022L231.312 94.5051C231.528 94.7945 231.785 95.0504 232.076 95.2646C232.555 95.5889 233.094 95.8131 233.662 95.9239C234.23 96.0346 234.814 96.0296 235.379 95.9092C236.446 95.6781 237.383 95.0443 237.994 94.1394C238.518 93.3638 238.847 92.4726 238.951 91.5421C239.056 90.6116 238.933 89.6696 238.595 88.7969C238.122 87.6008 237.371 86.535 236.403 85.6883C235.723 85.076 235.277 84.8176 235.302 84.7766Z" fill="#455A64"/>
<path d="M370.726 201.288L333.905 229.444C333.387 229.84 332.956 230.338 332.638 230.907C332.319 231.477 332.121 232.105 332.055 232.754C331.989 233.404 332.056 234.059 332.253 234.681C332.45 235.304 332.772 235.879 333.199 236.371C333.999 237.293 335.122 237.873 336.336 237.992C337.549 238.111 338.762 237.759 339.726 237.01L376.243 208.593L381.184 198.836L370.726 201.288Z" fill="#E8505B"/>
<path opacity="0.5" d="M376.456 199.945L379.068 202.989L376.246 208.593C375.907 208.629 375.564 208.587 375.243 208.47C374.922 208.354 374.633 208.165 374.396 207.919C374.159 207.673 373.981 207.376 373.876 207.051C373.772 206.726 373.742 206.381 373.791 206.043C373.454 206.105 373.108 206.078 372.785 205.965C372.462 205.852 372.174 205.657 371.949 205.399C371.725 205.14 371.571 204.828 371.503 204.493C371.435 204.157 371.456 203.809 371.563 203.484C371.563 203.484 369.648 203.313 370.728 201.288L376.456 199.945Z" fill="white"/>
<path d="M333.908 229.444L339.951 236.836L341.98 235.259L336.185 227.703L333.908 229.444Z" fill="#263238"/>
<path d="M331.191 300.028L329.867 299.79L356.995 252.304L352.707 238.615C352.707 238.615 347.736 219.118 351.879 214.14C351.879 214.14 360.94 203.461 363.879 203.608C366.819 203.755 369.17 204.344 369.758 206.552C369.758 206.552 374.755 205.963 376.078 207.582C376.958 208.692 377.745 209.873 378.429 211.114C378.429 211.114 383.867 210.672 385.337 215.382C385.337 215.382 390.481 218.031 390.922 221.858C391.363 225.684 389.893 243.492 388.276 248.054C386.66 252.616 380.634 262.183 378.87 276.311C377.107 290.44 370.891 299.61 365.366 320.26L350.358 326.203L331.191 300.028Z" fill="#FFBE9D"/>
<path d="M369.5 206.251C369.61 206.405 367.743 207.641 366.334 209.923C364.891 212.184 364.589 214.405 364.402 214.372C364.248 214.39 364.284 212.001 365.812 209.594C367.315 207.173 369.45 206.104 369.5 206.251Z" fill="#EB996E"/>
<path d="M378.135 211.107C378.236 211.266 376.454 212.342 375.037 214.393C373.588 216.423 373.18 218.466 372.997 218.425C372.841 218.432 372.992 216.208 374.532 214.038C376.05 211.853 378.089 210.958 378.135 211.107Z" fill="#EB996E"/>
<path d="M385.046 215.233C385.161 215.376 383.81 216.558 382.571 218.353C381.315 220.136 380.673 221.813 380.5 221.755C380.747 220.405 381.281 219.125 382.066 217.999C382.85 216.874 383.867 215.931 385.046 215.233Z" fill="#EB996E"/>
<path d="M359.572 216.795C358.623 216.386 357.591 216.21 356.561 216.28C355.53 216.35 354.531 216.664 353.646 217.198C353.593 217.145 353.79 216.814 354.284 216.448C354.944 215.989 355.717 215.718 356.519 215.664C357.321 215.609 358.123 215.773 358.839 216.139C359.377 216.435 359.618 216.736 359.572 216.795Z" fill="#EB996E"/>
<path d="M370.392 223.569C369.856 222.517 369.091 221.6 368.153 220.884C367.216 220.168 366.13 219.672 364.976 219.433C364.974 219.358 365.394 219.26 366.076 219.348C366.968 219.486 367.81 219.846 368.527 220.393C369.244 220.941 369.813 221.659 370.182 222.483C370.448 223.119 370.464 223.55 370.392 223.569Z" fill="#EB996E"/>
<path d="M381.132 225.866C381 225.994 379.82 224.655 377.796 224.13C375.784 223.56 374.091 224.12 374.042 223.943C374.014 223.873 374.401 223.626 375.115 223.456C376.055 223.256 377.029 223.283 377.957 223.534C378.885 223.786 379.74 224.255 380.451 224.903C380.982 225.411 381.191 225.82 381.132 225.866Z" fill="#EB996E"/>
<path d="M107.441 277.66C107.441 277.66 90.8157 372.217 91.6183 381.058C92.421 389.9 96.8422 403.965 106.872 406.377C113.214 407.796 119.79 407.796 126.132 406.377L114.093 290.234L107.441 277.66Z" fill="#E8505B"/>
<path d="M156.121 228.887C156.121 228.887 136.225 243.05 131.826 247.215C113.432 264.637 109.582 271.766 107.442 277.66C105.301 283.554 120.212 420.457 120.212 420.457L123.233 444.375L262.886 444.736V322.53L241.905 236.525L228.994 232.846L226.388 222.594C226.388 222.594 210.346 210.734 183.889 210.392C175.749 210.286 164.236 213.489 157.804 218.486L156.121 228.887Z" fill="#E8505B"/>
<path d="M226.284 236.879C226.284 236.879 240.636 236.232 241.905 236.525C246.328 237.548 258.476 248.699 272.312 262.441C285.512 275.552 311.484 302.828 311.484 302.828C311.484 302.828 316.152 298.108 321.476 304.408L341.979 274.542C341.979 274.542 372.753 278.327 377.593 301.587C377.593 301.587 368.16 319.621 360.434 332.515C360.434 332.515 331.833 380.044 309.241 371.437C288.605 363.576 262.729 342.552 259.086 338.061L228.704 316.351C228.704 316.351 207.895 276.615 217.09 256.747L226.284 236.879Z" fill="#E8505B"/>
<path d="M228.992 232.846C228.742 232.822 228.495 232.772 228.256 232.695C227.719 232.553 227.032 232.372 226.184 232.148C224.382 231.689 221.764 231.06 218.496 230.442C209.977 228.86 201.37 227.797 192.722 227.259C184.079 226.645 175.402 226.671 166.763 227.337C163.452 227.621 160.791 228.035 158.964 228.366L156.864 228.782C156.62 228.844 156.37 228.879 156.119 228.887C156.348 228.786 156.588 228.71 156.833 228.662C157.373 228.524 158.063 228.349 158.916 228.131C161.492 227.572 164.097 227.162 166.72 226.902C175.379 226.105 184.088 226.019 192.761 226.643C201.435 227.174 210.062 228.3 218.582 230.014C221.849 230.688 224.461 231.385 226.248 231.916C227.086 232.186 227.763 232.405 228.293 232.576C228.535 232.64 228.769 232.73 228.992 232.846Z" fill="#263238"/>
<path d="M174.599 225.732C174.43 225.755 173.966 223.414 173.562 220.504C173.158 217.593 172.968 215.215 173.136 215.191C173.305 215.168 173.769 217.508 174.173 220.419C174.577 223.329 174.767 225.708 174.599 225.732Z" fill="#263238"/>
<path d="M179.813 225.283C178.425 221.93 178.168 218.214 179.08 214.701C179.262 214.727 178.988 217.099 179.199 220.01C179.391 222.921 179.99 225.232 179.813 225.283Z" fill="#263238"/>
<g opacity="0.3">
<path d="M156.581 228.767C178.437 232.641 200.591 228.803 223.72 231.544C201.387 226.915 178.129 224.72 156.581 228.767Z" fill="black"/>
</g>
<g opacity="0.3">
<path d="M118.226 406.556C105.932 377.725 107.387 345.136 109.055 313.832L118.226 406.556Z" fill="black"/>
</g>
<path d="M107.44 298.275C107.476 298.393 107.497 298.515 107.505 298.638C107.538 298.913 107.581 299.266 107.634 299.71C107.739 300.695 107.885 302.077 108.071 303.837C108.43 307.466 108.942 312.643 109.573 319.024C110.822 331.849 112.528 349.569 114.561 369.122C116.601 388.682 118.636 406.367 120.265 419.148C121.067 425.54 121.757 430.707 122.242 434.277C122.473 436.031 122.655 437.409 122.784 438.391C122.836 438.834 122.878 439.188 122.91 439.463C122.931 439.584 122.939 439.708 122.932 439.831C122.891 439.715 122.862 439.595 122.848 439.472C122.8 439.199 122.739 438.849 122.662 438.409C122.505 437.431 122.284 436.059 122.004 434.312C121.447 430.752 120.691 425.591 119.833 419.205C118.093 406.434 115.988 388.75 113.948 369.187C111.914 349.629 110.277 331.901 109.139 319.064C108.59 312.676 108.145 307.492 107.832 303.859C107.695 302.095 107.588 300.709 107.511 299.721C107.482 299.275 107.46 298.92 107.443 298.644C107.428 298.521 107.427 298.397 107.44 298.275Z" fill="#263238"/>
<path d="M201.989 282.805C201.691 282.848 201.39 282.864 201.089 282.853C200.44 282.857 199.582 282.863 198.51 282.871C196.271 282.862 193.031 282.895 189.031 282.988C181.031 283.169 169.981 283.756 157.856 285.194C145.728 286.646 134.848 288.672 127.029 290.377C123.119 291.226 119.962 291.955 117.788 292.49C116.744 292.735 115.909 292.93 115.277 293.079C114.987 293.16 114.691 293.216 114.391 293.243C114.666 293.122 114.953 293.027 115.246 292.958L117.729 292.257C119.886 291.65 123.03 290.856 126.934 289.951C147.306 285.264 168.122 282.784 189.023 282.552C193.03 282.514 196.274 282.548 198.513 282.63C199.585 282.671 200.443 282.704 201.091 282.729C201.392 282.726 201.693 282.752 201.989 282.805Z" fill="#263238"/>
<path d="M148.36 313.422C148.19 313.416 148.51 300.322 149.076 284.179C149.643 268.031 150.239 254.949 150.409 254.955C150.579 254.961 150.259 268.052 149.693 284.201C149.127 300.343 148.53 313.428 148.36 313.422Z" fill="#263238"/>
<path d="M219.735 311.803C219.538 311.545 219.363 311.27 219.211 310.982C218.863 310.382 218.396 309.579 217.812 308.572C216.563 306.425 214.811 303.411 212.658 299.709C210.053 295.337 207.888 290.717 206.195 285.917C205.261 283.05 204.615 280.097 204.268 277.101C203.964 273.879 203.954 270.636 204.24 267.412C204.667 261.165 206.23 255.047 208.851 249.362C210.047 246.899 211.576 244.614 213.396 242.57C214.998 240.803 216.835 239.266 218.857 238.004C221.767 236.131 225.096 235.014 228.545 234.754C229.801 234.65 231.064 234.72 232.301 234.964C231.055 234.907 229.808 234.917 228.564 234.994C225.18 235.341 221.931 236.501 219.09 238.374C217.121 239.638 215.333 241.164 213.776 242.912C212.007 244.934 210.521 247.189 209.36 249.613C206.802 255.247 205.275 261.295 204.854 267.47C204.572 270.653 204.577 273.854 204.869 277.036C205.204 279.992 205.829 282.908 206.736 285.742C208.394 290.517 210.505 295.123 213.039 299.496C215.12 303.238 216.814 306.285 218.021 308.455C218.564 309.486 218.997 310.309 219.32 310.922C219.483 311.204 219.622 311.499 219.735 311.803Z" fill="#263238"/>
<g opacity="0.3">
<path d="M116.65 293.171C125.476 292.716 134.252 291.557 142.893 289.705C141.824 293.529 141.329 297.491 141.424 301.461C144.166 298.372 146.163 294.693 147.258 290.709C147.574 292.875 148.324 294.954 149.461 296.824C150.599 298.693 152.101 300.313 153.879 301.587C154.752 297.656 154.951 293.606 154.469 289.608C167.526 288.032 180.498 285.883 193.383 283.159C167.297 282.526 141.262 285.772 116.128 292.79" fill="black"/>
</g>
<path d="M284.543 358.353C284.331 358.254 284.129 358.133 283.941 357.994C283.515 357.709 282.961 357.339 282.272 356.879C280.829 355.902 278.756 354.466 276.207 352.675C271.109 349.092 264.122 344.063 256.503 338.374C248.883 332.682 242.075 327.41 237.192 323.539C234.75 321.604 232.785 320.024 231.439 318.917C230.802 318.388 230.29 317.962 229.896 317.634C229.708 317.494 229.536 317.334 229.38 317.159C229.587 317.269 229.782 317.401 229.962 317.551C230.372 317.858 230.904 318.258 231.566 318.756C232.998 319.853 234.986 321.377 237.422 323.244C242.362 327.038 249.202 332.261 256.819 337.95C264.434 343.636 271.383 348.711 276.424 352.37C278.906 354.175 280.932 355.649 282.391 356.71C283.056 357.204 283.591 357.601 284.002 357.906C284.197 358.037 284.378 358.186 284.543 358.353Z" fill="#263238"/>
<path d="M318.628 327.18C318.536 327.176 318.595 325.645 318.417 323.188C317.955 316.77 316.023 310.545 312.771 304.996C311.527 302.871 310.611 301.643 310.685 301.587C310.957 301.825 311.197 302.097 311.4 302.396C312.007 303.166 312.571 303.969 313.09 304.801C316.564 310.317 318.529 316.651 318.79 323.167C318.834 324.147 318.823 325.129 318.759 326.108C318.761 326.469 318.717 326.83 318.628 327.18Z" fill="#263238"/>
<path d="M324.914 324.883C324.83 324.867 325.023 323.68 325.17 321.754C325.564 316.73 324.983 311.677 323.46 306.873C322.88 305.031 322.422 303.92 322.501 303.885C322.68 304.106 322.823 304.355 322.923 304.622C323.257 305.316 323.554 306.028 323.814 306.753C325.556 311.561 326.148 316.712 325.542 321.791C325.454 322.556 325.325 323.316 325.157 324.068C325.121 324.351 325.039 324.626 324.914 324.883Z" fill="#263238"/>
<path d="M372.553 311.803C372.523 311.81 372.568 311.607 372.318 311.421C372.145 311.309 372.004 311.155 371.906 310.974C371.787 310.762 371.711 310.5 371.564 310.255C371.294 309.747 370.62 309.352 370.13 308.601C369.602 307.767 369.19 306.865 368.906 305.92C368.22 303.506 367.034 301.265 365.425 299.341C364.46 298.219 363.412 297.173 362.288 296.211C361.098 295.157 359.833 294.19 358.504 293.318C357.221 292.377 355.868 291.536 354.456 290.802C353.065 290.12 351.722 289.462 350.439 288.833C349.155 288.227 347.965 287.599 346.799 287.098C345.637 286.603 344.55 286.139 343.55 285.712C343.067 285.522 342.595 285.306 342.136 285.066C341.706 284.809 341.347 284.529 340.983 284.327C340.61 284.128 340.259 283.941 339.931 283.767C339.599 283.591 339.332 283.362 339.09 283.208C338.589 282.896 338.149 282.724 337.868 282.573C337.716 282.512 337.575 282.425 337.453 282.316C337.611 282.351 337.765 282.405 337.911 282.475C338.352 282.629 338.781 282.815 339.195 283.032C339.81 283.428 340.455 283.774 341.125 284.067C341.517 284.27 341.893 284.544 342.303 284.775C342.701 285 343.213 285.16 343.702 285.37C344.707 285.778 345.799 286.22 346.966 286.693C348.136 287.174 349.355 287.796 350.654 288.396C351.941 289.016 353.289 289.665 354.685 290.337C356.12 291.074 357.494 291.923 358.796 292.876C360.145 293.762 361.426 294.746 362.63 295.822C363.769 296.806 364.829 297.879 365.799 299.03C367.427 301.011 368.608 303.321 369.261 305.803C369.516 306.726 369.89 307.612 370.376 308.437C370.799 309.15 371.456 309.567 371.744 310.155C371.892 310.439 371.95 310.703 372.047 310.903C372.124 311.075 372.241 311.225 372.389 311.342C372.649 311.588 372.559 311.822 372.553 311.803Z" fill="#263238"/>
<path d="M242.414 442.369C242.268 442.369 242.15 416.666 242.15 384.968C242.15 353.259 242.268 327.562 242.414 327.562C242.559 327.562 242.677 353.259 242.677 384.968C242.677 416.666 242.559 442.369 242.414 442.369Z" fill="#263238"/>
</g>
<defs>
<clipPath id="clip0_16889_14361">
<rect width="650" height="445" fill="white"/>
</clipPath>
</defs>
</svg>
