<svg width="102" height="170" viewBox="0 0 102 170" fill="none" xmlns="http://www.w3.org/2000/svg">
<g clip-path="url(#clip0_18845_1045)">
<path d="M101.59 0H0V169.7H101.59V0Z" fill="#F5F5F5"/>
<path d="M26.9527 99.9316L28.0411 102.137L30.4757 102.491L28.7142 104.208L29.1302 106.631L26.9527 105.487L24.7752 106.631L25.1912 104.208L23.4297 102.491L25.8637 102.137L26.9527 99.9316Z" fill="#ED3030"/>
<path d="M39.0484 99.9316L40.1375 102.137L42.5714 102.491L40.8099 104.208L41.2259 106.631L39.0484 105.487L36.8709 106.631L37.2869 104.208L35.5254 102.491L37.96 102.137L39.0484 99.9316Z" fill="#ED3030"/>
<path d="M51.1451 99.9316L52.2335 102.137L54.6681 102.491L52.906 104.208L53.3219 106.631L51.1451 105.487L48.9676 106.631L49.3836 104.208L47.6221 102.491L50.056 102.137L51.1451 99.9316Z" fill="#ED3030"/>
<path d="M63.2403 99.9316L64.3287 102.137L66.7633 102.491L65.0018 104.208L65.4178 106.631L63.2403 105.487L61.0628 106.631L61.4788 104.208L59.7173 102.491L62.1513 102.137L63.2403 99.9316Z" fill="#ED3030"/>
<path d="M75.337 99.9316L76.426 102.137L78.86 102.491L77.0985 104.208L77.5144 106.631L75.337 105.487L73.1595 106.631L73.5755 104.208L71.814 102.491L74.2485 102.137L75.337 99.9316Z" fill="#ED3030"/>
<path d="M46.6496 119.824C46.6496 119.911 38.9372 119.982 29.4251 119.982C19.9099 119.982 12.1987 119.911 12.1987 119.824C12.1987 119.737 19.9099 119.666 29.4251 119.666C38.9366 119.666 46.6496 119.737 46.6496 119.824Z" fill="#E8505B"/>
<path d="M89.9393 127.302C89.9393 127.389 72.7378 127.459 51.524 127.459C30.3028 127.459 13.105 127.389 13.105 127.302C13.105 127.214 30.3028 127.144 51.524 127.144C72.7378 127.144 89.9393 127.215 89.9393 127.302Z" fill="#263238"/>
<path d="M89.9393 133.728C89.9393 133.815 72.7378 133.885 51.524 133.885C30.3028 133.885 13.105 133.814 13.105 133.728C13.105 133.641 30.3028 133.57 51.524 133.57C72.7378 133.569 89.9393 133.64 89.9393 133.728Z" fill="#263238"/>
<path d="M89.9393 140.153C89.9393 140.24 72.7378 140.31 51.524 140.31C30.3028 140.31 13.105 140.24 13.105 140.153C13.105 140.066 30.3028 139.995 51.524 139.995C72.7378 139.995 89.9393 140.066 89.9393 140.153Z" fill="#263238"/>
<path d="M89.9393 146.578C89.9393 146.665 72.7378 146.736 51.524 146.736C30.3028 146.736 13.105 146.665 13.105 146.578C13.105 146.491 30.3028 146.42 51.524 146.42C72.7378 146.42 89.9393 146.491 89.9393 146.578Z" fill="#263238"/>
<path d="M89.9393 153.003C89.9393 153.091 72.7378 153.161 51.524 153.161C30.3028 153.161 13.105 153.091 13.105 153.003C13.105 152.916 30.3028 152.846 51.524 152.846C72.7378 152.846 89.9393 152.917 89.9393 153.003Z" fill="#263238"/>
<path d="M94.1956 8.61633H6.68555V92.6157H94.1956V8.61633Z" fill="#E0E0E0"/>
<path d="M45.4278 22.5363C46.3422 19.4649 49.1564 17.1653 52.2731 16.4196C55.3898 15.6739 59.2585 14.6548 62.1127 16.1122C63.896 17.0229 65.6066 18.3403 66.3075 20.2161C67.1382 22.4399 65.86 26.5892 65.2227 28.8761C64.5848 31.1623 64.1052 33.7705 65.3658 35.7821C66.5925 37.7397 69.0889 38.5006 70.6394 40.2133C72.7896 42.5893 72.4773 46.7544 69.9967 48.783C72.7532 48.6217 75.0811 51.433 74.9847 54.1915C74.8889 56.9506 72.8684 59.3721 70.4066 60.6222C67.9447 61.8723 65.1033 62.133 62.3425 62.1379C58.9207 62.1433 55.4984 61.7887 52.15 61.0818C49.3892 60.4985 46.5102 59.5685 44.7141 57.3926C43.0635 55.3931 42.6069 52.6619 42.6021 50.0695C42.5845 40.896 47.4009 31.8019 45.3132 22.8685" fill="#281810"/>
<path d="M47.6631 20.4289C44.8023 18.4555 40.7772 18.3367 37.8054 20.1379C34.833 21.9385 33.0757 25.561 33.5008 29.0101C33.7227 30.8107 34.4825 32.6265 34.0198 34.381C33.1533 37.6682 28.5158 38.9523 27.9046 42.2965C27.6632 43.6151 28.1326 44.9453 28.4861 46.2385C28.8402 47.5316 29.064 48.9897 28.3963 50.1519C27.9015 51.0128 27.0059 51.5512 26.3032 52.2533C24.0432 54.5092 24.0845 58.4681 25.9769 61.0405C27.8694 63.613 31.2166 64.8473 34.4085 64.7443C37.6004 64.6406 40.6511 63.3529 43.3737 61.6838" fill="#281810"/>
<path d="M40.9604 24.112L41.0035 26.2934L41.4419 58.9532C41.4928 62.7448 44.7939 65.7203 48.8536 65.6349C52.9538 65.5482 56.2846 62.375 56.2961 58.5445C56.3083 54.5238 56.395 50.2908 56.395 50.2908C56.395 50.2908 61.5758 49.4305 62.6491 42.6724C63.1827 39.3112 63.0141 33.8008 62.7303 29.2962C62.4751 25.2415 58.8981 22.2156 54.8572 22.643L40.9604 24.112Z" fill="#B78876"/>
<path d="M60.1289 33.1327C60.1453 33.5904 59.7706 33.9815 59.2927 34.0069C58.8161 34.0324 58.4153 33.6832 58.399 33.2255C58.3826 32.7677 58.7573 32.3761 59.2339 32.3506C59.7123 32.3251 60.1132 32.675 60.1289 33.1327Z" fill="#281810"/>
<path d="M61.535 32.1621C61.4277 32.2748 60.771 31.7892 59.8378 31.7916C58.9058 31.7807 58.2212 32.2603 58.1199 32.1463C58.0702 32.096 58.1799 31.8917 58.4777 31.6746C58.7712 31.4588 59.2714 31.2484 59.8529 31.2508C60.4338 31.2539 60.9226 31.4679 61.2039 31.6867C61.4907 31.9074 61.5883 32.1117 61.535 32.1621Z" fill="#281810"/>
<path d="M51.1436 33.1327C51.1599 33.5904 50.7852 33.9815 50.3074 34.007C49.8308 34.0324 49.43 33.6832 49.4136 33.2255C49.3972 32.7677 49.772 32.3761 50.2486 32.3506C50.7264 32.3252 51.1272 32.675 51.1436 33.1327Z" fill="#281810"/>
<path d="M52.3651 32.3361C52.2578 32.4489 51.5999 31.9632 50.6679 31.9656C49.7359 31.9547 49.0513 32.4343 48.9501 32.3203C48.9003 32.27 49.0089 32.0657 49.3084 31.8486C49.6019 31.6322 50.1022 31.4224 50.6831 31.4249C51.264 31.4279 51.7527 31.6419 52.0341 31.8608C52.3203 32.0815 52.4179 32.2858 52.3651 32.3361Z" fill="#281810"/>
<path d="M55.7499 39.253C55.7457 39.2003 56.3254 39.0996 57.2653 38.9796C57.5036 38.9547 57.7285 38.9074 57.7692 38.745C57.825 38.5728 57.7255 38.3163 57.6103 38.0393C57.3865 37.4627 57.1519 36.8589 56.9057 36.2259C55.9276 33.6438 55.2194 31.5206 55.3237 31.4824C55.428 31.4442 56.306 33.5056 57.2841 36.0877C57.5193 36.7243 57.7449 37.3311 57.959 37.9119C58.0493 38.1823 58.2039 38.4897 58.0827 38.8468C58.0184 39.0251 57.8437 39.1542 57.6909 39.1948C57.5381 39.2415 57.4041 39.2439 57.2865 39.2512C56.3405 39.3021 55.7536 39.3064 55.7499 39.253Z" fill="#281810"/>
<path d="M56.3953 50.2902C56.3953 50.2902 51.8481 50.583 47.3428 47.876C47.3428 47.876 49.539 52.5188 56.3043 51.8859L56.3953 50.2902Z" fill="#AA6550"/>
<path d="M55.3559 41.5011C55.0205 41.0573 54.4323 40.8142 53.849 40.8766C53.444 40.9203 53.0353 41.1155 52.7891 41.4447C52.5429 41.7745 52.4914 42.2419 52.7151 42.5566C52.9668 42.9106 53.4931 42.9925 53.9382 42.8658C54.3832 42.7391 54.7665 42.4462 55.1303 42.154C55.2309 42.0734 55.334 41.9891 55.3971 41.8782C55.4595 41.7672 55.4735 41.6229 55.3959 41.5308" fill="#AA6550"/>
<path d="M53.0056 39.8987C53.1572 39.8896 53.159 40.902 54.0261 41.6205C54.8914 42.3413 55.9708 42.228 55.9786 42.3692C55.9926 42.4329 55.7379 42.5656 55.2825 42.5784C54.8356 42.5935 54.1832 42.4505 53.6526 42.0103C53.1239 41.5695 52.8965 40.9815 52.8619 40.5662C52.8231 40.1436 52.9365 39.8926 53.0056 39.8987Z" fill="#281810"/>
<path d="M46.4595 20.9461C46.4947 20.866 46.5693 20.8218 46.6269 20.8472C46.6845 20.8727 46.7027 20.9576 46.6675 21.0376C46.6324 21.1176 46.5578 21.1619 46.5002 21.1364C46.4426 21.111 46.425 21.0261 46.4595 20.9461Z" fill="#281810"/>
<path d="M40.6072 56.0861C42.6028 55.3925 44.1739 53.6968 44.9233 51.7216C45.6728 49.7464 45.6455 47.525 45.0676 45.4934C44.8002 44.5524 44.4219 43.5236 44.836 42.6378C45.1368 41.9946 45.7838 41.6011 46.3101 41.1252C47.4949 40.0539 48.1238 38.457 48.2287 36.8637C48.3342 35.2698 47.954 33.6759 47.3706 32.1894C47.0499 31.3709 46.6612 30.4748 46.9577 29.6473C47.1669 29.0616 47.6775 28.6475 48.1322 28.2237C49.0933 27.3271 49.8925 26.257 50.4801 25.0814C50.8967 24.2478 51.2041 23.2438 50.8009 22.4035C50.3146 21.3892 49.0357 21.071 47.9139 20.9855C45.2386 20.7818 42.2783 21.3723 40.5763 23.4457C39.0494 25.3052 38.8742 27.8933 38.7657 30.2966C38.4255 37.8677 38.0895 45.5109 39.3987 52.9753" fill="#281810"/>
<path d="M65.2926 23.359C64.9604 23.6446 64.4934 23.7482 64.1369 23.9865C63.7761 24.2187 63.5166 24.5091 63.1613 24.8359C62.9872 25.0026 62.7974 25.1899 62.6295 25.3846C62.5846 25.4337 62.5561 25.481 62.5052 25.5337L62.3148 25.7253C62.162 25.8702 62.0055 26.0187 61.8454 26.1703C61.4853 26.4946 61.0341 26.8911 60.3974 27.3113C59.7759 27.7242 58.9112 28.1764 57.8834 28.4086C55.8503 28.8615 54.0657 28.4135 52.7565 27.783C51.4074 27.1252 50.5409 26.2806 49.9436 25.5252C48.7915 23.9919 48.6151 22.7509 49.1438 22.0767C49.6883 21.382 51.0066 21.4978 52.5001 21.8645C53.238 22.0313 54.0287 22.2338 54.7109 22.3029C55.4149 22.3884 56.0631 22.3562 56.4694 22.2544C56.6561 22.2138 56.9005 22.1398 57.288 21.9628C57.6645 21.7948 58.1393 21.5426 58.6844 21.285C58.9567 21.1564 59.2453 21.0267 59.5546 20.9066C59.7044 20.8472 59.8675 20.7896 60.0245 20.7363C60.1955 20.6805 60.3847 20.6175 60.5605 20.5744C61.2736 20.3943 61.9522 20.3483 62.5852 20.4089C63.8507 20.5156 64.9349 21.1516 65.3515 21.8506C65.7826 22.5527 65.6122 23.0916 65.2926 23.359Z" fill="#281810"/>
<path d="M31.134 60.7417C31.1297 60.7453 31.097 60.7126 31.0358 60.6453C30.9788 60.5749 30.8769 60.4822 30.7805 60.3336C30.567 60.0517 30.2942 59.5916 30.0983 58.9416C29.9085 58.2941 29.7994 57.4472 29.9777 56.4923C30.1468 55.5417 30.6883 54.5007 31.6142 53.7035C32.5141 52.8808 33.6989 52.2648 34.7862 51.4039C35.3234 50.968 35.8376 50.4551 36.2129 49.8312C36.5925 49.2128 36.7866 48.4629 36.6677 47.7093C36.464 46.1851 35.2033 44.8446 35.0954 43.0131C34.9857 41.2379 35.9886 39.3379 37.7016 38.503C38.5153 38.0635 39.3721 37.7488 40.0137 37.1826C40.6728 36.6339 40.962 35.7845 40.936 34.9588C40.9178 34.127 40.6558 33.3194 40.3144 32.5846C39.9633 31.8486 39.5365 31.1544 39.1757 30.4427C38.8137 29.7327 38.5117 28.9913 38.4092 28.2219C38.3049 27.4526 38.4177 26.6862 38.6833 26.0139C39.2114 24.657 40.2277 23.6815 41.2507 23.0438C42.2955 22.406 43.3784 22.1307 44.3201 21.9761C45.2679 21.8258 46.0943 21.8124 46.7644 21.8185C47.4356 21.8294 47.9553 21.8652 48.307 21.8955C48.4665 21.9112 48.5974 21.9246 48.7066 21.9355C48.7963 21.9464 48.8424 21.9549 48.8418 21.9603C48.8412 21.9719 48.6557 21.9688 48.3034 21.9591C47.951 21.9494 47.432 21.9337 46.7644 21.9422C46.098 21.9549 45.2788 21.9864 44.3492 22.1507C43.4263 22.318 42.3676 22.6066 41.3689 23.2341C40.386 23.8622 39.4164 24.8177 38.9283 26.1078C38.6821 26.7475 38.5833 27.4641 38.6845 28.1849C38.7858 28.907 39.0762 29.6157 39.4352 30.3111C39.793 31.0095 40.2217 31.6983 40.5873 32.4573C40.9432 33.2182 41.2222 34.0567 41.2452 34.9533C41.2816 35.8385 40.9523 36.814 40.2223 37.419C39.5158 38.038 38.6384 38.3533 37.852 38.7819C36.2378 39.5664 35.3101 41.3374 35.4041 42.9979C35.4805 44.6852 36.7217 46.0232 36.9558 47.6693C37.0825 48.4895 36.8599 49.3225 36.4506 49.9749C36.0462 50.6369 35.5065 51.1638 34.9505 51.6082C33.822 52.4849 32.6457 53.0802 31.7628 53.8708C30.8569 54.6347 30.3342 55.6102 30.1511 56.5281C29.9625 57.4472 30.0498 58.2723 30.2172 58.9089C30.5786 60.1954 31.1849 60.715 31.134 60.7417Z" fill="#373522"/>
<path d="M68.8482 59.4442C68.8137 59.4145 69.249 59.3206 69.4309 58.7046C69.5122 58.4106 69.5243 58.0092 69.3552 57.6085C69.1835 57.2101 68.8143 56.8403 68.3492 56.5293C67.8847 56.2098 67.3068 55.9546 66.735 55.5599C66.1759 55.1846 65.5769 54.5686 65.5108 53.7295C65.438 52.9074 65.7976 52.1011 66.276 51.413C66.7653 50.7152 67.3929 50.1259 67.8786 49.4183C68.3801 48.7248 68.6202 47.9033 68.4953 47.1176C68.3862 46.3306 67.9932 45.6304 67.5676 45.0229C66.6986 43.8043 65.6145 42.9264 64.9256 41.9818C64.2071 41.0652 63.8384 40.1564 63.7668 39.5034C63.7329 39.1772 63.745 38.9226 63.7717 38.7534C63.8008 38.5843 63.8208 38.4976 63.8317 38.4994C63.8663 38.5024 63.7863 38.8595 63.8881 39.4852C63.9948 40.1085 64.3763 40.9639 65.1009 41.8442C65.7915 42.7482 66.886 43.6 67.8035 44.8537C68.2497 45.4782 68.6748 46.21 68.8009 47.0739C68.8652 47.5019 68.8409 47.953 68.7269 48.3877C68.6105 48.823 68.3928 49.228 68.1382 49.5972C67.6276 50.3381 66.9921 50.9322 66.5295 51.59C66.068 52.243 65.7424 52.9911 65.8006 53.7035C65.8485 54.4249 66.3542 54.973 66.8866 55.3471C67.422 55.7321 67.9999 56.0025 68.4765 56.3468C68.9543 56.6845 69.3424 57.0895 69.5189 57.543C69.6899 57.9965 69.6547 58.4281 69.548 58.7428C69.4358 59.0617 69.2418 59.2581 69.0926 59.3479C68.9446 59.4418 68.8482 59.4442 68.8482 59.4442Z" fill="#373522"/>
<path d="M65.7497 20.5987C65.7606 20.5987 65.7679 20.6708 65.7721 20.8096C65.7733 20.9479 65.7606 21.1534 65.7109 21.4135C65.6096 21.9264 65.3367 22.6854 64.6612 23.3748C64.007 24.0653 62.8646 24.6079 61.5821 24.4861C60.9478 24.4327 60.2857 24.229 59.706 23.8343C59.1269 23.4402 58.6618 22.8946 58.2028 22.3575C57.7462 21.8136 57.2799 21.3244 56.7396 20.9539C56.206 20.5768 55.6263 20.3095 55.0545 20.1264C53.9024 19.7644 52.7806 19.799 51.8947 20.0124C51.0009 20.2197 50.3351 20.5787 49.901 20.8515C49.4668 21.1304 49.2485 21.3201 49.231 21.3001C49.2194 21.288 49.4098 21.0661 49.8313 20.7502C50.2533 20.4404 50.9215 20.0391 51.8408 19.796C52.7509 19.5462 53.9279 19.4843 55.1394 19.8481C55.7409 20.0318 56.3522 20.307 56.9161 20.6999C57.4867 21.0849 57.9869 21.6087 58.4423 22.1519C58.9032 22.6921 59.3494 23.2135 59.8806 23.5791C60.4088 23.9441 61.0194 24.1393 61.6082 24.1963C62.8021 24.3236 63.8657 23.8471 64.5042 23.2159C65.1621 22.5854 65.4568 21.8736 65.5908 21.3856C65.7236 20.8897 65.72 20.5974 65.7497 20.5987Z" fill="#373522"/>
<path d="M52.6064 28.6809C52.5142 28.9343 51.5828 28.8142 50.4883 28.9464C49.3914 29.0561 48.5085 29.3769 48.3636 29.1489C48.2987 29.0404 48.4527 28.8015 48.8093 28.556C49.1628 28.311 49.7273 28.0776 50.3846 28.0049C51.0413 27.9333 51.6435 28.0376 52.0418 28.1995C52.4433 28.3614 52.6458 28.5608 52.6064 28.6809Z" fill="#281810"/>
<path d="M61.1923 29.4629C61.0279 29.6745 60.3858 29.4551 59.6127 29.4448C58.8401 29.4072 58.1859 29.5872 58.0349 29.3653C57.9688 29.2574 58.0719 29.0452 58.3581 28.8452C58.6401 28.6451 59.1112 28.482 59.6424 28.4978C60.1729 28.5147 60.6332 28.7063 60.9024 28.9234C61.1747 29.1416 61.2644 29.3599 61.1923 29.4629Z" fill="#281810"/>
<path d="M34.787 92.8879C35.112 93.4505 32.7156 85.3859 32.7156 85.3859L30.7091 92.757L15.8228 92.8679C15.8228 92.8679 24.2355 65.376 28.2309 61.5383C33.4451 56.5299 43.2191 56.2552 43.2191 56.2552L49.0688 61.2473L58.3129 56.5002C58.3129 56.5002 58.4299 56.5111 58.647 56.5371C64.8059 57.2823 70.1668 61.1018 72.944 66.6485L82.9667 92.6157H69.7327L66.9106 84.953L67.8517 92.6157" fill="#7084EA"/>
<path d="M38.4595 56.8548L51.8693 87.3581L58.6473 56.5371C58.6473 56.5371 56.7688 56.428 54.0844 56.3274C52.5988 56.2716 50.8658 62.1433 49.0691 62.1124C47.9201 62.093 46.7461 56.157 45.5922 56.1613C44.1309 56.1661 42.7035 56.194 41.4058 56.2552C40.3095 56.3074 39.312 56.773 38.4595 56.8548Z" fill="#FAFAFA"/>
<path d="M41.0044 57.1368V54.3364C41.0044 54.3364 48.9994 54.4431 49.1352 60.8399C49.1352 60.8399 50.2697 54.5365 56.7221 54.3364L57.1356 56.4814L55.3153 63.8373L50.6602 66.9371H44.3831L41.7854 63.5226L41.0044 57.1368Z" fill="#FAFAFA"/>
<path d="M51.7809 88.1717C51.7706 88.1687 51.7985 88.0517 51.8609 87.8298C51.9337 87.6122 52.038 87.2866 52.2466 86.8974C52.4534 86.5093 52.7675 86.0625 53.1943 85.6078C53.6176 85.1495 54.1257 84.6639 54.6442 84.0861C55.672 82.9208 57.0108 81.5955 57.978 79.7913C58.4564 78.8946 58.7863 77.8585 58.8354 76.7557C58.893 75.6626 58.6226 74.4912 57.9077 73.5788L57.693 73.3048L58.0441 73.3236C58.1733 73.3302 58.3127 73.3278 58.4516 73.306C59.0094 73.2144 59.5012 72.8592 59.8493 72.4178C60.2052 71.9728 60.4083 71.4405 60.4872 70.8876C60.6485 69.7775 60.4089 68.6771 60.2404 67.6349C59.8941 65.5542 59.5812 63.6742 59.3163 62.0803C59.0695 60.5282 58.8675 59.2581 58.7202 58.3305C58.6608 57.9146 58.6123 57.5763 58.5741 57.3083C58.5444 57.0743 58.5334 56.95 58.5443 56.9482C58.5553 56.9464 58.5868 57.0664 58.6371 57.2974C58.6905 57.5624 58.7584 57.8976 58.8421 58.3093C59.0137 59.232 59.2496 60.4967 59.537 62.0415C59.8214 63.6323 60.1567 65.5081 60.5278 67.5846C60.7006 68.6213 60.9595 69.7417 60.7934 70.933C60.7133 71.5211 60.4878 72.1238 60.0961 72.6118C59.7122 73.0986 59.1623 73.5073 58.5019 73.617C58.3382 73.6431 58.1726 73.6461 58.0192 73.6376L58.1557 73.3824C58.9288 74.37 59.2083 75.6244 59.1434 76.769C59.0883 77.9233 58.7335 79.0055 58.2333 79.9259C57.22 81.7756 55.8527 83.0894 54.8073 84.2346C54.2725 84.8088 53.7498 85.2865 53.3217 85.7267C52.8887 86.1632 52.5716 86.5845 52.3527 86.9556C51.9264 87.7067 51.8143 88.1839 51.7809 88.1717Z" fill="#263238"/>
<path d="M51.7796 87.9086C51.7712 87.9153 51.6851 87.8195 51.5292 87.6322C51.3522 87.4188 51.1272 87.1472 50.8501 86.8119C50.2564 86.1025 49.3742 85.098 48.2645 83.8703C47.1609 82.6383 45.8221 81.1857 44.4881 79.4384C43.8326 78.566 43.114 77.6433 42.6156 76.5289C42.1244 75.4292 41.8994 74.0723 42.39 72.8246C42.4567 72.6573 42.5398 72.4978 42.6235 72.3535L42.7065 72.5839C41.5138 72.1541 40.4854 71.4047 39.7183 70.5056C38.9379 69.6144 38.3807 68.6025 37.9975 67.5955C37.2219 65.5645 37.1819 63.5814 37.2547 61.9809C37.3432 60.3682 37.5615 59.0841 37.71 58.2001C37.7871 57.7861 37.8495 57.4502 37.8986 57.1853C37.9459 56.9543 37.9762 56.8336 37.9865 56.8354C37.9969 56.8373 37.9878 56.9609 37.9605 57.195C37.9265 57.4623 37.8829 57.8006 37.8295 58.2177C37.7179 59.1053 37.5336 60.3912 37.4748 61.9893C37.4305 63.576 37.4972 65.5239 38.2667 67.4906C38.6469 68.468 39.1944 69.4465 39.95 70.3013C40.6928 71.1653 41.6769 71.8758 42.8108 72.2844L42.9897 72.3487L42.8939 72.5148C42.8187 72.6452 42.7435 72.7894 42.6829 72.9416C42.2354 74.0735 42.4324 75.3528 42.8993 76.4028C43.3717 77.4711 44.0715 78.3859 44.7209 79.262C46.0306 81.0044 47.3495 82.4698 48.4325 83.7211C49.5215 84.9676 50.3813 85.9989 50.9465 86.7331C51.2278 87.1017 51.4431 87.3897 51.5808 87.5915C51.7196 87.794 51.7887 87.9026 51.7796 87.9086Z" fill="#263238"/>
<path d="M51.6323 92.8206C51.5456 92.814 51.5062 91.5917 51.5456 90.0906C51.5844 88.5889 51.6869 87.3703 51.7742 87.3684C51.8615 87.3666 51.9003 88.5889 51.8609 90.0991C51.8215 91.6081 51.719 92.8267 51.6323 92.8206Z" fill="#263238"/>
<path d="M32.3301 87.2029C32.3083 87.1956 32.4071 86.8228 32.5903 86.1523C32.7655 85.4793 33.0171 84.505 33.2603 83.2876C33.7502 80.8571 34.1771 77.4304 33.9891 73.6467C33.8909 71.7582 33.706 69.9557 33.2761 68.3819C32.8595 66.8043 32.1749 65.479 31.3915 64.5314C30.6153 63.5735 29.7822 62.9927 29.1788 62.6653C28.5688 62.3428 28.1947 62.2373 28.2038 62.2088C28.2068 62.1985 28.3014 62.2185 28.4797 62.267C28.6573 62.3167 28.9151 62.4077 29.234 62.5556C29.8664 62.8551 30.7433 63.4232 31.5631 64.3884C32.3902 65.342 33.1166 66.6995 33.5568 68.3043C34.011 69.9084 34.2062 71.7291 34.3051 73.6316C34.4942 77.448 34.0279 80.902 33.4792 83.3337C33.2063 84.5523 32.9207 85.5223 32.7085 86.1868C32.6012 86.5191 32.5072 86.7731 32.4441 86.9453C32.3792 87.1181 32.3404 87.2066 32.3301 87.2029Z" fill="#263238"/>
<path d="M67.027 82.2606C67.0052 82.26 66.9906 81.8993 66.9827 81.2475C66.9779 80.5964 66.9609 79.6537 66.9197 78.4908C66.8439 76.1652 66.6322 72.9538 66.1247 69.4404C65.3473 63.8955 64.0273 59.3048 63.5743 57.6466L63.5312 57.489L63.6562 57.5884C64.0673 57.9158 64.265 58.0856 64.2541 58.1001C64.2431 58.1147 64.0242 57.974 63.5931 57.6727L63.675 57.6145C64.2449 59.2363 65.6566 63.8245 66.4376 69.3949C66.9475 72.9228 67.1246 76.1512 67.1434 78.4848C67.1555 79.6518 67.1386 80.5964 67.1058 81.2481C67.0755 81.9011 67.0488 82.2612 67.027 82.2606Z" fill="#263238"/>
<path d="M47.6488 57.218C47.6512 57.2453 47.4972 57.2356 47.291 57.3774C47.0812 57.5151 46.8623 57.8152 46.6537 58.2371C46.219 59.0665 45.7369 60.3063 45.5932 61.7729L45.5538 62.1706L45.3106 61.8505C45.1699 61.6644 45.0214 61.4692 44.8704 61.2703C43.8596 59.9547 42.8676 58.8258 42.1332 58.0231C41.3983 57.2204 40.9284 56.7354 40.9605 56.7021C40.9884 56.6723 41.5135 57.101 42.2945 57.8685C43.0743 58.6361 44.1021 59.7516 45.1214 61.0781C45.2724 61.2788 45.4216 61.477 45.5635 61.6644L45.2815 61.7414C45.4404 60.2239 45.9764 58.9556 46.4706 58.1353C46.7065 57.72 46.9769 57.4011 47.2334 57.2792C47.4893 57.1513 47.6549 57.2065 47.6488 57.218Z" fill="#263238"/>
<path d="M57.0337 56.6135C57.0677 56.6414 56.6553 57.2089 55.9616 58.1044C55.268 58.9998 54.2929 60.2233 53.2008 61.5619C53.0032 61.8032 52.8091 62.0403 52.6236 62.267L52.3537 62.5962L52.3465 62.1718C52.3331 61.4158 52.3113 60.7107 52.1949 60.0923C52.0845 59.4727 51.8747 58.9501 51.6261 58.5554C51.1258 57.7564 50.5498 57.529 50.5813 57.4848C50.588 57.4696 50.7329 57.506 50.967 57.6442C51.1992 57.7812 51.5139 58.0365 51.7983 58.4408C52.0851 58.8416 52.3325 59.3939 52.4653 60.0384C52.6054 60.6828 52.6393 61.4085 52.6587 62.1646L52.3816 62.0694C52.5666 61.842 52.7594 61.6044 52.9565 61.3619C54.0485 60.0232 55.0509 58.8222 55.7888 57.9625C56.5268 57.104 56.9997 56.5857 57.0337 56.6135Z" fill="#263238"/>
<path d="M51.5168 86.6543C51.495 86.6561 51.4428 86.2966 51.3658 85.6442C51.2907 84.9373 51.1918 84.0049 51.0717 82.8778C50.8371 80.5406 50.5345 77.3092 50.2204 73.7389C49.9057 70.1673 49.6389 66.9329 49.4612 64.5909C49.3818 63.4602 49.3169 62.5247 49.2672 61.816C49.2284 61.16 49.2175 60.7968 49.2387 60.795C49.2605 60.7932 49.3127 61.1533 49.3897 61.8062C49.4649 62.5132 49.5637 63.4456 49.6838 64.5727C49.9184 66.9098 50.2204 70.1407 50.5351 73.7116C50.8492 77.2813 51.1166 80.5146 51.2943 82.8566C51.3731 83.9879 51.4386 84.9234 51.4883 85.6321C51.5271 86.2887 51.5387 86.6524 51.5168 86.6543Z" fill="#263238"/>
<path d="M51.5307 66.3393C51.5022 66.3096 51.7545 66.1599 52.0819 66.3763C52.2299 66.48 52.3918 66.6722 52.396 66.9505C52.4051 67.2348 52.1735 67.5052 51.8921 67.5907C51.6144 67.6877 51.2676 67.6052 51.1075 67.3706C50.9468 67.1433 50.9644 66.8923 51.0226 66.7213C51.159 66.3533 51.4513 66.3254 51.4458 66.3666C51.4671 66.4097 51.2809 66.5049 51.2379 66.7789C51.2173 66.9092 51.2379 67.0784 51.3367 67.1918C51.4289 67.3063 51.612 67.3482 51.7939 67.2906C51.9746 67.23 52.0983 67.0887 52.105 66.9414C52.1177 66.7916 52.0346 66.6431 51.9413 66.5497C51.7454 66.3533 51.5392 66.386 51.5307 66.3393Z" fill="#263238"/>
<path d="M52.697 73.8741C52.6739 73.8389 52.9602 73.7413 53.2379 74.0323C53.3616 74.1687 53.4798 74.3985 53.4155 74.6768C53.3549 74.9623 53.0517 75.1697 52.7522 75.1763C52.4532 75.1963 52.1325 75.0169 52.0463 74.7374C51.9584 74.4658 52.0554 74.2269 52.1664 74.0796C52.4174 73.7655 52.7109 73.8377 52.6909 73.8741C52.697 73.9213 52.4835 73.9486 52.3526 74.2021C52.2907 74.3215 52.2561 74.4943 52.318 74.6343C52.3726 74.7744 52.5418 74.8677 52.737 74.8605C52.9323 74.8502 53.0923 74.7422 53.1342 74.5979C53.1833 74.453 53.1336 74.2845 53.0614 74.1705C52.9104 73.9298 52.6952 73.922 52.697 73.8741Z" fill="#263238"/>
<g opacity="0.3">
<path d="M37.6955 57.2144C36.5616 61.2503 35.4852 65.8125 37.596 69.4343C38.2315 70.525 39.1253 71.4532 39.7226 72.5657C40.7479 74.4755 40.8122 76.7417 41.4471 78.814C42.7296 83.0003 47.3004 87.075 51.6329 87.714C49.396 84.9882 45.933 81.4452 43.872 78.3562C43.2328 77.3983 42.7114 76.7478 42.4555 75.6256C42.1996 74.5028 42.0104 73.3108 42.7581 72.4354C39.8626 71.9861 38.2127 68.9881 37.6864 66.1059C37.1601 63.2237 37.3765 60.233 38.0484 57.3811" fill="black"/>
</g>
<g opacity="0.3">
<path d="M67.1445 78.6588C66.426 82.9869 66.9111 88.6628 69.5645 92.1574C70.5408 87.4048 70.0533 81.1863 67.1603 77.291" fill="black"/>
</g>
</g>
<defs>
<clipPath id="clip0_18845_1045">
<rect width="102" height="170" fill="white"/>
</clipPath>
</defs>
</svg>
