<svg width="102" height="170" viewBox="0 0 102 170" fill="none" xmlns="http://www.w3.org/2000/svg">
<g clip-path="url(#clip0_18845_1047)">
<path d="M101.592 0H0V169.699H101.592V0Z" fill="#F5F5F5"/>
<path d="M26.9536 99.9308L28.0427 102.136L30.4766 102.49L28.7151 104.207L29.1317 106.631L26.9536 105.486L24.7764 106.631L25.1921 104.207L23.4307 102.49L25.8654 102.136L26.9536 99.9308Z" fill="#ED3030"/>
<path d="M39.0502 99.9308L40.1384 102.136L42.5732 102.49L40.8117 104.207L41.2274 106.631L39.0502 105.486L36.8721 106.631L37.2878 104.207L35.5264 102.49L37.9611 102.136L39.0502 99.9308Z" fill="#ED3030"/>
<path d="M51.147 99.9308L52.2352 102.136L54.67 102.49L52.9085 104.207L53.3242 106.631L51.147 105.486L48.9698 106.631L49.3855 104.207L47.624 102.49L50.058 102.136L51.147 99.9308Z" fill="#ED3030"/>
<path d="M63.2437 99.9308L64.3327 102.136L66.7667 102.49L65.0052 104.207L65.4209 106.631L63.2437 105.486L61.0665 106.631L61.4822 104.207L59.7207 102.49L62.1555 102.136L63.2437 99.9308Z" fill="#ED3030"/>
<path d="M75.3394 99.9308L76.4284 102.136L78.8623 102.49L77.1008 104.207L77.5166 106.631L75.3394 105.486L73.1621 106.631L73.5779 104.207L71.8164 102.49L74.2512 102.136L75.3394 99.9308Z" fill="#ED3030"/>
<path d="M46.65 119.823C46.65 119.947 38.9368 120.048 29.425 120.048C19.9097 120.048 12.1982 119.946 12.1982 119.823C12.1982 119.699 19.9097 119.598 29.425 119.598C38.9377 119.598 46.65 119.698 46.65 119.823Z" fill="#E8505B"/>
<path d="M89.9408 127.301C89.9408 127.426 72.7392 127.526 51.5253 127.526C30.3037 127.526 13.1055 127.426 13.1055 127.301C13.1055 127.177 30.3037 127.077 51.5253 127.077C72.7392 127.076 89.9408 127.177 89.9408 127.301Z" fill="#263238"/>
<path d="M89.9408 133.726C89.9408 133.851 72.7392 133.951 51.5253 133.951C30.3037 133.951 13.1055 133.85 13.1055 133.726C13.1055 133.602 30.3037 133.502 51.5253 133.502C72.7392 133.502 89.9408 133.602 89.9408 133.726Z" fill="#263238"/>
<path d="M89.9408 140.152C89.9408 140.277 72.7392 140.377 51.5253 140.377C30.3037 140.377 13.1055 140.277 13.1055 140.152C13.1055 140.028 30.3037 139.927 51.5253 139.927C72.7392 139.927 89.9408 140.028 89.9408 140.152Z" fill="#263238"/>
<path d="M89.9408 146.577C89.9408 146.702 72.7392 146.802 51.5253 146.802C30.3037 146.802 13.1055 146.701 13.1055 146.577C13.1055 146.454 30.3037 146.352 51.5253 146.352C72.7392 146.352 89.9408 146.453 89.9408 146.577Z" fill="#263238"/>
<path d="M89.9408 153.003C89.9408 153.127 72.7392 153.228 51.5253 153.228C30.3037 153.228 13.1055 153.127 13.1055 153.003C13.1055 152.879 30.3037 152.778 51.5253 152.778C72.7392 152.777 89.9408 152.878 89.9408 153.003Z" fill="#263238"/>
<path d="M94.197 8.61649H6.68555V92.6149H94.197V8.61649Z" fill="#E0E0E0"/>
<path d="M81.1938 77.9709L86.8862 92.6149H73.1064L70 84.6396L81.1938 77.9709Z" fill="#FFBE9D"/>
<path d="M28.7411 92.615H66.0503C66.6355 87.1077 66.9916 81.8968 66.9916 81.8968L68.9112 87.1016L84.5813 79.2681C84.5813 79.2681 78.8846 64.0806 74.1161 58.938C68.091 52.4387 57.2516 53.0851 57.2516 53.0851L43.1848 53.3132C43.1848 53.3132 37.8277 53.8006 32.7671 56.3421L32.4197 56.4432L32.4231 56.5157C29.3773 59.1238 20.2354 71.3559 20.2354 71.3559L23.6079 74.6388L30.5173 81.0724C30.5173 81.0724 30.4888 81.1174 30.5026 81.1977C30.6193 81.8778 28.7411 92.615 28.7411 92.615Z" fill="#ECDF70"/>
<path d="M57.6522 52.5545C57.6678 52.5519 57.6937 52.6383 57.7282 52.8051C57.7697 52.9718 57.8008 53.2224 57.8251 53.5482C57.8683 54.1972 57.8095 55.1599 57.4422 56.279C57.0653 57.3851 56.354 58.6537 55.1561 59.676C53.972 60.7086 52.2779 61.374 50.4706 61.4293C48.6616 61.4751 46.9329 60.9056 45.6926 59.9404C44.4394 58.9872 43.6589 57.7601 43.2198 56.6765C42.7902 55.5799 42.6788 54.6215 42.6848 53.9717C42.6909 53.645 42.7081 53.3935 42.7401 53.2242C42.766 53.0548 42.7868 52.9675 42.8023 52.9692C42.9104 52.9554 42.607 54.4513 43.5128 56.5529C43.9709 57.5778 44.7445 58.7271 45.9398 59.6077C47.1196 60.4978 48.7471 61.0206 50.4568 60.9791C52.1655 60.9255 53.7602 60.312 54.889 59.3579C56.0333 58.4117 56.7421 57.2209 57.1414 56.1727C57.9297 54.0235 57.5442 52.5458 57.6522 52.5545Z" fill="#263238"/>
<path d="M70.9791 55.8927C70.9826 55.9376 70.6023 55.9272 69.9843 56.1493C69.3689 56.3602 68.5261 56.8674 67.8114 57.7938C67.0836 58.7081 66.6048 60.0579 66.3982 61.6022C66.1951 63.149 66.1467 64.8963 66.0819 66.7128C65.9851 70.356 66.1251 73.6562 66.2902 76.0396C66.3758 77.1587 66.4475 78.1023 66.5063 78.8628C66.5625 79.529 66.5797 79.9006 66.5486 79.9049C66.5183 79.9093 66.4423 79.5455 66.3325 78.8835C66.2305 78.2207 66.0931 77.2598 65.9738 76.0664C65.7266 73.6813 65.5347 70.3647 65.6324 66.7007C65.6981 64.8695 65.7569 63.1308 65.9886 61.5408C66.2219 59.9585 66.7578 58.5379 67.5633 57.5951C68.3507 56.6419 69.2721 56.1502 69.9315 55.9825C70.2626 55.8918 70.5288 55.8685 70.7069 55.8659C70.8858 55.8685 70.9783 55.8771 70.9791 55.8927Z" fill="#263238"/>
<path d="M37.5381 54.3156C37.5675 54.326 37.4724 54.7019 37.2753 55.3742C37.0489 56.1329 36.7645 57.0843 36.4266 58.2146C35.7074 60.6118 34.7446 63.931 33.7835 67.6244C32.8241 71.3196 32.0497 74.688 31.5103 77.1319C31.2553 78.2838 31.0401 79.2534 30.869 80.0259C30.7134 80.7086 30.6132 81.0845 30.5829 81.0785C30.5527 81.0733 30.5941 80.687 30.697 79.9931C30.7973 79.2992 30.9684 78.2993 31.1992 77.0679C31.6598 74.6042 32.3867 71.2159 33.3479 67.5112C34.3116 63.8083 35.3263 60.4952 36.1232 58.1187C36.5216 56.9305 36.8596 55.9739 37.1094 55.3189C37.3574 54.663 37.5087 54.3052 37.5381 54.3156Z" fill="#263238"/>
<path opacity="0.2" d="M65.8282 67.697L70.9795 86.0681L68.9112 87.1025L66.9915 81.8977C66.9915 81.8977 65.1255 71.0059 65.8282 67.697Z" fill="black"/>
<g opacity="0.2">
<path d="M38.1345 54.3381C35.1379 55.8572 42.4993 59.7995 45.8589 59.7632L43.5461 53.225C43.5461 53.225 39.1397 53.8282 38.1345 54.3381Z" fill="black"/>
</g>
<path d="M50.7996 61.0189C46.389 61.317 42.6898 57.729 42.8531 53.3115C42.9421 50.91 43.0234 48.9544 43.0234 48.9544C43.0234 48.9544 37.0855 48.4376 36.6162 42.5691C36.1468 36.7007 36.2549 23.1438 36.2549 23.1438C42.8583 19.7624 50.7746 20.2195 56.9449 24.3372L57.8611 24.949L57.7479 53.6174C57.7323 57.5242 54.6994 60.7553 50.7996 61.0189Z" fill="#FFBE9D"/>
<path d="M39.4444 33.5119C39.772 33.1723 39.7625 32.6305 39.4219 32.303C39.0823 31.9755 38.5403 31.9858 38.2128 32.3254C37.8852 32.6659 37.8956 33.2069 38.2352 33.5344C38.5758 33.8628 39.1168 33.8524 39.4444 33.5119Z" fill="#263238"/>
<path d="M36.8348 31.7664C36.9334 31.8614 37.4805 31.3792 38.2895 31.3204C39.0976 31.2504 39.7139 31.6402 39.796 31.5304C39.8366 31.4812 39.732 31.304 39.4632 31.1269C39.1987 30.9506 38.7545 30.7924 38.2506 30.8331C37.7467 30.8728 37.3335 31.0992 37.1002 31.3153C36.8625 31.533 36.7873 31.7249 36.8348 31.7664Z" fill="#263238"/>
<path d="M46.822 32.2226C46.4374 32.4966 46.3475 33.0306 46.6215 33.4151C46.8955 33.7997 47.4296 33.8896 47.8142 33.6156C48.1989 33.3417 48.2888 32.8076 48.0148 32.4231C47.7408 32.0385 47.2067 31.9487 46.822 32.2226Z" fill="#263238"/>
<path d="M45.3994 31.7862C45.4988 31.8821 46.045 31.3991 46.854 31.3403C47.6621 31.2703 48.2784 31.66 48.3605 31.5503C48.4011 31.501 48.2974 31.3239 48.0277 31.1467C47.7632 30.9704 47.319 30.8123 46.8151 30.8529C46.3112 30.8927 45.8972 31.1191 45.6647 31.3351C45.4261 31.5529 45.3518 31.7439 45.3994 31.7862Z" fill="#263238"/>
<path d="M42.8168 38.9146C42.8177 38.8507 42.3103 38.7833 41.4892 38.7254C41.2757 38.7167 41.1063 38.6796 41.0838 38.5672C41.0371 38.4419 41.1037 38.2103 41.1945 37.9511C41.3665 37.4024 41.5411 36.8459 41.7234 36.2643C42.4495 33.8628 42.9387 31.8865 42.8168 31.8493C42.6949 31.8121 42.0078 33.7288 41.2817 36.1303C41.1115 36.7162 40.9481 37.2753 40.7874 37.8275C40.726 38.0773 40.5981 38.3728 40.7312 38.715C40.8012 38.8861 40.9766 39.001 41.1184 39.0287C41.261 39.0615 41.3811 39.0538 41.4823 39.0512C42.306 39.0261 42.8151 38.9777 42.8168 38.9146Z" fill="#263238"/>
<path d="M43.0078 48.8706C43.0078 48.8706 46.7408 48.9224 50.5196 46.177C50.5196 46.177 48.995 50.5263 43.0969 50.3932L43.0078 48.8706Z" fill="#EB996E"/>
<path d="M57.5979 31.2021C57.7146 31.1571 62.4052 30.6464 61.6654 35.1823C61.0266 39.103 56.8088 37.9062 56.8105 37.7739C56.8131 37.6417 57.5979 31.2021 57.5979 31.2021Z" fill="#FFBE9D"/>
<path d="M58.4546 36.0482C58.4727 36.037 58.5186 36.1009 58.6292 36.1614C58.7373 36.221 58.9265 36.2703 59.1357 36.2098C59.5584 36.0897 59.9525 35.4623 60.0233 34.7623C60.0596 34.4089 60.0104 34.0658 59.9058 33.7772C59.8081 33.4834 59.6387 33.2717 59.4339 33.219C59.2316 33.1559 59.076 33.2691 59.0199 33.3754C58.9594 33.4799 58.9784 33.5603 58.9577 33.5646C58.9464 33.5733 58.879 33.4938 58.9222 33.3348C58.9438 33.2587 58.9965 33.1706 59.0933 33.1023C59.1927 33.0332 59.3328 33.0046 59.4762 33.0314C59.7744 33.0746 60.0242 33.3711 60.14 33.6873C60.2714 34.0071 60.3354 34.3925 60.2948 34.7891C60.2118 35.5712 59.7554 36.2755 59.1806 36.3965C58.9015 36.4475 58.6794 36.3481 58.5679 36.2478C58.4546 36.1433 58.4408 36.0543 58.4546 36.0482Z" fill="#EB996E"/>
<path d="M56.6183 35.2774C55.7099 35.8253 54.4731 35.146 54.0038 34.1946C53.5344 33.2432 53.5872 32.1319 53.5465 31.0716C53.4912 29.6284 53.2406 28.193 52.8049 26.8165C52.5249 25.9333 52.1152 25.0112 51.3088 24.5558C50.3866 24.0356 49.2293 24.281 48.2353 24.6466C47.2413 25.0121 46.2344 25.4926 45.179 25.4001C43.7858 25.2783 42.6354 24.1825 41.2499 23.9915C39.9663 23.8152 38.7286 24.4366 37.4823 24.7909C36.2325 25.146 34.8522 25.2264 33.662 24.7053C32.471 24.1842 31.5349 22.9632 31.6274 21.667C31.719 20.3707 33.0622 19.224 34.3146 19.5705C33.3379 19.0667 33.2532 17.5458 33.9991 16.7395C34.7459 15.9342 36.0138 15.795 37.0605 16.1295C38.1072 16.4639 38.9784 17.1872 39.7952 17.9226C39.8981 16.9366 40.8972 16.2219 41.8868 16.1597C42.8765 16.0975 43.8299 16.546 44.6518 17.0999C45.4738 17.6547 46.2189 18.3261 47.0866 18.804C48.8213 19.7589 50.8766 19.8609 52.8239 20.2204C54.7712 20.5807 56.8447 21.361 57.7912 23.0997C58.6252 24.6327 58.0652 26.4725 57.9934 28.2164C57.9191 30.0311 57.9209 30.4364 57.8327 32.1405C57.8327 32.1422 57.9476 34.51 56.6183 35.2774Z" fill="#263238"/>
<path d="M42.0832 41.2859C42.0754 41.3386 42.3053 41.4354 42.7012 41.4293C43.0918 41.4259 43.6519 41.2902 44.1455 40.9195C44.639 40.5479 44.9242 40.0476 45.0366 39.6725C45.1524 39.294 45.123 39.046 45.0703 39.0391C44.9545 39.0071 44.7505 39.9413 43.8922 40.5816C43.0382 41.2288 42.0849 41.1658 42.0832 41.2859Z" fill="white"/>
<path d="M35.3316 20.7752C35.361 20.7622 34.9427 20.9506 34.9799 21.5892C35.0058 21.8865 35.145 22.2546 35.4639 22.5493C35.7846 22.8526 36.3144 22.9563 36.8407 22.8794C37.3749 22.8007 37.9151 22.551 38.4458 22.233C38.9782 21.9227 39.5296 21.546 40.1874 21.3757C40.8434 21.2142 41.579 21.3412 42.2367 21.6894C42.9048 22.0204 43.5323 22.4896 44.2186 22.9113C44.8936 23.3305 45.662 23.6925 46.4537 23.632C47.2558 23.5932 47.8902 23.1092 48.433 22.6988C48.9801 22.2762 49.5099 21.8744 50.0942 21.7188C50.6785 21.5762 51.261 21.6436 51.7433 21.8208C52.7183 22.1872 53.2931 22.8889 53.5247 23.41C53.765 23.9406 53.7529 24.2802 53.7788 24.275C53.7788 24.275 53.8116 23.9362 53.5843 23.3832C53.3648 22.8414 52.79 22.1034 51.7848 21.7093C51.2878 21.5183 50.6794 21.4388 50.0588 21.584C49.4356 21.7447 48.8859 22.1587 48.3388 22.5761C47.7925 22.9848 47.1849 23.4376 46.4424 23.4687C45.7078 23.524 44.9749 23.1844 44.3068 22.7688C43.6291 22.354 42.9982 21.8813 42.3093 21.5425C41.6343 21.1865 40.8443 21.0482 40.1485 21.2262C39.4544 21.412 38.8996 21.8018 38.3732 22.1137C37.852 22.4335 37.3299 22.6798 36.8217 22.7627C36.3196 22.8431 35.826 22.7523 35.5252 22.4801C35.221 22.2114 35.0775 21.8649 35.0447 21.5849C34.9876 20.9851 35.3697 20.7829 35.3316 20.7752Z" fill="#455A64"/>
<path d="M37.9376 17.6823C37.9376 17.6823 37.9005 17.6072 37.7665 17.532C37.636 17.4568 37.3914 17.4144 37.12 17.5259C36.8469 17.6175 36.566 17.9615 36.6239 18.3901C36.6636 18.8031 36.98 19.2516 37.4813 19.421C37.9765 19.6008 38.5703 19.5368 39.133 19.3493C39.7009 19.1713 40.2722 18.8835 40.9178 18.8118C41.5695 18.7124 42.2143 19.0321 42.7303 19.5195C43.2618 19.987 43.7389 20.6075 44.4727 20.9437C45.2221 21.2902 46.0458 21.0664 46.7053 20.8114C47.3838 20.5513 48.0165 20.2679 48.6699 20.1944C49.9724 20.0181 51.1721 20.3906 51.9889 20.9411C52.8195 21.4924 53.3035 22.169 53.5766 22.6495C53.8506 23.136 53.9336 23.4393 53.9509 23.4324C53.9509 23.4324 53.8939 23.1213 53.6346 22.6175C53.3761 22.1206 52.899 21.4198 52.0563 20.8408C51.2266 20.2627 49.9966 19.8661 48.65 20.0389C47.9741 20.1106 47.3155 20.4018 46.6483 20.655C45.9905 20.9074 45.2256 21.1061 44.5411 20.7881C43.8617 20.4805 43.3854 19.8756 42.8409 19.396C42.3189 18.8982 41.5946 18.5413 40.9005 18.6571C40.2177 18.7392 39.6429 19.0382 39.0898 19.2162C38.5418 19.4055 37.9826 19.4677 37.5211 19.3078C37.0578 19.1592 36.763 18.7547 36.7172 18.378C36.6584 17.99 36.8944 17.6832 37.1459 17.5847C37.394 17.4715 37.6239 17.4991 37.751 17.5605C37.8823 17.6227 37.9307 17.6901 37.9376 17.6823Z" fill="#455A64"/>
<path d="M55.2943 22.2745C55.4083 22.3168 55.7204 21.6134 56.4853 21.1476C57.2372 20.6594 58.0056 20.6827 58.0169 20.5617C58.0238 20.509 57.831 20.4226 57.4965 20.4191C57.1646 20.4131 56.6962 20.5168 56.2605 20.7907C55.8258 21.0655 55.5294 21.4423 55.3911 21.7439C55.2502 22.0463 55.2441 22.258 55.2943 22.2745Z" fill="#263238"/>
<path d="M55.9827 17.9304C55.8625 17.9615 56.0345 18.8481 55.891 19.9222C55.7622 20.999 55.375 21.8147 55.4839 21.8752C55.5721 21.9409 56.1668 21.1519 56.3103 19.9758C56.4632 18.8006 56.0838 17.888 55.9827 17.9304Z" fill="#263238"/>
<path d="M57.3629 33.6787C57.3767 33.7159 57.8158 33.0894 57.6066 32.0066C57.5262 31.4561 57.0958 30.9324 56.6714 30.3984C56.4606 30.1296 56.2678 29.8194 56.2177 29.4633C56.1675 29.1056 56.2531 28.7236 56.3525 28.3374C56.5807 27.5657 56.6576 26.7551 56.4839 26.0594C56.3248 25.3586 55.8996 24.8073 55.4389 24.5247C54.9825 24.2257 54.5245 24.1643 54.228 24.1885C53.9272 24.2145 53.7803 24.3009 53.7803 24.3009C53.7846 24.3173 53.941 24.2594 54.2306 24.2542C54.5167 24.2516 54.948 24.3277 55.3724 24.6241C55.8011 24.9075 56.1874 25.426 56.3318 26.0949C56.4873 26.762 56.4147 27.5268 56.1883 28.295C56.0889 28.6839 55.9964 29.0866 56.0534 29.4858C56.1122 29.8877 56.3292 30.2204 56.5478 30.4926C56.9886 31.0353 57.3983 31.5131 57.4891 32.0308C57.6058 32.5346 57.566 32.9666 57.5037 33.2475C57.4432 33.5344 57.3482 33.6709 57.3629 33.6787Z" fill="#455A64"/>
<path d="M53.0694 75.5012C53.0833 75.515 53.0962 75.7077 53.1109 76.0577C53.1239 76.4682 53.1403 76.9608 53.1593 77.5501C53.1938 78.8273 53.2362 80.6256 53.2561 82.7912L53.1973 82.6555C54.0132 83.4151 54.913 84.2516 55.8663 85.1391L55.6416 85.0968C57.066 84.5213 58.6123 83.8965 60.2225 83.2458L60.0851 83.4143C60.1101 83.2777 60.1361 83.13 60.1629 82.9822C60.665 80.2592 61.1378 77.6962 61.5484 75.4666L61.7437 75.7008C59.1974 75.6827 57.0557 75.6377 55.5275 75.6006C54.8153 75.5798 54.2215 75.5626 53.7367 75.5479C53.3175 75.5306 53.0841 75.5159 53.0694 75.5012C53.0539 75.4857 53.2578 75.471 53.6554 75.4554C54.1282 75.4416 54.7064 75.4243 55.4014 75.4027C56.9165 75.3655 59.1119 75.3215 61.7454 75.3024L61.9831 75.3007L61.9416 75.5366C61.5458 77.7688 61.0912 80.3353 60.608 83.0617C60.5812 83.2095 60.5544 83.3572 60.5294 83.4938L60.5069 83.6165L60.391 83.6623C58.7773 84.3044 57.2276 84.9222 55.8007 85.49L55.6736 85.541L55.5759 85.4476C54.6347 84.5472 53.747 83.6977 52.9415 82.9269L52.8818 82.8699L52.8827 82.7904C52.9026 80.5418 52.945 78.696 52.9795 77.4317C52.9986 76.8588 53.0149 76.3801 53.0279 75.9817C53.0417 75.6533 53.0556 75.4874 53.0694 75.5012Z" fill="#263238"/>
<path d="M61.2253 77.7515C61.2331 77.8724 59.4068 78.0876 57.1423 78.0937C54.8778 78.1032 53.0497 77.9018 53.0567 77.78C53.0636 77.6529 54.8907 77.6529 57.1405 77.6434C59.3904 77.6374 61.2176 77.6253 61.2253 77.7515Z" fill="#263238"/>
<path d="M22.2024 73.2458C22.3874 73.4255 8.36035 92.6141 8.36035 92.6141H22.0961L30.5163 81.0716L22.2024 73.2458Z" fill="#FFBE9D"/>
</g>
<defs>
<clipPath id="clip0_18845_1047">
<rect width="102" height="170" fill="white"/>
</clipPath>
</defs>
</svg>
