<svg width="102" height="170" viewBox="0 0 102 170" fill="none" xmlns="http://www.w3.org/2000/svg">
<g clip-path="url(#clip0_18845_1044)">
<path d="M101.592 0H0V169.699H101.592V0Z" fill="#F5F5F5"/>
<path d="M26.9536 99.9309L28.0418 102.136L30.4766 102.49L28.7151 104.207L29.1308 106.631L26.9536 105.487L24.7764 106.631L25.1922 104.207L23.4307 102.49L25.8646 102.136L26.9536 99.9309Z" fill="#ED3030"/>
<path d="M39.0493 99.9309L40.1384 102.136L42.5723 102.49L40.8108 104.207L41.2265 106.631L39.0493 105.487L36.8721 106.631L37.2878 104.207L35.5264 102.49L37.9603 102.136L39.0493 99.9309Z" fill="#ED3030"/>
<path d="M51.146 99.9309L52.2351 102.136L54.669 102.49L52.9075 104.207L53.3232 106.631L51.146 105.487L48.9688 106.631L49.3845 104.207L47.623 102.49L50.0578 102.136L51.146 99.9309Z" fill="#ED3030"/>
<path d="M63.2427 99.9309L64.3317 102.136L66.7665 102.49L65.005 104.207L65.4208 106.631L63.2427 105.487L61.0655 106.631L61.4812 104.207L59.7197 102.49L62.1545 102.136L63.2427 99.9309Z" fill="#ED3030"/>
<path d="M75.3394 99.9309L76.4276 102.136L78.8623 102.49L77.1009 104.207L77.5166 106.631L75.3394 105.487L73.1622 106.631L73.5779 104.207L71.8164 102.49L74.2503 102.136L75.3394 99.9309Z" fill="#ED3030"/>
<path d="M46.65 119.823C46.65 119.947 38.9377 120.048 29.425 120.048C19.9097 120.048 12.1982 119.946 12.1982 119.823C12.1982 119.698 19.9097 119.598 29.425 119.598C38.9368 119.597 46.65 119.698 46.65 119.823Z" fill="#E8505B"/>
<path d="M89.9407 127.301C89.9407 127.426 72.7391 127.526 51.5243 127.526C30.3027 127.526 13.1045 127.425 13.1045 127.301C13.1045 127.178 30.3027 127.077 51.5243 127.077C72.7391 127.076 89.9407 127.177 89.9407 127.301Z" fill="#263238"/>
<path d="M89.9407 133.726C89.9407 133.851 72.7391 133.951 51.5243 133.951C30.3027 133.951 13.1045 133.85 13.1045 133.726C13.1045 133.603 30.3027 133.502 51.5243 133.502C72.7391 133.502 89.9407 133.602 89.9407 133.726Z" fill="#263238"/>
<path d="M89.9407 140.151C89.9407 140.276 72.7391 140.376 51.5243 140.376C30.3027 140.376 13.1045 140.275 13.1045 140.151C13.1045 140.027 30.3027 139.927 51.5243 139.927C72.7391 139.927 89.9407 140.028 89.9407 140.151Z" fill="#263238"/>
<path d="M89.9407 146.577C89.9407 146.702 72.7391 146.802 51.5243 146.802C30.3027 146.802 13.1045 146.701 13.1045 146.577C13.1045 146.453 30.3027 146.352 51.5243 146.352C72.7391 146.352 89.9407 146.453 89.9407 146.577Z" fill="#263238"/>
<path d="M89.9407 153.002C89.9407 153.127 72.7391 153.227 51.5243 153.227C30.3027 153.227 13.1045 153.126 13.1045 153.002C13.1045 152.878 30.3027 152.777 51.5243 152.777C72.7391 152.777 89.9407 152.879 89.9407 153.002Z" fill="#263238"/>
<path d="M94.0357 8.61563H6.52344V92.6141H94.0357V8.61563Z" fill="#E0E0E0"/>
<path d="M55.6533 50.2446C55.6741 52.4292 55.8513 53.7176 55.872 55.9022C55.8772 56.4483 55.9169 57.0714 56.3431 57.4136C56.7017 57.7022 57.2368 57.6815 57.649 57.4775C58.0622 57.2736 58.3776 56.9184 58.6681 56.5615C61.083 53.6027 62.5679 49.8955 62.8626 46.088C62.8885 45.7587 62.8937 45.3923 62.6776 45.1417C62.3354 44.7451 61.6949 44.8937 61.2161 45.1063C58.8686 46.1502 56.8807 47.9865 55.6533 50.2446Z" fill="#263238"/>
<path d="M40.96 24.1108L41.0032 26.2928L41.4414 58.9527C41.4924 62.7437 44.7932 65.7198 48.8538 65.6343C52.9541 65.5479 56.2852 62.3747 56.2964 58.5439C56.3085 54.523 56.395 50.2904 56.395 50.2904C56.395 50.2904 61.5757 49.4305 62.6492 42.672C63.1833 39.3113 63.0139 33.8006 62.7304 29.2957C62.4746 25.2411 58.898 22.2148 54.8573 22.6426L40.96 24.1108Z" fill="#FFBE9D"/>
<path d="M60.1294 33.1317C60.1459 33.5897 59.7716 33.9803 59.2937 34.0062C58.8165 34.0322 58.4164 33.6822 58.3999 33.225C58.3835 32.767 58.7578 32.3756 59.2349 32.3497C59.7128 32.3246 60.113 32.6746 60.1294 33.1317Z" fill="#263238"/>
<path d="M61.535 32.1613C61.4278 32.2745 60.7709 31.7888 59.8375 31.7905C58.9057 31.7793 58.2212 32.2598 58.1201 32.1448C58.0699 32.0939 58.1797 31.8908 58.4779 31.673C58.7709 31.457 59.2722 31.247 59.853 31.2496C60.4339 31.253 60.9231 31.4665 61.204 31.686C61.4909 31.9063 61.5886 32.1112 61.535 32.1613Z" fill="#263238"/>
<path d="M51.1441 33.1317C51.1605 33.5897 50.7863 33.9803 50.3083 34.0062C49.8312 34.0321 49.431 33.6822 49.4146 33.225C49.3982 32.767 49.7724 32.3755 50.2495 32.3496C50.7275 32.3246 51.1277 32.6745 51.1441 33.1317Z" fill="#263238"/>
<path d="M52.3657 32.3358C52.2585 32.449 51.6008 31.9634 50.6682 31.9651C49.7364 31.9538 49.0519 32.4343 48.9499 32.3194C48.9007 32.2684 49.0087 32.0653 49.3078 31.8476C49.6008 31.6315 50.1012 31.4215 50.6829 31.4241C51.2637 31.4276 51.7529 31.641 52.0338 31.8605C52.3208 32.0809 52.4184 32.2848 52.3657 32.3358Z" fill="#263238"/>
<path d="M55.7515 39.2525C55.7472 39.1998 56.3271 39.0996 57.2667 38.9795C57.5043 38.9553 57.7299 38.9077 57.7706 38.7453C57.8267 38.5733 57.7265 38.3166 57.6115 38.0392C57.3877 37.4629 57.1534 36.8588 56.9071 36.2254C55.9287 33.6433 55.2208 31.5201 55.3245 31.482C55.4291 31.444 56.3064 33.505 57.2848 36.0871C57.5199 36.724 57.7455 37.3306 57.9598 37.9114C58.0497 38.1818 58.2053 38.4886 58.0834 38.8464C58.0195 39.0244 57.844 39.1531 57.6919 39.1946C57.5389 39.2413 57.405 39.2439 57.2874 39.2508C56.3418 39.3018 55.755 39.3052 55.7515 39.2525Z" fill="#263238"/>
<path d="M56.3957 50.2895C56.3957 50.2895 51.8485 50.5824 47.3428 47.875C47.3428 47.875 49.539 52.5173 56.304 51.8856L56.3957 50.2895Z" fill="#EB996E"/>
<path d="M55.3567 41.5002C55.0213 41.0569 54.4336 40.8132 53.8501 40.8763C53.4456 40.9195 53.036 41.1148 52.7905 41.4449C52.5442 41.7741 52.4932 42.2425 52.7162 42.5562C52.9677 42.9105 53.494 42.9917 53.9392 42.8655C54.3843 42.7394 54.7672 42.4464 55.1311 42.1543C55.2322 42.0731 55.335 41.9893 55.3973 41.8787C55.4604 41.7681 55.4733 41.6229 55.3955 41.5313" fill="#EB996E"/>
<path d="M53.0055 39.898C53.1576 39.8894 53.1593 40.9013 54.0254 41.6203C54.8906 42.341 55.9701 42.2278 55.9779 42.3687C55.9917 42.4326 55.7376 42.5657 55.2821 42.5778C54.8352 42.5933 54.1827 42.4499 53.652 42.01C53.123 41.5693 52.8957 40.9817 52.8611 40.566C52.8231 40.1426 52.9363 39.892 53.0055 39.898Z" fill="#263238"/>
<path d="M51.0846 23.55C51.8002 23.7072 52.362 24.262 52.7933 24.854C53.2246 25.4459 53.573 26.1044 54.0846 26.6289C55.2324 27.8059 57.1824 28.1006 58.6275 27.3168C59.1746 27.8422 59.8911 28.41 60.6094 28.1663C61.0294 28.0237 61.3224 27.6132 61.4071 27.1785C61.4918 26.743 61.3925 26.2893 61.2179 25.8823C60.5109 24.237 58.6889 23.3555 56.9317 23.0107C54.7942 22.5916 52.5427 22.7662 50.4951 23.5111" fill="#2C2719"/>
<path d="M34.7863 92.8871C35.1113 93.4497 32.7154 85.3854 32.7154 85.3854L30.7093 92.7567L15.8223 92.8673C15.8223 92.8673 24.2355 65.3759 28.2304 61.5382C33.4449 56.5296 43.2194 56.2556 43.2194 56.2556L58.3139 56.5002C58.3139 56.5002 58.4315 56.5105 58.6484 56.5373C64.8075 57.2822 70.1689 61.1018 72.946 66.6488L82.9686 92.6158H69.7342L66.9122 84.9533L67.8534 92.6158" fill="#161C1F"/>
<path d="M65.1347 55.6101C64.674 54.5256 63.0197 54.5645 62.2893 53.6398C61.4907 52.6296 62.1977 51.1822 62.7906 50.0398C65.6524 44.5239 65.3646 37.9632 64.8434 31.7707C64.6204 29.1194 64.3499 26.4077 63.2003 24.0079C60.909 19.224 55.3678 15.4347 48.4714 15.7432C42.862 15.9618 38.5957 21.0214 35.5585 25.7415C32.5204 30.4615 30.9102 37.8794 31.905 43.403C32.4029 46.1683 35.3857 48.3002 34.8411 51.0569C34.498 52.7938 32.6777 54.8782 33.0338 56.6125C33.5204 58.9812 36.9596 59.8056 38.9717 61.1467C41.0426 62.5268 42.7652 64.3571 44.5829 66.0569C46.4014 67.7567 48.3885 69.37 50.7455 70.1685C53.1025 70.967 55.9106 70.8166 57.8338 69.237C60.9704 66.6609 60.6679 61.5218 63.5218 58.6346C64.3801 57.7662 65.6126 56.7344 65.1347 55.6101ZM60.7076 25.7276C61.8597 27.4628 61.9531 29.6967 62.2228 31.762C62.6783 35.2523 62.922 38.8092 62.342 42.2814C61.7629 45.7527 60.2996 49.16 57.7508 51.5875C55.2019 54.0149 51.4801 55.3327 48.054 54.5221C44.2069 53.6113 42.97 50.2402 41.8836 46.4397C40.7971 42.6391 43.2207 39.1877 44.3046 35.3863C45.1386 32.4594 45.4532 28.327 47.3426 25.9419C49.232 23.5569 52.379 23.397 53.3021 23.4359C53.3021 23.4359 58.4007 22.2503 60.7076 25.7276Z" fill="#E84343"/>
<g opacity="0.3">
<path d="M33.4131 53.8204C35.6966 55.0605 37.4832 57.0213 39.3406 58.8386C41.198 60.655 43.2663 62.4127 45.7815 63.0643C48.2967 63.7159 51.3546 62.9407 52.6122 60.6671C45.4816 61.8787 37.803 57.3868 35.3673 50.5773" fill="black"/>
</g>
<g opacity="0.3">
<path d="M61.9145 52.2079C61.4529 54.0036 60.1893 55.5773 58.535 56.4163C58.1582 56.6073 57.7554 56.7672 57.4477 57.0558C57.1391 57.3445 56.9455 57.8094 57.1166 58.1956C57.3085 58.6303 57.885 58.7781 58.3405 58.6433C58.796 58.5085 59.1564 58.1671 59.4978 57.8379C60.739 56.6384 62.0415 55.3327 62.3907 53.6424" fill="black"/>
</g>
</g>
<defs>
<clipPath id="clip0_18845_1044">
<rect width="102" height="170" fill="white"/>
</clipPath>
</defs>
</svg>
