<svg width="60" height="60" viewBox="0 0 60 60" fill="none" xmlns="http://www.w3.org/2000/svg">
<rect y="-0.000366211" width="60.0007" height="60.0007" rx="10" fill="#373737"/>
<path d="M28.8761 9.81928C29.502 8.96208 30.7812 8.96208 31.407 9.81927L33.4562 12.6257C33.9048 13.2401 34.7299 13.4435 35.4127 13.1079L38.5313 11.5752C39.4839 11.1071 40.6165 11.7015 40.7723 12.7514L41.2825 16.1886C41.3942 16.9412 42.0303 17.5047 42.7909 17.5249L46.2645 17.6171C47.3255 17.6452 48.0521 18.6979 47.7022 19.7L46.5566 22.9806C46.3058 23.6988 46.6072 24.4934 47.2712 24.8647L50.3041 26.5606C51.2305 27.0786 51.3847 28.3484 50.6092 29.0731L48.0702 31.4455C47.5144 31.9649 47.4119 32.8086 47.8274 33.4459L49.7248 36.3571C50.3043 37.2462 49.8507 38.4422 48.8273 38.7235L45.4766 39.6443C44.743 39.8459 44.2603 40.5453 44.3319 41.3027L44.6591 44.7621C44.7591 45.8188 43.8016 46.667 42.7647 46.4404L39.3699 45.6986C38.6267 45.5362 37.8742 45.9311 37.5857 46.6351L36.2677 49.8503C35.8651 50.8324 34.6232 51.1385 33.8103 50.456L31.1492 48.2215C30.5665 47.7323 29.7167 47.7323 29.134 48.2215L26.4729 50.456C25.66 51.1385 24.4181 50.8324 24.0155 49.8503L22.6975 46.6351C22.409 45.9311 21.6565 45.5362 20.9133 45.6986L17.5185 46.4404C16.4816 46.667 15.5241 45.8188 15.6241 44.7621L15.9513 41.3027C16.0229 40.5453 15.5402 39.8459 14.8066 39.6443L11.4559 38.7235C10.4325 38.4422 9.97889 37.2462 10.5584 36.3571L12.4558 33.4459C12.8713 32.8086 12.7688 31.9649 12.213 31.4455L9.67401 29.0731C8.8985 28.3484 9.05268 27.0786 9.97907 26.5606L13.012 24.8647C13.676 24.4934 13.9774 23.6988 13.7266 22.9806L12.581 19.7C12.2311 18.6979 12.9577 17.6452 14.0187 17.6171L17.4923 17.5249C18.2529 17.5047 18.889 16.9412 19.0007 16.1886L19.5109 12.7514C19.6667 11.7015 20.7993 11.1071 21.7519 11.5752L24.8705 13.1079C25.5533 13.4435 26.3784 13.2401 26.827 12.6257L28.8761 9.81928Z" fill="white"/>
<path d="M47.1161 30.5447C47.1161 39.7752 39.6333 47.258 30.4027 47.258C21.1722 47.258 13.6894 39.7752 13.6894 30.5447C13.6894 21.3142 21.1722 13.8314 30.4027 13.8314C39.6333 13.8314 47.1161 21.3142 47.1161 30.5447Z" fill="#ED3030"/>
<path fill-rule="evenodd" clip-rule="evenodd" d="M30.4027 44.6466C38.191 44.6466 44.5046 38.3329 44.5046 30.5447C44.5046 22.7564 38.191 16.4428 30.4027 16.4428C22.6145 16.4428 16.3009 22.7564 16.3009 30.5447C16.3009 38.3329 22.6145 44.6466 30.4027 44.6466ZM30.4027 47.258C39.6333 47.258 47.1161 39.7752 47.1161 30.5447C47.1161 21.3142 39.6333 13.8314 30.4027 13.8314C21.1722 13.8314 13.6894 21.3142 13.6894 30.5447C13.6894 39.7752 21.1722 47.258 30.4027 47.258Z" fill="#F4F600"/>
<path d="M27.4645 36.8057C25.5965 34.9377 23.7399 33.0525 21.8662 31.1845C21.6605 30.9789 21.6605 30.6361 21.8662 30.4305L24.0198 28.2768C24.2254 28.0712 24.5682 28.0712 24.7738 28.2768L27.8529 31.3559L35.7705 23.4326C35.9819 23.2269 36.3189 23.2269 36.5303 23.4326L38.6897 25.5919C38.901 25.8033 38.901 26.1403 38.6897 26.346L28.2185 36.8057C28.0129 37.0171 27.6758 37.0171 27.4645 36.8057Z" fill="white"/>
</svg>
