<svg width="26" height="26" viewBox="0 0 26 26" fill="none" xmlns="http://www.w3.org/2000/svg">
<path d="M25.6426 15.8944C27.2496 9.08996 23.0352 2.27134 16.2294 0.664609C9.42365 -0.942119 2.60374 3.27148 0.996706 10.076C-0.610327 16.8804 3.60407 23.6991 10.4098 25.3058C17.2156 26.9125 24.0355 22.6989 25.6426 15.8944Z" fill="#ED3030"/>
<path d="M15.245 7.57687C15.2839 7.62439 14.6019 8.24918 13.4662 9.22222C12.3305 10.1953 10.7401 11.5174 8.96224 12.9597L8.9683 12.6149C8.99596 12.6391 9.0262 12.6659 9.05732 12.6918C10.8067 14.2101 12.3746 15.604 13.4939 16.6297C14.614 17.6555 15.2856 18.3131 15.245 18.3607C15.2044 18.4073 14.4585 17.8344 13.2847 16.8709C12.1118 15.9065 10.5111 14.5515 8.76173 13.0323C8.73147 13.0055 8.70123 12.9796 8.6727 12.9554L8.47046 12.7791L8.67876 12.6106C10.4584 11.1692 12.0798 9.88675 13.2674 8.97679C14.4541 8.06597 15.2061 7.52847 15.245 7.57687Z" fill="white"/>
</svg>
