<svg width="27" height="26" viewBox="0 0 27 26" fill="none" xmlns="http://www.w3.org/2000/svg">
<path d="M25.7181 15.8982C27.3349 9.09582 23.1302 2.27094 16.3265 0.654422C9.52283 -0.962095 2.69668 3.24189 1.07985 10.0443C-0.536969 16.8466 3.6678 23.6715 10.4715 25.288C17.2751 26.9045 24.1013 22.7006 25.7181 15.8982Z" fill="#ED3030"/>
<path d="M11.48 18.3606C11.4411 18.3131 12.1231 17.6883 13.2588 16.7153C14.3945 15.7422 15.9848 14.4201 17.7627 12.9778L17.7567 13.3226C17.729 13.2984 17.6979 13.2725 17.6677 13.2457C15.9174 11.7274 14.3504 10.3335 13.2311 9.30776C12.111 8.28201 11.4394 7.62439 11.48 7.57772C11.5206 7.53106 12.2665 8.10399 13.4394 9.06752C14.6123 10.0319 16.213 11.3869 17.9624 12.9061C17.9927 12.9329 18.0229 12.9588 18.0514 12.983L18.2537 13.1593L18.0453 13.3278C16.2657 14.7692 14.6443 16.0516 13.4567 16.9616C12.2709 17.8707 11.5189 18.4082 11.48 18.3606Z" fill="white"/>
</svg>
