<svg width="58" height="58" viewBox="0 0 58 58" fill="none" xmlns="http://www.w3.org/2000/svg">
<g clip-path="url(#clip0_16956_17854)">
<path fill-rule="evenodd" clip-rule="evenodd" d="M29 55C43.3594 55 55 43.3594 55 29C55 14.6406 43.3594 3 29 3C14.6406 3 3 14.6406 3 29C3 43.3594 14.6406 55 29 55ZM29 58C45.0163 58 58 45.0163 58 29C58 12.9837 45.0163 0 29 0C12.9837 0 0 12.9837 0 29C0 45.0163 12.9837 58 29 58Z" fill="#F4F600"/>
<path d="M42.1578 35.1875C42.0809 35.1266 36.5 31.1038 34.9681 31.3925C34.2369 31.5219 33.8188 32.0206 32.9797 33.0191C32.8447 33.1803 32.5203 33.5666 32.2681 33.8412C31.7379 33.6683 31.2206 33.4578 30.7203 33.2113C28.138 31.9541 26.0516 29.8676 24.7944 27.2853C24.5477 26.7851 24.3371 26.2678 24.1644 25.7375C24.44 25.4844 24.8263 25.16 24.9913 25.0212C25.985 24.1869 26.4847 23.7687 26.6141 23.0356C26.8794 21.5169 22.8594 15.8975 22.8172 15.8469C22.6348 15.5863 22.3968 15.3696 22.1203 15.2123C21.8439 15.055 21.5359 14.9612 21.2188 14.9375C19.5894 14.9375 14.9375 20.9722 14.9375 21.9884C14.9375 22.0475 15.0228 28.0512 22.4262 35.5822C29.9497 42.9772 35.9525 43.0625 36.0116 43.0625C37.0287 43.0625 43.0625 38.4106 43.0625 36.7812C43.0391 36.4652 42.9458 36.1583 42.7894 35.8826C42.6329 35.607 42.4172 35.3696 42.1578 35.1875Z" fill="white"/>
</g>
<defs>
<clipPath id="clip0_16956_17854">
<rect width="58" height="58" fill="white"/>
</clipPath>
</defs>
</svg>
