<svg width="17" height="17" viewBox="0 0 17 17" fill="none" xmlns="http://www.w3.org/2000/svg">
<path d="M15.9375 12.75V14.875C15.9375 15.461 15.461 15.9375 14.875 15.9375H2.125C1.53903 15.9375 1.0625 15.461 1.0625 14.875V12.75C1.0625 12.4568 1.29997 12.2188 1.59375 12.2188C1.88753 12.2188 2.125 12.4568 2.125 12.75V14.875H14.875V12.75C14.875 12.4568 15.1125 12.2188 15.4062 12.2188C15.7 12.2188 15.9375 12.4568 15.9375 12.75Z" fill="#F4F600"/>
<path d="M4.40554 5.68808C4.19783 5.48036 4.19783 5.14461 4.40554 4.93689L8.12376 1.21867C8.33148 1.01042 8.67095 1.01308 8.87601 1.21867L12.5942 4.93689C12.802 5.14461 12.802 5.48036 12.5942 5.68808C12.4906 5.79167 12.3546 5.84373 12.2186 5.84373C12.0826 5.84373 11.9466 5.79167 11.843 5.68808L9.03114 2.87617V12.2187C9.03114 12.512 8.79367 12.75 8.49989 12.75C8.20611 12.75 7.96864 12.512 7.96864 12.2187V2.87617L5.15673 5.68808C4.94901 5.89579 4.61326 5.89579 4.40554 5.68808Z" fill="#F4F600"/>
</svg>
