<svg width="261" height="247" viewBox="0 0 261 247" fill="none" xmlns="http://www.w3.org/2000/svg">
<path d="M0 236.063H252.469" stroke="#5B5B5B"/>
<path d="M246.372 105.84C246.372 105.84 239.346 103.531 235.979 119.747C232.612 135.963 232.106 144.923 232.106 144.923C232.106 144.923 231.002 148.429 228.421 147.039C225.84 145.649 221.524 140.885 218.314 142.832C214.984 144.851 214.896 149.206 217.202 154.94C219.508 160.675 224.099 173.424 224.51 174.579C224.914 175.712 224.717 177.598 222.806 176.933C220.896 176.268 208.829 168.49 205.482 174.437C202.134 180.384 211.184 195.304 212.142 196.954C213.1 198.604 212.959 199.459 212.234 200.13C211.509 200.801 207.7 197.804 204.177 195.733C200.654 193.661 196.207 191.877 194.563 195.47C192.919 199.063 195.454 211.42 212.397 227.988L220.751 235.151L231.236 231.653C253.218 222.799 260.274 212.343 260.125 208.394C259.975 204.446 255.183 204.399 251.137 204.971C247.09 205.542 242.426 206.859 242.011 205.963C241.597 205.066 241.794 204.222 243.308 203.062C244.823 201.902 258.879 191.561 258.052 184.787C257.226 178.013 243.105 180.6 241.085 180.487C239.066 180.373 239.603 178.555 240.408 177.661C241.228 176.751 250.335 166.716 254.654 162.294C258.973 157.873 260.552 153.813 258.244 150.677C256.019 147.653 250.212 150.41 247.296 150.711C244.38 151.011 244.698 147.349 244.698 147.349C244.698 147.349 247.646 138.874 250.718 122.599C253.79 106.325 246.226 105.804 246.226 105.804" fill="#F5F5F5"/>
<path d="M220.693 232.838C222.993 220.894 226.311 204.42 230.037 186.235C233.762 168.056 237.121 151.594 239.488 139.665C240.663 133.711 241.616 128.887 242.278 125.534C242.606 123.879 242.863 122.588 243.041 121.692C243.129 121.267 243.198 120.936 243.249 120.695C243.297 120.471 243.332 120.358 243.332 120.358C243.332 120.358 243.323 120.476 243.286 120.702C243.245 120.944 243.188 121.278 243.115 121.706C242.954 122.605 242.721 123.901 242.422 125.561C241.815 128.908 240.902 133.744 239.75 139.716C237.45 151.66 234.131 168.132 230.407 186.311C226.681 204.496 223.321 220.96 220.955 232.889" fill="#F7E3E3"/>
<path d="M224.082 149.739C224.264 149.933 224.422 150.15 224.552 150.383C224.836 150.808 225.227 151.437 225.702 152.218C226.649 153.783 227.9 155.978 229.235 158.426C230.536 160.839 231.713 163.02 232.624 164.708C233.03 165.452 233.374 166.085 233.658 166.606C233.804 166.829 233.921 167.07 234.008 167.321C233.824 167.129 233.664 166.914 233.533 166.682C233.25 166.254 232.859 165.626 232.392 164.839C231.46 163.265 230.238 161.054 228.904 158.607C227.585 156.205 226.393 154.032 225.471 152.352C225.061 151.609 224.713 150.978 224.426 150.458C224.282 150.233 224.167 149.992 224.082 149.739Z" fill="#F7E3E3"/>
<path d="M235.036 167.244C234.982 167.155 239.391 164.373 244.884 161.032C250.379 157.69 254.875 155.053 254.929 155.142C254.983 155.231 250.574 158.012 245.08 161.354C239.587 164.696 235.09 167.333 235.036 167.244Z" fill="#F7E3E3"/>
<path d="M228.056 194.908C228.302 194.791 228.561 194.705 228.828 194.651C229.409 194.493 230.12 194.3 230.958 194.071C232.757 193.581 235.238 192.895 237.948 192.041C240.662 191.192 243.091 190.34 244.845 189.711C245.663 189.42 246.357 189.172 246.926 188.97C247.175 188.861 247.437 188.784 247.705 188.738C247.479 188.89 247.235 189.013 246.98 189.106C246.503 189.319 245.807 189.615 244.94 189.96C243.206 190.655 240.783 191.549 238.061 192.4C235.342 193.258 232.842 193.905 231.024 194.33C230.114 194.539 229.375 194.699 228.861 194.794C228.598 194.864 228.328 194.902 228.056 194.908Z" fill="#F7E3E3"/>
<path d="M214.664 181.255C214.878 181.388 215.074 181.547 215.246 181.731C215.604 182.054 216.113 182.532 216.736 183.127C217.983 184.318 219.687 185.981 221.552 187.835C223.418 189.689 225.092 191.383 226.291 192.622C226.89 193.241 227.371 193.747 227.697 194.103C227.881 194.274 228.042 194.469 228.176 194.683C227.962 194.55 227.766 194.39 227.593 194.207C227.235 193.883 226.726 193.406 226.103 192.811C224.857 191.62 223.152 189.956 221.287 188.102C219.421 186.248 217.747 184.555 216.549 183.316C215.949 182.696 215.469 182.19 215.143 181.835C214.959 181.663 214.798 181.468 214.664 181.255Z" fill="#F7E3E3"/>
<path d="M205.399 204.894C205.665 205.074 205.913 205.281 206.137 205.511C206.644 205.983 207.286 206.581 208.052 207.295C209.658 208.812 211.858 210.928 214.271 213.281C216.685 215.634 218.856 217.78 220.414 219.347C221.147 220.094 221.761 220.721 222.245 221.216C222.481 221.434 222.694 221.676 222.881 221.938C222.615 221.758 222.367 221.551 222.143 221.321C221.636 220.849 220.994 220.251 220.228 219.538C218.622 218.02 216.422 215.904 214.008 213.551C211.595 211.198 209.424 209.052 207.866 207.486C207.133 206.738 206.519 206.111 206.035 205.616C205.799 205.398 205.586 205.156 205.399 204.894Z" fill="#F7E3E3"/>
<path d="M222.576 221.413C222.888 221.266 223.213 221.15 223.546 221.065C224.247 220.847 225.145 220.568 226.222 220.234C228.48 219.531 231.597 218.551 235.007 217.374C238.419 216.202 241.481 215.061 243.692 214.222C244.747 213.823 245.627 213.49 246.313 213.231C246.628 213.092 246.955 212.984 247.291 212.908C246.999 213.09 246.69 213.244 246.369 213.367C245.765 213.64 244.885 214.019 243.79 214.47C241.601 215.374 238.549 216.556 235.129 217.73C231.713 218.91 228.578 219.851 226.297 220.489C225.156 220.805 224.23 221.051 223.586 221.206C223.257 221.307 222.919 221.376 222.576 221.413Z" fill="#F7E3E3"/>
<path d="M220.595 206.419C219.261 208.324 216.67 207.693 215.468 206.531C214.266 205.368 213.758 203.683 213.296 202.076C212.239 198.405 211.174 194.553 211.96 190.815C212.149 189.682 212.646 188.622 213.398 187.753C213.778 187.325 214.265 187.004 214.809 186.823C215.352 186.642 215.934 186.608 216.495 186.722C217.802 187.067 218.614 188.348 219.201 189.565C220.931 193.16 221.837 197.096 221.854 201.086C221.979 202.95 221.54 204.808 220.595 206.419Z" fill="#E8505B"/>
<g opacity="0.2">
<path d="M220.595 206.419C219.261 208.324 216.67 207.693 215.468 206.531C214.266 205.368 213.758 203.683 213.296 202.076C212.239 198.405 211.174 194.553 211.96 190.815C212.149 189.681 212.646 188.622 213.398 187.753C213.778 187.325 214.265 187.004 214.809 186.823C215.352 186.642 215.934 186.608 216.495 186.722C217.802 187.067 218.614 188.348 219.201 189.565C220.931 193.16 221.837 197.096 221.854 201.086C221.979 202.949 221.54 204.808 220.595 206.419Z" fill="black"/>
</g>
<path d="M215.596 216.065C213.361 215.016 210.848 214.71 208.426 215.194C207.102 215.311 205.855 215.867 204.884 216.775C203.999 217.752 203.831 219.471 204.848 220.311C205.503 220.754 206.293 220.955 207.081 220.878C208.977 220.855 211.079 220.522 212.594 221.662C213.458 222.313 214.033 223.394 215.066 223.714C215.583 223.834 216.124 223.782 216.609 223.566C217.094 223.351 217.495 222.983 217.753 222.519C218.245 221.569 218.354 220.467 218.056 219.439C217.934 218.725 217.648 218.049 217.221 217.464C216.795 216.879 216.239 216.4 215.596 216.065Z" fill="#E8505B"/>
<path d="M224.256 209.152C223.572 208.257 223.115 207.208 222.928 206.097C222.74 204.985 222.826 203.845 223.178 202.774C223.909 200.635 225.216 198.739 226.956 197.295C228.929 195.537 231.227 194.182 233.72 193.304C234.685 192.914 235.722 192.738 236.762 192.787C237.281 192.817 237.785 192.973 238.23 193.243C238.675 193.512 239.047 193.886 239.315 194.331C240.027 195.689 239.344 197.336 238.606 198.679C237.305 201.048 235.819 203.31 234.163 205.445C232.831 207.162 231.306 208.855 229.277 209.631C227.247 210.407 225.139 210.316 224.063 208.909" fill="#E8505B"/>
<path d="M220.685 235.151C220.615 234.868 220.574 234.578 220.564 234.286C220.503 233.656 220.426 232.865 220.335 231.924C220.217 230.761 220.04 229.604 219.803 228.459C219.493 227.065 219.072 225.697 218.544 224.37C218.026 223.044 217.323 221.799 216.456 220.67C215.75 219.752 214.848 219.002 213.816 218.476C213.116 218.129 212.366 217.895 211.593 217.783C211.302 217.772 211.013 217.73 210.731 217.659C211.022 217.622 211.316 217.618 211.608 217.645C212.411 217.706 213.196 217.91 213.926 218.248C215.013 218.761 215.966 219.519 216.711 220.462C217.615 221.606 218.345 222.878 218.875 224.236C219.412 225.583 219.83 226.973 220.126 228.392C220.35 229.551 220.504 230.723 220.586 231.901C220.661 232.904 220.69 233.716 220.703 234.277C220.729 234.568 220.723 234.861 220.685 235.151Z" fill="#263238"/>
<path d="M220.52 233.334C220.496 233.201 220.489 233.066 220.497 232.932C220.497 232.63 220.498 232.25 220.5 231.784C220.502 230.787 220.502 229.345 220.449 227.564C220.36 224.002 220.054 219.085 219.461 213.68C218.865 208.274 218.074 203.411 217.353 199.922C217.182 199.048 217.011 198.26 216.849 197.571C216.695 196.881 216.564 196.285 216.437 195.803C216.328 195.35 216.239 194.98 216.168 194.687C216.13 194.558 216.106 194.425 216.098 194.291C216.16 194.41 216.206 194.537 216.238 194.667C216.325 194.957 216.436 195.321 216.571 195.768C216.719 196.245 216.871 196.837 217.044 197.525C217.224 198.211 217.413 198.996 217.6 199.869C218.584 204.417 219.324 209.014 219.816 213.641C220.41 219.057 220.677 223.988 220.701 227.559C220.722 229.345 220.684 230.79 220.639 231.787C220.61 232.254 220.587 232.633 220.569 232.935C220.568 233.069 220.552 233.203 220.52 233.334Z" fill="#263238"/>
<path d="M220.497 223.823C220.469 223.423 220.471 223.022 220.506 222.623C220.55 221.852 220.656 220.738 220.873 219.373C221.136 217.776 221.488 216.195 221.93 214.637C222.457 212.725 223.119 210.853 223.91 209.034C225.284 205.688 227.255 202.62 229.726 199.979C230.154 199.527 230.611 199.102 231.094 198.707C231.303 198.53 231.489 198.353 231.678 198.213C231.868 198.082 232.045 197.96 232.209 197.847C232.528 197.605 232.866 197.389 233.219 197.2C232.055 198.115 230.95 199.102 229.908 200.153C227.519 202.817 225.601 205.868 224.238 209.176C223.453 210.981 222.788 212.835 222.247 214.728C221.794 216.271 221.418 217.836 221.122 219.416C220.874 220.767 220.731 221.87 220.644 222.634C220.626 223.034 220.577 223.431 220.497 223.823Z" fill="#263238"/>
<path d="M72.6988 218.008L73.1947 233.122L77.0338 244.963C77.0993 245.165 77.1225 245.378 77.1021 245.589C77.0817 245.801 77.0181 246.006 76.9152 246.191C76.8123 246.377 76.6723 246.54 76.504 246.669C76.3356 246.798 76.1424 246.892 75.9364 246.943C75.6972 247.004 75.4468 247.007 75.2065 246.95C74.9661 246.894 74.7428 246.781 74.5554 246.62C72.1281 244.539 63.2373 236.838 63.263 235.73C63.2928 234.447 61.6816 219.822 61.6816 219.822L72.6988 218.008Z" fill="#E8505B"/>
<path d="M75.9373 246.943L63.207 234.711L63.2427 235.351C63.2724 235.904 63.4979 236.428 63.879 236.83C64.9004 237.903 67.7859 240.805 74.5106 246.623C74.7036 246.79 74.9349 246.907 75.1838 246.962C75.4327 247.018 75.6915 247.012 75.9373 246.943Z" fill="#E0E0E0"/>
<path d="M66.0343 229.668C66.2276 229.794 66.3675 229.987 66.4273 230.21C66.4872 230.433 66.4627 230.67 66.3585 230.876C66.2397 231.074 66.0496 231.218 65.8273 231.28C65.6051 231.342 65.3676 231.316 65.1639 231.208C64.9592 231.074 64.8115 230.869 64.7493 230.632C64.6871 230.396 64.7148 230.144 64.8272 229.927C64.9723 229.733 65.1868 229.603 65.4257 229.565C65.6646 229.526 65.9092 229.581 66.108 229.719" fill="white"/>
<path d="M72.1199 240.539C72.2076 240.576 72.504 239.766 73.3783 239.291C73.9194 239.041 74.5029 238.895 75.0981 238.862C75.1091 238.824 74.9115 238.717 74.5553 238.687C74.0879 238.663 73.6232 238.772 73.2154 239.002C72.8076 239.231 72.4734 239.572 72.2518 239.984C72.0929 240.305 72.0818 240.529 72.1199 240.539Z" fill="#263238"/>
<path d="M73.3052 242.501C73.3807 242.562 73.8379 242.044 74.6064 241.777C75.0886 241.658 75.5774 241.567 76.0702 241.505C75.8298 241.373 75.5612 241.3 75.2869 241.293C75.0126 241.286 74.7407 241.345 74.4938 241.465C73.6195 241.774 73.2244 242.465 73.3052 242.501Z" fill="#263238"/>
<path d="M69.9727 238.059C70.5849 237.594 71.2309 237.176 71.9053 236.807C72.6251 236.537 73.3639 236.32 74.1158 236.16C73.316 236.048 72.501 236.168 71.767 236.505C71.0329 236.841 70.4104 237.381 69.9727 238.059Z" fill="#263238"/>
<path d="M69.4355 233.477C69.4809 233.566 70.2956 233.171 71.3787 233.071C72.4607 232.956 73.3368 233.184 73.364 233.089C72.7352 232.792 72.0378 232.672 71.3461 232.74C70.6543 232.809 69.9941 233.064 69.4355 233.477Z" fill="#263238"/>
<path d="M69.18 229.045C69.8256 228.794 70.5024 228.634 71.1916 228.568C71.883 228.605 72.566 228.736 73.2217 228.959C73.2446 228.926 73.0692 228.746 72.7099 228.564C72.2341 228.337 71.7117 228.225 71.1847 228.236C70.6576 228.247 70.1405 228.381 69.6747 228.628C69.3234 228.825 69.1557 229.013 69.18 229.045Z" fill="#263238"/>
<path d="M71.1163 227.726C71.155 227.536 71.1512 227.341 71.105 227.153C71.0253 226.633 70.8427 226.133 70.5678 225.683C70.3956 225.336 70.1141 225.056 69.7666 224.885C69.6469 224.84 69.5161 224.833 69.392 224.864C69.268 224.896 69.1567 224.965 69.0735 225.063C68.9233 225.262 68.8519 225.509 68.8727 225.757C68.9353 226.263 69.1721 226.731 69.5425 227.081C69.9128 227.43 70.3935 227.64 70.9018 227.674C71.4046 227.697 71.9028 227.569 72.3332 227.308C72.7636 227.047 73.1068 226.665 73.3192 226.208C73.3721 226.093 73.3995 225.968 73.3997 225.841C73.3998 225.714 73.3726 225.589 73.3199 225.474C73.2547 225.363 73.1561 225.276 73.0383 225.224C72.9205 225.172 72.7894 225.159 72.6637 225.187C72.297 225.289 71.9639 225.487 71.6979 225.759C71.3059 226.109 70.9791 226.525 70.7329 226.99C70.6278 227.151 70.5586 227.334 70.53 227.524C70.89 226.933 71.335 226.399 71.8507 225.937C72.0919 225.71 72.3852 225.546 72.7048 225.459C72.7732 225.443 72.8451 225.449 72.9097 225.476C72.9744 225.504 73.0282 225.552 73.0633 225.613C73.0919 225.692 73.1042 225.775 73.0992 225.858C73.0943 225.941 73.0723 226.022 73.0345 226.096C72.8392 226.484 72.5364 226.808 72.1622 227.029C71.788 227.25 71.3583 227.359 70.924 227.342C70.4947 227.312 70.0882 227.138 69.7711 226.847C69.454 226.556 69.2449 226.166 69.1782 225.741C69.1588 225.568 69.2011 225.394 69.2978 225.249C69.3424 225.194 69.4032 225.155 69.4716 225.136C69.54 225.118 69.6126 225.121 69.6789 225.146C69.9718 225.291 70.213 225.522 70.3698 225.809C70.7295 226.399 70.9822 227.048 71.1163 227.726Z" fill="#263238"/>
<path d="M102.123 220.253L101.34 231.554C101.34 231.554 112.564 236.146 112.623 238.248L90.6562 237.517L91.1536 219.858L102.123 220.253Z" fill="#E8505B"/>
<path d="M94.5788 230.377C94.3654 230.434 94.1806 230.568 94.0599 230.753C93.9391 230.938 93.8909 231.161 93.9245 231.38C93.9738 231.595 94.1039 231.783 94.2878 231.905C94.4717 232.028 94.6955 232.075 94.9131 232.037C95.1392 231.976 95.3347 231.833 95.4617 231.636C95.5886 231.439 95.6381 231.202 95.6005 230.971C95.5259 230.752 95.3692 230.57 95.1633 230.464C94.9574 230.357 94.7184 230.335 94.4964 230.401" fill="#E0E0E0"/>
<path d="M90.6562 237.517L90.776 235.739L111.793 237.105C111.793 237.105 112.757 237.563 112.623 238.248L90.6562 237.517Z" fill="#E0E0E0"/>
<path d="M101.698 231.455C101.691 231.562 101.153 231.592 100.614 231.92C100.066 232.233 99.7784 232.689 99.6811 232.643C99.5829 232.619 99.7642 231.983 100.424 231.598C101.08 231.207 101.725 231.357 101.698 231.455Z" fill="#263238"/>
<path d="M103.971 232.484C103.992 232.589 103.522 232.756 103.142 233.198C102.75 233.628 102.642 234.115 102.535 234.107C102.434 234.121 102.38 233.49 102.862 232.95C103.34 232.406 103.972 232.382 103.971 232.484Z" fill="#263238"/>
<path d="M105.188 235.285C105.09 235.305 104.958 234.764 105.253 234.186C105.544 233.605 106.058 233.39 106.1 233.481C106.158 233.572 105.822 233.876 105.587 234.354C105.341 234.827 105.295 235.278 105.188 235.285Z" fill="#263238"/>
<path d="M101.592 228.859C101.544 228.956 101.057 228.791 100.449 228.812C99.8411 228.821 99.3626 229.009 99.3097 228.915C99.2502 228.835 99.724 228.453 100.44 228.439C101.156 228.419 101.648 228.777 101.592 228.859Z" fill="#263238"/>
<path d="M101.707 226.576C101.343 226.662 100.963 226.648 100.607 226.534C100.213 226.45 99.8303 226.319 99.468 226.142C99.2532 226.038 99.0458 225.919 98.8474 225.786C98.7261 225.713 98.6169 225.622 98.5238 225.516C98.456 225.438 98.4163 225.339 98.4108 225.235C98.4053 225.132 98.4344 225.029 98.4935 224.944C98.5497 224.871 98.6223 224.812 98.7054 224.772C98.7884 224.732 98.8797 224.713 98.9718 224.714C99.1114 224.718 99.2497 224.742 99.3824 224.785C99.6152 224.85 99.8416 224.936 100.059 225.042C100.424 225.222 100.759 225.458 101.051 225.742C101.545 226.231 101.705 226.638 101.668 226.657C101.618 226.691 101.382 226.347 100.876 225.94C100.581 225.704 100.258 225.507 99.913 225.354C99.7108 225.266 99.5017 225.194 99.2879 225.139C99.0572 225.07 98.8593 225.062 98.7962 225.163C98.7732 225.202 98.7699 225.217 98.8163 225.287C98.8859 225.364 98.966 225.43 99.0542 225.484C99.2373 225.612 99.4277 225.729 99.6243 225.836C99.9597 226.016 100.311 226.164 100.674 226.279C101.025 226.353 101.37 226.453 101.707 226.576Z" fill="#263238"/>
<path d="M101.564 226.726C101.366 226.405 101.277 226.029 101.309 225.653C101.3 225 101.47 224.358 101.802 223.795C101.866 223.652 101.966 223.528 102.092 223.434C102.218 223.341 102.366 223.282 102.522 223.263C102.62 223.268 102.714 223.302 102.794 223.359C102.873 223.416 102.935 223.494 102.971 223.585C103.024 223.716 103.057 223.853 103.071 223.992C103.101 224.239 103.092 224.489 103.047 224.733C102.972 225.143 102.798 225.528 102.539 225.854C102.091 226.409 101.639 226.522 101.631 226.486C101.597 226.431 101.978 226.236 102.325 225.7C102.525 225.391 102.655 225.042 102.707 224.678C102.737 224.467 102.738 224.252 102.708 224.041C102.682 223.807 102.6 223.615 102.512 223.636C102.403 223.631 102.211 223.801 102.115 223.984C102 224.171 101.903 224.367 101.823 224.571C101.689 224.921 101.604 225.288 101.573 225.662C101.522 226.306 101.623 226.711 101.564 226.726Z" fill="#263238"/>
<path d="M56.959 108.725L60.205 230.214L77.5339 229.694L81.6666 104.585L56.959 108.725Z" fill="#263238"/>
<path d="M92.979 104.378C92.979 104.378 105.844 155.88 106.239 164.662C106.634 173.444 103.486 228.331 103.486 228.331H86.5203L87.9368 165.826L75.0508 112.931L78.1698 104.648L92.979 104.378Z" fill="#263238"/>
<path d="M82.5068 110.703C82.5163 110.757 82.5188 110.812 82.5142 110.867L82.5042 111.349C82.4876 111.796 82.4646 112.415 82.4354 113.2C82.3606 114.832 82.2543 117.15 82.1234 120.003C81.8284 125.768 81.4229 133.69 80.9749 142.442C80.4907 151.195 80.0524 159.117 79.7336 164.88C79.5606 167.732 79.4201 170.049 79.3212 171.679C79.2669 172.463 79.2241 173.081 79.1931 173.527C79.1763 173.723 79.1627 173.881 79.1518 174.008C79.1505 174.063 79.1421 174.118 79.1269 174.171C79.1173 174.117 79.1148 174.061 79.1195 174.007C79.1221 173.88 79.1253 173.722 79.1294 173.525C79.146 173.078 79.169 172.46 79.1982 171.675C79.273 170.044 79.3792 167.727 79.5101 164.873C79.8052 159.108 80.2108 151.184 80.6589 142.428C81.143 133.678 81.5813 125.756 81.9001 119.992C82.0731 117.14 82.2136 114.824 82.3125 113.193C82.3669 112.41 82.4097 111.792 82.4406 111.346C82.4575 111.15 82.471 110.992 82.4819 110.866C82.4831 110.81 82.4915 110.756 82.5068 110.703Z" fill="#455A64"/>
<path d="M80.6065 38.3384C80.6065 38.3384 86.9013 69.5772 86.9924 78.3798C87.0835 87.1824 90.1747 104.378 90.1747 104.378H62.9052L62.3167 56.7846L60.375 42.5886L64.4698 36.7494L80.6065 38.3384Z" fill="#F5F5F5"/>
<path d="M80.9355 39.2588C80.9355 39.2588 87.4409 41.1689 89.1609 43.5753C90.5178 45.4736 92.3472 81.4065 92.3472 81.4065L95.139 113.056L92.4092 112.8L88.5572 100.953L80.9355 39.2588Z" fill="#E8505B"/>
<path d="M89.1582 43.5753L107.525 60.4274L130.124 53.106L134.625 62.5937L110.512 73.5383C107.066 75.0086 104.906 74.1993 102.514 72.2838L89.8641 62.1522L89.1582 43.5753Z" fill="#E8505B"/>
<path d="M125.917 56.1293C125.963 56.2157 125.983 56.3139 125.973 56.4115C125.963 56.509 125.925 56.6015 125.863 56.6772C125.801 56.753 125.717 56.8086 125.624 56.837C125.53 56.8654 125.43 56.8654 125.336 56.8369C125.242 56.8085 125.159 56.7528 125.097 56.677C125.035 56.6012 124.996 56.5087 124.987 56.4112C124.977 56.3136 124.997 56.2154 125.043 56.129C125.089 56.0426 125.16 55.9718 125.246 55.9256C125.304 55.895 125.367 55.8759 125.432 55.8696C125.496 55.8632 125.562 55.8697 125.624 55.8886C125.686 55.9075 125.744 55.9385 125.794 55.9798C125.845 56.0211 125.886 56.0719 125.917 56.1293Z" fill="#263238"/>
<path d="M125.48 56.8736C125.429 56.8735 125.379 56.866 125.331 56.8514C125.235 56.8221 125.149 56.7647 125.085 56.6866C125.021 56.6085 124.981 56.5132 124.971 56.4127C124.961 56.3121 124.981 56.2109 125.029 56.1218C125.077 56.0328 125.15 55.9598 125.239 55.9123C125.298 55.8806 125.363 55.861 125.43 55.8544C125.496 55.8478 125.564 55.8545 125.628 55.874C125.692 55.8935 125.752 55.9254 125.804 55.968C125.855 56.0106 125.898 56.063 125.93 56.1222C125.971 56.2 125.992 56.2872 125.99 56.3753C125.987 56.4635 125.962 56.5495 125.917 56.6252C125.872 56.7008 125.808 56.7634 125.731 56.8069C125.654 56.8505 125.568 56.8734 125.48 56.8736ZM125.479 55.8823C125.374 55.8825 125.271 55.9171 125.188 55.9808C125.104 56.0446 125.044 56.1339 125.016 56.2352C124.988 56.3364 124.994 56.444 125.034 56.5415C125.073 56.639 125.143 56.721 125.233 56.7749C125.323 56.8288 125.428 56.8517 125.533 56.8401C125.637 56.8285 125.735 56.783 125.811 56.7106C125.887 56.6381 125.937 56.5428 125.954 56.4391C125.97 56.3354 125.953 56.2291 125.903 56.1364C125.862 56.0594 125.801 55.995 125.726 55.9502C125.651 55.9054 125.566 55.8819 125.479 55.8823Z" fill="#263238"/>
<path d="M127.812 55.6791C127.858 55.7656 127.877 55.8638 127.868 55.9613C127.858 56.0588 127.82 56.1513 127.757 56.2271C127.695 56.3028 127.612 56.3584 127.518 56.3869C127.424 56.4153 127.324 56.4153 127.23 56.3868C127.137 56.3583 127.053 56.3027 126.991 56.2269C126.929 56.1511 126.891 56.0586 126.881 55.961C126.872 55.8635 126.891 55.7653 126.937 55.6789C126.984 55.5924 127.055 55.5217 127.141 55.4755C127.257 55.4136 127.393 55.4002 127.518 55.4384C127.644 55.4766 127.75 55.5632 127.812 55.6791Z" fill="#263238"/>
<path d="M127.374 56.4235C127.324 56.4234 127.274 56.4159 127.226 56.4013C127.162 56.382 127.102 56.3502 127.05 56.3077C126.998 56.2651 126.955 56.2126 126.924 56.1534C126.876 56.0642 126.856 55.963 126.866 55.8624C126.876 55.7618 126.915 55.6664 126.979 55.5883C127.043 55.5101 127.129 55.4528 127.226 55.4234C127.323 55.3941 127.426 55.3941 127.522 55.4234C127.619 55.4528 127.705 55.5101 127.769 55.5883C127.833 55.6664 127.873 55.7618 127.883 55.8624C127.892 55.963 127.872 56.0642 127.825 56.1533C127.777 56.2425 127.704 56.3154 127.615 56.363C127.541 56.4027 127.458 56.4235 127.374 56.4235ZM127.373 55.4319C127.251 55.4317 127.134 55.4777 127.045 55.5605C126.955 55.6433 126.901 55.7568 126.892 55.8783C126.882 55.9997 126.92 56.1202 126.996 56.2154C127.072 56.3106 127.181 56.3735 127.301 56.3916C127.422 56.4096 127.545 56.3814 127.645 56.3126C127.746 56.2439 127.816 56.1396 127.843 56.0208C127.87 55.902 127.851 55.7774 127.79 55.6721C127.729 55.5668 127.63 55.4884 127.514 55.4529C127.468 55.4391 127.421 55.432 127.373 55.4319Z" fill="#263238"/>
<path d="M129.616 55.3151C129.662 55.4016 129.682 55.4998 129.672 55.5973C129.663 55.6948 129.624 55.7873 129.562 55.8631C129.5 55.9388 129.417 55.9944 129.323 56.0228C129.229 56.0512 129.129 56.0512 129.035 56.0227C128.941 55.9943 128.858 55.9386 128.796 55.8628C128.734 55.7871 128.696 55.6946 128.686 55.597C128.676 55.4995 128.696 55.4013 128.742 55.3149C128.788 55.2285 128.859 55.1577 128.946 55.1115C129.003 55.0808 129.066 55.0618 129.131 55.0554C129.195 55.0491 129.261 55.0555 129.323 55.0744C129.385 55.0933 129.443 55.1243 129.494 55.1656C129.544 55.2069 129.586 55.2577 129.616 55.3151Z" fill="#263238"/>
<path d="M129.179 56.0597C129.129 56.0596 129.079 56.0521 129.03 56.0374C128.95 56.0129 128.877 55.9691 128.817 55.9097C128.758 55.8503 128.714 55.7771 128.69 55.6968C128.666 55.6164 128.661 55.5312 128.678 55.4489C128.694 55.3665 128.731 55.2895 128.784 55.2246C128.837 55.1597 128.906 55.1089 128.983 55.0768C129.061 55.0447 129.145 55.0322 129.229 55.0404C129.312 55.0487 129.393 55.0774 129.462 55.1241C129.532 55.1707 129.59 55.2339 129.629 55.3079C129.671 55.3857 129.691 55.4729 129.689 55.5611C129.687 55.6492 129.662 55.7353 129.617 55.8109C129.571 55.8866 129.507 55.9492 129.431 55.9928C129.354 56.0364 129.267 56.0594 129.179 56.0597ZM129.178 55.0683C129.073 55.0685 128.971 55.1032 128.887 55.1669C128.804 55.2307 128.744 55.3201 128.716 55.4213C128.688 55.5226 128.694 55.6302 128.733 55.7277C128.772 55.8252 128.842 55.9071 128.932 55.961C129.023 56.0149 129.128 56.0377 129.232 56.0261C129.337 56.0144 129.434 55.9688 129.51 55.8964C129.586 55.8239 129.637 55.7285 129.653 55.6248C129.67 55.5211 129.652 55.4148 129.602 55.3221C129.561 55.2454 129.5 55.1812 129.425 55.1365C129.35 55.0918 129.265 55.0682 129.178 55.0683Z" fill="#263238"/>
<path d="M130.352 53.5783L132.099 52.9388L136.112 61.3937L134.405 62.1212L130.352 53.5783Z" fill="#E0E0E0"/>
<path d="M89.7477 50.2343C89.8094 50.5457 89.8447 50.8618 89.8531 51.1792C89.9211 51.8432 90.0096 52.7094 90.1164 53.753C90.3685 55.9801 90.7052 58.9539 91.0774 62.2409C91.4447 65.5585 91.7376 68.5677 91.8747 70.7528C91.947 71.8449 91.9787 72.731 91.9859 73.3433C92.0031 73.6608 91.9927 73.9791 91.9546 74.2948C91.8967 73.9825 91.866 73.6658 91.8628 73.3482C91.8179 72.7391 91.7525 71.8578 91.6518 70.7701C91.4579 68.5941 91.1302 65.5923 90.763 62.2756C90.3962 58.9601 90.0734 55.9555 89.8937 53.7744C89.8026 52.6839 89.752 51.7989 89.7303 51.1867C89.7077 50.8693 89.7135 50.5506 89.7477 50.2343Z" fill="#263238"/>
<path d="M93.761 54.4506C93.48 55.9842 93.0956 57.4971 92.6106 58.9789C92.2264 60.4902 91.7405 61.9738 91.1562 63.4196C91.4373 61.8858 91.8217 60.3727 92.3068 58.8908C92.691 57.3796 93.1769 55.8962 93.761 54.4506Z" fill="#263238"/>
<path d="M107.332 66.1195C107.134 65.8884 106.994 65.6127 106.926 65.3159C106.468 63.9113 106.564 62.3852 107.193 61.0488C107.439 60.5459 107.666 60.2819 107.697 60.3023C107.327 61.2236 107.081 62.1903 106.968 63.1767C106.957 64.1695 107.08 65.1593 107.332 66.1195Z" fill="#263238"/>
<path d="M105.23 85.6409L107.582 85.8231L106.648 95.6293L104.379 95.3706L105.23 85.6409Z" fill="#E0E0E0"/>
<path d="M64.4732 37.4297L51.8012 45.5092C50.3534 46.5281 49.2726 47.9865 48.7192 49.6681C48.1658 51.3498 48.1692 53.165 48.7291 54.8446L58.4505 85.3889L54.9454 113.143L82.7196 111.964L82.0446 99.7977L79.6853 78.0341C79.2476 73.9975 78.2439 70.0426 76.7037 66.2858L64.4732 37.4297Z" fill="#E8505B"/>
<path d="M51.2295 56.5185L63.9064 83.0431C64.4119 84.1009 65.148 85.0321 66.0606 85.7682C66.9732 86.5044 68.0391 87.0268 69.1799 87.297L104.354 95.6293L105.25 85.3889L78.4003 75.2904L64.8936 49.3672C64.4071 48.4333 63.7343 47.609 62.917 46.945C62.0996 46.281 61.1549 45.7915 60.1411 45.5067C59.1273 45.2218 58.0659 45.1476 57.0223 45.2886C55.9787 45.4296 54.9751 45.7829 54.0733 46.3266C52.3888 47.3423 51.1561 48.9632 50.6275 50.8579C50.0988 52.7525 50.3142 54.7775 51.2295 56.5185Z" fill="#E8505B"/>
<path d="M105.252 85.3888C105.202 85.3822 105.153 85.3692 105.107 85.3501C104.998 85.313 104.861 85.2667 104.692 85.2091C104.308 85.0717 103.778 84.8815 103.1 84.6387C101.697 84.1224 99.6955 83.3859 97.2106 82.4715C92.1987 80.5984 85.2408 77.9979 77.359 75.0522L77.302 75.0309L77.2739 74.975C76.5243 73.4891 75.7382 71.9306 74.9381 70.3445C72.7349 66.0548 70.5421 62.0172 68.4908 58.3771C67.4655 56.5568 66.4762 54.8355 65.5412 53.2298C65.0708 52.4291 64.6169 51.6563 64.1794 50.9115C63.9643 50.536 63.7441 50.1775 63.5133 49.8412C62.5223 48.3188 61.0951 47.1307 59.4183 46.4322C58.4292 46.0322 57.3676 45.8429 56.3012 45.8765C55.3879 45.8916 54.4924 46.1309 53.6934 46.5734C53.738 46.5327 53.7874 46.4974 53.8405 46.4684C53.9865 46.3669 54.1429 46.2814 54.307 46.2132C54.935 45.9363 55.6096 45.7804 56.2954 45.7536C57.382 45.6971 58.4682 45.8722 59.4821 46.2672C61.2069 46.9601 62.6804 48.1608 63.7073 49.7102C63.9476 50.0546 64.1722 50.4146 64.389 50.7865C64.8313 51.528 65.2908 52.2982 65.7673 53.097C66.7128 54.6981 67.7114 56.4158 68.7445 58.2336C70.8114 61.8688 73.0141 65.9061 75.2194 70.2C76.0317 71.7818 76.8156 73.3435 77.5543 74.8365L77.4692 74.7596C85.3362 77.7444 92.2812 80.3795 97.2837 82.2776C99.7545 83.2294 101.744 83.9959 103.14 84.5334C103.808 84.7975 104.333 85.0047 104.713 85.1548C104.878 85.2233 105.011 85.2785 105.117 85.3226C105.165 85.3388 105.21 85.361 105.252 85.3888Z" fill="#263238"/>
<path d="M99.2763 91.7722C99.2763 91.8702 99.2472 91.9661 99.1928 92.0476C99.1383 92.129 99.0609 92.1926 98.9704 92.2301C98.8798 92.2676 98.7802 92.2774 98.684 92.2583C98.5879 92.2391 98.4996 92.192 98.4303 92.1227C98.361 92.0533 98.3138 91.965 98.2947 91.8689C98.2756 91.7728 98.2854 91.6731 98.3229 91.5826C98.3604 91.492 98.4239 91.4146 98.5054 91.3602C98.5869 91.3057 98.6827 91.2767 98.7807 91.2767C98.8458 91.2767 98.9102 91.2895 98.9704 91.3144C99.0305 91.3393 99.0851 91.3758 99.1311 91.4218C99.1772 91.4678 99.2137 91.5225 99.2386 91.5826C99.2635 91.6427 99.2763 91.7072 99.2763 91.7722Z" fill="#263238"/>
<path d="M98.7786 92.283C98.6775 92.283 98.5787 92.2531 98.4947 92.197C98.4107 92.1408 98.3452 92.0611 98.3065 91.9677C98.2678 91.8744 98.2577 91.7717 98.2774 91.6726C98.2971 91.5735 98.3457 91.4824 98.4172 91.411C98.4886 91.3395 98.5796 91.2909 98.6787 91.2712C98.7778 91.2515 98.8806 91.2616 98.9739 91.3003C99.0673 91.3389 99.147 91.4044 99.2031 91.4884C99.2593 91.5725 99.2892 91.6712 99.2892 91.7723C99.2891 91.9077 99.2353 92.0375 99.1395 92.1333C99.0438 92.229 98.914 92.2828 98.7786 92.283ZM98.7786 91.2916C98.6835 91.2916 98.5906 91.3197 98.5115 91.3725C98.4325 91.4253 98.3709 91.5003 98.3345 91.5881C98.2981 91.6759 98.2885 91.7725 98.307 91.8658C98.3255 91.959 98.3713 92.0446 98.4385 92.1119C98.5057 92.1791 98.5913 92.2249 98.6845 92.2435C98.7777 92.262 98.8743 92.2525 98.9622 92.2162C99.05 92.1798 99.1251 92.1183 99.1779 92.0392C99.2307 91.9602 99.2589 91.8673 99.2589 91.7723C99.2588 91.6449 99.2082 91.5227 99.1181 91.4326C99.0281 91.3425 98.906 91.2918 98.7786 91.2916Z" fill="#263238"/>
<path d="M101.157 92.2677C101.157 92.3658 101.128 92.4616 101.074 92.5431C101.019 92.6246 100.942 92.6881 100.851 92.7256C100.761 92.7631 100.661 92.773 100.565 92.7539C100.469 92.7347 100.381 92.6875 100.311 92.6182C100.242 92.5489 100.195 92.4606 100.176 92.3645C100.156 92.2684 100.166 92.1687 100.204 92.0782C100.241 91.9876 100.305 91.9102 100.386 91.8558C100.468 91.8013 100.564 91.7722 100.662 91.7722C100.793 91.7722 100.919 91.8245 101.012 91.9174C101.105 92.0103 101.157 92.1363 101.157 92.2677Z" fill="#263238"/>
<path d="M100.663 92.7785C100.562 92.7784 100.463 92.7484 100.379 92.6923C100.295 92.6361 100.23 92.5564 100.191 92.463C100.153 92.3697 100.142 92.2671 100.162 92.168C100.182 92.069 100.231 91.978 100.302 91.9066C100.373 91.8352 100.464 91.7866 100.563 91.767C100.663 91.7473 100.765 91.7574 100.858 91.7961C100.952 91.8347 101.032 91.9002 101.088 91.9842C101.144 92.0681 101.174 92.1669 101.174 92.2679C101.174 92.4033 101.12 92.5332 101.024 92.6289C100.928 92.7247 100.798 92.7785 100.663 92.7785ZM100.663 91.7874C100.568 91.7875 100.475 91.8157 100.396 91.8685C100.317 91.9213 100.255 91.9964 100.219 92.0842C100.183 92.172 100.173 92.2685 100.192 92.3617C100.21 92.4549 100.256 92.5404 100.323 92.6076C100.391 92.6748 100.476 92.7205 100.569 92.739C100.663 92.7575 100.759 92.748 100.847 92.7116C100.935 92.6753 101.01 92.6137 101.062 92.5347C101.115 92.4557 101.143 92.3629 101.143 92.2679C101.143 92.1404 101.093 92.0183 101.002 91.9282C100.912 91.8382 100.79 91.7875 100.663 91.7874Z" fill="#263238"/>
<path d="M102.423 93.2919C102.697 93.2919 102.919 93.07 102.919 92.7963C102.919 92.5226 102.697 92.3008 102.423 92.3008C102.15 92.3008 101.928 92.5226 101.928 92.7963C101.928 93.07 102.15 93.2919 102.423 93.2919Z" fill="#263238"/>
<path d="M102.425 93.3069C102.324 93.3069 102.225 93.2769 102.141 93.2208C102.057 93.1647 101.992 93.085 101.953 92.9917C101.914 92.8984 101.904 92.7957 101.924 92.6966C101.944 92.5976 101.992 92.5066 102.064 92.4352C102.135 92.3638 102.226 92.3152 102.325 92.2955C102.424 92.2758 102.527 92.2859 102.62 92.3245C102.713 92.3632 102.793 92.4286 102.849 92.5126C102.905 92.5966 102.935 92.6953 102.935 92.7963C102.935 92.9317 102.881 93.0615 102.786 93.1572C102.69 93.253 102.56 93.3068 102.425 93.3069ZM102.425 92.3159C102.33 92.3159 102.237 92.3441 102.158 92.3969C102.079 92.4496 102.017 92.5247 101.981 92.6124C101.945 92.7002 101.935 92.7968 101.954 92.89C101.972 92.9832 102.018 93.0688 102.085 93.1359C102.152 93.2031 102.238 93.2489 102.331 93.2674C102.424 93.286 102.521 93.2764 102.609 93.2401C102.696 93.2037 102.771 93.1421 102.824 93.0631C102.877 92.9842 102.905 92.8913 102.905 92.7963C102.905 92.6689 102.854 92.5468 102.764 92.4568C102.674 92.3667 102.552 92.316 102.425 92.3159Z" fill="#263238"/>
<path d="M104.355 95.6293C104.297 95.6272 104.24 95.6181 104.184 95.602C104.055 95.5732 103.892 95.5368 103.689 95.4915L101.795 95.038C100.129 94.628 97.7583 94.0445 94.8385 93.3258C88.9641 91.8842 80.8588 89.8457 71.8703 87.7635C70.7477 87.4943 69.6323 87.2808 68.5347 86.9834C67.4296 86.7229 66.4003 86.2088 65.5281 85.4819C64.7542 84.7144 64.1303 83.8093 63.6882 82.813C63.2363 81.8682 62.7943 80.9439 62.3622 80.0403C60.6517 76.4299 59.1106 73.177 57.8123 70.4366C56.5352 67.7141 55.4985 65.5039 54.7699 63.9507C54.4246 63.1985 54.1527 62.6063 53.9572 62.1806C53.8735 61.9904 53.8063 61.8378 53.7531 61.7169C53.7266 61.6653 53.7065 61.6107 53.6934 61.5543C53.729 61.6001 53.759 61.6501 53.7824 61.7031C53.843 61.8205 53.9196 61.9688 54.0149 62.1535C54.2233 62.5731 54.5131 63.1569 54.8812 63.8982C55.6315 65.4409 56.6992 67.6363 58.0142 70.3404C59.3297 73.072 60.8913 76.3145 62.6245 79.9133C63.0588 80.8135 63.5034 81.735 63.9583 82.6779C64.3866 83.6384 64.9892 84.5111 65.7357 85.2519C66.5735 85.9445 67.5606 86.4335 68.6193 86.6803C69.6921 86.9703 70.819 87.1863 71.9409 87.4552C80.9357 89.5388 89.0317 91.6116 94.8931 93.109C97.8028 93.8686 100.165 94.4854 101.825 94.9187C102.624 95.1358 103.253 95.3068 103.705 95.4297C103.905 95.4875 104.065 95.5339 104.192 95.5707C104.249 95.5835 104.304 95.6031 104.355 95.6293Z" fill="#263238"/>
<path d="M75.9466 93.9672C75.9586 93.9853 75.8091 94.1107 75.5273 94.321C75.2454 94.5312 74.8315 94.8266 74.3084 95.1763C72.953 96.1137 71.485 96.877 69.939 97.448C68.3734 98.0179 66.6899 98.1865 65.0423 97.9385C64.547 97.8563 64.0628 97.717 63.5994 97.5234C63.4242 97.4647 63.2604 97.3762 63.1152 97.2618C63.7592 97.4521 64.4138 97.6042 65.0757 97.7174C66.685 97.8934 68.3133 97.699 69.8359 97.149C71.3579 96.5814 72.8166 95.857 74.1886 94.9874C74.751 94.6082 75.3383 94.2674 75.9466 93.9672Z" fill="#263238"/>
<path d="M77.4867 97.489C77.5287 97.5595 77.5582 97.6368 77.574 97.7174C77.643 97.9407 77.697 98.1684 77.7355 98.399C77.8758 99.2525 77.8676 100.124 77.7113 100.975C77.4787 102.246 76.9365 103.44 76.1325 104.452C75.1191 105.679 73.7541 106.567 72.2212 106.995C70.6883 107.423 69.061 107.372 67.5582 106.848C66.3461 106.399 65.2633 105.659 64.4054 104.692C63.8308 104.045 63.3722 103.304 63.0498 102.502C62.9633 102.285 62.8914 102.062 62.8348 101.835C62.8065 101.758 62.7917 101.677 62.791 101.595C63.1953 102.679 63.799 103.679 64.5709 104.541C65.423 105.455 66.4808 106.151 67.6563 106.573C69.104 107.061 70.6648 107.102 72.1361 106.691C73.6073 106.279 74.921 105.436 75.9064 104.268C76.6929 103.298 77.2364 102.154 77.4918 100.932C77.7048 99.7939 77.7031 98.6262 77.4867 97.489Z" fill="#263238"/>
<path d="M65.8365 13.2507L65.9166 35.8804C65.9198 36.7924 66.1083 37.6942 66.4707 38.5312C66.833 39.3681 67.3616 40.1227 68.0244 40.7491C68.6873 41.3756 69.4705 41.8608 70.3265 42.1753C71.1826 42.4899 72.0936 42.6272 73.0043 42.5789C74.7313 42.4867 76.3566 41.7336 77.5435 40.4758C78.7304 39.2179 79.3879 37.5517 79.3799 35.8223C79.3721 34.1189 79.3692 32.6983 79.3799 32.523C79.3799 32.523 85.1388 31.9608 85.5346 26.2576C85.7258 23.5015 85.6576 17.7927 85.536 12.6286C85.4715 9.95386 84.4024 7.4014 82.5414 5.47904C80.6805 3.55668 78.1641 2.40531 75.4928 2.25398L74.9421 2.22252C68.9844 2.23102 65.6633 7.29552 65.8365 13.2507Z" fill="#B78876"/>
<path d="M79.3943 32.4414C76.7563 32.3407 74.208 31.4569 72.0742 29.9026C72.0742 29.9026 73.5989 34.1102 79.3233 33.9209L79.3943 32.4414Z" fill="#AA6550"/>
<path d="M84.1232 15.9846C84.1131 16.1972 84.0204 16.3975 83.8649 16.5427C83.7093 16.6879 83.5032 16.7667 83.2904 16.7622C83.1863 16.7645 83.0827 16.746 82.9858 16.7076C82.889 16.6693 82.8007 16.612 82.7263 16.539C82.6519 16.4661 82.5929 16.379 82.5527 16.2829C82.5125 16.1868 82.4919 16.0836 82.4922 15.9794C82.5022 15.7669 82.5947 15.5667 82.7501 15.4214C82.9054 15.2761 83.1114 15.1971 83.3241 15.2013C83.4283 15.199 83.532 15.2175 83.629 15.2558C83.726 15.2942 83.8143 15.3515 83.8888 15.4245C83.9632 15.4975 84.0223 15.5847 84.0626 15.6809C84.1029 15.7771 84.1235 15.8803 84.1232 15.9846Z" fill="#263238"/>
<path d="M84.2872 15.0211C84.18 15.1216 83.5887 14.6294 82.7113 14.5818C81.8358 14.5216 81.1665 14.9361 81.0776 14.8233C81.0334 14.7731 81.1473 14.5872 81.4392 14.3991C81.8336 14.1575 82.2932 14.0441 82.7547 14.0743C83.2109 14.0986 83.6476 14.2675 84.0014 14.5566C84.2592 14.7789 84.3396 14.9763 84.2872 15.0211Z" fill="#263238"/>
<path d="M75.6018 15.9159C75.5917 16.1284 75.499 16.3287 75.3434 16.4739C75.1878 16.6191 74.9817 16.6979 74.7689 16.6934C74.6648 16.6957 74.5612 16.6772 74.4643 16.6389C74.3674 16.6006 74.2792 16.5432 74.2048 16.4703C74.1304 16.3973 74.0714 16.3102 74.0312 16.2141C73.991 16.118 73.9704 16.0148 73.9707 15.9106C73.9808 15.6981 74.0733 15.4979 74.2288 15.3526C74.3842 15.2073 74.5901 15.1283 74.8028 15.1326C74.9071 15.1302 75.0107 15.1488 75.1077 15.1871C75.2047 15.2254 75.293 15.2828 75.3674 15.3558C75.4419 15.4288 75.501 15.5159 75.5412 15.6121C75.5815 15.7083 75.6021 15.8116 75.6018 15.9159Z" fill="#263238"/>
<path d="M75.5532 14.8229C75.4458 14.9235 74.8537 14.4314 73.9771 14.3838C73.1017 14.3236 72.4322 14.7381 72.3431 14.6252C72.2993 14.575 72.4121 14.3891 72.7051 14.201C73.0994 13.9595 73.5589 13.846 74.0204 13.8761C74.4767 13.9005 74.9133 14.0695 75.2672 14.3585C75.5244 14.5808 75.6053 14.7783 75.5532 14.8229Z" fill="#263238"/>
<path d="M78.332 21.7179C78.8025 21.5994 79.286 21.5403 79.7711 21.542C79.9965 21.5317 80.2109 21.4993 80.2574 21.3485C80.2895 21.1183 80.2505 20.8837 80.1458 20.6762C79.966 20.1222 79.7776 19.5412 79.5806 18.9331C78.7992 16.4526 78.2473 14.4181 78.3473 14.3875C78.4476 14.357 79.1623 16.3425 79.9436 18.8232C80.1308 19.4345 80.3097 20.0184 80.4803 20.5749C80.6056 20.8532 80.629 21.1668 80.5463 21.4606C80.5093 21.5377 80.4553 21.6054 80.3882 21.6585C80.3212 21.7116 80.2429 21.7487 80.1594 21.767C80.0334 21.7935 79.9046 21.804 79.776 21.7982C79.2932 21.8326 78.808 21.8056 78.332 21.7179Z" fill="#263238"/>
<path d="M75.9076 13.0036C75.8075 13.2372 74.9382 13.0743 73.9023 13.1397C72.8648 13.1842 72.0178 13.4382 71.8936 13.2165C71.8385 13.1107 71.996 12.8946 72.3446 12.6828C72.8086 12.4254 73.3251 12.277 73.8549 12.2489C74.3848 12.2208 74.9141 12.3137 75.4027 12.5207C75.7718 12.6944 75.9513 12.8926 75.9076 13.0036Z" fill="#263238"/>
<path d="M84.2118 12.9284C84.0462 13.1188 83.4539 12.8776 82.7278 12.8264C82.0037 12.7499 81.3785 12.8838 81.2488 12.6674C81.1925 12.5627 81.3007 12.3686 81.5802 12.1954C81.9542 11.99 82.3809 11.9004 82.806 11.9378C83.231 11.9753 83.6354 12.1382 83.9678 12.4058C84.2128 12.6251 84.2855 12.8351 84.2118 12.9284Z" fill="#263238"/>
<path d="M66.0642 17.5033C65.9694 17.4556 62.2089 16.1199 62.1112 20.0289C62.0134 23.9378 65.958 23.2296 65.9677 23.1177C65.9772 23.0058 66.0642 17.5033 66.0642 17.5033Z" fill="#B78876"/>
<path d="M64.8089 21.6069C64.792 21.594 64.7395 21.6529 64.6231 21.7028C64.4595 21.7679 64.277 21.7671 64.1139 21.7006C63.8655 21.5341 63.6659 21.3045 63.5355 21.0354C63.4051 20.7664 63.3487 20.4674 63.372 20.1693C63.3704 19.8339 63.4439 19.5024 63.587 19.1991C63.6267 19.0779 63.6952 18.9682 63.7867 18.8794C63.8782 18.7905 63.99 18.7253 64.1123 18.6893C64.1911 18.6705 64.2739 18.6799 64.3464 18.7158C64.419 18.7517 64.4767 18.8119 64.5095 18.8859C64.5592 18.9965 64.5324 19.0739 64.5529 19.0812C64.5636 19.0912 64.6385 19.0177 64.6111 18.8555C64.5917 18.7582 64.5395 18.6704 64.4634 18.6068C64.3578 18.5228 64.2234 18.4837 64.0893 18.4978C63.928 18.5256 63.7765 18.5943 63.6493 18.6973C63.5221 18.8003 63.4235 18.9341 63.3628 19.0861C63.1879 19.4204 63.0975 19.7925 63.0994 20.1697C63.0715 20.5172 63.1469 20.8652 63.3161 21.17C63.4853 21.4747 63.7409 21.7227 64.0506 21.8826C64.1548 21.9158 64.2651 21.9251 64.3733 21.9099C64.4816 21.8947 64.585 21.8553 64.676 21.7947C64.7995 21.7012 64.8222 21.6144 64.8089 21.6069Z" fill="#AA6550"/>
<path d="M63.8985 17.2472C64.2708 17.2434 64.6372 17.341 64.9584 17.5294C65.2796 17.7178 65.5435 17.99 65.722 18.3168C65.944 18.8885 65.9638 19.523 66.1849 20.095C66.2692 20.3902 66.4495 20.649 66.6973 20.8304C66.9451 21.0118 67.2462 21.1055 67.5532 21.0967C67.7588 21.0448 67.947 20.9393 68.0987 20.7911C68.2505 20.6428 68.3603 20.4571 68.417 20.2528C68.5252 19.8427 68.5535 19.4157 68.5003 18.995C68.3742 17.1596 68.0942 15.3308 68.1255 13.4914C68.0828 11.6396 68.5887 9.81658 69.5796 8.25167C70.0852 7.47957 70.7895 6.85797 71.6185 6.45226C72.4474 6.04654 73.3704 5.87169 74.2903 5.94609C75.4974 6.11298 76.5735 6.80865 77.7687 7.04605C78.4805 7.18157 79.2138 7.15329 79.913 6.96336C80.6122 6.77342 81.259 6.42681 81.8044 5.9498C81.8656 5.90014 81.9299 5.85428 81.9968 5.81249C82.1915 5.68932 82.3405 5.50571 82.4209 5.28978C82.5014 5.07385 82.5088 4.8375 82.4421 4.61695C82.4014 4.47432 82.3301 4.3423 82.2331 4.23009C79.969 1.88359 75.6973 1.02109 72.495 1.63556C70.867 1.93874 69.3246 2.5928 67.9749 3.55228C66.6252 4.51176 65.5006 5.75364 64.6793 7.19162C63.1524 10.0727 63.3208 14.2107 63.8985 17.2472Z" fill="#263238"/>
<path d="M76.2612 22.4057C76.4037 22.3975 76.4056 23.3476 77.2187 24.0221C78.0306 24.6988 79.0437 24.592 79.0509 24.7248C79.0642 24.7845 78.8254 24.9095 78.3979 24.921C77.8413 24.9288 77.2997 24.7401 76.8684 24.3881C76.4548 24.0496 76.1888 23.5637 76.1265 23.0328C76.0902 22.6356 76.1962 22.4002 76.2612 22.4057Z" fill="#263238"/>
<path d="M130.834 54.542C130.834 54.542 135.114 50.781 135.925 50.5054C136.736 50.2299 143.179 50.1105 143.614 50.433C144.049 50.7553 150.572 54.3329 149.492 54.8809C148.412 55.4289 143.887 52.8669 143.887 52.8669L143.126 52.9672C143.126 52.9672 147.071 55.0742 147.775 55.8859C148.423 56.633 147.803 57.5276 147.066 57.1845C146.329 56.8413 142.943 54.8864 142.676 54.9609C142.409 55.0354 146.285 57.3022 146.641 57.7219C147.121 58.2864 146.812 59.379 146.069 59.0638C145.631 58.8779 142.055 56.5089 142.055 56.5089C143.067 57.3368 144.032 58.22 144.947 59.1545C145.263 59.7625 144.656 60.3117 144.033 59.9301C143.606 59.6682 141.769 57.8607 141.195 57.5113C141.195 57.5113 140.562 57.4665 139.632 58.457C138.701 59.4475 135.033 60.8095 135.033 60.8095L130.834 54.542Z" fill="#B78876"/>
<path d="M149.471 54.8938C149.009 54.9604 148.538 54.9307 148.087 54.8067C147.592 54.7088 147.106 54.5636 146.639 54.3731C146.129 54.1311 145.579 53.8495 144.999 53.5552C144.572 53.3343 144.16 53.1212 143.771 52.9197L143.852 52.9394C142.747 53.0009 141.639 52.9694 140.539 52.8451C141.633 52.6741 142.74 52.5955 143.847 52.6102L143.886 52.6089L143.928 52.63C144.316 52.8254 144.725 53.0318 145.151 53.246C145.714 53.5377 146.251 53.816 146.763 54.0807C147.21 54.278 147.671 54.4413 148.143 54.5693C148.951 54.7872 149.475 54.8405 149.471 54.8938Z" fill="#AA6550"/>
<path d="M132.426 55.6298C132.603 55.879 132.853 56.0665 133.142 56.166C133.431 56.2654 133.744 56.2718 134.037 56.1842C134.633 56.0575 135.17 55.7324 135.756 55.5631C137.508 55.0568 139.457 55.9935 141.183 55.4039C141.424 55.3217 141.695 55.1448 141.666 54.8922C141.638 54.6581 141.375 54.5414 141.15 54.4699C139.231 53.8586 137.312 53.2473 135.394 52.636" fill="#B78876"/>
<path d="M135.392 52.636C135.611 52.6513 135.827 52.6966 136.034 52.7704C136.442 52.8784 137.027 53.0455 137.749 53.259C138.498 53.4862 139.349 53.7442 140.277 54.0259C140.516 54.0998 140.759 54.1753 141.007 54.2523C141.233 54.3417 141.567 54.3581 141.785 54.7157C141.828 54.808 141.843 54.9111 141.826 55.0117C141.81 55.1123 141.764 55.2058 141.695 55.28C141.58 55.4019 141.438 55.4945 141.281 55.5501C140.999 55.6474 140.707 55.7125 140.411 55.7443C139.325 55.7622 138.239 55.7036 137.161 55.5688C136.706 55.5435 136.249 55.5868 135.806 55.6974C135.396 55.8085 135.024 55.9873 134.663 56.1164C134.382 56.2502 134.076 56.3208 133.764 56.3231C133.453 56.3255 133.145 56.2595 132.863 56.1298C132.469 55.9024 132.409 55.6258 132.424 55.6298C132.566 55.7851 132.735 55.9137 132.922 56.0096C133.191 56.1052 133.477 56.1438 133.761 56.1231C134.046 56.1023 134.323 56.0226 134.575 55.889C134.918 55.7511 135.286 55.5568 135.727 55.4226C136.196 55.2911 136.683 55.2333 137.169 55.2514C138.233 55.3652 139.303 55.4154 140.373 55.4019C140.64 55.3732 140.904 55.3154 141.159 55.2297C141.395 55.1448 141.555 54.9748 141.481 54.8621C141.419 54.7268 141.154 54.6421 140.907 54.5658C140.66 54.4853 140.418 54.4061 140.181 54.3285C139.26 54.0209 138.417 53.7392 137.675 53.4911C136.963 53.248 136.388 53.0455 135.994 52.8982C135.782 52.8386 135.579 52.7503 135.392 52.636Z" fill="#AA6550"/>
<path d="M106.522 85.8802L113.622 85.1768C113.622 85.1768 123.011 91.6071 122.11 93.0218C121.21 94.4364 119.667 93.0218 119.667 93.0218C119.667 93.0218 121.339 95.0795 118.638 95.7225C118.638 95.7225 117.995 97.1372 116.966 97.0086L116.323 97.0168C116.323 97.0168 115.741 98.809 114.874 98.4232C114.008 98.0374 111.387 95.7225 111.387 95.7225L104.105 95.0795L106.522 85.8802Z" fill="#B78876"/>
<path d="M110.939 93.1994C110.939 93.1994 109.121 93.8978 108.743 94.6278C108.365 95.3578 108.146 97.0795 109.319 97.3923C110.008 97.4393 110.699 97.4174 111.384 97.3272L110.935 95.4161C111.275 95.0218 111.637 94.6475 112.02 94.2952C112.407 93.9732 111.983 92.7155 110.939 93.1994Z" fill="#FFBE9D"/>
<path d="M112.986 94.1708C112.986 94.1708 111.168 94.8692 110.79 95.5992C110.684 95.8138 110.627 96.0495 110.623 96.289C110.62 96.5285 110.67 96.7657 110.77 96.9833C110.87 97.2008 111.018 97.3932 111.202 97.5464C111.386 97.6995 111.602 97.8095 111.835 97.8682C112.46 97.9165 113.09 97.8951 113.711 97.8043L113.52 97.4336C113.152 96.7169 112.994 96.1367 113.642 95.6578C113.678 95.6312 114.04 95.2919 114.067 95.2666C114.16 95.1157 114.2 94.9378 114.18 94.7615C114.16 94.5852 114.081 94.4207 113.957 94.2944C113.832 94.168 113.669 94.0872 113.493 94.0648C113.317 94.0423 113.139 94.0797 112.986 94.1708Z" fill="#FFBE9D"/>
<path d="M113.423 97.7377C113.267 97.5729 113.169 97.3625 113.142 97.1375C113.115 96.9125 113.162 96.6849 113.275 96.4884C113.513 96.0983 113.896 95.8187 114.341 95.711C114.478 95.6537 114.629 95.636 114.776 95.6599C114.923 95.6839 115.06 95.7485 115.172 95.8465C115.228 95.9247 115.267 96.0136 115.287 96.1076C115.307 96.2016 115.308 96.2987 115.289 96.3929C115.174 96.8914 114.927 97.3501 114.575 97.7211C114.406 97.9332 114.197 98.1653 113.926 98.1586C113.649 98.1517 113.45 97.8984 113.294 97.6693" fill="#FFBE9D"/>
<path d="M75.0499 40.4975L76.6453 39.8932L78.03 42.3662L77.2593 45.0055L75.6311 45.4082L74.0078 43.3634L75.0499 40.4975Z" fill="#E8505B"/>
<path d="M75.6328 45.4083C75.6328 45.4083 77.6986 56.7712 79.4213 64.7641C79.4213 64.7641 80.8337 71.4178 81.4056 72.9528C82.1115 74.4702 82.9845 75.904 84.0085 77.2276L86.0089 78.0014L84.787 66.7706L77.2608 45.0055L75.6328 45.4083Z" fill="#E8505B"/>
<g opacity="0.4">
<path d="M75.048 40.4975L76.6434 39.8932L78.028 42.3662L77.2574 45.0055L75.6292 45.4082L74.0059 43.3634L75.048 40.4975Z" fill="black"/>
</g>
<g opacity="0.4">
<path d="M75.6328 45.4083C75.6328 45.4083 77.6986 56.7712 79.4213 64.7641C79.4213 64.7641 81.0392 71.3563 81.4056 72.9528C81.6209 73.8911 84.0085 77.2276 84.0085 77.2276L86.0089 78.0014L84.787 66.7706L77.2608 45.0055L75.6328 45.4083Z" fill="black"/>
</g>
<path d="M65.4703 33.5925L75.0511 40.4975L72.9796 46.1941L64.2617 37.2181L65.4703 33.5925Z" fill="#F5F5F5"/>
<path d="M76.6465 39.8933L79.3247 33.921L80.8393 38.8475L78.7356 44.0254L76.6465 39.8933Z" fill="#F5F5F5"/>
<path d="M75.0483 40.4976C75.0334 40.6479 74.9972 40.7953 74.9407 40.9354C74.833 41.2659 74.7044 41.6605 74.5526 42.1265C74.2105 43.1426 73.7114 44.5736 73.1158 46.2447L73.0332 46.4765L72.867 46.2932C72.1743 45.5292 71.4207 44.698 70.6334 43.8297C68.8978 41.9034 67.34 40.148 66.2241 38.8668C65.7047 38.2605 65.2667 37.7494 64.9148 37.3386C64.744 37.1594 64.5938 36.9618 64.4668 36.7494C64.6649 36.8977 64.8458 37.0677 65.0063 37.2562C65.3782 37.6488 65.8412 38.1376 66.3903 38.7171C67.5486 39.96 69.1328 41.6917 70.8683 43.618C71.6503 44.4912 72.3988 45.327 73.0866 46.0953L72.838 46.1437C73.4549 44.4803 73.9916 43.063 74.382 42.0645C74.5649 41.6098 74.7199 41.2248 74.8497 40.9023C74.8964 40.7587 74.9633 40.6224 75.0483 40.4976Z" fill="#263238"/>
<path d="M80.8379 38.8473C80.74 39.328 80.5901 39.7966 80.3909 40.2448C80.0772 41.093 79.6236 42.2566 79.1046 43.5343L78.8798 44.0846L78.7226 44.4693L78.5863 44.0779C78.0569 42.7203 77.418 41.408 76.6758 40.154C76.9934 40.4418 77.2632 40.7782 77.4752 41.1507C78.0554 42.0319 78.5278 42.9794 78.8823 43.9731L78.5889 43.9664C78.6602 43.7898 78.7353 43.6039 78.8116 43.4153C79.3306 42.1375 79.817 40.9873 80.1837 40.1606C80.3536 39.7005 80.5729 39.2601 80.8379 38.8473Z" fill="#263238"/>
<path d="M202.636 218.677L206.331 233.341L212.598 244.096C212.705 244.279 212.773 244.483 212.798 244.694C212.823 244.904 212.804 245.118 212.743 245.322C212.682 245.525 212.58 245.713 212.443 245.876C212.306 246.038 212.137 246.17 211.947 246.264C211.726 246.375 211.482 246.43 211.235 246.426C210.988 246.422 210.746 246.359 210.529 246.242C207.714 244.724 197.391 239.087 197.18 237.999C196.937 236.739 192.256 222.79 192.256 222.79L202.636 218.677Z" fill="#E8505B"/>
<g opacity="0.6">
<path d="M211.945 246.264L196.906 237.015L197.077 237.633C197.223 238.167 197.555 238.631 198.013 238.943C199.239 239.775 202.675 241.997 210.482 246.254C210.706 246.376 210.957 246.441 211.212 246.443C211.467 246.445 211.719 246.383 211.945 246.264Z" fill="white"/>
</g>
<g opacity="0.6">
<path d="M198.596 231.487C198.812 231.569 198.989 231.728 199.095 231.933C199.201 232.138 199.227 232.375 199.169 232.598C199.095 232.817 198.94 232.999 198.736 233.106C198.532 233.214 198.295 233.239 198.073 233.177C197.844 233.089 197.656 232.92 197.545 232.702C197.434 232.484 197.408 232.232 197.471 231.996C197.572 231.776 197.754 231.604 197.979 231.515C198.205 231.427 198.455 231.429 198.679 231.521" fill="white"/>
</g>
<path d="M206.855 240.817C207.037 240.244 207.37 239.73 207.82 239.33C208.269 238.93 208.818 238.659 209.409 238.545C209.412 238.506 209.196 238.444 208.841 238.49C208.379 238.566 207.948 238.771 207.599 239.082C207.249 239.393 206.995 239.797 206.866 240.247C206.779 240.594 206.816 240.815 206.855 240.817Z" fill="#263238"/>
<path d="M208.431 242.482C208.518 242.526 208.854 241.923 209.549 241.498C209.994 241.279 210.453 241.086 210.921 240.921C210.658 240.843 210.38 240.829 210.111 240.881C209.841 240.932 209.588 241.048 209.372 241.217C208.584 241.705 208.344 242.464 208.431 242.482Z" fill="#263238"/>
<path d="M204.229 238.85C205.151 237.602 206.418 236.651 207.874 236.114C207.068 236.175 206.297 236.465 205.652 236.95C205.006 237.434 204.512 238.094 204.229 238.85Z" fill="#263238"/>
<path d="M202.732 234.486C202.796 234.563 203.508 234.004 204.545 233.676C205.578 233.335 206.482 233.371 206.489 233.272C205.811 233.116 205.104 233.146 204.443 233.36C203.781 233.574 203.19 233.963 202.732 234.486Z" fill="#263238"/>
<path d="M201.54 230.209C202.091 229.783 202.726 229.479 203.404 229.316C204.082 229.154 204.786 229.137 205.471 229.267C205.486 229.23 205.277 229.091 204.887 228.99C204.374 228.869 203.839 228.87 203.327 228.993C202.814 229.116 202.337 229.357 201.935 229.698C201.633 229.964 201.509 230.183 201.54 230.209Z" fill="#263238"/>
<path d="M203.153 228.509C203.151 228.316 203.105 228.126 203.021 227.952C202.832 227.46 202.547 227.01 202.183 226.629C201.941 226.327 201.607 226.113 201.231 226.02C201.104 226.001 200.975 226.022 200.86 226.079C200.746 226.137 200.652 226.228 200.591 226.341C200.487 226.567 200.469 226.824 200.543 227.062C200.711 227.543 201.042 227.95 201.478 228.213C201.914 228.476 202.429 228.579 202.932 228.504C203.429 228.419 203.888 228.189 204.254 227.843C204.619 227.496 204.873 227.049 204.983 226.558C205.011 226.434 205.011 226.306 204.984 226.182C204.957 226.059 204.904 225.942 204.828 225.84C204.741 225.746 204.626 225.681 204.5 225.656C204.374 225.631 204.243 225.646 204.126 225.699C203.789 225.877 203.506 226.141 203.304 226.464C202.995 226.889 202.764 227.365 202.622 227.871C202.554 228.051 202.525 228.244 202.537 228.437C202.764 227.783 203.085 227.166 203.491 226.605C203.678 226.332 203.93 226.11 204.224 225.957C204.287 225.926 204.359 225.917 204.428 225.93C204.497 225.944 204.56 225.979 204.607 226.031C204.652 226.101 204.681 226.18 204.694 226.262C204.707 226.345 204.703 226.429 204.681 226.509C204.573 226.93 204.346 227.311 204.027 227.606C203.708 227.901 203.312 228.099 202.884 228.175C202.458 228.237 202.024 228.153 201.652 227.936C201.28 227.719 200.993 227.382 200.838 226.981C200.782 226.816 200.786 226.637 200.85 226.475C200.882 226.412 200.933 226.361 200.996 226.328C201.059 226.295 201.13 226.283 201.201 226.294C201.518 226.373 201.802 226.548 202.017 226.795C202.493 227.295 202.878 227.875 203.153 228.509Z" fill="#263238"/>
<path d="M156.838 221.414L157.621 232.716C157.621 232.716 146.396 237.307 146.338 239.409L168.305 238.678L167.807 221.02L156.838 221.414Z" fill="#E8505B"/>
<path d="M164.384 231.538C164.597 231.595 164.782 231.729 164.903 231.914C165.023 232.099 165.071 232.322 165.038 232.541C164.989 232.756 164.859 232.944 164.675 233.066C164.491 233.189 164.267 233.236 164.049 233.198C163.823 233.137 163.628 232.994 163.501 232.797C163.374 232.6 163.324 232.363 163.362 232.132C163.436 231.913 163.593 231.731 163.799 231.625C164.005 231.518 164.244 231.496 164.466 231.562" fill="#E0E0E0"/>
<path d="M168.308 238.678L168.188 236.9L147.171 238.266C147.171 238.266 146.207 238.724 146.341 239.409L168.308 238.678Z" fill="#E0E0E0"/>
<path d="M157.264 232.616C157.272 232.723 157.81 232.754 158.349 233.081C158.897 233.394 159.184 233.85 159.281 233.804C159.38 233.78 159.198 233.144 158.538 232.759C157.882 232.368 157.238 232.518 157.264 232.616Z" fill="#263238"/>
<path d="M154.991 233.645C154.97 233.75 155.44 233.917 155.82 234.359C156.212 234.789 156.32 235.276 156.427 235.268C156.528 235.282 156.582 234.651 156.1 234.111C155.622 233.567 154.99 233.543 154.991 233.645Z" fill="#263238"/>
<path d="M153.774 236.446C153.872 236.466 154.004 235.925 153.709 235.347C153.418 234.766 152.904 234.551 152.862 234.642C152.804 234.733 153.141 235.037 153.375 235.515C153.621 235.988 153.667 236.439 153.774 236.446Z" fill="#263238"/>
<path d="M157.37 230.02C157.418 230.117 157.905 229.952 158.513 229.973C159.121 229.982 159.599 230.17 159.652 230.076C159.712 229.996 159.238 229.614 158.522 229.6C157.806 229.58 157.314 229.938 157.37 230.02Z" fill="#263238"/>
<path d="M157.254 227.737C157.618 227.823 157.998 227.809 158.354 227.695C158.748 227.611 159.131 227.48 159.493 227.303C159.708 227.199 159.915 227.08 160.114 226.947C160.235 226.875 160.344 226.783 160.437 226.677C160.505 226.599 160.545 226.5 160.55 226.396C160.556 226.293 160.527 226.19 160.468 226.105C160.411 226.032 160.339 225.973 160.256 225.933C160.173 225.893 160.081 225.874 159.989 225.875C159.85 225.879 159.711 225.903 159.579 225.946C159.346 226.011 159.12 226.097 158.902 226.203C158.537 226.383 158.202 226.619 157.91 226.903C157.416 227.392 157.256 227.799 157.293 227.818C157.343 227.852 157.58 227.508 158.085 227.101C158.38 226.865 158.703 226.668 159.048 226.515C159.25 226.427 159.459 226.355 159.673 226.3C159.904 226.231 160.102 226.222 160.165 226.324C160.188 226.363 160.191 226.378 160.145 226.448C160.075 226.525 159.995 226.591 159.907 226.645C159.724 226.773 159.533 226.891 159.337 226.997C159.001 227.177 158.65 227.325 158.287 227.44C157.936 227.514 157.591 227.614 157.254 227.737Z" fill="#263238"/>
<path d="M157.399 227.887C157.597 227.566 157.687 227.19 157.654 226.814C157.663 226.161 157.493 225.519 157.162 224.956C157.098 224.813 156.998 224.689 156.871 224.595C156.745 224.502 156.597 224.443 156.441 224.424C156.344 224.429 156.249 224.463 156.17 224.52C156.09 224.577 156.029 224.655 155.992 224.746C155.94 224.877 155.906 225.014 155.893 225.153C155.863 225.4 155.871 225.65 155.917 225.894C155.991 226.304 156.165 226.689 156.424 227.015C156.872 227.57 157.324 227.683 157.332 227.647C157.366 227.592 156.985 227.397 156.639 226.861C156.438 226.552 156.308 226.203 156.256 225.839C156.226 225.628 156.226 225.413 156.255 225.202C156.282 224.968 156.363 224.776 156.451 224.798C156.56 224.792 156.752 224.962 156.848 225.145C156.963 225.332 157.061 225.528 157.141 225.732C157.275 226.082 157.359 226.449 157.39 226.823C157.442 227.467 157.341 227.872 157.399 227.887Z" fill="#263238"/>
<path d="M150.846 98.4776L154.379 229.993L171.708 229.473L170.377 116.597L192.458 232.611L208.109 228.526L187.903 98.7284L150.846 98.4776Z" fill="#15191B"/>
<path d="M160.34 230.167C160.252 230.167 160.182 202.905 160.182 169.284C160.182 135.65 160.252 108.394 160.34 108.394C160.427 108.394 160.498 135.65 160.498 169.284C160.498 202.905 160.427 230.167 160.34 230.167Z" fill="#263238"/>
<path d="M197.402 232.571C197.315 232.584 193.267 206.446 188.361 174.198C183.453 141.938 179.546 115.784 179.632 115.771C179.719 115.758 183.766 141.89 188.674 174.15C193.58 206.399 197.488 232.558 197.402 232.571Z" fill="#263238"/>
<path d="M175.674 16.2365C176.277 14.8838 176.766 13.4838 177.139 12.0507C177.347 10.959 177.674 9.32029 177.235 8.29941C176.796 7.27847 175.737 6.30065 174.397 6.57764C174.26 5.50462 173.851 4.48442 173.209 3.61407C172.566 2.74372 171.712 2.05214 170.727 1.60508C168.824 0.686167 166.759 0.149519 164.649 0.0255414C163.878 -0.0514726 163.099 0.0462115 162.371 0.311339C161.754 0.625548 161.269 1.14899 161.002 1.78812C160.365 1.3285 159.629 1.02436 158.854 0.900056C158.078 0.775753 157.285 0.83474 156.536 1.07229C154.865 1.52692 152.956 2.42944 152.223 3.99841C151.694 5.16874 151.647 6.49993 152.091 7.70498C152.416 8.72616 153.496 10.3291 154.501 9.95553" fill="#263238"/>
<path d="M167.226 44.6016C166.223 44.5808 165.234 44.3588 164.318 43.9489C163.402 43.539 162.577 42.9494 161.893 42.2152C161.209 41.4809 160.679 40.6169 160.335 39.6742C159.99 38.7315 159.839 37.7293 159.889 36.727C159.994 34.6279 160.091 32.9352 160.091 32.9352C160.091 32.9352 154.373 32.1925 154.16 26.4995C153.947 20.8066 154.606 7.70506 154.606 7.70506C157.808 6.23254 161.346 5.64166 164.853 5.99343C168.36 6.3452 171.709 7.62687 174.556 9.70606L175.416 10.3346L174.883 37.2493C174.863 38.235 174.65 39.2071 174.254 40.1102C173.859 41.0132 173.289 41.8295 172.578 42.5123C171.867 43.1951 171.029 43.7311 170.11 44.0896C169.192 44.4481 168.212 44.6221 167.226 44.6016Z" fill="#FFBE9D"/>
<path d="M160.081 32.8533C162.711 32.8368 165.277 32.0374 167.452 30.5571C167.452 30.5571 165.695 34.9754 160 34.605L160.081 32.8533Z" fill="#EB996E"/>
<path d="M174.864 16.2509C174.96 16.2063 178.747 14.9953 178.721 18.8919C178.694 22.7882 174.788 21.9576 174.782 21.8458C174.776 21.7342 174.864 16.2509 174.864 16.2509Z" fill="#FFBE9D"/>
<path d="M175.98 20.3779C175.997 20.3656 176.048 20.4259 176.162 20.4792C176.323 20.5493 176.505 20.5543 176.669 20.4931C176.922 20.3352 177.128 20.1129 177.267 19.849C177.405 19.5852 177.471 19.2892 177.457 18.9916C177.469 18.6576 177.406 18.3251 177.274 18.0184C177.238 17.8965 177.173 17.785 177.085 17.6937C176.997 17.6023 176.887 17.5338 176.767 17.494C176.689 17.4728 176.606 17.4795 176.533 17.513C176.459 17.5464 176.4 17.6045 176.365 17.6772C176.312 17.7859 176.336 17.8638 176.315 17.8703C176.304 17.88 176.232 17.8045 176.265 17.6438C176.287 17.5474 176.342 17.4616 176.42 17.4007C176.527 17.3204 176.662 17.2857 176.796 17.304C176.955 17.3368 177.104 17.41 177.227 17.5166C177.351 17.6232 177.445 17.7597 177.501 17.913C177.664 18.2516 177.742 18.625 177.728 19.0007C177.745 19.3477 177.659 19.6919 177.481 19.9901C177.303 20.2882 177.04 20.5271 176.727 20.6767C176.622 20.7063 176.512 20.712 176.404 20.6934C176.297 20.6748 176.195 20.6323 176.107 20.5691C175.987 20.4723 175.967 20.3849 175.98 20.3779Z" fill="#EB996E"/>
<path d="M156.086 16.599C156.089 16.8111 156.175 17.0135 156.326 17.1631C156.476 17.3127 156.679 17.3976 156.891 17.3999C156.994 17.4055 157.098 17.3903 157.196 17.3552C157.294 17.3201 157.383 17.2658 157.46 17.1956C157.536 17.1253 157.598 17.0404 157.641 16.9459C157.684 16.8515 157.708 16.7494 157.711 16.6456C157.707 16.4336 157.622 16.2313 157.471 16.0816C157.321 15.9319 157.119 15.8467 156.907 15.8441C156.803 15.8385 156.699 15.8537 156.601 15.8888C156.503 15.9239 156.414 15.9782 156.337 16.0486C156.261 16.1189 156.199 16.2039 156.156 16.2984C156.113 16.3929 156.089 16.4951 156.086 16.599Z" fill="#263238"/>
<path d="M155.887 15.6892C155.99 15.7926 156.595 15.3212 157.47 15.3016C158.344 15.2694 158.998 15.7036 159.09 15.594C159.136 15.5454 159.028 15.3566 158.743 15.1599C158.358 14.9069 157.904 14.7793 157.443 14.7947C156.988 14.8044 156.548 14.9589 156.186 15.2356C155.922 15.4488 155.836 15.6429 155.887 15.6892Z" fill="#263238"/>
<path d="M164.662 16.5895C164.665 16.8016 164.751 17.0039 164.902 17.1535C165.052 17.3031 165.255 17.3881 165.467 17.3903C165.57 17.396 165.674 17.3808 165.772 17.3457C165.87 17.3106 165.959 17.2563 166.036 17.1861C166.112 17.1158 166.174 17.0309 166.217 16.9365C166.26 16.842 166.284 16.7399 166.287 16.6361C166.284 16.4241 166.198 16.2218 166.047 16.0721C165.897 15.9225 165.695 15.8373 165.483 15.8348C165.379 15.8291 165.275 15.8443 165.177 15.8794C165.08 15.9145 164.99 15.9688 164.913 16.0392C164.837 16.1095 164.775 16.1944 164.732 16.289C164.689 16.3835 164.665 16.4857 164.662 16.5895Z" fill="#263238"/>
<path d="M164.49 15.6366C164.594 15.7402 165.199 15.2687 166.074 15.2492C166.948 15.217 167.601 15.6512 167.694 15.5415C167.739 15.493 167.633 15.3041 167.347 15.1076C166.962 14.8544 166.507 14.7268 166.047 14.7423C165.592 14.752 165.151 14.9064 164.79 15.1831C164.527 15.3964 164.44 15.5905 164.49 15.6366Z" fill="#263238"/>
<path d="M161.479 22.2063C161.014 22.0735 160.535 21.9994 160.051 21.9856C159.827 21.9681 159.615 21.929 159.573 21.7774C159.549 21.5471 159.595 21.3146 159.706 21.1113C159.902 20.5652 160.109 19.9925 160.324 19.3931C161.181 16.9473 161.795 14.9386 161.697 14.9049C161.598 14.8713 160.823 16.8264 159.966 19.2721C159.76 19.8752 159.564 20.4511 159.376 20.9999C159.242 21.273 159.209 21.5845 159.282 21.8797C159.316 21.9577 159.368 22.0268 159.433 22.0819C159.498 22.1369 159.575 22.1764 159.658 22.1973C159.782 22.2276 159.91 22.2422 160.039 22.2406C160.518 22.2903 161.002 22.2788 161.479 22.2063Z" fill="#263238"/>
<path d="M164.071 22.7471C163.928 22.7425 163.95 23.6924 163.154 24.387C162.36 25.0839 161.344 25.0026 161.34 25.1355C161.328 25.1955 161.57 25.3144 161.998 25.3152C162.555 25.3091 163.091 25.1069 163.514 24.7441C163.919 24.3954 164.172 23.903 164.221 23.3707C164.248 22.9727 164.136 22.74 164.071 22.7471Z" fill="#263238"/>
<path d="M164.181 12.2127C164.273 12.4484 165.144 12.3137 166.174 12.4118C167.206 12.4891 168.042 12.7689 168.172 12.552C168.23 12.4484 168.081 12.2282 167.74 12.0062C167.286 11.7351 166.776 11.5709 166.25 11.5261C165.723 11.4813 165.193 11.557 164.699 11.7476C164.326 11.909 164.141 12.1006 164.181 12.2127Z" fill="#263238"/>
<path d="M156.144 13.1483C156.303 13.3432 156.9 13.1217 157.625 13.094C158.349 13.0405 158.967 13.1938 159.103 12.9824C159.163 12.8799 159.061 12.6833 158.788 12.5017C158.422 12.2853 158 12.1825 157.575 12.2063C157.151 12.2301 156.743 12.3795 156.403 12.6355C156.152 12.8463 156.073 13.0531 156.144 13.1483Z" fill="#263238"/>
<path d="M175.718 10.7829C175.683 12.4439 176.099 14.2822 175.849 15.9198C175.812 16.1669 175.189 16.8407 175.139 17.0856C174.84 18.5368 174.257 19.1699 173.363 17.7034C173.013 16.8031 172.764 15.8666 172.622 14.9114C172.232 13.1672 171.843 11.4229 171.454 9.67867C170.135 10.4074 168.657 10.7976 167.15 10.8141C166.398 10.8133 165.659 10.621 165.002 10.2553C164.345 9.88956 163.792 9.36255 163.395 8.72393C163.054 9.32463 162.581 9.84062 162.013 10.2335C161.445 10.6263 160.795 10.886 160.112 10.993C159.43 11.1 158.732 11.0517 158.071 10.8517C157.409 10.6517 156.802 10.3051 156.293 9.83766C156.024 10.236 155.616 10.519 155.149 10.631C154.682 10.7429 154.19 10.6755 153.77 10.4421C153.364 10.1846 153.049 9.80513 152.872 9.35798C152.694 8.91083 152.663 8.41897 152.782 7.95289C153.139 6.55348 154.608 5.76246 155.983 5.32022C161.359 3.59074 167.38 4.68911 172.32 7.42429C173.055 7.79906 173.73 8.28164 174.323 8.85601C174.894 9.44953 175.683 10.1447 175.727 10.9672" fill="#263238"/>
<path d="M171.624 10.3279C171.925 10.3273 172.223 10.375 172.508 10.4692C172.806 10.5989 173.08 10.7757 173.321 10.9928C173.598 11.2338 173.875 11.5527 174.206 11.8617C174.516 12.1758 174.895 12.4139 175.313 12.5571C175.665 12.6621 176.038 12.6672 176.392 12.5718C176.995 12.4032 177.234 12.0711 177.205 12.051C176.925 12.1683 176.637 12.2652 176.342 12.3409C176.029 12.3932 175.708 12.3669 175.408 12.2643C175.042 12.1189 174.71 11.8984 174.434 11.6171C174.117 11.3225 173.832 11.0075 173.518 10.7563C173.243 10.5282 172.926 10.355 172.585 10.2459C171.973 10.0662 171.597 10.301 171.624 10.3279Z" fill="#263238"/>
<path d="M172.289 12.03C172.51 12.0805 172.72 12.1737 172.906 12.3044C173.093 12.4719 173.259 12.6608 173.402 12.8673C173.685 13.256 174.069 13.5603 174.512 13.7479C174.955 13.9354 175.44 13.9992 175.916 13.9322C176.384 13.8614 176.629 13.6884 176.612 13.6538C176.593 13.6044 176.327 13.6914 175.896 13.6969C175.341 13.708 174.794 13.5608 174.319 13.2724C173.763 12.9579 173.485 12.3674 173.04 12.1098C172.605 11.8434 172.259 11.9899 172.289 12.03Z" fill="#263238"/>
<path d="M157.267 0.954964C157.268 0.93717 157.083 0.907472 156.767 1.00179C156.322 1.15112 155.937 1.44029 155.67 1.8262C154.971 2.80324 154.812 4.53885 155.352 6.21751C155.827 7.66573 156.82 8.88737 158.141 9.64775C158.533 9.87603 158.952 10.0547 159.388 10.1797C159.544 10.241 159.711 10.269 159.878 10.2619C159.325 10.02 158.787 9.74762 158.264 9.44606C157.042 8.66573 156.126 7.48873 155.669 6.11269C155.155 4.52185 155.278 2.86743 155.865 1.95884C156.094 1.59495 156.423 1.30488 156.813 1.12343C157.093 0.999113 157.27 0.982596 157.267 0.954964Z" fill="#263238"/>
<path d="M152.553 3.31927C152.487 3.68424 152.504 4.0593 152.602 4.41698C152.774 5.29429 153.117 6.12907 153.612 6.87341C154.107 7.61775 154.744 8.25698 155.487 8.75442C155.779 8.98305 156.118 9.1434 156.48 9.22368C155.483 8.52671 154.608 7.67006 153.89 6.68824C153.262 5.64635 152.81 4.5081 152.553 3.31927Z" fill="#263238"/>
<path d="M121.144 82.6842L112.811 83.1061C112.3 83.1311 111.819 83.3543 111.469 83.7282C111.12 84.1021 110.93 84.5974 110.94 85.109C110.979 87.0121 111.3 89.6191 112.785 89.3717L113.734 85.2228L120.649 91.3239C121.348 91.9572 122.212 92.3805 123.141 92.5452L124.766 92.3771L121.144 82.6842Z" fill="#FFBE9D"/>
<path d="M160.993 38.0538L156.637 39.4925L154.477 75.6605V107.741L181.216 110.703L181.526 64.4375L179.799 41.4115L175.715 36.5306L160.993 38.0538Z" fill="#E0E0E0"/>
<path d="M159.65 39.7852V36.2798L175.541 34.068L174.902 42.1421L171.251 48.4721L165.283 48.8049L160.971 46.1412L159.65 39.7852Z" fill="#E0E0E0"/>
<path d="M161.074 39.3751C160.941 38.852 160.911 38.308 160.985 37.7733C160.957 37.2342 161.034 36.6947 161.211 36.1849C161.345 36.7081 161.375 37.2521 161.301 37.7869C161.329 38.326 161.252 38.8654 161.074 39.3751Z" fill="#263238"/>
<path d="M165.051 39.0864C164.929 38.4973 164.911 37.8914 164.997 37.2961C164.981 36.6947 165.069 36.0951 165.259 35.5242C165.381 36.1133 165.399 36.7192 165.313 37.3146C165.329 37.916 165.24 38.5155 165.051 39.0864Z" fill="#263238"/>
<path d="M168.893 38.6839C168.782 38.0582 168.776 37.4184 168.873 36.7906C168.868 36.1551 168.968 35.5231 169.169 34.9202C169.28 35.546 169.287 36.1858 169.189 36.8137C169.194 37.4492 169.094 38.0811 168.893 38.6839Z" fill="#263238"/>
<path d="M172.583 38.0781C172.412 37.4965 172.364 36.8857 172.443 36.2848C172.419 35.6791 172.522 35.075 172.746 34.5114C172.833 35.1038 172.838 35.7056 172.759 36.2992C172.784 36.8975 172.724 37.4963 172.583 38.0781Z" fill="#263238"/>
<path d="M170.818 53.3665C170.774 53.5729 170.703 53.7726 170.607 53.9607C170.454 54.3353 170.215 54.8697 169.905 55.5235C169.287 56.8315 168.367 58.609 167.239 60.5081C166.109 62.4069 164.986 64.0642 164.133 65.2321C163.706 65.8164 163.351 66.2818 163.095 66.5954C162.976 66.7694 162.834 66.9271 162.674 67.0643C163.063 66.388 163.489 65.7335 163.949 65.104C164.754 63.9066 165.842 62.2373 166.967 60.3464C168.09 58.4553 169.037 56.7025 169.705 55.4237C170.038 54.718 170.409 54.0313 170.818 53.3665Z" fill="#263238"/>
<path d="M175.632 35.9672L179.946 38.0447L188.276 40.0819C190.037 40.3876 191.611 41.3608 192.672 42.7987C193.733 44.2366 194.199 46.0284 193.971 47.8009L189.61 81.8149L194.815 114.791L174.168 114.176L172.957 101.909V67.9016L175.632 35.9672Z" fill="#263238"/>
<path d="M172.957 75.7411C172.963 75.599 172.984 75.4578 173.018 75.3196C173.077 75.015 173.155 74.6181 173.252 74.1241C173.477 73.0528 173.789 71.5641 174.172 69.74C174.985 66.0132 176.096 60.9243 177.323 55.3021C177.668 53.7532 178.003 52.2448 178.325 50.7982L178.364 50.9384C177.876 50.428 177.4 49.9291 176.933 49.4415L176.854 49.3585L176.913 49.2609C177.769 47.8371 178.574 46.499 179.315 45.2659L179.307 45.3853C178.219 42.7477 177.312 40.5492 176.662 38.9723C176.362 38.2225 176.122 37.6217 175.943 37.1755C175.85 36.9668 175.774 36.7511 175.715 36.5305C175.832 36.7268 175.933 36.9321 176.018 37.1443C176.213 37.5834 176.475 38.1747 176.803 38.9127C177.479 40.4788 178.421 42.6625 179.552 45.2822L179.578 45.3432L179.543 45.4019C178.811 46.6403 178.016 47.9844 177.17 49.4144L177.15 49.2339C177.618 49.7194 178.097 50.2163 178.587 50.7246L178.644 50.784L178.626 50.865C178.307 52.3121 177.974 53.821 177.632 55.3705C176.37 60.9849 175.227 66.0668 174.39 69.7884C173.967 71.6035 173.621 73.0848 173.372 74.1507C173.252 74.6394 173.154 75.0321 173.08 75.3334C173.053 75.473 173.011 75.6096 172.957 75.7411Z" fill="#263238"/>
<path d="M121.498 81.3139L139.766 71.1292L148.618 47.2572C149.229 45.6074 150.174 44.1012 151.393 42.8324C152.612 41.5636 154.079 40.5592 155.703 39.882L158.053 38.9021L158.064 101.757L158.535 116.646L148.637 113.682L153.684 83.7547L151.94 69.0245L150.205 76.1507C149.899 77.4117 149.341 78.5981 148.566 79.6393C147.792 80.6805 146.816 81.5553 145.696 82.2116L126.679 92.0888L121.498 81.3139Z" fill="#263238"/>
<path d="M121.719 81.7761L120.182 82.2346L124.506 92.5454L126.521 91.7638L121.719 81.7761Z" fill="#E0E0E0"/>
<path d="M143.069 75.3666C142.692 74.5521 142.234 73.7777 141.703 73.055C141.09 72.3991 140.413 71.8065 139.682 71.2862C140.565 71.5916 141.348 72.1335 141.946 72.8529C142.543 73.5723 142.932 74.4417 143.069 75.3666Z" fill="#263238"/>
<path d="M123.689 81.446C123.708 81.4877 123.599 81.5695 123.588 81.7462C123.58 81.7919 123.584 81.8388 123.599 81.8825C123.615 81.9261 123.641 81.9652 123.676 81.996C123.71 82.0267 123.752 82.0482 123.797 82.0583C123.843 82.0684 123.89 82.0669 123.934 82.0538C123.978 82.0407 124.019 82.0166 124.051 81.9836C124.084 81.9506 124.108 81.9099 124.12 81.8653C124.133 81.8207 124.133 81.7737 124.123 81.7286C124.112 81.6835 124.09 81.6419 124.059 81.6077C123.954 81.4651 123.818 81.4554 123.811 81.4099C123.791 81.3749 123.981 81.2738 124.213 81.4459C124.292 81.5071 124.352 81.5887 124.387 81.6818C124.422 81.7749 124.431 81.8759 124.412 81.9736C124.393 82.0714 124.348 82.1621 124.281 82.2358C124.215 82.3095 124.129 82.3634 124.033 82.3914C123.938 82.4195 123.837 82.4207 123.74 82.3949C123.644 82.3691 123.557 82.3173 123.489 82.2452C123.42 82.1731 123.373 82.0834 123.352 81.9862C123.331 81.8889 123.337 81.7878 123.37 81.6938C123.472 81.4235 123.687 81.4053 123.689 81.446Z" fill="#263238"/>
<path d="M125.161 80.8245C125.181 80.8662 125.071 80.9481 125.06 81.1247C125.053 81.1704 125.057 81.2173 125.072 81.261C125.087 81.3047 125.114 81.3438 125.148 81.3745C125.183 81.4053 125.225 81.4267 125.27 81.4368C125.315 81.447 125.362 81.4454 125.407 81.4323C125.451 81.4192 125.492 81.3951 125.524 81.3621C125.557 81.3291 125.58 81.2884 125.593 81.2438C125.605 81.1992 125.606 81.1521 125.595 81.107C125.585 81.062 125.563 81.0204 125.531 80.9862C125.427 80.8436 125.29 80.8339 125.284 80.7884C125.263 80.7534 125.454 80.6523 125.686 80.8245C125.764 80.8857 125.824 80.9673 125.86 81.0604C125.895 81.1535 125.903 81.2545 125.885 81.3522C125.866 81.4499 125.821 81.5407 125.754 81.6144C125.687 81.6881 125.601 81.7419 125.506 81.77C125.411 81.7981 125.309 81.7993 125.213 81.7735C125.117 81.7476 125.03 81.6958 124.961 81.6237C124.893 81.5516 124.845 81.462 124.825 81.3647C124.804 81.2674 124.81 81.1663 124.843 81.0724C124.945 80.802 125.16 80.7839 125.161 80.8245Z" fill="#263238"/>
<path d="M158.05 76.7116C158.01 76.5856 157.983 76.4555 157.97 76.3238C157.927 76.0351 157.871 75.6637 157.802 75.2039C157.664 74.1907 157.474 72.7909 157.242 71.078C156.794 67.5559 156.185 62.7552 155.511 57.4513C155.419 56.6978 155.327 55.9555 155.237 55.2243L155.232 55.1846L155.247 55.1476C155.708 53.9769 156.154 52.8419 156.581 51.7555L156.584 51.8712C156.122 50.8168 155.681 49.8098 155.266 48.8611L155.246 48.8153L155.259 48.7686C156.068 45.8431 156.748 43.3838 157.238 41.6136C157.479 40.7777 157.672 40.1058 157.816 39.6062C157.876 39.3658 157.954 39.1303 158.05 38.9021C158.019 39.1478 157.969 39.3907 157.9 39.6287C157.775 40.1332 157.606 40.8119 157.396 41.6562C156.934 43.4337 156.292 45.9032 155.528 48.8407L155.521 48.7485C155.943 49.6943 156.39 50.6982 156.86 51.7493L156.885 51.8064L156.862 51.8653C156.438 52.9532 155.996 54.0898 155.539 55.2622L155.549 55.1858C155.64 55.9159 155.732 56.6581 155.825 57.4125C156.463 62.7209 157.04 67.5256 157.463 71.0506C157.655 72.7686 157.811 74.1726 157.924 75.1888L158.033 76.316C158.053 76.4469 158.059 76.5795 158.05 76.7116Z" fill="#263238"/>
<path d="M153.657 83.9298C153.622 83.834 153.601 83.7339 153.594 83.6324C153.562 83.3998 153.523 83.1164 153.476 82.7736C153.378 81.9783 153.246 80.9096 153.086 79.6108C152.763 76.9398 152.308 73.2513 151.763 69.1834C151.216 65.1142 150.68 61.4363 150.288 58.7746C150.099 57.4797 149.944 56.4141 149.829 55.6213C149.784 55.2782 149.747 54.9945 149.717 54.7617C149.697 54.662 149.691 54.5599 149.699 54.4585C149.739 54.5519 149.766 54.6504 149.78 54.7512C149.826 54.9814 149.882 55.262 149.951 55.6012C150.093 56.3404 150.284 57.4127 150.509 58.7398C150.958 61.3937 151.529 65.0693 152.076 69.1413C152.622 73.2121 153.042 76.9076 153.308 79.5861C153.442 80.9254 153.54 82.0102 153.598 82.7609C153.622 83.1062 153.641 83.3917 153.657 83.6259C153.671 83.7267 153.671 83.829 153.657 83.9298Z" fill="#263238"/>
<path d="M151.134 106.273C151.255 106.458 151.398 106.63 151.558 106.784C151.788 106.97 152.058 107.1 152.347 107.165C152.636 107.23 152.937 107.227 153.224 107.157C153.643 107.021 154.025 106.79 154.339 106.482C154.652 106.173 154.89 105.795 155.032 105.379C155.365 104.321 155.537 103.22 155.542 102.111C155.671 101.014 155.556 99.9013 155.204 98.8537C154.817 98.0404 154.251 97.3252 153.548 96.7621C153.073 96.3557 152.648 95.8934 152.284 95.3852C152.143 95.2014 152.041 94.9906 151.985 94.7658C152.011 94.7535 152.117 94.9729 152.384 95.313C152.779 95.7825 153.219 96.2121 153.698 96.5958C154.451 97.1605 155.06 97.8963 155.473 98.7424C155.859 99.8274 155.991 100.987 155.858 102.13C155.852 103.273 155.664 104.406 155.302 105.49C155.138 105.943 154.869 106.35 154.516 106.678C154.164 107.006 153.738 107.245 153.274 107.375C152.956 107.443 152.626 107.434 152.312 107.346C151.999 107.259 151.711 107.097 151.474 106.874C151.351 106.751 151.251 106.607 151.179 106.448C151.137 106.336 151.124 106.276 151.134 106.273Z" fill="#263238"/>
<path d="M144.346 82.6842C144.346 82.6842 144.935 75.7195 150.466 75.0748C150.466 75.0748 150.568 80.7508 144.346 82.6842Z" fill="#263238"/>
<path d="M173.908 108.768C174.271 109.009 189.969 119.274 189.969 119.274L191.78 117.825L192.637 94.277L177.341 82.6842L175.237 83.4087L173.908 108.768Z" fill="#E8505B"/>
<path d="M177.174 83.018L177.801 108.504H174.426L175.557 83.5227L177.174 83.018Z" fill="#E0E0E0"/>
<path d="M182.228 114.353C182.374 114.715 182.625 115.024 182.947 115.244C183.27 115.463 183.65 115.582 184.04 115.586C184.084 115.589 184.129 115.622 184.172 115.696C184.321 115.974 184.54 116.209 184.808 116.376C185.076 116.543 185.383 116.636 185.699 116.646C186.308 116.643 186.904 116.471 187.421 116.149C188.26 115.638 189.755 112.285 189.755 112.285L193.298 104.396L187.34 102.786L179.773 105.144C179.773 105.281 178.002 112.446 178.002 112.446C178.433 112.549 178.887 112.492 179.278 112.284C179.669 112.077 179.972 111.734 180.128 111.319C180.512 110.454 180.958 109.619 181.464 108.819L182.027 112.044L179.875 112.78C179.806 113.118 179.861 113.469 180.03 113.77C180.199 114.071 180.472 114.3 180.797 114.416L182.228 114.353Z" fill="#FFBE9D"/>
<path d="M184.898 58.9534L194.816 77.2076L186.745 101.168L195.72 106.221L207.126 79.5699C207.544 78.5927 207.751 77.5384 207.735 76.4757C207.718 75.4129 207.478 74.3656 207.029 73.4021L193.035 43.3442L184.898 58.9534Z" fill="#263238"/>
<path d="M186.744 101.168L185.906 103.025L194.375 107.588L195.262 105.964L186.744 101.168Z" fill="#E0E0E0"/>
<path d="M186.744 101.168C186.747 101.126 186.756 101.085 186.77 101.045C186.798 100.95 186.833 100.834 186.875 100.692C186.979 100.362 187.122 99.9099 187.304 99.3366C187.697 98.1354 188.256 96.4278 188.952 94.3018C190.386 90.0011 192.383 84.0131 194.669 77.1585L194.682 77.2861C193.528 75.3252 192.342 73.2533 191.144 71.1146C188.959 67.2087 186.951 63.4462 185.233 59.9675C184.385 58.2226 183.593 56.5567 182.925 54.9638C182.27 53.4771 181.987 51.8538 182.098 50.2333C182.155 48.8999 182.455 47.5883 182.984 46.363C183.4 45.4438 183.995 44.617 184.734 43.931C185.202 43.5013 185.736 43.1488 186.314 42.8866C186.514 42.7919 186.722 42.7179 186.936 42.6655C186.154 42.9854 185.437 43.4446 184.818 44.021C184.109 44.7091 183.54 45.5295 183.145 46.4358C182.644 47.6455 182.364 48.9357 182.321 50.2445C182.227 51.8289 182.517 53.4128 183.166 54.8611C183.842 56.4427 184.641 58.1007 185.494 59.8383C187.223 63.3033 189.237 67.0576 191.42 70.9601C192.617 73.0966 193.8 75.1695 194.948 77.1291L194.984 77.1905L194.961 77.257C192.634 84.0976 190.6 90.0734 189.14 94.3653C188.408 96.479 187.82 98.1766 187.406 99.3709C187.203 99.9373 187.044 100.384 186.927 100.71L186.797 101.054C186.785 101.094 186.767 101.133 186.744 101.168Z" fill="#263238"/>
<path d="M201.521 77.0374C201.187 76.9465 200.861 76.8311 200.544 76.6923C198.972 76.1671 197.265 76.2203 195.73 76.8422C195.422 77.0004 195.103 77.1359 194.775 77.2474C195.012 76.9812 195.307 76.7728 195.638 76.6385C196.409 76.2583 197.254 76.0477 198.113 76.0209C198.973 75.9941 199.829 76.1518 200.623 76.4832C200.961 76.5968 201.268 76.7864 201.521 77.0374Z" fill="#263238"/>
<path d="M182.916 54.6101L190.042 78.4547L191.048 70.615L182.916 54.6101Z" fill="#263238"/>
<path d="M194.687 101.456C194.706 101.498 194.597 101.58 194.586 101.756C194.578 101.802 194.582 101.849 194.597 101.892C194.613 101.936 194.639 101.975 194.674 102.006C194.708 102.037 194.75 102.058 194.795 102.068C194.841 102.078 194.888 102.077 194.932 102.064C194.977 102.051 195.017 102.027 195.049 101.994C195.082 101.961 195.106 101.92 195.118 101.875C195.131 101.831 195.132 101.784 195.121 101.739C195.11 101.694 195.088 101.652 195.057 101.618C194.952 101.475 194.816 101.465 194.81 101.42C194.789 101.385 194.979 101.284 195.211 101.456C195.29 101.517 195.35 101.599 195.385 101.692C195.42 101.785 195.429 101.886 195.41 101.984C195.392 102.081 195.346 102.172 195.279 102.246C195.213 102.32 195.127 102.373 195.031 102.401C194.936 102.429 194.835 102.431 194.738 102.405C194.642 102.379 194.555 102.327 194.487 102.255C194.418 102.183 194.371 102.093 194.35 101.996C194.329 101.899 194.335 101.798 194.368 101.704C194.47 101.433 194.685 101.415 194.687 101.456Z" fill="#263238"/>
<path d="M195.401 99.739C195.421 99.7807 195.312 99.8625 195.301 100.039C195.293 100.085 195.297 100.132 195.312 100.175C195.328 100.219 195.354 100.258 195.388 100.289C195.423 100.32 195.465 100.341 195.51 100.351C195.555 100.361 195.602 100.36 195.647 100.347C195.691 100.334 195.732 100.31 195.764 100.277C195.797 100.244 195.82 100.203 195.833 100.158C195.845 100.114 195.846 100.067 195.836 100.022C195.825 99.9765 195.803 99.9349 195.772 99.9007C195.667 99.7581 195.531 99.7484 195.524 99.7029C195.504 99.6679 195.694 99.5668 195.926 99.7389C196.005 99.8001 196.065 99.8817 196.1 99.9748C196.135 100.068 196.144 100.169 196.125 100.267C196.106 100.364 196.061 100.455 195.994 100.529C195.927 100.602 195.842 100.656 195.746 100.684C195.651 100.712 195.549 100.714 195.453 100.688C195.357 100.662 195.27 100.61 195.202 100.538C195.133 100.466 195.086 100.376 195.065 100.279C195.044 100.182 195.05 100.081 195.083 99.9868C195.185 99.7164 195.4 99.6983 195.401 99.739Z" fill="#263238"/>
<path d="M205.149 69.366C204.086 69.9269 203.715 71.4904 203.838 72.6858C203.961 73.8811 204.399 75.0433 204.368 76.2445C204.291 77.099 204.139 77.945 203.913 78.7728C203.688 79.6063 203.714 80.4879 203.99 81.3063C204.137 81.7102 204.415 82.0538 204.778 82.2836C205.142 82.5134 205.571 82.6165 205.999 82.5767L206.841 80.875C207.499 79.5443 207.832 78.0763 207.811 76.5919C207.791 75.1075 207.417 73.6492 206.723 72.3373L205.149 69.366Z" fill="#263238"/>
</svg>
