<svg width="128" height="229" viewBox="0 0 128 229" fill="none" xmlns="http://www.w3.org/2000/svg">
<path d="M23.9543 185.362L22.1328 219.125L34.3626 222.08L36.7986 189.097L23.9543 185.362Z" fill="#AA6550"/>
<path d="M21.776 218.838L19.6934 228H33.7667L34.3692 222.035L21.776 218.838Z" fill="#E8505B"/>
<path d="M34.0581 226.669C34.0581 226.722 33.2751 226.775 32.0076 226.787C30.7407 226.801 28.9905 226.766 27.0612 226.696C25.2012 226.617 23.5185 226.546 22.1229 226.486C20.8598 226.426 20.0781 226.377 20.0781 226.322C20.0781 226.269 20.8617 226.22 22.1286 226.211C23.3955 226.2 25.1451 226.235 27.075 226.307C28.9344 226.384 30.6164 226.454 32.012 226.512C33.2757 226.569 34.0581 226.614 34.0581 226.669Z" fill="#263238"/>
<path d="M28.0906 220.624C28.1978 220.631 28.1959 221.96 28.0862 223.591C27.9764 225.222 27.7997 226.539 27.6925 226.531C27.5852 226.524 27.5871 225.196 27.6969 223.564C27.8067 221.933 27.9827 220.616 28.0906 220.624Z" fill="#263238"/>
<g opacity="0.6">
<path d="M19.6934 228H33.7667L33.9011 226.669L19.947 226.321L19.6934 227.841" fill="white"/>
</g>
<path d="M70.3965 201.778L73.365 224.148L84.1903 223.395L81.9146 202.885L70.3965 201.778Z" fill="#AA6550"/>
<path d="M84.3094 220.967C84.3094 220.967 96.471 225.076 96.6723 227.294L73.4152 227.972L73.207 221.891L74.067 222.062C77.5131 222.747 81.0854 222.365 84.3094 220.967Z" fill="#E8505B"/>
<g opacity="0.6">
<path d="M75.9128 222.953C75.4661 223.089 75.1702 223.604 75.2875 224.055C75.4055 224.507 75.9266 224.813 76.3752 224.684C76.8238 224.556 77.1986 223.949 77.0314 223.513C76.8636 223.077 76.232 222.751 75.827 222.983" fill="white"/>
</g>
<g opacity="0.6">
<path d="M73.4062 227.973L73.4151 226.086L95.7106 226.141C95.7106 226.141 96.7592 226.561 96.6633 227.294L73.4062 227.973Z" fill="white"/>
</g>
<path d="M84.6807 220.838C84.68 220.951 84.1141 221.019 83.5658 221.401C83.0075 221.768 82.7343 222.269 82.6283 222.227C82.5229 222.208 82.6724 221.524 83.3444 221.074C84.0113 220.617 84.7021 220.733 84.6807 220.838Z" fill="#263238"/>
<path d="M87.1391 221.776C87.1681 221.885 86.6823 222.093 86.31 222.584C85.9239 223.065 85.8419 223.587 85.7283 223.585C85.6223 223.606 85.5239 222.943 85.9977 222.341C86.4665 221.734 87.1334 221.667 87.1391 221.776Z" fill="#263238"/>
<path d="M88.611 224.655C88.5082 224.682 88.3341 224.119 88.6072 223.489C88.876 222.856 89.4047 222.595 89.4552 222.689C89.5221 222.78 89.1871 223.124 88.9707 223.645C88.7416 224.161 88.7233 224.64 88.611 224.655Z" fill="#263238"/>
<path d="M84.4166 220.78C84.4191 220.827 83.9724 220.91 83.2513 220.808C82.8923 220.757 82.4689 220.652 82.0216 220.469C81.7983 220.377 81.5699 220.266 81.3427 220.133C81.2336 220.068 81.1042 220.002 80.9831 219.869C80.8538 219.755 80.7736 219.456 80.9131 219.267C81.0273 219.085 81.2355 219.001 81.4033 218.993C81.5749 218.982 81.7143 219.013 81.8418 219.04C82.1024 219.095 82.3478 219.174 82.573 219.267C83.0235 219.456 83.392 219.701 83.6677 219.94C84.2216 220.424 84.4185 220.843 84.38 220.866C84.3295 220.905 84.057 220.557 83.4954 220.161C83.2159 219.963 82.8595 219.762 82.4399 219.606C82.2292 219.529 82.0033 219.464 81.7648 219.419C81.5169 219.362 81.3068 219.366 81.2468 219.477C81.2254 219.52 81.2229 219.536 81.2765 219.607C81.332 219.672 81.4336 219.734 81.5408 219.799C81.7503 219.928 81.961 220.038 82.1667 220.133C82.5781 220.322 82.9705 220.449 83.3055 220.532C83.9775 220.7 84.4172 220.718 84.4166 220.78Z" fill="#263238"/>
<path d="M84.2833 220.947C84.2435 220.966 84.0063 220.565 83.9432 219.831C83.9129 219.467 83.9382 219.023 84.065 218.551C84.1294 218.316 84.2202 218.074 84.3407 217.835C84.4707 217.602 84.6278 217.289 85.0663 217.226C85.2959 217.211 85.4928 217.385 85.5622 217.536C85.6436 217.691 85.6631 217.826 85.694 217.959C85.7445 218.23 85.747 218.496 85.7174 218.744C85.6587 219.241 85.4682 219.659 85.2549 219.961C84.8177 220.577 84.3483 220.727 84.3376 220.689C84.2978 220.633 84.6877 220.402 85.0183 219.813C85.1811 219.523 85.3231 219.142 85.3546 218.708C85.371 218.491 85.3609 218.264 85.3136 218.035C85.2701 217.789 85.1716 217.592 85.0795 217.62C84.9641 217.621 84.7729 217.814 84.6833 218.013C84.5697 218.225 84.4814 218.441 84.4133 218.653C84.2795 219.077 84.2278 219.482 84.2215 219.822C84.2107 220.506 84.3451 220.928 84.2833 220.947Z" fill="#263238"/>
<path d="M33.0019 88.5366C33.0019 88.5366 24.4188 102.877 24.4188 111.456L22.3027 215.94L35.8676 219.173L46.2159 117.067C46.2159 117.067 71.278 219.438 72.0818 219.438C72.8863 219.438 85.2265 217.225 85.2265 217.225L66.5114 88.9959L33.0019 88.5366Z" fill="#15191B"/>
<path d="M38.3458 114.261C38.3522 114.262 38.3433 114.351 38.32 114.524C38.2922 114.716 38.255 114.97 38.2077 115.292C38.0973 115.987 37.9408 116.976 37.7408 118.238C37.3212 120.794 36.7389 124.496 36.0499 129.075C34.6707 138.208 32.9508 150.893 31.5054 164.966C30.07 179.028 29.1836 191.794 28.682 201.041C28.429 205.664 28.2492 209.407 28.142 211.995C28.082 213.271 28.0353 214.27 28.0025 214.974C27.9836 215.299 27.9684 215.555 27.9565 215.749C27.9438 215.923 27.9344 216.012 27.9281 216.012C27.9218 216.012 27.9186 215.922 27.918 215.747C27.9199 215.554 27.923 215.298 27.9268 214.972C27.9432 214.269 27.9666 213.268 27.9962 211.99C28.0587 209.401 28.1981 205.655 28.4177 201.028C28.8517 191.774 29.6972 178.998 31.1332 164.929C32.5773 150.867 34.3382 138.185 35.7881 129.035C36.5111 124.46 37.1332 120.763 37.5969 118.214C37.8266 116.957 38.0064 115.973 38.1332 115.28C38.1957 114.96 38.2449 114.708 38.2821 114.519C38.3181 114.346 38.3395 114.259 38.3458 114.261Z" fill="#15191B"/>
<path d="M59.8125 115.989C59.914 115.971 64.0523 138.902 69.0542 167.2C74.058 195.507 78.0303 218.462 77.9287 218.481C77.8272 218.498 73.6896 195.572 68.6864 167.265C63.6838 138.967 59.7109 116.008 59.8125 115.989Z" fill="#15191B"/>
<path d="M45.7357 116.89C45.7249 116.895 45.677 116.805 45.5937 116.63C45.5117 116.455 45.3918 116.196 45.248 115.857C44.9767 115.175 44.5905 114.18 44.2416 112.91C43.5281 110.382 42.9571 106.729 43.2725 102.71C43.34 101.705 43.477 100.732 43.6322 99.796C43.8031 98.8565 44.0416 97.9745 44.2789 97.1386C44.7552 95.466 45.2524 93.9839 45.6801 92.7429C46.1098 91.5025 46.4776 90.5063 46.7407 89.8218C46.865 89.5107 46.9685 89.252 47.0543 89.0369C47.13 88.859 47.1754 88.7675 47.1861 88.7713C47.1969 88.775 47.1723 88.8741 47.1167 89.059C47.0467 89.2798 46.9628 89.5454 46.8612 89.864C46.6177 90.6117 46.2934 91.6079 45.9003 92.8161C45.5022 94.0641 45.0284 95.5518 44.5703 97.2193C44.3426 98.0528 44.1117 98.9323 43.9489 99.8509C43.8 100.776 43.6662 101.74 43.5994 102.734C43.2877 106.71 43.8151 110.325 44.4656 112.849C44.7836 114.117 45.1331 115.117 45.3666 115.811C45.6215 116.498 45.7577 116.881 45.7357 116.89Z" fill="#15191B"/>
<path d="M49.579 99.3417C49.5841 99.3468 49.591 99.4149 49.5998 99.5417C49.608 99.6932 49.6181 99.8749 49.6301 100.094C49.6522 100.608 49.6819 101.298 49.7185 102.158C49.7816 103.951 49.8692 106.445 49.974 109.426L49.8869 109.3C51.4768 109.948 53.2384 110.666 55.1078 111.427L54.9646 111.438C56.3084 110.62 57.7349 109.752 59.2044 108.857C59.2971 108.801 59.3892 108.745 59.4801 108.689L59.4018 108.815C59.7217 105.366 60.0214 102.126 60.2807 99.3285L60.4246 99.4856C57.2302 99.4553 54.5469 99.4301 52.6182 99.4124C51.6901 99.3966 50.9456 99.384 50.3929 99.3745C50.1551 99.3676 49.9588 99.3626 49.7961 99.3575C49.6579 99.3531 49.5841 99.3474 49.579 99.3417C49.5677 99.331 49.8295 99.3203 50.3317 99.3089C50.8756 99.2995 51.6093 99.2868 52.5235 99.2711C54.4756 99.2528 57.1911 99.2275 60.4239 99.1979L60.5817 99.1966L60.5678 99.3556C60.3205 102.154 60.0334 105.395 59.7287 108.846L59.7211 108.929L59.6498 108.971C59.5589 109.026 59.4668 109.083 59.3741 109.139C57.9034 110.031 56.4744 110.897 55.1292 111.712L55.0598 111.754L54.9854 111.724C53.121 110.949 51.3639 110.22 49.779 109.562L49.6932 109.527L49.692 109.435C49.6459 106.414 49.6068 103.888 49.579 102.072C49.5727 101.225 49.5683 100.546 49.5645 100.039C49.5639 99.5733 49.5683 99.3316 49.579 99.3417Z" fill="#15191B"/>
<path d="M29.9405 96.5833C29.9487 96.596 29.9166 96.8401 29.8509 97.2856C29.7771 97.7657 29.6793 98.4036 29.5576 99.1966C29.2888 100.858 28.9159 103.161 28.4705 105.915L28.4162 105.778C29.6188 106.67 30.95 107.657 32.3601 108.703L32.2226 108.677C33.7324 108.257 35.3488 107.807 37.017 107.343C37.099 107.32 37.181 107.298 37.2618 107.276L37.1482 107.388C38.0655 104.262 38.9268 101.326 39.6706 98.7916L39.7772 98.9726C36.8826 98.2824 34.4491 97.702 32.6939 97.283C31.856 97.0761 31.1816 96.9095 30.6762 96.7846C30.2055 96.6654 29.9494 96.5966 29.9405 96.5833C29.9317 96.5707 30.1715 96.6142 30.6301 96.707C31.1311 96.8111 31.8005 96.9512 32.6314 97.124C34.4176 97.5121 36.8939 98.0502 39.8403 98.6906L39.9899 98.7234L39.947 98.8717C39.2145 101.41 38.3665 104.35 37.463 107.479L37.4378 107.567L37.3494 107.592C37.2687 107.614 37.1867 107.636 37.1046 107.66C35.4359 108.12 33.8182 108.566 32.3078 108.983L32.232 109.004L32.1702 108.957C30.7677 107.901 29.444 106.905 28.2478 106.004L28.1777 105.951L28.1929 105.867C28.7039 103.086 29.1317 100.76 29.4396 99.0818C29.5885 98.3076 29.709 97.6843 29.7992 97.2155C29.8844 96.7909 29.9323 96.5707 29.9405 96.5833Z" fill="#15191B"/>
<path d="M57.3427 114.862C57.3623 114.951 54.778 115.587 51.5717 116.284C48.3647 116.98 45.7495 117.473 45.7306 117.384C45.711 117.295 48.2946 116.659 51.5022 115.963C54.7086 115.266 57.3238 114.774 57.3427 114.862Z" fill="#15191B"/>
<path d="M40.4745 115.316C40.4732 115.358 39.906 115.384 38.9937 115.315C38.0814 115.249 36.8271 115.074 35.4662 114.762C34.1047 114.452 32.9003 114.057 32.0504 113.72C31.1999 113.382 30.7021 113.11 30.7192 113.072C30.7387 113.026 31.2668 113.221 32.1293 113.501C32.9918 113.78 34.1924 114.135 35.5401 114.442C36.8871 114.751 38.1218 114.96 39.019 115.085C39.9168 115.212 40.477 115.267 40.4745 115.316Z" fill="#15191B"/>
<path d="M38.9697 6.47002C39.4378 7.82082 37.8371 8.97163 36.4434 9.2915C35.0497 9.61138 33.3614 9.81138 32.7229 11.0903C32.1689 12.1994 32.7305 13.6089 32.227 14.742C31.268 16.8979 27.396 16.4474 26.637 18.6809C26.1165 20.214 27.5556 21.7945 27.3752 23.4033C27.22 24.7895 25.9506 25.7327 24.837 26.5718C23.7234 27.4109 22.5524 28.5687 22.7278 29.9523C22.9304 31.5504 24.8812 32.6564 24.702 34.2577C24.526 35.8331 22.401 36.5681 22.095 38.1234C21.7322 39.9688 24.0427 41.1556 24.7853 42.8837C25.3525 44.2042 25.0029 45.9045 25.9613 46.9752C26.9436 48.0724 28.6862 47.8572 30.1266 47.5519C34.9141 46.5367 39.7015 45.5222 44.489 44.507C43.518 42.237 44.4309 39.5802 45.8152 37.536C47.1988 35.4918 49.043 33.765 50.2316 31.6015C51.4203 29.4375 51.8108 26.5428 50.2543 24.6261" fill="#263238"/>
<path d="M64.2286 17.9547C64.1466 17.9648 64.2191 17.0317 63.7579 15.6866C63.6324 15.3654 63.4677 14.9932 63.1832 14.7547C62.8999 14.4853 62.5308 14.6563 62.2967 15.0436C61.8317 15.8096 61.6746 16.8821 61.6639 17.9541C61.6752 19.0267 61.8317 20.0992 62.2967 20.8658C62.5308 21.2532 62.8999 21.4235 63.1832 21.1548C63.4671 20.9163 63.6317 20.544 63.7579 20.2229C64.2191 18.8771 64.1472 17.944 64.2286 17.9547C64.2494 17.9547 64.2854 18.1793 64.2778 18.5894C64.2683 18.9976 64.2311 19.5964 64.0078 20.3099C63.8841 20.6595 63.744 21.0607 63.3819 21.3932C63.2084 21.556 62.8992 21.6765 62.6185 21.5718C62.3434 21.4771 62.1573 21.2683 62.0115 21.0576C61.4607 20.1787 61.3087 19.0784 61.291 17.9547C61.3087 16.831 61.4607 15.7313 62.0115 14.8525C62.1573 14.6417 62.3434 14.4329 62.6185 14.3383C62.8992 14.2335 63.2084 14.354 63.3819 14.5168C63.744 14.8493 63.8841 15.2506 64.0078 15.6001C64.2311 16.3131 64.2683 16.9124 64.2778 17.3206C64.2854 17.7295 64.25 17.9547 64.2286 17.9547Z" fill="#263238"/>
<path d="M40.7913 31.1814C38.1932 26.7908 37.4487 20.9428 36.7919 15.8834C36.4827 13.5023 35.9389 10.1124 37.614 8.62276C39.4077 7.02715 39.5806 4.56719 41.6418 3.33626C43.703 2.10533 46.4986 2.00312 48.4419 3.41197" fill="#263238"/>
<path d="M47.977 46.7331C51.9613 47.0504 55.4099 43.9936 55.5752 40.0005C55.7342 36.1658 55.8736 32.2894 55.8736 32.2894C55.8736 32.2894 61.6863 31.7619 62.1248 26.0117C62.5633 20.2621 62.4093 6.98437 62.4093 6.98437C55.931 3.696 48.1802 4.17171 42.1523 8.22727L42.4514 28.4691L42.4199 39.3582C42.4476 43.0113 44.336 46.4428 47.977 46.7331Z" fill="#AA6550"/>
<path d="M56.4237 18.9736C55.4351 17.7415 53.8237 17.2474 52.4963 18.1042C51.1688 18.961 50.654 20.8727 51.3701 22.2803C51.8754 23.274 53.0313 24.1762 54.1852 24.4217C55.2704 24.6526 56.0376 25.7031 55.9076 26.8053C55.7379 28.2482 53.3348 28.7832 52.2477 29.975C50.5568 31.8287 46.8546 32.6041 44.3618 32.8918C41.9113 33.1744 42.2072 33.199 40.7876 31.1814C39.7548 29.7132 39.4343 28.3025 39.4021 26.5081C39.327 22.2677 39.2513 18.0266 39.1762 13.7862C39.1491 12.2575 39.1239 10.7098 39.4791 9.22275C39.8343 7.73566 40.6179 6.29212 41.8974 5.45552C43.2993 4.53879 45.0709 4.4656 46.6659 3.95518C48.6596 3.31669 50.3549 2.00058 52.2218 1.05294C54.0881 0.104664 56.3745 -0.458115 58.2427 0.486375C59.584 1.16462 60.4799 2.50721 61.7841 3.25359C63.6402 4.3167 66.1721 4.08389 67.0668 6.82083C67.3759 7.76658 67.3494 8.80382 67.027 9.74515C65.7557 13.4625 61.1424 14.949 57.8288 13.3307C57.7613 13.961 58.3783 15.3654 57.7089 17.3541C57.4963 17.9888 57.4181 18.9585 56.4237 18.9736Z" fill="#263238"/>
<path d="M55.3966 22.5611C55.4199 22.5699 55.4193 22.6702 55.3164 22.8097C55.2161 22.9447 54.9978 23.11 54.6741 23.1283C54.03 23.1863 53.2123 22.4917 53.1883 21.5365C53.1612 21.0715 53.3347 20.616 53.6142 20.3207C53.8899 20.0216 54.2281 19.8658 54.5158 19.8046C55.1088 19.6822 55.4489 19.9018 55.4243 19.939C55.4098 20.0046 55.0704 19.9112 54.5953 20.0841C54.1271 20.233 53.5435 20.7567 53.599 21.5169C53.6173 22.2671 54.2161 22.8153 54.6767 22.8368C55.1587 22.8671 55.3543 22.5245 55.3966 22.5611Z" fill="#995037"/>
<path d="M64.241 17.6784C64.258 17.78 62.5249 18.1484 60.3715 18.5011C58.2169 18.8538 56.4579 19.057 56.4415 18.9554C56.4251 18.8538 58.157 18.4853 60.3116 18.1326C62.4649 17.78 64.2246 17.5768 64.241 17.6784Z" fill="#263238"/>
<path d="M41.2554 36.7928C41.5431 37.5253 42.4951 37.8023 43.2541 37.5947C44.0131 37.3871 44.6182 36.8281 45.186 36.2843C45.7545 35.7398 46.3488 35.1738 47.1015 34.9454C48.6359 34.4798 50.5129 35.5032 51.8031 34.5511C52.9779 33.6849 52.8246 31.7227 53.9779 30.828C54.5899 30.353 55.4442 30.2918 56.0669 29.8318C57.2328 28.97 57.0404 27.0463 56.0606 25.9775C55.0814 24.9087 53.6069 24.4759 52.2101 24.0892L39.8516 29.3567L41.2554 36.7928Z" fill="#263238"/>
<path d="M55.9424 14.4594C55.9456 14.4651 55.9109 14.4903 55.8396 14.5351C55.7683 14.5793 55.6616 14.6468 55.5127 14.7175C55.22 14.8664 54.767 15.0525 54.1594 15.2058C53.5525 15.3616 52.7935 15.4739 51.9146 15.5623C51.0364 15.6569 50.0332 15.7175 48.9644 15.9698C47.9108 16.2191 46.7354 16.6676 45.9126 17.6367C45.0779 18.6039 44.7675 19.9958 44.1221 21.3403C43.7978 22.0109 43.3328 22.6778 42.6836 23.1516C42.0451 23.6343 41.2949 23.9535 40.5315 24.2122C39.0129 24.7207 37.3416 25.0267 36.0766 26.0993C35.4513 26.6217 35.04 27.3372 34.9359 28.1214C34.8179 28.9056 34.915 29.7138 34.9346 30.5214C34.9554 31.3214 34.8949 32.182 34.474 32.8912C34.0816 33.6092 33.4463 34.1189 32.8071 34.4994C31.5144 35.2603 30.1598 35.6634 29.079 36.353C28.5389 36.6912 28.0727 37.0975 27.7484 37.5802C27.4386 38.071 27.2689 38.6149 27.2443 39.1543C27.185 40.2364 27.4695 41.2174 27.6462 42.0774C27.8361 42.9443 27.9118 43.719 27.8525 44.3481C27.7989 44.9784 27.6121 45.4478 27.4405 45.7298C27.2664 46.0137 27.1282 46.1241 27.1282 46.1241C27.0771 46.1077 27.6443 45.5822 27.7074 44.3374C27.7427 43.7266 27.6487 42.9746 27.4424 42.1241C27.2487 41.2698 26.9377 40.2881 26.9806 39.1386C26.9982 38.5657 27.1724 37.9644 27.5061 37.4237C27.8531 36.8912 28.3522 36.4502 28.9131 36.0912C30.0361 35.3631 31.3945 34.9461 32.6292 34.2047C33.2406 33.8357 33.816 33.3606 34.1617 32.7189C34.534 32.0893 34.5914 31.3126 34.5693 30.5309C34.5497 29.7448 34.4437 28.9201 34.5693 28.0652C34.6778 27.2053 35.1548 26.3769 35.8349 25.8154C37.2059 24.6608 38.9365 24.3624 40.4161 23.8658C41.1631 23.6153 41.8773 23.3119 42.4703 22.8671C43.0716 22.4317 43.4968 21.8311 43.8148 21.1882C44.4476 19.9049 44.7719 18.4752 45.6786 17.4361C46.5808 16.3982 47.8256 15.9522 48.907 15.7124C50.0073 15.4708 51.0212 15.4298 51.8963 15.3547C52.7739 15.2866 53.5247 15.1963 54.1272 15.0645C55.3355 14.8045 55.9254 14.4209 55.9424 14.4594Z" fill="#455A64"/>
<path d="M52.6076 16.5206C52.6076 16.561 52.1641 16.5194 51.4045 16.6935C50.6537 16.8601 49.5704 17.3276 48.6328 18.3491C48.1653 18.8544 47.7634 19.5125 47.5294 20.2809C47.2871 21.0469 47.3003 21.9321 47.3035 22.8621C47.2965 23.7851 47.3413 24.8242 46.8764 25.8135C46.6461 26.2999 46.2574 26.7302 45.7975 27.0274C45.3432 27.3347 44.8448 27.5485 44.3722 27.7895C43.9009 28.028 43.4492 28.2892 43.1432 28.6634C42.8233 29.0274 42.6965 29.5025 42.6599 29.9871C42.5924 30.9461 42.8019 32.0148 42.3293 32.9335C41.8839 33.8294 41.1179 34.4022 40.4069 34.8395C39.6813 35.2717 38.9785 35.589 38.3816 35.9493C37.7841 36.3057 37.2876 36.695 36.9564 37.1291C36.6176 37.5581 36.4314 38.001 36.3425 38.3739C36.1816 39.1354 36.4094 39.5594 36.3633 39.5657C36.3564 39.5689 36.2939 39.4742 36.2371 39.2698C36.1791 39.0673 36.1355 38.748 36.1999 38.3455C36.2712 37.9468 36.4478 37.4691 36.7898 37.0035C37.1248 36.5303 37.6397 36.1038 38.2434 35.724C38.8472 35.3404 39.5507 35.0048 40.2447 34.5751C40.9261 34.1436 41.6353 33.5839 42.0195 32.7839C42.4296 31.9877 42.2372 31.0041 42.2952 29.9593C42.3287 29.4394 42.4769 28.8596 42.8574 28.4255C43.2208 27.982 43.7211 27.7018 44.2031 27.4558C45.1741 26.9864 46.1476 26.5517 46.5476 25.652C46.9666 24.7838 46.9476 23.7845 46.9596 22.8621C46.9666 21.934 46.9603 21.0141 47.2335 20.1901C47.4966 19.3737 47.9369 18.6885 48.4391 18.1699C49.448 17.1225 50.5925 16.6796 51.3748 16.5516C51.7679 16.4765 52.0815 16.4721 52.2903 16.4828C52.4998 16.4948 52.6083 16.5074 52.6076 16.5206Z" fill="#455A64"/>
<path d="M57.3024 37.6616L55.8065 34.5839L42.8145 34.0937L40.7754 38.0893H57.091" fill="#E8505B"/>
<path d="M101.952 65.448C101.858 64.9811 105.389 46.637 106.362 41.5991C106.489 40.9411 105.985 40.331 105.314 40.331H79.3016C78.8069 40.331 78.3773 40.6704 78.2637 41.1518L72.9368 63.6076L59.8086 64.5868L60.2704 65.448H101.952Z" fill="#455A64"/>
<path d="M100.816 63.8202L105.025 41.5808L79.4537 41.7348L73.8379 63.8517L100.816 63.8202Z" fill="#EBEBEB"/>
<path d="M73.8184 63.8681L73.8234 63.8486L79.4424 41.7196H79.455L105.045 41.5651L105.041 41.584L100.83 63.8366H100.817L73.8184 63.8681ZM79.467 41.7505L73.8587 63.836L100.804 63.8044L105.007 41.5966L79.467 41.7505Z" fill="#263238"/>
<path d="M100.79 63.9748C100.79 64.0656 93.3069 64.1388 84.079 64.1388C74.848 64.1388 67.3672 64.065 67.3672 63.9748C67.3672 63.8839 74.848 63.8108 84.079 63.8108C93.3069 63.8108 100.79 63.8839 100.79 63.9748Z" fill="#263238"/>
<path d="M99.0278 58.3596C99.0278 58.3709 98.913 58.3823 98.6934 58.393C98.4373 58.4012 98.1205 58.4113 97.735 58.4239C96.8543 58.4372 95.6625 58.4548 94.2107 58.4763C91.2346 58.5059 87.1242 58.5242 82.5841 58.5242C81.2957 58.523 80.0421 58.5211 78.8528 58.5198H78.6465L78.6976 58.3211C79.6023 54.8195 80.3935 51.7589 80.9727 49.5185C81.2598 48.4591 81.4932 47.5954 81.6686 46.9493C81.8371 46.35 81.938 46.0263 81.9569 46.0307C81.9759 46.0358 81.9115 46.3682 81.7759 46.9758C81.6238 47.6276 81.4213 48.4989 81.1721 49.5677C80.6213 51.815 79.8686 54.8851 79.008 58.398L78.8528 58.1993C80.0421 58.198 81.2957 58.1968 82.5841 58.1949C87.1242 58.1949 91.2353 58.2132 94.2107 58.2428C95.6625 58.2643 96.8543 58.282 97.735 58.2952C98.1205 58.3078 98.4366 58.3179 98.6934 58.3261C98.913 58.3375 99.0278 58.3482 99.0278 58.3596Z" fill="#455A64"/>
<path d="M80.5039 57.5154L80.9822 55.3702H84.273L83.8522 57.5154H80.5039Z" fill="#E8505B"/>
<path d="M84.9805 57.5154L85.9735 53.2933H89.2644L88.3288 57.5154H84.9805Z" fill="#E8505B"/>
<path d="M89.4531 57.5154L89.932 55.3702H93.2223L92.802 57.5154H89.4531Z" fill="#E8505B"/>
<path d="M93.9297 57.5154L95.8143 49.3128H99.1051L97.278 57.5154H93.9297Z" fill="#E8505B"/>
<path d="M83.0846 59.9129C83.0795 60.0037 82.4846 60.0712 81.7546 60.0649C81.0246 60.058 80.4309 59.9791 80.4277 59.8883C80.4246 59.7974 81.0196 59.7293 81.7577 59.7362C82.4959 59.7425 83.0896 59.822 83.0846 59.9129Z" fill="#455A64"/>
<path d="M87.4244 59.9059C87.4194 59.9968 86.8238 60.0643 86.0944 60.058C85.3651 60.0511 84.7707 59.9722 84.7676 59.8813C84.7644 59.7905 85.36 59.723 86.0976 59.7299C86.8351 59.7362 87.4294 59.8151 87.4244 59.9059Z" fill="#455A64"/>
<path d="M91.7662 59.899C91.7612 59.9899 91.1656 60.0574 90.4362 60.0511C89.7069 60.0441 89.1125 59.9653 89.1094 59.8744C89.1062 59.7836 89.7018 59.7161 90.4394 59.723C91.1769 59.7293 91.7712 59.8082 91.7662 59.899Z" fill="#455A64"/>
<path d="M96.0982 59.892C96.0932 59.9829 95.4976 60.051 94.7682 60.0441C94.0383 60.0371 93.4446 59.9583 93.4414 59.8674C93.4383 59.7766 94.0339 59.7091 94.7714 59.716C95.5096 59.7223 96.1033 59.8012 96.0982 59.892Z" fill="#455A64"/>
<path d="M89.7222 45.0654C89.7222 45.1563 88.0736 45.2294 86.0401 45.2294C84.006 45.2294 82.3574 45.1556 82.3574 45.0654C82.3574 44.9746 84.006 44.9014 86.0401 44.9014C88.0729 44.9014 89.7222 44.9746 89.7222 45.0654Z" fill="#455A64"/>
<path d="M85.8451 44.1543C85.8451 44.2452 85.1139 44.319 84.2129 44.319C83.3113 44.319 82.5801 44.2452 82.5801 44.1543C82.5801 44.0635 83.3107 43.9903 84.2129 43.9903C85.1145 43.9903 85.8451 44.0635 85.8451 44.1543Z" fill="#455A64"/>
<path d="M78.7927 78.9731L93.8465 68.0764L93.2863 67.1654C92.4636 65.8266 91.2288 64.7912 89.7676 64.2133L87.4137 64.636L73.457 66.7622L78.7927 78.9731Z" fill="#E8505B"/>
<path d="M25.279 76.4683L37.7852 71.4985L34.9933 61.14L24.8008 64.6044L25.279 76.4683Z" fill="#E8505B"/>
<path d="M78.2734 79.2645C81.3895 77.7162 82.1902 73.9976 80.6684 70.8682L67.7092 43.1726C67.4121 42.4881 66.9685 41.8742 66.4058 41.3852C61.3104 36.9612 55.6864 37.7145 55.6864 37.7145L42.1714 37.3606C42.1714 37.3606 31.5549 37.3606 27.5719 45.7279C27.2804 46.3399 21.1093 58.5798 17.0412 66.6455C15.1623 70.3704 16.9509 74.8992 20.8671 76.3371C24.3075 77.6002 28.1384 75.9863 29.6381 72.643L34.059 62.7886L36.842 76.9043L32.8357 88.5366L66.3452 88.9965L63.7685 73.4354L62.9546 62.34L69.7509 76.3541C71.2878 79.5251 75.1175 80.833 78.2734 79.2645Z" fill="#E8505B"/>
<g opacity="0.2">
<path d="M37.9768 76.6336C40.5138 78.5327 44.2501 77.8999 47.3763 77.38C50.5025 76.8601 53.5246 75.373 55.5625 72.9459C56.4773 71.8563 57.2067 70.4935 57.0824 69.0764C56.9581 67.6587 55.7051 66.2909 54.2925 66.4613C52.6735 66.6556 51.8924 68.4714 51.1132 69.9036C48.6482 74.4317 43.0892 77.0418 38.0304 76.0475C38.0304 76.0475 37.5251 76.2961 37.9768 76.6336Z" fill="black"/>
</g>
<g opacity="0.2">
<path d="M58.6621 54.8264C59.4514 61.2012 59.0987 60.716 60.4281 67.0007C61.0817 70.0915 61.876 73.3174 64.0085 75.6493L62.9524 62.34L58.6621 54.8264Z" fill="black"/>
</g>
<path d="M32.8353 88.5366L31.875 85.7391L34.3716 84.0759L65.1107 81.5409L67.2779 85.6129L66.3448 88.9965L32.8353 88.5366Z" fill="#E8505B"/>
<path d="M39.1827 35.7965C37.9044 36.2937 36.876 37.3946 36.4672 38.7038C36.0583 40.013 36.2785 41.5038 37.0476 42.6395C37.3145 43.0332 37.6584 43.4344 37.6338 43.9095C37.5745 45.0446 35.7397 45.0755 35.1618 46.0534C34.7751 46.7077 35.1069 47.579 35.6533 48.1071C36.1997 48.6351 36.9196 48.9386 37.5448 49.3708C38.1694 49.803 38.7379 50.4591 38.7057 51.2188C39.3467 51.2011 39.7259 50.4251 39.6281 49.791C39.5297 49.1569 39.1271 48.62 38.8401 48.0465C38.553 47.4724 38.3915 46.7424 38.7606 46.2174C39.1801 45.6206 40.0344 45.596 40.7145 45.3323C42.0332 44.8206 42.7354 43.1152 42.1581 41.8231C41.7461 40.9007 40.7858 39.9682 41.2534 39.0729C41.5139 38.5732 42.1127 38.382 42.6061 38.1095C43.6206 37.5486 44.3222 36.4583 44.4124 35.3031C44.5026 34.1473 43.9783 32.9618 43.0628 32.2507" fill="#263238"/>
<path d="M33.9755 64.1395C34.0146 64.159 33.7597 64.7628 33.2941 65.713C32.8278 66.6632 32.1458 67.9578 31.3231 69.3484C30.4991 70.7389 29.6915 71.9597 29.0827 72.8247C28.4732 73.6897 28.0669 74.2039 28.0303 74.1787C27.9918 74.1522 28.33 73.5919 28.889 72.696C29.4467 71.8001 30.2203 70.5648 31.0404 69.1805C31.8594 67.7963 32.5711 66.525 33.0884 65.6045C33.6058 64.684 33.9339 64.118 33.9755 64.1395Z" fill="#263238"/>
<path d="M31.0234 69.4555C31.1061 69.4461 31.2159 70.5243 30.8108 71.7742C30.4146 73.0272 29.6985 73.8411 29.6367 73.7849C29.5559 73.7288 30.1225 72.8669 30.4979 71.6739C30.8853 70.4852 30.925 69.4543 31.0234 69.4555Z" fill="#263238"/>
<path d="M80.1257 69.8726C80.0437 69.9105 77.4222 64.4253 74.2714 57.6214C71.1199 50.8156 68.6328 45.2692 68.7149 45.2307C68.7969 45.1929 71.4177 50.6768 74.5692 57.4832C77.7206 64.2871 80.2084 69.8348 80.1257 69.8726Z" fill="#263238"/>
<path d="M64.1574 41.5808C64.177 41.6332 63.5927 41.8395 62.7574 42.36C61.9252 42.8736 60.8564 43.7519 60.0362 45.0011C59.216 46.2509 58.8349 47.5809 58.6949 48.5487C58.5498 49.5216 58.5927 50.1399 58.5371 50.1431C58.5031 50.1481 58.3756 49.5292 58.4646 48.521C58.5485 47.5203 58.9069 46.1229 59.7618 44.8213C60.616 43.5197 61.7548 42.6351 62.64 42.16C63.5296 41.6761 64.1479 41.5474 64.1574 41.5808Z" fill="#263238"/>
<path d="M36.7984 77.0418C36.71 77.0614 35.2028 70.6405 33.4324 62.7022C31.6614 54.7608 30.298 48.3096 30.3869 48.2894C30.4753 48.2699 31.9825 54.6895 33.7535 62.6303C35.5233 70.5692 36.8867 77.0223 36.7984 77.0418Z" fill="#263238"/>
<path d="M93.8494 68.0764L99.9592 65.448H91.8203L93.5982 67.7521" fill="#AA6550"/>
<path d="M81.2961 68.7559C81.2217 68.8133 80.6147 68.1369 79.8141 67.3628C79.0166 66.5849 78.3226 65.9981 78.3781 65.9218C78.428 65.8498 79.2255 66.33 80.0431 67.1268C80.8633 67.9212 81.3668 68.7041 81.2961 68.7559Z" fill="#263238"/>
<path d="M70.0313 76.869C70.0111 76.8797 69.8294 76.5769 69.5171 76.0197C69.2035 75.4633 68.7669 74.6494 68.2369 73.6386C67.1757 71.6172 65.7656 68.7969 64.2224 65.677C62.6779 62.5565 61.2627 59.7413 60.2141 57.7167C59.71 56.7438 59.2917 55.9369 58.9718 55.3186C58.6797 54.7514 58.527 54.4321 58.5466 54.4214C58.5662 54.41 58.7567 54.7078 59.0835 55.2567C59.4122 55.8044 59.8684 56.6075 60.4192 57.6076C61.522 59.6069 62.9719 62.4095 64.517 65.5313C66.0382 68.6304 67.4142 71.4348 68.4445 73.5339C68.9259 74.5188 69.3253 75.3352 69.6313 75.9611C69.9076 76.5358 70.0515 76.8589 70.0313 76.869Z" fill="#263238"/>
<path d="M57.947 68.2992C57.9584 68.3011 57.9546 68.3761 57.9376 68.5194C57.9142 68.6607 57.9035 68.8765 57.8322 69.1408C57.7218 69.6777 57.4682 70.4399 56.9975 71.3055C56.0776 73.0424 54.0852 75.0797 51.3407 76.3264C48.5955 77.5643 45.8775 77.9409 43.9538 78.1706C42.9854 78.2797 42.2005 78.3428 41.6573 78.3794C41.114 78.4154 40.8131 78.4236 40.8106 78.4009C40.808 78.3781 41.1052 78.327 41.644 78.252C42.2465 78.1693 43.0106 78.0652 43.9235 77.9403C45.834 77.6538 48.5154 77.2412 51.2037 76.028C53.8852 74.809 55.8467 72.8551 56.7956 71.1907C57.7748 69.5213 57.8688 68.2752 57.947 68.2992Z" fill="#263238"/>
<path d="M51.2099 84.5535C51.2162 84.6444 47.0591 85.0091 41.9265 85.3693C36.7914 85.7296 32.6255 85.9479 32.6191 85.857C32.6128 85.7668 36.7687 85.4015 41.9038 85.0412C47.0363 84.6816 51.2036 84.4633 51.2099 84.5535Z" fill="#263238"/>
<path d="M56.5744 82.0614C56.6583 82.04 57.064 83.433 57.2482 85.2072C57.4381 86.9813 57.3309 88.428 57.2444 88.4249C57.1492 88.4236 57.1088 86.9921 56.9214 85.2419C56.7397 83.4911 56.481 82.0829 56.5744 82.0614Z" fill="#263238"/>
<path d="M58.7267 80.0557C58.7671 80.0487 58.899 80.5289 59.0062 81.3251C59.1135 82.1207 59.1779 83.2349 59.0933 84.4601C59.0062 85.686 58.7873 86.7807 58.5703 87.5536C58.3532 88.3271 58.1558 88.7845 58.1166 88.7719C58.0176 88.7435 58.6056 86.852 58.7652 84.4374C58.9431 82.0254 58.6245 80.0702 58.7267 80.0557Z" fill="#263238"/>
<path d="M57.3367 37.8817C57.3316 37.9726 54.3297 37.8773 50.6332 37.6697C46.9353 37.4622 43.9422 37.2199 43.9473 37.1291C43.9523 37.0388 46.9536 37.1335 50.6514 37.3417C54.348 37.5486 57.3417 37.7909 57.3367 37.8817Z" fill="#263238"/>
<path d="M0 228H127.752" stroke="#5B5B5B"/>
</svg>
